G04 #@! TF.GenerationSoftware,KiCad,Pcbnew,(5.1.0-0)*
G04 #@! TF.CreationDate,2019-04-19T23:51:09-04:00*
G04 #@! TF.ProjectId,thingb-eval-hw,7468696e-6762-42d6-9576-616c2d68772e,rev?*
G04 #@! TF.SameCoordinates,Original*
G04 #@! TF.FileFunction,Legend,Top*
G04 #@! TF.FilePolarity,Positive*
%FSLAX46Y46*%
G04 Gerber Fmt 4.6, Leading zero omitted, Abs format (unit mm)*
G04 Created by KiCad (PCBNEW (5.1.0-0)) date 2019-04-19 23:51:09*
%MOMM*%
%LPD*%
G04 APERTURE LIST*
%ADD10C,0.120000*%
%ADD11C,0.150000*%
G04 APERTURE END LIST*
D10*
X121000000Y-86250000D02*
X117000000Y-86250000D01*
X121000000Y-103500000D02*
X121000000Y-86250000D01*
X117000000Y-103500000D02*
X121000000Y-103500000D01*
X117000000Y-86250000D02*
X117000000Y-103500000D01*
D11*
X120452380Y-102914404D02*
X119785714Y-102914404D01*
X119976190Y-102914404D02*
X119880952Y-102866785D01*
X119833333Y-102819166D01*
X119785714Y-102723928D01*
X119785714Y-102628690D01*
X120404761Y-101914404D02*
X120452380Y-102009642D01*
X120452380Y-102200119D01*
X120404761Y-102295357D01*
X120309523Y-102342976D01*
X119928571Y-102342976D01*
X119833333Y-102295357D01*
X119785714Y-102200119D01*
X119785714Y-102009642D01*
X119833333Y-101914404D01*
X119928571Y-101866785D01*
X120023809Y-101866785D01*
X120119047Y-102342976D01*
X119785714Y-101533452D02*
X120452380Y-101295357D01*
X119785714Y-101057261D01*
X120166666Y-99962023D02*
X120166666Y-99485833D01*
X120452380Y-100057261D02*
X119452380Y-99723928D01*
X120452380Y-99390595D01*
X120071428Y-98295357D02*
X120071428Y-97533452D01*
X119547619Y-96342976D02*
X119500000Y-96295357D01*
X119452380Y-96200119D01*
X119452380Y-95962023D01*
X119500000Y-95866785D01*
X119547619Y-95819166D01*
X119642857Y-95771547D01*
X119738095Y-95771547D01*
X119880952Y-95819166D01*
X120452380Y-96390595D01*
X120452380Y-95771547D01*
X119452380Y-95152500D02*
X119452380Y-95057261D01*
X119500000Y-94962023D01*
X119547619Y-94914404D01*
X119642857Y-94866785D01*
X119833333Y-94819166D01*
X120071428Y-94819166D01*
X120261904Y-94866785D01*
X120357142Y-94914404D01*
X120404761Y-94962023D01*
X120452380Y-95057261D01*
X120452380Y-95152500D01*
X120404761Y-95247738D01*
X120357142Y-95295357D01*
X120261904Y-95342976D01*
X120071428Y-95390595D01*
X119833333Y-95390595D01*
X119642857Y-95342976D01*
X119547619Y-95295357D01*
X119500000Y-95247738D01*
X119452380Y-95152500D01*
X120452380Y-93866785D02*
X120452380Y-94438214D01*
X120452380Y-94152500D02*
X119452380Y-94152500D01*
X119595238Y-94247738D01*
X119690476Y-94342976D01*
X119738095Y-94438214D01*
X120452380Y-93390595D02*
X120452380Y-93200119D01*
X120404761Y-93104880D01*
X120357142Y-93057261D01*
X120214285Y-92962023D01*
X120023809Y-92914404D01*
X119642857Y-92914404D01*
X119547619Y-92962023D01*
X119500000Y-93009642D01*
X119452380Y-93104880D01*
X119452380Y-93295357D01*
X119500000Y-93390595D01*
X119547619Y-93438214D01*
X119642857Y-93485833D01*
X119880952Y-93485833D01*
X119976190Y-93438214D01*
X120023809Y-93390595D01*
X120071428Y-93295357D01*
X120071428Y-93104880D01*
X120023809Y-93009642D01*
X119976190Y-92962023D01*
X119880952Y-92914404D01*
X120071428Y-92485833D02*
X120071428Y-91723928D01*
X119452380Y-91057261D02*
X119452380Y-90962023D01*
X119500000Y-90866785D01*
X119547619Y-90819166D01*
X119642857Y-90771547D01*
X119833333Y-90723928D01*
X120071428Y-90723928D01*
X120261904Y-90771547D01*
X120357142Y-90819166D01*
X120404761Y-90866785D01*
X120452380Y-90962023D01*
X120452380Y-91057261D01*
X120404761Y-91152500D01*
X120357142Y-91200119D01*
X120261904Y-91247738D01*
X120071428Y-91295357D01*
X119833333Y-91295357D01*
X119642857Y-91247738D01*
X119547619Y-91200119D01*
X119500000Y-91152500D01*
X119452380Y-91057261D01*
X119785714Y-89866785D02*
X120452380Y-89866785D01*
X119404761Y-90104880D02*
X120119047Y-90342976D01*
X120119047Y-89723928D01*
X120071428Y-89342976D02*
X120071428Y-88581071D01*
X120452380Y-87581071D02*
X120452380Y-88152500D01*
X120452380Y-87866785D02*
X119452380Y-87866785D01*
X119595238Y-87962023D01*
X119690476Y-88057261D01*
X119738095Y-88152500D01*
X120452380Y-87104880D02*
X120452380Y-86914404D01*
X120404761Y-86819166D01*
X120357142Y-86771547D01*
X120214285Y-86676309D01*
X120023809Y-86628690D01*
X119642857Y-86628690D01*
X119547619Y-86676309D01*
X119500000Y-86723928D01*
X119452380Y-86819166D01*
X119452380Y-87009642D01*
X119500000Y-87104880D01*
X119547619Y-87152500D01*
X119642857Y-87200119D01*
X119880952Y-87200119D01*
X119976190Y-87152500D01*
X120023809Y-87104880D01*
X120071428Y-87009642D01*
X120071428Y-86819166D01*
X120023809Y-86723928D01*
X119976190Y-86676309D01*
X119880952Y-86628690D01*
X117785714Y-103057261D02*
X117785714Y-102676309D01*
X117452380Y-102914404D02*
X118309523Y-102914404D01*
X118404761Y-102866785D01*
X118452380Y-102771547D01*
X118452380Y-102676309D01*
X118452380Y-102342976D02*
X117452380Y-102342976D01*
X118452380Y-101914404D02*
X117928571Y-101914404D01*
X117833333Y-101962023D01*
X117785714Y-102057261D01*
X117785714Y-102200119D01*
X117833333Y-102295357D01*
X117880952Y-102342976D01*
X118452380Y-101438214D02*
X117785714Y-101438214D01*
X117452380Y-101438214D02*
X117500000Y-101485833D01*
X117547619Y-101438214D01*
X117500000Y-101390595D01*
X117452380Y-101438214D01*
X117547619Y-101438214D01*
X117785714Y-100962023D02*
X118452380Y-100962023D01*
X117880952Y-100962023D02*
X117833333Y-100914404D01*
X117785714Y-100819166D01*
X117785714Y-100676309D01*
X117833333Y-100581071D01*
X117928571Y-100533452D01*
X118452380Y-100533452D01*
X117785714Y-99628690D02*
X118595238Y-99628690D01*
X118690476Y-99676309D01*
X118738095Y-99723928D01*
X118785714Y-99819166D01*
X118785714Y-99962023D01*
X118738095Y-100057261D01*
X118404761Y-99628690D02*
X118452380Y-99723928D01*
X118452380Y-99914404D01*
X118404761Y-100009642D01*
X118357142Y-100057261D01*
X118261904Y-100104880D01*
X117976190Y-100104880D01*
X117880952Y-100057261D01*
X117833333Y-100009642D01*
X117785714Y-99914404D01*
X117785714Y-99723928D01*
X117833333Y-99628690D01*
X118452380Y-99152500D02*
X117452380Y-99152500D01*
X117833333Y-99152500D02*
X117785714Y-99057261D01*
X117785714Y-98866785D01*
X117833333Y-98771547D01*
X117880952Y-98723928D01*
X117976190Y-98676309D01*
X118261904Y-98676309D01*
X118357142Y-98723928D01*
X118404761Y-98771547D01*
X118452380Y-98866785D01*
X118452380Y-99057261D01*
X118404761Y-99152500D01*
X118071428Y-98247738D02*
X118071428Y-97485833D01*
X118404761Y-96628690D02*
X118452380Y-96723928D01*
X118452380Y-96914404D01*
X118404761Y-97009642D01*
X118309523Y-97057261D01*
X117928571Y-97057261D01*
X117833333Y-97009642D01*
X117785714Y-96914404D01*
X117785714Y-96723928D01*
X117833333Y-96628690D01*
X117928571Y-96581071D01*
X118023809Y-96581071D01*
X118119047Y-97057261D01*
X117785714Y-96247738D02*
X118452380Y-96009642D01*
X117785714Y-95771547D01*
X118452380Y-94962023D02*
X117928571Y-94962023D01*
X117833333Y-95009642D01*
X117785714Y-95104880D01*
X117785714Y-95295357D01*
X117833333Y-95390595D01*
X118404761Y-94962023D02*
X118452380Y-95057261D01*
X118452380Y-95295357D01*
X118404761Y-95390595D01*
X118309523Y-95438214D01*
X118214285Y-95438214D01*
X118119047Y-95390595D01*
X118071428Y-95295357D01*
X118071428Y-95057261D01*
X118023809Y-94962023D01*
X118452380Y-94342976D02*
X118404761Y-94438214D01*
X118309523Y-94485833D01*
X117452380Y-94485833D01*
X118071428Y-93962023D02*
X118071428Y-93200119D01*
X118452380Y-92723928D02*
X117452380Y-92723928D01*
X118452380Y-92295357D02*
X117928571Y-92295357D01*
X117833333Y-92342976D01*
X117785714Y-92438214D01*
X117785714Y-92581071D01*
X117833333Y-92676309D01*
X117880952Y-92723928D01*
X117785714Y-91914404D02*
X118452380Y-91723928D01*
X117976190Y-91533452D01*
X118452380Y-91342976D01*
X117785714Y-91152500D01*
X137664404Y-86572380D02*
X137664404Y-85572380D01*
X137902500Y-85572380D01*
X138045357Y-85620000D01*
X138140595Y-85715238D01*
X138188214Y-85810476D01*
X138235833Y-86000952D01*
X138235833Y-86143809D01*
X138188214Y-86334285D01*
X138140595Y-86429523D01*
X138045357Y-86524761D01*
X137902500Y-86572380D01*
X137664404Y-86572380D01*
X138997738Y-86048571D02*
X139140595Y-86096190D01*
X139188214Y-86143809D01*
X139235833Y-86239047D01*
X139235833Y-86381904D01*
X139188214Y-86477142D01*
X139140595Y-86524761D01*
X139045357Y-86572380D01*
X138664404Y-86572380D01*
X138664404Y-85572380D01*
X138997738Y-85572380D01*
X139092976Y-85620000D01*
X139140595Y-85667619D01*
X139188214Y-85762857D01*
X139188214Y-85858095D01*
X139140595Y-85953333D01*
X139092976Y-86000952D01*
X138997738Y-86048571D01*
X138664404Y-86048571D01*
X140188214Y-85620000D02*
X140092976Y-85572380D01*
X139950119Y-85572380D01*
X139807261Y-85620000D01*
X139712023Y-85715238D01*
X139664404Y-85810476D01*
X139616785Y-86000952D01*
X139616785Y-86143809D01*
X139664404Y-86334285D01*
X139712023Y-86429523D01*
X139807261Y-86524761D01*
X139950119Y-86572380D01*
X140045357Y-86572380D01*
X140188214Y-86524761D01*
X140235833Y-86477142D01*
X140235833Y-86143809D01*
X140045357Y-86143809D01*
X140426309Y-86667619D02*
X141188214Y-86667619D01*
X141283452Y-85572380D02*
X141854880Y-85572380D01*
X141569166Y-86572380D02*
X141569166Y-85572380D01*
X142092976Y-85572380D02*
X142759642Y-86572380D01*
X142759642Y-85572380D02*
X142092976Y-86572380D01*
X143140595Y-86572380D02*
X143140595Y-85572380D01*
X143378690Y-85572380D01*
X143521547Y-85620000D01*
X143616785Y-85715238D01*
X143664404Y-85810476D01*
X143712023Y-86000952D01*
X143712023Y-86143809D01*
X143664404Y-86334285D01*
X143616785Y-86429523D01*
X143521547Y-86524761D01*
X143378690Y-86572380D01*
X143140595Y-86572380D01*
X141616785Y-72200000D02*
X141521547Y-72152380D01*
X141378690Y-72152380D01*
X141235833Y-72200000D01*
X141140595Y-72295238D01*
X141092976Y-72390476D01*
X141045357Y-72580952D01*
X141045357Y-72723809D01*
X141092976Y-72914285D01*
X141140595Y-73009523D01*
X141235833Y-73104761D01*
X141378690Y-73152380D01*
X141473928Y-73152380D01*
X141616785Y-73104761D01*
X141664404Y-73057142D01*
X141664404Y-72723809D01*
X141473928Y-72723809D01*
X142092976Y-73152380D02*
X142092976Y-72152380D01*
X142664404Y-73152380D01*
X142664404Y-72152380D01*
X143140595Y-73152380D02*
X143140595Y-72152380D01*
X143378690Y-72152380D01*
X143521547Y-72200000D01*
X143616785Y-72295238D01*
X143664404Y-72390476D01*
X143712023Y-72580952D01*
X143712023Y-72723809D01*
X143664404Y-72914285D01*
X143616785Y-73009523D01*
X143521547Y-73104761D01*
X143378690Y-73152380D01*
X143140595Y-73152380D01*
X140188214Y-70612380D02*
X140188214Y-69612380D01*
X140521547Y-70326666D01*
X140854880Y-69612380D01*
X140854880Y-70612380D01*
X141188214Y-69612380D02*
X141759642Y-69612380D01*
X141473928Y-70612380D02*
X141473928Y-69612380D01*
X142092976Y-70612380D02*
X142092976Y-69612380D01*
X142331071Y-69612380D01*
X142473928Y-69660000D01*
X142569166Y-69755238D01*
X142616785Y-69850476D01*
X142664404Y-70040952D01*
X142664404Y-70183809D01*
X142616785Y-70374285D01*
X142569166Y-70469523D01*
X142473928Y-70564761D01*
X142331071Y-70612380D01*
X142092976Y-70612380D01*
X143283452Y-69612380D02*
X143473928Y-69612380D01*
X143569166Y-69660000D01*
X143664404Y-69755238D01*
X143712023Y-69945714D01*
X143712023Y-70279047D01*
X143664404Y-70469523D01*
X143569166Y-70564761D01*
X143473928Y-70612380D01*
X143283452Y-70612380D01*
X143188214Y-70564761D01*
X143092976Y-70469523D01*
X143045357Y-70279047D01*
X143045357Y-69945714D01*
X143092976Y-69755238D01*
X143188214Y-69660000D01*
X143283452Y-69612380D01*
X141616785Y-88160000D02*
X141521547Y-88112380D01*
X141378690Y-88112380D01*
X141235833Y-88160000D01*
X141140595Y-88255238D01*
X141092976Y-88350476D01*
X141045357Y-88540952D01*
X141045357Y-88683809D01*
X141092976Y-88874285D01*
X141140595Y-88969523D01*
X141235833Y-89064761D01*
X141378690Y-89112380D01*
X141473928Y-89112380D01*
X141616785Y-89064761D01*
X141664404Y-89017142D01*
X141664404Y-88683809D01*
X141473928Y-88683809D01*
X142092976Y-89112380D02*
X142092976Y-88112380D01*
X142664404Y-89112380D01*
X142664404Y-88112380D01*
X143140595Y-89112380D02*
X143140595Y-88112380D01*
X143378690Y-88112380D01*
X143521547Y-88160000D01*
X143616785Y-88255238D01*
X143664404Y-88350476D01*
X143712023Y-88540952D01*
X143712023Y-88683809D01*
X143664404Y-88874285D01*
X143616785Y-88969523D01*
X143521547Y-89064761D01*
X143378690Y-89112380D01*
X143140595Y-89112380D01*
X137664404Y-80492380D02*
X138235833Y-80492380D01*
X137950119Y-81492380D02*
X137950119Y-80492380D01*
X138473928Y-80492380D02*
X139140595Y-81492380D01*
X139140595Y-80492380D02*
X138473928Y-81492380D01*
X139521547Y-81492380D02*
X139521547Y-80492380D01*
X139759642Y-80492380D01*
X139902500Y-80540000D01*
X139997738Y-80635238D01*
X140045357Y-80730476D01*
X140092976Y-80920952D01*
X140092976Y-81063809D01*
X140045357Y-81254285D01*
X139997738Y-81349523D01*
X139902500Y-81444761D01*
X139759642Y-81492380D01*
X139521547Y-81492380D01*
X140283452Y-81587619D02*
X141045357Y-81587619D01*
X141235833Y-81206666D02*
X141712023Y-81206666D01*
X141140595Y-81492380D02*
X141473928Y-80492380D01*
X141807261Y-81492380D01*
X142140595Y-80492380D02*
X142140595Y-81301904D01*
X142188214Y-81397142D01*
X142235833Y-81444761D01*
X142331071Y-81492380D01*
X142521547Y-81492380D01*
X142616785Y-81444761D01*
X142664404Y-81397142D01*
X142712023Y-81301904D01*
X142712023Y-80492380D01*
X143092976Y-80492380D02*
X143759642Y-81492380D01*
X143759642Y-80492380D02*
X143092976Y-81492380D01*
X138140595Y-78952380D02*
X137807261Y-78476190D01*
X137569166Y-78952380D02*
X137569166Y-77952380D01*
X137950119Y-77952380D01*
X138045357Y-78000000D01*
X138092976Y-78047619D01*
X138140595Y-78142857D01*
X138140595Y-78285714D01*
X138092976Y-78380952D01*
X138045357Y-78428571D01*
X137950119Y-78476190D01*
X137569166Y-78476190D01*
X138473928Y-77952380D02*
X139140595Y-78952380D01*
X139140595Y-77952380D02*
X138473928Y-78952380D01*
X139521547Y-78952380D02*
X139521547Y-77952380D01*
X139759642Y-77952380D01*
X139902500Y-78000000D01*
X139997738Y-78095238D01*
X140045357Y-78190476D01*
X140092976Y-78380952D01*
X140092976Y-78523809D01*
X140045357Y-78714285D01*
X139997738Y-78809523D01*
X139902500Y-78904761D01*
X139759642Y-78952380D01*
X139521547Y-78952380D01*
X140283452Y-79047619D02*
X141045357Y-79047619D01*
X141235833Y-78666666D02*
X141712023Y-78666666D01*
X141140595Y-78952380D02*
X141473928Y-77952380D01*
X141807261Y-78952380D01*
X142140595Y-77952380D02*
X142140595Y-78761904D01*
X142188214Y-78857142D01*
X142235833Y-78904761D01*
X142331071Y-78952380D01*
X142521547Y-78952380D01*
X142616785Y-78904761D01*
X142664404Y-78857142D01*
X142712023Y-78761904D01*
X142712023Y-77952380D01*
X143092976Y-77952380D02*
X143759642Y-78952380D01*
X143759642Y-77952380D02*
X143092976Y-78952380D01*
X137426309Y-84032380D02*
X137426309Y-83032380D01*
X137664404Y-83032380D01*
X137807261Y-83080000D01*
X137902500Y-83175238D01*
X137950119Y-83270476D01*
X137997738Y-83460952D01*
X137997738Y-83603809D01*
X137950119Y-83794285D01*
X137902500Y-83889523D01*
X137807261Y-83984761D01*
X137664404Y-84032380D01*
X137426309Y-84032380D01*
X138759642Y-83508571D02*
X138902500Y-83556190D01*
X138950119Y-83603809D01*
X138997738Y-83699047D01*
X138997738Y-83841904D01*
X138950119Y-83937142D01*
X138902500Y-83984761D01*
X138807261Y-84032380D01*
X138426309Y-84032380D01*
X138426309Y-83032380D01*
X138759642Y-83032380D01*
X138854880Y-83080000D01*
X138902500Y-83127619D01*
X138950119Y-83222857D01*
X138950119Y-83318095D01*
X138902500Y-83413333D01*
X138854880Y-83460952D01*
X138759642Y-83508571D01*
X138426309Y-83508571D01*
X139950119Y-83080000D02*
X139854880Y-83032380D01*
X139712023Y-83032380D01*
X139569166Y-83080000D01*
X139473928Y-83175238D01*
X139426309Y-83270476D01*
X139378690Y-83460952D01*
X139378690Y-83603809D01*
X139426309Y-83794285D01*
X139473928Y-83889523D01*
X139569166Y-83984761D01*
X139712023Y-84032380D01*
X139807261Y-84032380D01*
X139950119Y-83984761D01*
X139997738Y-83937142D01*
X139997738Y-83603809D01*
X139807261Y-83603809D01*
X140188214Y-84127619D02*
X140950119Y-84127619D01*
X141759642Y-84032380D02*
X141426309Y-83556190D01*
X141188214Y-84032380D02*
X141188214Y-83032380D01*
X141569166Y-83032380D01*
X141664404Y-83080000D01*
X141712023Y-83127619D01*
X141759642Y-83222857D01*
X141759642Y-83365714D01*
X141712023Y-83460952D01*
X141664404Y-83508571D01*
X141569166Y-83556190D01*
X141188214Y-83556190D01*
X142092976Y-83032380D02*
X142759642Y-84032380D01*
X142759642Y-83032380D02*
X142092976Y-84032380D01*
X143140595Y-84032380D02*
X143140595Y-83032380D01*
X143378690Y-83032380D01*
X143521547Y-83080000D01*
X143616785Y-83175238D01*
X143664404Y-83270476D01*
X143712023Y-83460952D01*
X143712023Y-83603809D01*
X143664404Y-83794285D01*
X143616785Y-83889523D01*
X143521547Y-83984761D01*
X143378690Y-84032380D01*
X143140595Y-84032380D01*
X140140595Y-68072380D02*
X140140595Y-67072380D01*
X140473928Y-67786666D01*
X140807261Y-67072380D01*
X140807261Y-68072380D01*
X141140595Y-67072380D02*
X141712023Y-67072380D01*
X141426309Y-68072380D02*
X141426309Y-67072380D01*
X142045357Y-68072380D02*
X142045357Y-67072380D01*
X142378690Y-67786666D01*
X142712023Y-67072380D01*
X142712023Y-68072380D01*
X143140595Y-68024761D02*
X143283452Y-68072380D01*
X143521547Y-68072380D01*
X143616785Y-68024761D01*
X143664404Y-67977142D01*
X143712023Y-67881904D01*
X143712023Y-67786666D01*
X143664404Y-67691428D01*
X143616785Y-67643809D01*
X143521547Y-67596190D01*
X143331071Y-67548571D01*
X143235833Y-67500952D01*
X143188214Y-67453333D01*
X143140595Y-67358095D01*
X143140595Y-67262857D01*
X143188214Y-67167619D01*
X143235833Y-67120000D01*
X143331071Y-67072380D01*
X143569166Y-67072380D01*
X143712023Y-67120000D01*
X140235833Y-65532380D02*
X140235833Y-64532380D01*
X140569166Y-65246666D01*
X140902500Y-64532380D01*
X140902500Y-65532380D01*
X141235833Y-64532380D02*
X141807261Y-64532380D01*
X141521547Y-65532380D02*
X141521547Y-64532380D01*
X142712023Y-65437142D02*
X142664404Y-65484761D01*
X142521547Y-65532380D01*
X142426309Y-65532380D01*
X142283452Y-65484761D01*
X142188214Y-65389523D01*
X142140595Y-65294285D01*
X142092976Y-65103809D01*
X142092976Y-64960952D01*
X142140595Y-64770476D01*
X142188214Y-64675238D01*
X142283452Y-64580000D01*
X142426309Y-64532380D01*
X142521547Y-64532380D01*
X142664404Y-64580000D01*
X142712023Y-64627619D01*
X143140595Y-65532380D02*
X143140595Y-64532380D01*
X143712023Y-65532380D02*
X143283452Y-64960952D01*
X143712023Y-64532380D02*
X143140595Y-65103809D01*
X140759642Y-62992380D02*
X140759642Y-61992380D01*
X141092976Y-62706666D01*
X141426309Y-61992380D01*
X141426309Y-62992380D01*
X141759642Y-61992380D02*
X142331071Y-61992380D01*
X142045357Y-62992380D02*
X142045357Y-61992380D01*
X142664404Y-62992380D02*
X142664404Y-61992380D01*
X142902500Y-61992380D01*
X143045357Y-62040000D01*
X143140595Y-62135238D01*
X143188214Y-62230476D01*
X143235833Y-62420952D01*
X143235833Y-62563809D01*
X143188214Y-62754285D01*
X143140595Y-62849523D01*
X143045357Y-62944761D01*
X142902500Y-62992380D01*
X142664404Y-62992380D01*
X143664404Y-62992380D02*
X143664404Y-61992380D01*
X139664404Y-60071428D02*
X140426309Y-60071428D01*
X140045357Y-60452380D02*
X140045357Y-59690476D01*
X140854880Y-59547619D02*
X140902500Y-59500000D01*
X140997738Y-59452380D01*
X141235833Y-59452380D01*
X141331071Y-59500000D01*
X141378690Y-59547619D01*
X141426309Y-59642857D01*
X141426309Y-59738095D01*
X141378690Y-59880952D01*
X140807261Y-60452380D01*
X141426309Y-60452380D01*
X141854880Y-60357142D02*
X141902500Y-60404761D01*
X141854880Y-60452380D01*
X141807261Y-60404761D01*
X141854880Y-60357142D01*
X141854880Y-60452380D01*
X142473928Y-59880952D02*
X142378690Y-59833333D01*
X142331071Y-59785714D01*
X142283452Y-59690476D01*
X142283452Y-59642857D01*
X142331071Y-59547619D01*
X142378690Y-59500000D01*
X142473928Y-59452380D01*
X142664404Y-59452380D01*
X142759642Y-59500000D01*
X142807261Y-59547619D01*
X142854880Y-59642857D01*
X142854880Y-59690476D01*
X142807261Y-59785714D01*
X142759642Y-59833333D01*
X142664404Y-59880952D01*
X142473928Y-59880952D01*
X142378690Y-59928571D01*
X142331071Y-59976190D01*
X142283452Y-60071428D01*
X142283452Y-60261904D01*
X142331071Y-60357142D01*
X142378690Y-60404761D01*
X142473928Y-60452380D01*
X142664404Y-60452380D01*
X142759642Y-60404761D01*
X142807261Y-60357142D01*
X142854880Y-60261904D01*
X142854880Y-60071428D01*
X142807261Y-59976190D01*
X142759642Y-59928571D01*
X142664404Y-59880952D01*
X143140595Y-59452380D02*
X143473928Y-60452380D01*
X143807261Y-59452380D01*
X138000000Y-148452380D02*
X138000000Y-147452380D01*
X138666666Y-147452380D02*
X138857142Y-147452380D01*
X138952380Y-147500000D01*
X139047619Y-147595238D01*
X139095238Y-147785714D01*
X139095238Y-148119047D01*
X139047619Y-148309523D01*
X138952380Y-148404761D01*
X138857142Y-148452380D01*
X138666666Y-148452380D01*
X138571428Y-148404761D01*
X138476190Y-148309523D01*
X138428571Y-148119047D01*
X138428571Y-147785714D01*
X138476190Y-147595238D01*
X138571428Y-147500000D01*
X138666666Y-147452380D01*
X139714285Y-147452380D02*
X139809523Y-147452380D01*
X139904761Y-147500000D01*
X139952380Y-147547619D01*
X140000000Y-147642857D01*
X140047619Y-147833333D01*
X140047619Y-148071428D01*
X140000000Y-148261904D01*
X139952380Y-148357142D01*
X139904761Y-148404761D01*
X139809523Y-148452380D01*
X139714285Y-148452380D01*
X139619047Y-148404761D01*
X139571428Y-148357142D01*
X139523809Y-148261904D01*
X139476190Y-148071428D01*
X139476190Y-147833333D01*
X139523809Y-147642857D01*
X139571428Y-147547619D01*
X139619047Y-147500000D01*
X139714285Y-147452380D01*
X129761904Y-148452380D02*
X129428571Y-147976190D01*
X129190476Y-148452380D02*
X129190476Y-147452380D01*
X129571428Y-147452380D01*
X129666666Y-147500000D01*
X129714285Y-147547619D01*
X129761904Y-147642857D01*
X129761904Y-147785714D01*
X129714285Y-147880952D01*
X129666666Y-147928571D01*
X129571428Y-147976190D01*
X129190476Y-147976190D01*
X130571428Y-148404761D02*
X130476190Y-148452380D01*
X130285714Y-148452380D01*
X130190476Y-148404761D01*
X130142857Y-148309523D01*
X130142857Y-147928571D01*
X130190476Y-147833333D01*
X130285714Y-147785714D01*
X130476190Y-147785714D01*
X130571428Y-147833333D01*
X130619047Y-147928571D01*
X130619047Y-148023809D01*
X130142857Y-148119047D01*
X131000000Y-148404761D02*
X131095238Y-148452380D01*
X131285714Y-148452380D01*
X131380952Y-148404761D01*
X131428571Y-148309523D01*
X131428571Y-148261904D01*
X131380952Y-148166666D01*
X131285714Y-148119047D01*
X131142857Y-148119047D01*
X131047619Y-148071428D01*
X131000000Y-147976190D01*
X131000000Y-147928571D01*
X131047619Y-147833333D01*
X131142857Y-147785714D01*
X131285714Y-147785714D01*
X131380952Y-147833333D01*
X132238095Y-148404761D02*
X132142857Y-148452380D01*
X131952380Y-148452380D01*
X131857142Y-148404761D01*
X131809523Y-148309523D01*
X131809523Y-147928571D01*
X131857142Y-147833333D01*
X131952380Y-147785714D01*
X132142857Y-147785714D01*
X132238095Y-147833333D01*
X132285714Y-147928571D01*
X132285714Y-148023809D01*
X131809523Y-148119047D01*
X132571428Y-147785714D02*
X132952380Y-147785714D01*
X132714285Y-147452380D02*
X132714285Y-148309523D01*
X132761904Y-148404761D01*
X132857142Y-148452380D01*
X132952380Y-148452380D01*
X100250000Y-50750000D02*
X100250000Y-55250000D01*
X89000000Y-50750000D02*
X100250000Y-50750000D01*
X89000000Y-79250000D02*
X89000000Y-50750000D01*
X100250000Y-79250000D02*
X89000000Y-79250000D01*
X100250000Y-74750000D02*
X100250000Y-79250000D01*
D10*
X100555000Y-74120000D02*
X100555000Y-74500000D01*
X94135000Y-74120000D02*
X100555000Y-74120000D01*
X94135000Y-55880000D02*
X100555000Y-55880000D01*
X94135000Y-74120000D02*
X94135000Y-55880000D01*
X125080000Y-55880000D02*
X125080000Y-56880000D01*
X124300000Y-55880000D02*
X125080000Y-55880000D01*
X125080000Y-74120000D02*
X125080000Y-73120000D01*
X124300000Y-74120000D02*
X125080000Y-74120000D01*
D11*
X95130000Y-149480000D02*
X104870000Y-149480000D01*
X104870000Y-143200000D02*
X104870000Y-151280000D01*
X95130000Y-143200000D02*
X104870000Y-143200000D01*
X95130000Y-143200000D02*
X95130000Y-151280000D01*
X95130000Y-151280000D02*
X104870000Y-151280000D01*
D10*
X145525000Y-96100000D02*
X145025000Y-96100000D01*
X145525000Y-94700000D02*
X145025000Y-94700000D01*
X145525000Y-94700000D02*
X145525000Y-94100000D01*
X145525000Y-94100000D02*
X145725000Y-93900000D01*
X145725000Y-96900000D02*
X145525000Y-96900000D01*
X145525000Y-96900000D02*
X145525000Y-96100000D01*
X148525000Y-96100000D02*
X148525000Y-96900000D01*
X148525000Y-96900000D02*
X148325000Y-96900000D01*
X148325000Y-93900000D02*
X148525000Y-93900000D01*
X148525000Y-93900000D02*
X148525000Y-94700000D01*
X112670000Y-136270000D02*
X115330000Y-136270000D01*
X112670000Y-133670000D02*
X112670000Y-136270000D01*
X115330000Y-133670000D02*
X115330000Y-136270000D01*
X112670000Y-133670000D02*
X115330000Y-133670000D01*
X112670000Y-132400000D02*
X112670000Y-131070000D01*
X112670000Y-131070000D02*
X114000000Y-131070000D01*
X102671267Y-75490000D02*
X102328733Y-75490000D01*
X102671267Y-76510000D02*
X102328733Y-76510000D01*
X102671267Y-78510000D02*
X102328733Y-78510000D01*
X102671267Y-77490000D02*
X102328733Y-77490000D01*
X107010000Y-120071267D02*
X107010000Y-119728733D01*
X105990000Y-120071267D02*
X105990000Y-119728733D01*
X114578733Y-128010000D02*
X114921267Y-128010000D01*
X114578733Y-126990000D02*
X114921267Y-126990000D01*
X136990000Y-59671267D02*
X136990000Y-59328733D01*
X138010000Y-59671267D02*
X138010000Y-59328733D01*
X114578733Y-120990000D02*
X114921267Y-120990000D01*
X114578733Y-122010000D02*
X114921267Y-122010000D01*
X137828733Y-71510000D02*
X138171267Y-71510000D01*
X137828733Y-70490000D02*
X138171267Y-70490000D01*
X83328733Y-111990000D02*
X83671267Y-111990000D01*
X83328733Y-113010000D02*
X83671267Y-113010000D01*
X148010000Y-114671267D02*
X148010000Y-114328733D01*
X146990000Y-114671267D02*
X146990000Y-114328733D01*
X146010000Y-114671267D02*
X146010000Y-114328733D01*
X144990000Y-114671267D02*
X144990000Y-114328733D01*
X144010000Y-114671267D02*
X144010000Y-114328733D01*
X142990000Y-114671267D02*
X142990000Y-114328733D01*
X118490000Y-123171267D02*
X118490000Y-122828733D01*
X119510000Y-123171267D02*
X119510000Y-122828733D01*
X113171267Y-140510000D02*
X112828733Y-140510000D01*
X113171267Y-139490000D02*
X112828733Y-139490000D01*
X103671267Y-142010000D02*
X103328733Y-142010000D01*
X103671267Y-140990000D02*
X103328733Y-140990000D01*
X144010000Y-106671267D02*
X144010000Y-106328733D01*
X142990000Y-106671267D02*
X142990000Y-106328733D01*
X131750000Y-87990000D02*
X127365000Y-87990000D01*
X127365000Y-87990000D02*
X127365000Y-91010000D01*
X127365000Y-91010000D02*
X131750000Y-91010000D01*
X129828733Y-85990000D02*
X130171267Y-85990000D01*
X129828733Y-87010000D02*
X130171267Y-87010000D01*
X129828733Y-85010000D02*
X130171267Y-85010000D01*
X129828733Y-83990000D02*
X130171267Y-83990000D01*
X129828733Y-81990000D02*
X130171267Y-81990000D01*
X129828733Y-83010000D02*
X130171267Y-83010000D01*
X113010000Y-107078733D02*
X113010000Y-107421267D01*
X111990000Y-107078733D02*
X111990000Y-107421267D01*
X115010000Y-110671267D02*
X115010000Y-110328733D01*
X113990000Y-110671267D02*
X113990000Y-110328733D01*
X126760000Y-113921267D02*
X126760000Y-113578733D01*
X125740000Y-113921267D02*
X125740000Y-113578733D01*
X115010000Y-105328733D02*
X115010000Y-105671267D01*
X113990000Y-105328733D02*
X113990000Y-105671267D01*
X124760000Y-113578733D02*
X124760000Y-113921267D01*
X123740000Y-113578733D02*
X123740000Y-113921267D01*
D11*
X110160000Y-110000000D02*
X110160000Y-81310000D01*
X107160000Y-81310000D02*
X110160000Y-81310000D01*
X107160000Y-86310000D02*
X107160000Y-81310000D01*
X107160000Y-86310000D02*
X97120000Y-86310000D01*
X93120000Y-110000000D02*
X93120000Y-82310000D01*
X94120000Y-81310000D02*
X97120000Y-81310000D01*
X97120000Y-81310000D02*
X97120000Y-86310000D01*
X94120000Y-81310000D02*
X93120000Y-82310000D01*
X93120000Y-110000000D02*
X110160000Y-110000000D01*
D10*
X55420000Y-108760000D02*
X56350000Y-108760000D01*
X58580000Y-108760000D02*
X57650000Y-108760000D01*
X58580000Y-108760000D02*
X58580000Y-105600000D01*
X55420000Y-108760000D02*
X55420000Y-107300000D01*
D11*
X123325000Y-136625000D02*
X123325000Y-136525000D01*
X118675000Y-136625000D02*
X118675000Y-136425000D01*
X118675000Y-133375000D02*
X118675000Y-133575000D01*
X123325000Y-133375000D02*
X123325000Y-133575000D01*
X123325000Y-136625000D02*
X118675000Y-136625000D01*
X123325000Y-133375000D02*
X118675000Y-133375000D01*
X123325000Y-136525000D02*
X124675000Y-136525000D01*
D10*
X121010000Y-114828733D02*
X121010000Y-115171267D01*
X119990000Y-114828733D02*
X119990000Y-115171267D01*
X107828733Y-144510000D02*
X108171267Y-144510000D01*
X107828733Y-143490000D02*
X108171267Y-143490000D01*
X96171267Y-140510000D02*
X95828733Y-140510000D01*
X96171267Y-139490000D02*
X95828733Y-139490000D01*
X131490000Y-59328733D02*
X131490000Y-59671267D01*
X132510000Y-59328733D02*
X132510000Y-59671267D01*
X135490000Y-59328733D02*
X135490000Y-59671267D01*
X136510000Y-59328733D02*
X136510000Y-59671267D01*
X136171267Y-75010000D02*
X135828733Y-75010000D01*
X136171267Y-73990000D02*
X135828733Y-73990000D01*
X132171267Y-73510000D02*
X131828733Y-73510000D01*
X132171267Y-72490000D02*
X131828733Y-72490000D01*
X130671267Y-71510000D02*
X130328733Y-71510000D01*
X130671267Y-70490000D02*
X130328733Y-70490000D01*
X54671267Y-97990000D02*
X54328733Y-97990000D01*
X54671267Y-99010000D02*
X54328733Y-99010000D01*
X129610000Y-125071267D02*
X129610000Y-124728733D01*
X128590000Y-125071267D02*
X128590000Y-124728733D01*
X57490000Y-103171267D02*
X57490000Y-102828733D01*
X58510000Y-103171267D02*
X58510000Y-102828733D01*
X121510000Y-131171267D02*
X121510000Y-130828733D01*
X120490000Y-131171267D02*
X120490000Y-130828733D01*
X120490000Y-123171267D02*
X120490000Y-122828733D01*
X121510000Y-123171267D02*
X121510000Y-122828733D01*
X114828733Y-145490000D02*
X115171267Y-145490000D01*
X114828733Y-146510000D02*
X115171267Y-146510000D01*
X120510000Y-142828733D02*
X120510000Y-143171267D01*
X119490000Y-142828733D02*
X119490000Y-143171267D01*
X121328733Y-107490000D02*
X121671267Y-107490000D01*
X121328733Y-108510000D02*
X121671267Y-108510000D01*
X121328733Y-110010000D02*
X121671267Y-110010000D01*
X121328733Y-108990000D02*
X121671267Y-108990000D01*
X121328733Y-107010000D02*
X121671267Y-107010000D01*
X121328733Y-105990000D02*
X121671267Y-105990000D01*
D11*
X90200000Y-130000000D02*
G75*
G03X90200000Y-130000000I-17200000J0D01*
G01*
X102875000Y-127950000D02*
X102875000Y-127700000D01*
X95125000Y-127950000D02*
X95125000Y-127605000D01*
X95125000Y-116050000D02*
X95125000Y-116395000D01*
X102875000Y-116050000D02*
X102875000Y-116395000D01*
X102875000Y-127950000D02*
X95125000Y-127950000D01*
X102875000Y-116050000D02*
X95125000Y-116050000D01*
X102875000Y-127700000D02*
X104700000Y-127700000D01*
D10*
X113140000Y-123600000D02*
X113140000Y-126050000D01*
X116360000Y-125400000D02*
X116360000Y-123600000D01*
D11*
X130550000Y-63775000D02*
X130550000Y-68225000D01*
X137450000Y-62250000D02*
X137450000Y-68225000D01*
X57700000Y-85875001D02*
X88300000Y-85875001D01*
X57700000Y-51075001D02*
X88300000Y-51075001D01*
X57700000Y-51075001D02*
X57700000Y-85875001D01*
X88300000Y-51075001D02*
X88300000Y-85875001D01*
X60250000Y-80160001D02*
X85750000Y-80160001D01*
X60250000Y-53660001D02*
X85750000Y-53660001D01*
X85750000Y-53660001D02*
X85750000Y-80160001D01*
X60250000Y-53660001D02*
X60250000Y-80160001D01*
X65500000Y-85875001D02*
X65500000Y-88175001D01*
X80500000Y-85875001D02*
X80500000Y-88175001D01*
X61210000Y-100375001D02*
X66250000Y-100375001D01*
X61210000Y-88175001D02*
X65500000Y-88175001D01*
X61210000Y-88175001D02*
X61210000Y-100375001D01*
X84790000Y-88175001D02*
X84790000Y-100375001D01*
X80500000Y-88175001D02*
X84790000Y-88175001D01*
X66250000Y-100375001D02*
X66250000Y-108875001D01*
X79750000Y-100375001D02*
X79750000Y-108875001D01*
X79750000Y-100375001D02*
X84790000Y-100375001D01*
X66250000Y-108875001D02*
X79750000Y-108875001D01*
X66250000Y-104375001D02*
X79750000Y-104375001D01*
X132000000Y-133000000D02*
X148000000Y-133000000D01*
X132000000Y-117000000D02*
X148000000Y-117000000D01*
X132000000Y-117000000D02*
X132000000Y-133000000D01*
X148000000Y-117000000D02*
X148000000Y-133000000D01*
X148750000Y-133500000D02*
G75*
G03X148750000Y-133500000I-250000J0D01*
G01*
D10*
X122610000Y-127900000D02*
X122610000Y-126100000D01*
X119390000Y-126100000D02*
X119390000Y-128550000D01*
X115900000Y-141390000D02*
X114100000Y-141390000D01*
X114100000Y-144610000D02*
X116550000Y-144610000D01*
D11*
X98925000Y-138575000D02*
X98950000Y-138575000D01*
X98925000Y-134425000D02*
X99030000Y-134425000D01*
X109075000Y-134425000D02*
X108970000Y-134425000D01*
X109075000Y-138575000D02*
X108970000Y-138575000D01*
X98925000Y-138575000D02*
X98925000Y-134425000D01*
X109075000Y-138575000D02*
X109075000Y-134425000D01*
X98950000Y-138575000D02*
X98950000Y-139950000D01*
X125100000Y-93150000D02*
X140900000Y-93150000D01*
X125100000Y-110850000D02*
X125100000Y-93150000D01*
X125100000Y-110850000D02*
X140900000Y-110850000D01*
X140900000Y-110850000D02*
X140900000Y-93150000D01*
X139000000Y-105450000D02*
G75*
G03X139000000Y-105450000I-1750000J0D01*
G01*
X139000000Y-96850000D02*
G75*
G03X139000000Y-96850000I-1750000J0D01*
G01*
D10*
X55250000Y-112500000D02*
X55250000Y-114500000D01*
X55250000Y-114500000D02*
X59150000Y-114500000D01*
X55250000Y-112500000D02*
X59150000Y-112500000D01*
X132850000Y-146100000D02*
X132200000Y-146100000D01*
X129150000Y-146100000D02*
X129800000Y-146100000D01*
X129800000Y-139900000D02*
X129150000Y-139900000D01*
X132850000Y-139900000D02*
X132200000Y-139900000D01*
X132850000Y-146100000D02*
X132850000Y-139900000D01*
X129150000Y-139900000D02*
X129150000Y-146100000D01*
X137150000Y-139900000D02*
X137150000Y-146100000D01*
X140850000Y-146100000D02*
X140850000Y-139900000D01*
X140850000Y-139900000D02*
X140200000Y-139900000D01*
X137800000Y-139900000D02*
X137150000Y-139900000D01*
X137150000Y-146100000D02*
X137800000Y-146100000D01*
X140850000Y-146100000D02*
X140200000Y-146100000D01*
X144670000Y-74030000D02*
X147330000Y-74030000D01*
X144670000Y-61270000D02*
X144670000Y-74030000D01*
X147330000Y-61270000D02*
X147330000Y-74030000D01*
X144670000Y-61270000D02*
X147330000Y-61270000D01*
X144670000Y-60000000D02*
X144670000Y-58670000D01*
X144670000Y-58670000D02*
X146000000Y-58670000D01*
X144670000Y-89990000D02*
X147330000Y-89990000D01*
X144670000Y-79770000D02*
X144670000Y-89990000D01*
X147330000Y-79770000D02*
X147330000Y-89990000D01*
X144670000Y-79770000D02*
X147330000Y-79770000D01*
X144670000Y-78500000D02*
X144670000Y-77170000D01*
X144670000Y-77170000D02*
X146000000Y-77170000D01*
X88671267Y-107510000D02*
X88328733Y-107510000D01*
X88671267Y-106490000D02*
X88328733Y-106490000D01*
X90171267Y-104490000D02*
X89828733Y-104490000D01*
X90171267Y-105510000D02*
X89828733Y-105510000D01*
D11*
X125715595Y-75062380D02*
X125715595Y-75871904D01*
X125763214Y-75967142D01*
X125810833Y-76014761D01*
X125906071Y-76062380D01*
X126096547Y-76062380D01*
X126191785Y-76014761D01*
X126239404Y-75967142D01*
X126287023Y-75871904D01*
X126287023Y-75062380D01*
X127287023Y-76062380D02*
X126715595Y-76062380D01*
X127001309Y-76062380D02*
X127001309Y-75062380D01*
X126906071Y-75205238D01*
X126810833Y-75300476D01*
X126715595Y-75348095D01*
X97166666Y-67761904D02*
X97166666Y-67285714D01*
X97452380Y-67857142D02*
X96452380Y-67523809D01*
X97452380Y-67190476D01*
X96785714Y-66857142D02*
X97452380Y-66857142D01*
X96880952Y-66857142D02*
X96833333Y-66809523D01*
X96785714Y-66714285D01*
X96785714Y-66571428D01*
X96833333Y-66476190D01*
X96928571Y-66428571D01*
X97452380Y-66428571D01*
X96785714Y-66095238D02*
X96785714Y-65714285D01*
X96452380Y-65952380D02*
X97309523Y-65952380D01*
X97404761Y-65904761D01*
X97452380Y-65809523D01*
X97452380Y-65714285D01*
X97404761Y-65000000D02*
X97452380Y-65095238D01*
X97452380Y-65285714D01*
X97404761Y-65380952D01*
X97309523Y-65428571D01*
X96928571Y-65428571D01*
X96833333Y-65380952D01*
X96785714Y-65285714D01*
X96785714Y-65095238D01*
X96833333Y-65000000D01*
X96928571Y-64952380D01*
X97023809Y-64952380D01*
X97119047Y-65428571D01*
X96785714Y-64523809D02*
X97452380Y-64523809D01*
X96880952Y-64523809D02*
X96833333Y-64476190D01*
X96785714Y-64380952D01*
X96785714Y-64238095D01*
X96833333Y-64142857D01*
X96928571Y-64095238D01*
X97452380Y-64095238D01*
X96785714Y-63619047D02*
X97452380Y-63619047D01*
X96880952Y-63619047D02*
X96833333Y-63571428D01*
X96785714Y-63476190D01*
X96785714Y-63333333D01*
X96833333Y-63238095D01*
X96928571Y-63190476D01*
X97452380Y-63190476D01*
X97452380Y-62285714D02*
X96928571Y-62285714D01*
X96833333Y-62333333D01*
X96785714Y-62428571D01*
X96785714Y-62619047D01*
X96833333Y-62714285D01*
X97404761Y-62285714D02*
X97452380Y-62380952D01*
X97452380Y-62619047D01*
X97404761Y-62714285D01*
X97309523Y-62761904D01*
X97214285Y-62761904D01*
X97119047Y-62714285D01*
X97071428Y-62619047D01*
X97071428Y-62380952D01*
X97023809Y-62285714D01*
X91166666Y-71047619D02*
X91166666Y-70571428D01*
X91452380Y-71142857D02*
X90452380Y-70809523D01*
X91452380Y-70476190D01*
X90785714Y-70142857D02*
X91452380Y-70142857D01*
X90880952Y-70142857D02*
X90833333Y-70095238D01*
X90785714Y-70000000D01*
X90785714Y-69857142D01*
X90833333Y-69761904D01*
X90928571Y-69714285D01*
X91452380Y-69714285D01*
X90785714Y-69380952D02*
X90785714Y-69000000D01*
X90452380Y-69238095D02*
X91309523Y-69238095D01*
X91404761Y-69190476D01*
X91452380Y-69095238D01*
X91452380Y-69000000D01*
X91404761Y-68285714D02*
X91452380Y-68380952D01*
X91452380Y-68571428D01*
X91404761Y-68666666D01*
X91309523Y-68714285D01*
X90928571Y-68714285D01*
X90833333Y-68666666D01*
X90785714Y-68571428D01*
X90785714Y-68380952D01*
X90833333Y-68285714D01*
X90928571Y-68238095D01*
X91023809Y-68238095D01*
X91119047Y-68714285D01*
X90785714Y-67809523D02*
X91452380Y-67809523D01*
X90880952Y-67809523D02*
X90833333Y-67761904D01*
X90785714Y-67666666D01*
X90785714Y-67523809D01*
X90833333Y-67428571D01*
X90928571Y-67380952D01*
X91452380Y-67380952D01*
X90785714Y-66904761D02*
X91452380Y-66904761D01*
X90880952Y-66904761D02*
X90833333Y-66857142D01*
X90785714Y-66761904D01*
X90785714Y-66619047D01*
X90833333Y-66523809D01*
X90928571Y-66476190D01*
X91452380Y-66476190D01*
X91452380Y-65571428D02*
X90928571Y-65571428D01*
X90833333Y-65619047D01*
X90785714Y-65714285D01*
X90785714Y-65904761D01*
X90833333Y-66000000D01*
X91404761Y-65571428D02*
X91452380Y-65666666D01*
X91452380Y-65904761D01*
X91404761Y-66000000D01*
X91309523Y-66047619D01*
X91214285Y-66047619D01*
X91119047Y-66000000D01*
X91071428Y-65904761D01*
X91071428Y-65666666D01*
X91023809Y-65571428D01*
X91452380Y-64333333D02*
X90452380Y-64333333D01*
X91071428Y-64238095D02*
X91452380Y-63952380D01*
X90785714Y-63952380D02*
X91166666Y-64333333D01*
X91404761Y-63142857D02*
X91452380Y-63238095D01*
X91452380Y-63428571D01*
X91404761Y-63523809D01*
X91309523Y-63571428D01*
X90928571Y-63571428D01*
X90833333Y-63523809D01*
X90785714Y-63428571D01*
X90785714Y-63238095D01*
X90833333Y-63142857D01*
X90928571Y-63095238D01*
X91023809Y-63095238D01*
X91119047Y-63571428D01*
X91404761Y-62285714D02*
X91452380Y-62380952D01*
X91452380Y-62571428D01*
X91404761Y-62666666D01*
X91309523Y-62714285D01*
X90928571Y-62714285D01*
X90833333Y-62666666D01*
X90785714Y-62571428D01*
X90785714Y-62380952D01*
X90833333Y-62285714D01*
X90928571Y-62238095D01*
X91023809Y-62238095D01*
X91119047Y-62714285D01*
X90785714Y-61809523D02*
X91785714Y-61809523D01*
X90833333Y-61809523D02*
X90785714Y-61714285D01*
X90785714Y-61523809D01*
X90833333Y-61428571D01*
X90880952Y-61380952D01*
X90976190Y-61333333D01*
X91261904Y-61333333D01*
X91357142Y-61380952D01*
X91404761Y-61428571D01*
X91452380Y-61523809D01*
X91452380Y-61714285D01*
X91404761Y-61809523D01*
X91452380Y-60761904D02*
X91404761Y-60857142D01*
X91357142Y-60904761D01*
X91261904Y-60952380D01*
X90976190Y-60952380D01*
X90880952Y-60904761D01*
X90833333Y-60857142D01*
X90785714Y-60761904D01*
X90785714Y-60619047D01*
X90833333Y-60523809D01*
X90880952Y-60476190D01*
X90976190Y-60428571D01*
X91261904Y-60428571D01*
X91357142Y-60476190D01*
X91404761Y-60523809D01*
X91452380Y-60619047D01*
X91452380Y-60761904D01*
X90785714Y-59571428D02*
X91452380Y-59571428D01*
X90785714Y-60000000D02*
X91309523Y-60000000D01*
X91404761Y-59952380D01*
X91452380Y-59857142D01*
X91452380Y-59714285D01*
X91404761Y-59619047D01*
X91357142Y-59571428D01*
X90785714Y-59238095D02*
X90785714Y-58857142D01*
X90452380Y-59095238D02*
X91309523Y-59095238D01*
X91404761Y-59047619D01*
X91452380Y-58952380D01*
X91452380Y-58857142D01*
X99666666Y-145452380D02*
X99666666Y-146166666D01*
X99619047Y-146309523D01*
X99523809Y-146404761D01*
X99380952Y-146452380D01*
X99285714Y-146452380D01*
X100666666Y-146452380D02*
X100095238Y-146452380D01*
X100380952Y-146452380D02*
X100380952Y-145452380D01*
X100285714Y-145595238D01*
X100190476Y-145690476D01*
X100095238Y-145738095D01*
X143691666Y-96566666D02*
X143691666Y-96090476D01*
X143977380Y-96661904D02*
X142977380Y-96328571D01*
X143977380Y-95995238D01*
X143453571Y-95661904D02*
X143453571Y-95328571D01*
X143977380Y-95185714D02*
X143977380Y-95661904D01*
X142977380Y-95661904D01*
X142977380Y-95185714D01*
X143977380Y-94233333D02*
X143977380Y-94804761D01*
X143977380Y-94519047D02*
X142977380Y-94519047D01*
X143120238Y-94614285D01*
X143215476Y-94709523D01*
X143263095Y-94804761D01*
X113214285Y-129998571D02*
X113357142Y-130046190D01*
X113404761Y-130093809D01*
X113452380Y-130189047D01*
X113452380Y-130331904D01*
X113404761Y-130427142D01*
X113357142Y-130474761D01*
X113261904Y-130522380D01*
X112880952Y-130522380D01*
X112880952Y-129522380D01*
X113214285Y-129522380D01*
X113309523Y-129570000D01*
X113357142Y-129617619D01*
X113404761Y-129712857D01*
X113404761Y-129808095D01*
X113357142Y-129903333D01*
X113309523Y-129950952D01*
X113214285Y-129998571D01*
X112880952Y-129998571D01*
X113738095Y-129522380D02*
X114309523Y-129522380D01*
X114023809Y-130522380D02*
X114023809Y-129522380D01*
X115166666Y-130522380D02*
X114595238Y-130522380D01*
X114880952Y-130522380D02*
X114880952Y-129522380D01*
X114785714Y-129665238D01*
X114690476Y-129760476D01*
X114595238Y-129808095D01*
X105333333Y-76357142D02*
X105285714Y-76404761D01*
X105142857Y-76452380D01*
X105047619Y-76452380D01*
X104904761Y-76404761D01*
X104809523Y-76309523D01*
X104761904Y-76214285D01*
X104714285Y-76023809D01*
X104714285Y-75880952D01*
X104761904Y-75690476D01*
X104809523Y-75595238D01*
X104904761Y-75500000D01*
X105047619Y-75452380D01*
X105142857Y-75452380D01*
X105285714Y-75500000D01*
X105333333Y-75547619D01*
X106285714Y-76452380D02*
X105714285Y-76452380D01*
X106000000Y-76452380D02*
X106000000Y-75452380D01*
X105904761Y-75595238D01*
X105809523Y-75690476D01*
X105714285Y-75738095D01*
X105333333Y-78357142D02*
X105285714Y-78404761D01*
X105142857Y-78452380D01*
X105047619Y-78452380D01*
X104904761Y-78404761D01*
X104809523Y-78309523D01*
X104761904Y-78214285D01*
X104714285Y-78023809D01*
X104714285Y-77880952D01*
X104761904Y-77690476D01*
X104809523Y-77595238D01*
X104904761Y-77500000D01*
X105047619Y-77452380D01*
X105142857Y-77452380D01*
X105285714Y-77500000D01*
X105333333Y-77547619D01*
X105714285Y-77547619D02*
X105761904Y-77500000D01*
X105857142Y-77452380D01*
X106095238Y-77452380D01*
X106190476Y-77500000D01*
X106238095Y-77547619D01*
X106285714Y-77642857D01*
X106285714Y-77738095D01*
X106238095Y-77880952D01*
X105666666Y-78452380D01*
X106285714Y-78452380D01*
X106957142Y-122866666D02*
X107004761Y-122914285D01*
X107052380Y-123057142D01*
X107052380Y-123152380D01*
X107004761Y-123295238D01*
X106909523Y-123390476D01*
X106814285Y-123438095D01*
X106623809Y-123485714D01*
X106480952Y-123485714D01*
X106290476Y-123438095D01*
X106195238Y-123390476D01*
X106100000Y-123295238D01*
X106052380Y-123152380D01*
X106052380Y-123057142D01*
X106100000Y-122914285D01*
X106147619Y-122866666D01*
X106052380Y-122533333D02*
X106052380Y-121914285D01*
X106433333Y-122247619D01*
X106433333Y-122104761D01*
X106480952Y-122009523D01*
X106528571Y-121961904D01*
X106623809Y-121914285D01*
X106861904Y-121914285D01*
X106957142Y-121961904D01*
X107004761Y-122009523D01*
X107052380Y-122104761D01*
X107052380Y-122390476D01*
X107004761Y-122485714D01*
X106957142Y-122533333D01*
X111583333Y-127857142D02*
X111535714Y-127904761D01*
X111392857Y-127952380D01*
X111297619Y-127952380D01*
X111154761Y-127904761D01*
X111059523Y-127809523D01*
X111011904Y-127714285D01*
X110964285Y-127523809D01*
X110964285Y-127380952D01*
X111011904Y-127190476D01*
X111059523Y-127095238D01*
X111154761Y-127000000D01*
X111297619Y-126952380D01*
X111392857Y-126952380D01*
X111535714Y-127000000D01*
X111583333Y-127047619D01*
X112440476Y-127285714D02*
X112440476Y-127952380D01*
X112202380Y-126904761D02*
X111964285Y-127619047D01*
X112583333Y-127619047D01*
X137857142Y-56666666D02*
X137904761Y-56714285D01*
X137952380Y-56857142D01*
X137952380Y-56952380D01*
X137904761Y-57095238D01*
X137809523Y-57190476D01*
X137714285Y-57238095D01*
X137523809Y-57285714D01*
X137380952Y-57285714D01*
X137190476Y-57238095D01*
X137095238Y-57190476D01*
X137000000Y-57095238D01*
X136952380Y-56952380D01*
X136952380Y-56857142D01*
X137000000Y-56714285D01*
X137047619Y-56666666D01*
X136952380Y-55761904D02*
X136952380Y-56238095D01*
X137428571Y-56285714D01*
X137380952Y-56238095D01*
X137333333Y-56142857D01*
X137333333Y-55904761D01*
X137380952Y-55809523D01*
X137428571Y-55761904D01*
X137523809Y-55714285D01*
X137761904Y-55714285D01*
X137857142Y-55761904D01*
X137904761Y-55809523D01*
X137952380Y-55904761D01*
X137952380Y-56142857D01*
X137904761Y-56238095D01*
X137857142Y-56285714D01*
X111583333Y-121857142D02*
X111535714Y-121904761D01*
X111392857Y-121952380D01*
X111297619Y-121952380D01*
X111154761Y-121904761D01*
X111059523Y-121809523D01*
X111011904Y-121714285D01*
X110964285Y-121523809D01*
X110964285Y-121380952D01*
X111011904Y-121190476D01*
X111059523Y-121095238D01*
X111154761Y-121000000D01*
X111297619Y-120952380D01*
X111392857Y-120952380D01*
X111535714Y-121000000D01*
X111583333Y-121047619D01*
X112440476Y-120952380D02*
X112250000Y-120952380D01*
X112154761Y-121000000D01*
X112107142Y-121047619D01*
X112011904Y-121190476D01*
X111964285Y-121380952D01*
X111964285Y-121761904D01*
X112011904Y-121857142D01*
X112059523Y-121904761D01*
X112154761Y-121952380D01*
X112345238Y-121952380D01*
X112440476Y-121904761D01*
X112488095Y-121857142D01*
X112535714Y-121761904D01*
X112535714Y-121523809D01*
X112488095Y-121428571D01*
X112440476Y-121380952D01*
X112345238Y-121333333D01*
X112154761Y-121333333D01*
X112059523Y-121380952D01*
X112011904Y-121428571D01*
X111964285Y-121523809D01*
X137833333Y-72857142D02*
X137785714Y-72904761D01*
X137642857Y-72952380D01*
X137547619Y-72952380D01*
X137404761Y-72904761D01*
X137309523Y-72809523D01*
X137261904Y-72714285D01*
X137214285Y-72523809D01*
X137214285Y-72380952D01*
X137261904Y-72190476D01*
X137309523Y-72095238D01*
X137404761Y-72000000D01*
X137547619Y-71952380D01*
X137642857Y-71952380D01*
X137785714Y-72000000D01*
X137833333Y-72047619D01*
X138166666Y-71952380D02*
X138833333Y-71952380D01*
X138404761Y-72952380D01*
X86333333Y-112857142D02*
X86285714Y-112904761D01*
X86142857Y-112952380D01*
X86047619Y-112952380D01*
X85904761Y-112904761D01*
X85809523Y-112809523D01*
X85761904Y-112714285D01*
X85714285Y-112523809D01*
X85714285Y-112380952D01*
X85761904Y-112190476D01*
X85809523Y-112095238D01*
X85904761Y-112000000D01*
X86047619Y-111952380D01*
X86142857Y-111952380D01*
X86285714Y-112000000D01*
X86333333Y-112047619D01*
X86904761Y-112380952D02*
X86809523Y-112333333D01*
X86761904Y-112285714D01*
X86714285Y-112190476D01*
X86714285Y-112142857D01*
X86761904Y-112047619D01*
X86809523Y-112000000D01*
X86904761Y-111952380D01*
X87095238Y-111952380D01*
X87190476Y-112000000D01*
X87238095Y-112047619D01*
X87285714Y-112142857D01*
X87285714Y-112190476D01*
X87238095Y-112285714D01*
X87190476Y-112333333D01*
X87095238Y-112380952D01*
X86904761Y-112380952D01*
X86809523Y-112428571D01*
X86761904Y-112476190D01*
X86714285Y-112571428D01*
X86714285Y-112761904D01*
X86761904Y-112857142D01*
X86809523Y-112904761D01*
X86904761Y-112952380D01*
X87095238Y-112952380D01*
X87190476Y-112904761D01*
X87238095Y-112857142D01*
X87285714Y-112761904D01*
X87285714Y-112571428D01*
X87238095Y-112476190D01*
X87190476Y-112428571D01*
X87095238Y-112380952D01*
X147857142Y-111916666D02*
X147904761Y-111964285D01*
X147952380Y-112107142D01*
X147952380Y-112202380D01*
X147904761Y-112345238D01*
X147809523Y-112440476D01*
X147714285Y-112488095D01*
X147523809Y-112535714D01*
X147380952Y-112535714D01*
X147190476Y-112488095D01*
X147095238Y-112440476D01*
X147000000Y-112345238D01*
X146952380Y-112202380D01*
X146952380Y-112107142D01*
X147000000Y-111964285D01*
X147047619Y-111916666D01*
X147952380Y-111440476D02*
X147952380Y-111250000D01*
X147904761Y-111154761D01*
X147857142Y-111107142D01*
X147714285Y-111011904D01*
X147523809Y-110964285D01*
X147142857Y-110964285D01*
X147047619Y-111011904D01*
X147000000Y-111059523D01*
X146952380Y-111154761D01*
X146952380Y-111345238D01*
X147000000Y-111440476D01*
X147047619Y-111488095D01*
X147142857Y-111535714D01*
X147380952Y-111535714D01*
X147476190Y-111488095D01*
X147523809Y-111440476D01*
X147571428Y-111345238D01*
X147571428Y-111154761D01*
X147523809Y-111059523D01*
X147476190Y-111011904D01*
X147380952Y-110964285D01*
X145857142Y-111892857D02*
X145904761Y-111940476D01*
X145952380Y-112083333D01*
X145952380Y-112178571D01*
X145904761Y-112321428D01*
X145809523Y-112416666D01*
X145714285Y-112464285D01*
X145523809Y-112511904D01*
X145380952Y-112511904D01*
X145190476Y-112464285D01*
X145095238Y-112416666D01*
X145000000Y-112321428D01*
X144952380Y-112178571D01*
X144952380Y-112083333D01*
X145000000Y-111940476D01*
X145047619Y-111892857D01*
X145952380Y-110940476D02*
X145952380Y-111511904D01*
X145952380Y-111226190D02*
X144952380Y-111226190D01*
X145095238Y-111321428D01*
X145190476Y-111416666D01*
X145238095Y-111511904D01*
X144952380Y-110321428D02*
X144952380Y-110226190D01*
X145000000Y-110130952D01*
X145047619Y-110083333D01*
X145142857Y-110035714D01*
X145333333Y-109988095D01*
X145571428Y-109988095D01*
X145761904Y-110035714D01*
X145857142Y-110083333D01*
X145904761Y-110130952D01*
X145952380Y-110226190D01*
X145952380Y-110321428D01*
X145904761Y-110416666D01*
X145857142Y-110464285D01*
X145761904Y-110511904D01*
X145571428Y-110559523D01*
X145333333Y-110559523D01*
X145142857Y-110511904D01*
X145047619Y-110464285D01*
X145000000Y-110416666D01*
X144952380Y-110321428D01*
X143857142Y-111892857D02*
X143904761Y-111940476D01*
X143952380Y-112083333D01*
X143952380Y-112178571D01*
X143904761Y-112321428D01*
X143809523Y-112416666D01*
X143714285Y-112464285D01*
X143523809Y-112511904D01*
X143380952Y-112511904D01*
X143190476Y-112464285D01*
X143095238Y-112416666D01*
X143000000Y-112321428D01*
X142952380Y-112178571D01*
X142952380Y-112083333D01*
X143000000Y-111940476D01*
X143047619Y-111892857D01*
X143952380Y-110940476D02*
X143952380Y-111511904D01*
X143952380Y-111226190D02*
X142952380Y-111226190D01*
X143095238Y-111321428D01*
X143190476Y-111416666D01*
X143238095Y-111511904D01*
X143952380Y-109988095D02*
X143952380Y-110559523D01*
X143952380Y-110273809D02*
X142952380Y-110273809D01*
X143095238Y-110369047D01*
X143190476Y-110464285D01*
X143238095Y-110559523D01*
X119357142Y-120142857D02*
X119404761Y-120190476D01*
X119452380Y-120333333D01*
X119452380Y-120428571D01*
X119404761Y-120571428D01*
X119309523Y-120666666D01*
X119214285Y-120714285D01*
X119023809Y-120761904D01*
X118880952Y-120761904D01*
X118690476Y-120714285D01*
X118595238Y-120666666D01*
X118500000Y-120571428D01*
X118452380Y-120428571D01*
X118452380Y-120333333D01*
X118500000Y-120190476D01*
X118547619Y-120142857D01*
X119452380Y-119190476D02*
X119452380Y-119761904D01*
X119452380Y-119476190D02*
X118452380Y-119476190D01*
X118595238Y-119571428D01*
X118690476Y-119666666D01*
X118738095Y-119761904D01*
X118547619Y-118809523D02*
X118500000Y-118761904D01*
X118452380Y-118666666D01*
X118452380Y-118428571D01*
X118500000Y-118333333D01*
X118547619Y-118285714D01*
X118642857Y-118238095D01*
X118738095Y-118238095D01*
X118880952Y-118285714D01*
X119452380Y-118857142D01*
X119452380Y-118238095D01*
X115857142Y-140357142D02*
X115809523Y-140404761D01*
X115666666Y-140452380D01*
X115571428Y-140452380D01*
X115428571Y-140404761D01*
X115333333Y-140309523D01*
X115285714Y-140214285D01*
X115238095Y-140023809D01*
X115238095Y-139880952D01*
X115285714Y-139690476D01*
X115333333Y-139595238D01*
X115428571Y-139500000D01*
X115571428Y-139452380D01*
X115666666Y-139452380D01*
X115809523Y-139500000D01*
X115857142Y-139547619D01*
X116809523Y-140452380D02*
X116238095Y-140452380D01*
X116523809Y-140452380D02*
X116523809Y-139452380D01*
X116428571Y-139595238D01*
X116333333Y-139690476D01*
X116238095Y-139738095D01*
X117142857Y-139452380D02*
X117761904Y-139452380D01*
X117428571Y-139833333D01*
X117571428Y-139833333D01*
X117666666Y-139880952D01*
X117714285Y-139928571D01*
X117761904Y-140023809D01*
X117761904Y-140261904D01*
X117714285Y-140357142D01*
X117666666Y-140404761D01*
X117571428Y-140452380D01*
X117285714Y-140452380D01*
X117190476Y-140404761D01*
X117142857Y-140357142D01*
X99357142Y-141857142D02*
X99309523Y-141904761D01*
X99166666Y-141952380D01*
X99071428Y-141952380D01*
X98928571Y-141904761D01*
X98833333Y-141809523D01*
X98785714Y-141714285D01*
X98738095Y-141523809D01*
X98738095Y-141380952D01*
X98785714Y-141190476D01*
X98833333Y-141095238D01*
X98928571Y-141000000D01*
X99071428Y-140952380D01*
X99166666Y-140952380D01*
X99309523Y-141000000D01*
X99357142Y-141047619D01*
X100309523Y-141952380D02*
X99738095Y-141952380D01*
X100023809Y-141952380D02*
X100023809Y-140952380D01*
X99928571Y-141095238D01*
X99833333Y-141190476D01*
X99738095Y-141238095D01*
X101166666Y-141285714D02*
X101166666Y-141952380D01*
X100928571Y-140904761D02*
X100690476Y-141619047D01*
X101309523Y-141619047D01*
X145357142Y-107142857D02*
X145404761Y-107190476D01*
X145452380Y-107333333D01*
X145452380Y-107428571D01*
X145404761Y-107571428D01*
X145309523Y-107666666D01*
X145214285Y-107714285D01*
X145023809Y-107761904D01*
X144880952Y-107761904D01*
X144690476Y-107714285D01*
X144595238Y-107666666D01*
X144500000Y-107571428D01*
X144452380Y-107428571D01*
X144452380Y-107333333D01*
X144500000Y-107190476D01*
X144547619Y-107142857D01*
X145452380Y-106190476D02*
X145452380Y-106761904D01*
X145452380Y-106476190D02*
X144452380Y-106476190D01*
X144595238Y-106571428D01*
X144690476Y-106666666D01*
X144738095Y-106761904D01*
X144452380Y-105285714D02*
X144452380Y-105761904D01*
X144928571Y-105809523D01*
X144880952Y-105761904D01*
X144833333Y-105666666D01*
X144833333Y-105428571D01*
X144880952Y-105333333D01*
X144928571Y-105285714D01*
X145023809Y-105238095D01*
X145261904Y-105238095D01*
X145357142Y-105285714D01*
X145404761Y-105333333D01*
X145452380Y-105428571D01*
X145452380Y-105666666D01*
X145404761Y-105761904D01*
X145357142Y-105809523D01*
X133857142Y-89857142D02*
X133809523Y-89904761D01*
X133666666Y-89952380D01*
X133571428Y-89952380D01*
X133428571Y-89904761D01*
X133333333Y-89809523D01*
X133285714Y-89714285D01*
X133238095Y-89523809D01*
X133238095Y-89380952D01*
X133285714Y-89190476D01*
X133333333Y-89095238D01*
X133428571Y-89000000D01*
X133571428Y-88952380D01*
X133666666Y-88952380D01*
X133809523Y-89000000D01*
X133857142Y-89047619D01*
X134809523Y-89952380D02*
X134238095Y-89952380D01*
X134523809Y-89952380D02*
X134523809Y-88952380D01*
X134428571Y-89095238D01*
X134333333Y-89190476D01*
X134238095Y-89238095D01*
X135666666Y-88952380D02*
X135476190Y-88952380D01*
X135380952Y-89000000D01*
X135333333Y-89047619D01*
X135238095Y-89190476D01*
X135190476Y-89380952D01*
X135190476Y-89761904D01*
X135238095Y-89857142D01*
X135285714Y-89904761D01*
X135380952Y-89952380D01*
X135571428Y-89952380D01*
X135666666Y-89904761D01*
X135714285Y-89857142D01*
X135761904Y-89761904D01*
X135761904Y-89523809D01*
X135714285Y-89428571D01*
X135666666Y-89380952D01*
X135571428Y-89333333D01*
X135380952Y-89333333D01*
X135285714Y-89380952D01*
X135238095Y-89428571D01*
X135190476Y-89523809D01*
X132857142Y-86857142D02*
X132809523Y-86904761D01*
X132666666Y-86952380D01*
X132571428Y-86952380D01*
X132428571Y-86904761D01*
X132333333Y-86809523D01*
X132285714Y-86714285D01*
X132238095Y-86523809D01*
X132238095Y-86380952D01*
X132285714Y-86190476D01*
X132333333Y-86095238D01*
X132428571Y-86000000D01*
X132571428Y-85952380D01*
X132666666Y-85952380D01*
X132809523Y-86000000D01*
X132857142Y-86047619D01*
X133809523Y-86952380D02*
X133238095Y-86952380D01*
X133523809Y-86952380D02*
X133523809Y-85952380D01*
X133428571Y-86095238D01*
X133333333Y-86190476D01*
X133238095Y-86238095D01*
X134142857Y-85952380D02*
X134809523Y-85952380D01*
X134380952Y-86952380D01*
X132857142Y-84857142D02*
X132809523Y-84904761D01*
X132666666Y-84952380D01*
X132571428Y-84952380D01*
X132428571Y-84904761D01*
X132333333Y-84809523D01*
X132285714Y-84714285D01*
X132238095Y-84523809D01*
X132238095Y-84380952D01*
X132285714Y-84190476D01*
X132333333Y-84095238D01*
X132428571Y-84000000D01*
X132571428Y-83952380D01*
X132666666Y-83952380D01*
X132809523Y-84000000D01*
X132857142Y-84047619D01*
X133809523Y-84952380D02*
X133238095Y-84952380D01*
X133523809Y-84952380D02*
X133523809Y-83952380D01*
X133428571Y-84095238D01*
X133333333Y-84190476D01*
X133238095Y-84238095D01*
X134380952Y-84380952D02*
X134285714Y-84333333D01*
X134238095Y-84285714D01*
X134190476Y-84190476D01*
X134190476Y-84142857D01*
X134238095Y-84047619D01*
X134285714Y-84000000D01*
X134380952Y-83952380D01*
X134571428Y-83952380D01*
X134666666Y-84000000D01*
X134714285Y-84047619D01*
X134761904Y-84142857D01*
X134761904Y-84190476D01*
X134714285Y-84285714D01*
X134666666Y-84333333D01*
X134571428Y-84380952D01*
X134380952Y-84380952D01*
X134285714Y-84428571D01*
X134238095Y-84476190D01*
X134190476Y-84571428D01*
X134190476Y-84761904D01*
X134238095Y-84857142D01*
X134285714Y-84904761D01*
X134380952Y-84952380D01*
X134571428Y-84952380D01*
X134666666Y-84904761D01*
X134714285Y-84857142D01*
X134761904Y-84761904D01*
X134761904Y-84571428D01*
X134714285Y-84476190D01*
X134666666Y-84428571D01*
X134571428Y-84380952D01*
X132857142Y-82857142D02*
X132809523Y-82904761D01*
X132666666Y-82952380D01*
X132571428Y-82952380D01*
X132428571Y-82904761D01*
X132333333Y-82809523D01*
X132285714Y-82714285D01*
X132238095Y-82523809D01*
X132238095Y-82380952D01*
X132285714Y-82190476D01*
X132333333Y-82095238D01*
X132428571Y-82000000D01*
X132571428Y-81952380D01*
X132666666Y-81952380D01*
X132809523Y-82000000D01*
X132857142Y-82047619D01*
X133809523Y-82952380D02*
X133238095Y-82952380D01*
X133523809Y-82952380D02*
X133523809Y-81952380D01*
X133428571Y-82095238D01*
X133333333Y-82190476D01*
X133238095Y-82238095D01*
X134285714Y-82952380D02*
X134476190Y-82952380D01*
X134571428Y-82904761D01*
X134619047Y-82857142D01*
X134714285Y-82714285D01*
X134761904Y-82523809D01*
X134761904Y-82142857D01*
X134714285Y-82047619D01*
X134666666Y-82000000D01*
X134571428Y-81952380D01*
X134380952Y-81952380D01*
X134285714Y-82000000D01*
X134238095Y-82047619D01*
X134190476Y-82142857D01*
X134190476Y-82380952D01*
X134238095Y-82476190D01*
X134285714Y-82523809D01*
X134380952Y-82571428D01*
X134571428Y-82571428D01*
X134666666Y-82523809D01*
X134714285Y-82476190D01*
X134761904Y-82380952D01*
X112857142Y-104642857D02*
X112904761Y-104690476D01*
X112952380Y-104833333D01*
X112952380Y-104928571D01*
X112904761Y-105071428D01*
X112809523Y-105166666D01*
X112714285Y-105214285D01*
X112523809Y-105261904D01*
X112380952Y-105261904D01*
X112190476Y-105214285D01*
X112095238Y-105166666D01*
X112000000Y-105071428D01*
X111952380Y-104928571D01*
X111952380Y-104833333D01*
X112000000Y-104690476D01*
X112047619Y-104642857D01*
X112047619Y-104261904D02*
X112000000Y-104214285D01*
X111952380Y-104119047D01*
X111952380Y-103880952D01*
X112000000Y-103785714D01*
X112047619Y-103738095D01*
X112142857Y-103690476D01*
X112238095Y-103690476D01*
X112380952Y-103738095D01*
X112952380Y-104309523D01*
X112952380Y-103690476D01*
X111952380Y-103071428D02*
X111952380Y-102976190D01*
X112000000Y-102880952D01*
X112047619Y-102833333D01*
X112142857Y-102785714D01*
X112333333Y-102738095D01*
X112571428Y-102738095D01*
X112761904Y-102785714D01*
X112857142Y-102833333D01*
X112904761Y-102880952D01*
X112952380Y-102976190D01*
X112952380Y-103071428D01*
X112904761Y-103166666D01*
X112857142Y-103214285D01*
X112761904Y-103261904D01*
X112571428Y-103309523D01*
X112333333Y-103309523D01*
X112142857Y-103261904D01*
X112047619Y-103214285D01*
X112000000Y-103166666D01*
X111952380Y-103071428D01*
X114857142Y-114392857D02*
X114904761Y-114440476D01*
X114952380Y-114583333D01*
X114952380Y-114678571D01*
X114904761Y-114821428D01*
X114809523Y-114916666D01*
X114714285Y-114964285D01*
X114523809Y-115011904D01*
X114380952Y-115011904D01*
X114190476Y-114964285D01*
X114095238Y-114916666D01*
X114000000Y-114821428D01*
X113952380Y-114678571D01*
X113952380Y-114583333D01*
X114000000Y-114440476D01*
X114047619Y-114392857D01*
X114047619Y-114011904D02*
X114000000Y-113964285D01*
X113952380Y-113869047D01*
X113952380Y-113630952D01*
X114000000Y-113535714D01*
X114047619Y-113488095D01*
X114142857Y-113440476D01*
X114238095Y-113440476D01*
X114380952Y-113488095D01*
X114952380Y-114059523D01*
X114952380Y-113440476D01*
X114952380Y-112488095D02*
X114952380Y-113059523D01*
X114952380Y-112773809D02*
X113952380Y-112773809D01*
X114095238Y-112869047D01*
X114190476Y-112964285D01*
X114238095Y-113059523D01*
X126607142Y-117892857D02*
X126654761Y-117940476D01*
X126702380Y-118083333D01*
X126702380Y-118178571D01*
X126654761Y-118321428D01*
X126559523Y-118416666D01*
X126464285Y-118464285D01*
X126273809Y-118511904D01*
X126130952Y-118511904D01*
X125940476Y-118464285D01*
X125845238Y-118416666D01*
X125750000Y-118321428D01*
X125702380Y-118178571D01*
X125702380Y-118083333D01*
X125750000Y-117940476D01*
X125797619Y-117892857D01*
X125797619Y-117511904D02*
X125750000Y-117464285D01*
X125702380Y-117369047D01*
X125702380Y-117130952D01*
X125750000Y-117035714D01*
X125797619Y-116988095D01*
X125892857Y-116940476D01*
X125988095Y-116940476D01*
X126130952Y-116988095D01*
X126702380Y-117559523D01*
X126702380Y-116940476D01*
X125797619Y-116559523D02*
X125750000Y-116511904D01*
X125702380Y-116416666D01*
X125702380Y-116178571D01*
X125750000Y-116083333D01*
X125797619Y-116035714D01*
X125892857Y-115988095D01*
X125988095Y-115988095D01*
X126130952Y-116035714D01*
X126702380Y-116607142D01*
X126702380Y-115988095D01*
X114857142Y-102892857D02*
X114904761Y-102940476D01*
X114952380Y-103083333D01*
X114952380Y-103178571D01*
X114904761Y-103321428D01*
X114809523Y-103416666D01*
X114714285Y-103464285D01*
X114523809Y-103511904D01*
X114380952Y-103511904D01*
X114190476Y-103464285D01*
X114095238Y-103416666D01*
X114000000Y-103321428D01*
X113952380Y-103178571D01*
X113952380Y-103083333D01*
X114000000Y-102940476D01*
X114047619Y-102892857D01*
X114047619Y-102511904D02*
X114000000Y-102464285D01*
X113952380Y-102369047D01*
X113952380Y-102130952D01*
X114000000Y-102035714D01*
X114047619Y-101988095D01*
X114142857Y-101940476D01*
X114238095Y-101940476D01*
X114380952Y-101988095D01*
X114952380Y-102559523D01*
X114952380Y-101940476D01*
X113952380Y-101607142D02*
X113952380Y-100988095D01*
X114333333Y-101321428D01*
X114333333Y-101178571D01*
X114380952Y-101083333D01*
X114428571Y-101035714D01*
X114523809Y-100988095D01*
X114761904Y-100988095D01*
X114857142Y-101035714D01*
X114904761Y-101083333D01*
X114952380Y-101178571D01*
X114952380Y-101464285D01*
X114904761Y-101559523D01*
X114857142Y-101607142D01*
X124607142Y-117892857D02*
X124654761Y-117940476D01*
X124702380Y-118083333D01*
X124702380Y-118178571D01*
X124654761Y-118321428D01*
X124559523Y-118416666D01*
X124464285Y-118464285D01*
X124273809Y-118511904D01*
X124130952Y-118511904D01*
X123940476Y-118464285D01*
X123845238Y-118416666D01*
X123750000Y-118321428D01*
X123702380Y-118178571D01*
X123702380Y-118083333D01*
X123750000Y-117940476D01*
X123797619Y-117892857D01*
X123797619Y-117511904D02*
X123750000Y-117464285D01*
X123702380Y-117369047D01*
X123702380Y-117130952D01*
X123750000Y-117035714D01*
X123797619Y-116988095D01*
X123892857Y-116940476D01*
X123988095Y-116940476D01*
X124130952Y-116988095D01*
X124702380Y-117559523D01*
X124702380Y-116940476D01*
X124035714Y-116083333D02*
X124702380Y-116083333D01*
X123654761Y-116321428D02*
X124369047Y-116559523D01*
X124369047Y-115940476D01*
X111452380Y-98333333D02*
X112166666Y-98333333D01*
X112309523Y-98380952D01*
X112404761Y-98476190D01*
X112452380Y-98619047D01*
X112452380Y-98714285D01*
X111785714Y-97428571D02*
X112452380Y-97428571D01*
X111404761Y-97666666D02*
X112119047Y-97904761D01*
X112119047Y-97285714D01*
X60047619Y-108095238D02*
X60000000Y-108190476D01*
X59904761Y-108285714D01*
X59761904Y-108428571D01*
X59714285Y-108523809D01*
X59714285Y-108619047D01*
X59952380Y-108571428D02*
X59904761Y-108666666D01*
X59809523Y-108761904D01*
X59619047Y-108809523D01*
X59285714Y-108809523D01*
X59095238Y-108761904D01*
X59000000Y-108666666D01*
X58952380Y-108571428D01*
X58952380Y-108380952D01*
X59000000Y-108285714D01*
X59095238Y-108190476D01*
X59285714Y-108142857D01*
X59619047Y-108142857D01*
X59809523Y-108190476D01*
X59904761Y-108285714D01*
X59952380Y-108380952D01*
X59952380Y-108571428D01*
X59952380Y-107190476D02*
X59952380Y-107761904D01*
X59952380Y-107476190D02*
X58952380Y-107476190D01*
X59095238Y-107571428D01*
X59190476Y-107666666D01*
X59238095Y-107761904D01*
X120904761Y-138097619D02*
X120809523Y-138050000D01*
X120714285Y-137954761D01*
X120571428Y-137811904D01*
X120476190Y-137764285D01*
X120380952Y-137764285D01*
X120428571Y-138002380D02*
X120333333Y-137954761D01*
X120238095Y-137859523D01*
X120190476Y-137669047D01*
X120190476Y-137335714D01*
X120238095Y-137145238D01*
X120333333Y-137050000D01*
X120428571Y-137002380D01*
X120619047Y-137002380D01*
X120714285Y-137050000D01*
X120809523Y-137145238D01*
X120857142Y-137335714D01*
X120857142Y-137669047D01*
X120809523Y-137859523D01*
X120714285Y-137954761D01*
X120619047Y-138002380D01*
X120428571Y-138002380D01*
X121238095Y-137097619D02*
X121285714Y-137050000D01*
X121380952Y-137002380D01*
X121619047Y-137002380D01*
X121714285Y-137050000D01*
X121761904Y-137097619D01*
X121809523Y-137192857D01*
X121809523Y-137288095D01*
X121761904Y-137430952D01*
X121190476Y-138002380D01*
X121809523Y-138002380D01*
X120952380Y-112166666D02*
X120476190Y-112500000D01*
X120952380Y-112738095D02*
X119952380Y-112738095D01*
X119952380Y-112357142D01*
X120000000Y-112261904D01*
X120047619Y-112214285D01*
X120142857Y-112166666D01*
X120285714Y-112166666D01*
X120380952Y-112214285D01*
X120428571Y-112261904D01*
X120476190Y-112357142D01*
X120476190Y-112738095D01*
X120952380Y-111214285D02*
X120952380Y-111785714D01*
X120952380Y-111500000D02*
X119952380Y-111500000D01*
X120095238Y-111595238D01*
X120190476Y-111690476D01*
X120238095Y-111785714D01*
X110833333Y-144452380D02*
X110500000Y-143976190D01*
X110261904Y-144452380D02*
X110261904Y-143452380D01*
X110642857Y-143452380D01*
X110738095Y-143500000D01*
X110785714Y-143547619D01*
X110833333Y-143642857D01*
X110833333Y-143785714D01*
X110785714Y-143880952D01*
X110738095Y-143928571D01*
X110642857Y-143976190D01*
X110261904Y-143976190D01*
X111214285Y-143547619D02*
X111261904Y-143500000D01*
X111357142Y-143452380D01*
X111595238Y-143452380D01*
X111690476Y-143500000D01*
X111738095Y-143547619D01*
X111785714Y-143642857D01*
X111785714Y-143738095D01*
X111738095Y-143880952D01*
X111166666Y-144452380D01*
X111785714Y-144452380D01*
X92833333Y-140452380D02*
X92500000Y-139976190D01*
X92261904Y-140452380D02*
X92261904Y-139452380D01*
X92642857Y-139452380D01*
X92738095Y-139500000D01*
X92785714Y-139547619D01*
X92833333Y-139642857D01*
X92833333Y-139785714D01*
X92785714Y-139880952D01*
X92738095Y-139928571D01*
X92642857Y-139976190D01*
X92261904Y-139976190D01*
X93166666Y-139452380D02*
X93785714Y-139452380D01*
X93452380Y-139833333D01*
X93595238Y-139833333D01*
X93690476Y-139880952D01*
X93738095Y-139928571D01*
X93785714Y-140023809D01*
X93785714Y-140261904D01*
X93738095Y-140357142D01*
X93690476Y-140404761D01*
X93595238Y-140452380D01*
X93309523Y-140452380D01*
X93214285Y-140404761D01*
X93166666Y-140357142D01*
X132452380Y-56666666D02*
X131976190Y-57000000D01*
X132452380Y-57238095D02*
X131452380Y-57238095D01*
X131452380Y-56857142D01*
X131500000Y-56761904D01*
X131547619Y-56714285D01*
X131642857Y-56666666D01*
X131785714Y-56666666D01*
X131880952Y-56714285D01*
X131928571Y-56761904D01*
X131976190Y-56857142D01*
X131976190Y-57238095D01*
X131785714Y-55809523D02*
X132452380Y-55809523D01*
X131404761Y-56047619D02*
X132119047Y-56285714D01*
X132119047Y-55666666D01*
X136452380Y-56666666D02*
X135976190Y-57000000D01*
X136452380Y-57238095D02*
X135452380Y-57238095D01*
X135452380Y-56857142D01*
X135500000Y-56761904D01*
X135547619Y-56714285D01*
X135642857Y-56666666D01*
X135785714Y-56666666D01*
X135880952Y-56714285D01*
X135928571Y-56761904D01*
X135976190Y-56857142D01*
X135976190Y-57238095D01*
X135452380Y-55761904D02*
X135452380Y-56238095D01*
X135928571Y-56285714D01*
X135880952Y-56238095D01*
X135833333Y-56142857D01*
X135833333Y-55904761D01*
X135880952Y-55809523D01*
X135928571Y-55761904D01*
X136023809Y-55714285D01*
X136261904Y-55714285D01*
X136357142Y-55761904D01*
X136404761Y-55809523D01*
X136452380Y-55904761D01*
X136452380Y-56142857D01*
X136404761Y-56238095D01*
X136357142Y-56285714D01*
X138833333Y-74952380D02*
X138500000Y-74476190D01*
X138261904Y-74952380D02*
X138261904Y-73952380D01*
X138642857Y-73952380D01*
X138738095Y-74000000D01*
X138785714Y-74047619D01*
X138833333Y-74142857D01*
X138833333Y-74285714D01*
X138785714Y-74380952D01*
X138738095Y-74428571D01*
X138642857Y-74476190D01*
X138261904Y-74476190D01*
X139690476Y-73952380D02*
X139500000Y-73952380D01*
X139404761Y-74000000D01*
X139357142Y-74047619D01*
X139261904Y-74190476D01*
X139214285Y-74380952D01*
X139214285Y-74761904D01*
X139261904Y-74857142D01*
X139309523Y-74904761D01*
X139404761Y-74952380D01*
X139595238Y-74952380D01*
X139690476Y-74904761D01*
X139738095Y-74857142D01*
X139785714Y-74761904D01*
X139785714Y-74523809D01*
X139738095Y-74428571D01*
X139690476Y-74380952D01*
X139595238Y-74333333D01*
X139404761Y-74333333D01*
X139309523Y-74380952D01*
X139261904Y-74428571D01*
X139214285Y-74523809D01*
X128833333Y-73452380D02*
X128500000Y-72976190D01*
X128261904Y-73452380D02*
X128261904Y-72452380D01*
X128642857Y-72452380D01*
X128738095Y-72500000D01*
X128785714Y-72547619D01*
X128833333Y-72642857D01*
X128833333Y-72785714D01*
X128785714Y-72880952D01*
X128738095Y-72928571D01*
X128642857Y-72976190D01*
X128261904Y-72976190D01*
X129166666Y-72452380D02*
X129833333Y-72452380D01*
X129404761Y-73452380D01*
X127333333Y-71452380D02*
X127000000Y-70976190D01*
X126761904Y-71452380D02*
X126761904Y-70452380D01*
X127142857Y-70452380D01*
X127238095Y-70500000D01*
X127285714Y-70547619D01*
X127333333Y-70642857D01*
X127333333Y-70785714D01*
X127285714Y-70880952D01*
X127238095Y-70928571D01*
X127142857Y-70976190D01*
X126761904Y-70976190D01*
X127904761Y-70880952D02*
X127809523Y-70833333D01*
X127761904Y-70785714D01*
X127714285Y-70690476D01*
X127714285Y-70642857D01*
X127761904Y-70547619D01*
X127809523Y-70500000D01*
X127904761Y-70452380D01*
X128095238Y-70452380D01*
X128190476Y-70500000D01*
X128238095Y-70547619D01*
X128285714Y-70642857D01*
X128285714Y-70690476D01*
X128238095Y-70785714D01*
X128190476Y-70833333D01*
X128095238Y-70880952D01*
X127904761Y-70880952D01*
X127809523Y-70928571D01*
X127761904Y-70976190D01*
X127714285Y-71071428D01*
X127714285Y-71261904D01*
X127761904Y-71357142D01*
X127809523Y-71404761D01*
X127904761Y-71452380D01*
X128095238Y-71452380D01*
X128190476Y-71404761D01*
X128238095Y-71357142D01*
X128285714Y-71261904D01*
X128285714Y-71071428D01*
X128238095Y-70976190D01*
X128190476Y-70928571D01*
X128095238Y-70880952D01*
X54333333Y-100382380D02*
X54000000Y-99906190D01*
X53761904Y-100382380D02*
X53761904Y-99382380D01*
X54142857Y-99382380D01*
X54238095Y-99430000D01*
X54285714Y-99477619D01*
X54333333Y-99572857D01*
X54333333Y-99715714D01*
X54285714Y-99810952D01*
X54238095Y-99858571D01*
X54142857Y-99906190D01*
X53761904Y-99906190D01*
X54809523Y-100382380D02*
X55000000Y-100382380D01*
X55095238Y-100334761D01*
X55142857Y-100287142D01*
X55238095Y-100144285D01*
X55285714Y-99953809D01*
X55285714Y-99572857D01*
X55238095Y-99477619D01*
X55190476Y-99430000D01*
X55095238Y-99382380D01*
X54904761Y-99382380D01*
X54809523Y-99430000D01*
X54761904Y-99477619D01*
X54714285Y-99572857D01*
X54714285Y-99810952D01*
X54761904Y-99906190D01*
X54809523Y-99953809D01*
X54904761Y-100001428D01*
X55095238Y-100001428D01*
X55190476Y-99953809D01*
X55238095Y-99906190D01*
X55285714Y-99810952D01*
X129552380Y-122042857D02*
X129076190Y-122376190D01*
X129552380Y-122614285D02*
X128552380Y-122614285D01*
X128552380Y-122233333D01*
X128600000Y-122138095D01*
X128647619Y-122090476D01*
X128742857Y-122042857D01*
X128885714Y-122042857D01*
X128980952Y-122090476D01*
X129028571Y-122138095D01*
X129076190Y-122233333D01*
X129076190Y-122614285D01*
X129552380Y-121090476D02*
X129552380Y-121661904D01*
X129552380Y-121376190D02*
X128552380Y-121376190D01*
X128695238Y-121471428D01*
X128790476Y-121566666D01*
X128838095Y-121661904D01*
X128552380Y-120471428D02*
X128552380Y-120376190D01*
X128600000Y-120280952D01*
X128647619Y-120233333D01*
X128742857Y-120185714D01*
X128933333Y-120138095D01*
X129171428Y-120138095D01*
X129361904Y-120185714D01*
X129457142Y-120233333D01*
X129504761Y-120280952D01*
X129552380Y-120376190D01*
X129552380Y-120471428D01*
X129504761Y-120566666D01*
X129457142Y-120614285D01*
X129361904Y-120661904D01*
X129171428Y-120709523D01*
X128933333Y-120709523D01*
X128742857Y-120661904D01*
X128647619Y-120614285D01*
X128600000Y-120566666D01*
X128552380Y-120471428D01*
X57022380Y-103642857D02*
X56546190Y-103976190D01*
X57022380Y-104214285D02*
X56022380Y-104214285D01*
X56022380Y-103833333D01*
X56070000Y-103738095D01*
X56117619Y-103690476D01*
X56212857Y-103642857D01*
X56355714Y-103642857D01*
X56450952Y-103690476D01*
X56498571Y-103738095D01*
X56546190Y-103833333D01*
X56546190Y-104214285D01*
X57022380Y-102690476D02*
X57022380Y-103261904D01*
X57022380Y-102976190D02*
X56022380Y-102976190D01*
X56165238Y-103071428D01*
X56260476Y-103166666D01*
X56308095Y-103261904D01*
X56117619Y-102309523D02*
X56070000Y-102261904D01*
X56022380Y-102166666D01*
X56022380Y-101928571D01*
X56070000Y-101833333D01*
X56117619Y-101785714D01*
X56212857Y-101738095D01*
X56308095Y-101738095D01*
X56450952Y-101785714D01*
X57022380Y-102357142D01*
X57022380Y-101738095D01*
X122857142Y-131452380D02*
X122523809Y-130976190D01*
X122285714Y-131452380D02*
X122285714Y-130452380D01*
X122666666Y-130452380D01*
X122761904Y-130500000D01*
X122809523Y-130547619D01*
X122857142Y-130642857D01*
X122857142Y-130785714D01*
X122809523Y-130880952D01*
X122761904Y-130928571D01*
X122666666Y-130976190D01*
X122285714Y-130976190D01*
X123809523Y-131452380D02*
X123238095Y-131452380D01*
X123523809Y-131452380D02*
X123523809Y-130452380D01*
X123428571Y-130595238D01*
X123333333Y-130690476D01*
X123238095Y-130738095D01*
X124142857Y-130452380D02*
X124761904Y-130452380D01*
X124428571Y-130833333D01*
X124571428Y-130833333D01*
X124666666Y-130880952D01*
X124714285Y-130928571D01*
X124761904Y-131023809D01*
X124761904Y-131261904D01*
X124714285Y-131357142D01*
X124666666Y-131404761D01*
X124571428Y-131452380D01*
X124285714Y-131452380D01*
X124190476Y-131404761D01*
X124142857Y-131357142D01*
X121452380Y-120142857D02*
X120976190Y-120476190D01*
X121452380Y-120714285D02*
X120452380Y-120714285D01*
X120452380Y-120333333D01*
X120500000Y-120238095D01*
X120547619Y-120190476D01*
X120642857Y-120142857D01*
X120785714Y-120142857D01*
X120880952Y-120190476D01*
X120928571Y-120238095D01*
X120976190Y-120333333D01*
X120976190Y-120714285D01*
X121452380Y-119190476D02*
X121452380Y-119761904D01*
X121452380Y-119476190D02*
X120452380Y-119476190D01*
X120595238Y-119571428D01*
X120690476Y-119666666D01*
X120738095Y-119761904D01*
X120785714Y-118333333D02*
X121452380Y-118333333D01*
X120404761Y-118571428D02*
X121119047Y-118809523D01*
X121119047Y-118190476D01*
X117857142Y-146452380D02*
X117523809Y-145976190D01*
X117285714Y-146452380D02*
X117285714Y-145452380D01*
X117666666Y-145452380D01*
X117761904Y-145500000D01*
X117809523Y-145547619D01*
X117857142Y-145642857D01*
X117857142Y-145785714D01*
X117809523Y-145880952D01*
X117761904Y-145928571D01*
X117666666Y-145976190D01*
X117285714Y-145976190D01*
X118809523Y-146452380D02*
X118238095Y-146452380D01*
X118523809Y-146452380D02*
X118523809Y-145452380D01*
X118428571Y-145595238D01*
X118333333Y-145690476D01*
X118238095Y-145738095D01*
X119714285Y-145452380D02*
X119238095Y-145452380D01*
X119190476Y-145928571D01*
X119238095Y-145880952D01*
X119333333Y-145833333D01*
X119571428Y-145833333D01*
X119666666Y-145880952D01*
X119714285Y-145928571D01*
X119761904Y-146023809D01*
X119761904Y-146261904D01*
X119714285Y-146357142D01*
X119666666Y-146404761D01*
X119571428Y-146452380D01*
X119333333Y-146452380D01*
X119238095Y-146404761D01*
X119190476Y-146357142D01*
X121882380Y-143642857D02*
X121406190Y-143976190D01*
X121882380Y-144214285D02*
X120882380Y-144214285D01*
X120882380Y-143833333D01*
X120930000Y-143738095D01*
X120977619Y-143690476D01*
X121072857Y-143642857D01*
X121215714Y-143642857D01*
X121310952Y-143690476D01*
X121358571Y-143738095D01*
X121406190Y-143833333D01*
X121406190Y-144214285D01*
X121882380Y-142690476D02*
X121882380Y-143261904D01*
X121882380Y-142976190D02*
X120882380Y-142976190D01*
X121025238Y-143071428D01*
X121120476Y-143166666D01*
X121168095Y-143261904D01*
X120882380Y-141833333D02*
X120882380Y-142023809D01*
X120930000Y-142119047D01*
X120977619Y-142166666D01*
X121120476Y-142261904D01*
X121310952Y-142309523D01*
X121691904Y-142309523D01*
X121787142Y-142261904D01*
X121834761Y-142214285D01*
X121882380Y-142119047D01*
X121882380Y-141928571D01*
X121834761Y-141833333D01*
X121787142Y-141785714D01*
X121691904Y-141738095D01*
X121453809Y-141738095D01*
X121358571Y-141785714D01*
X121310952Y-141833333D01*
X121263333Y-141928571D01*
X121263333Y-142119047D01*
X121310952Y-142214285D01*
X121358571Y-142261904D01*
X121453809Y-142309523D01*
X117357142Y-108452380D02*
X117023809Y-107976190D01*
X116785714Y-108452380D02*
X116785714Y-107452380D01*
X117166666Y-107452380D01*
X117261904Y-107500000D01*
X117309523Y-107547619D01*
X117357142Y-107642857D01*
X117357142Y-107785714D01*
X117309523Y-107880952D01*
X117261904Y-107928571D01*
X117166666Y-107976190D01*
X116785714Y-107976190D01*
X118309523Y-108452380D02*
X117738095Y-108452380D01*
X118023809Y-108452380D02*
X118023809Y-107452380D01*
X117928571Y-107595238D01*
X117833333Y-107690476D01*
X117738095Y-107738095D01*
X118642857Y-107452380D02*
X119309523Y-107452380D01*
X118880952Y-108452380D01*
X117357142Y-109952380D02*
X117023809Y-109476190D01*
X116785714Y-109952380D02*
X116785714Y-108952380D01*
X117166666Y-108952380D01*
X117261904Y-109000000D01*
X117309523Y-109047619D01*
X117357142Y-109142857D01*
X117357142Y-109285714D01*
X117309523Y-109380952D01*
X117261904Y-109428571D01*
X117166666Y-109476190D01*
X116785714Y-109476190D01*
X118309523Y-109952380D02*
X117738095Y-109952380D01*
X118023809Y-109952380D02*
X118023809Y-108952380D01*
X117928571Y-109095238D01*
X117833333Y-109190476D01*
X117738095Y-109238095D01*
X118880952Y-109380952D02*
X118785714Y-109333333D01*
X118738095Y-109285714D01*
X118690476Y-109190476D01*
X118690476Y-109142857D01*
X118738095Y-109047619D01*
X118785714Y-109000000D01*
X118880952Y-108952380D01*
X119071428Y-108952380D01*
X119166666Y-109000000D01*
X119214285Y-109047619D01*
X119261904Y-109142857D01*
X119261904Y-109190476D01*
X119214285Y-109285714D01*
X119166666Y-109333333D01*
X119071428Y-109380952D01*
X118880952Y-109380952D01*
X118785714Y-109428571D01*
X118738095Y-109476190D01*
X118690476Y-109571428D01*
X118690476Y-109761904D01*
X118738095Y-109857142D01*
X118785714Y-109904761D01*
X118880952Y-109952380D01*
X119071428Y-109952380D01*
X119166666Y-109904761D01*
X119214285Y-109857142D01*
X119261904Y-109761904D01*
X119261904Y-109571428D01*
X119214285Y-109476190D01*
X119166666Y-109428571D01*
X119071428Y-109380952D01*
X117357142Y-106952380D02*
X117023809Y-106476190D01*
X116785714Y-106952380D02*
X116785714Y-105952380D01*
X117166666Y-105952380D01*
X117261904Y-106000000D01*
X117309523Y-106047619D01*
X117357142Y-106142857D01*
X117357142Y-106285714D01*
X117309523Y-106380952D01*
X117261904Y-106428571D01*
X117166666Y-106476190D01*
X116785714Y-106476190D01*
X118309523Y-106952380D02*
X117738095Y-106952380D01*
X118023809Y-106952380D02*
X118023809Y-105952380D01*
X117928571Y-106095238D01*
X117833333Y-106190476D01*
X117738095Y-106238095D01*
X118785714Y-106952380D02*
X118976190Y-106952380D01*
X119071428Y-106904761D01*
X119119047Y-106857142D01*
X119214285Y-106714285D01*
X119261904Y-106523809D01*
X119261904Y-106142857D01*
X119214285Y-106047619D01*
X119166666Y-106000000D01*
X119071428Y-105952380D01*
X118880952Y-105952380D01*
X118785714Y-106000000D01*
X118738095Y-106047619D01*
X118690476Y-106142857D01*
X118690476Y-106380952D01*
X118738095Y-106476190D01*
X118785714Y-106523809D01*
X118880952Y-106571428D01*
X119071428Y-106571428D01*
X119166666Y-106523809D01*
X119214285Y-106476190D01*
X119261904Y-106380952D01*
X71666666Y-148904761D02*
X71809523Y-148952380D01*
X72047619Y-148952380D01*
X72142857Y-148904761D01*
X72190476Y-148857142D01*
X72238095Y-148761904D01*
X72238095Y-148666666D01*
X72190476Y-148571428D01*
X72142857Y-148523809D01*
X72047619Y-148476190D01*
X71857142Y-148428571D01*
X71761904Y-148380952D01*
X71714285Y-148333333D01*
X71666666Y-148238095D01*
X71666666Y-148142857D01*
X71714285Y-148047619D01*
X71761904Y-148000000D01*
X71857142Y-147952380D01*
X72095238Y-147952380D01*
X72238095Y-148000000D01*
X72571428Y-147952380D02*
X72809523Y-148952380D01*
X73000000Y-148238095D01*
X73190476Y-148952380D01*
X73428571Y-147952380D01*
X73714285Y-147952380D02*
X74333333Y-147952380D01*
X74000000Y-148333333D01*
X74142857Y-148333333D01*
X74238095Y-148380952D01*
X74285714Y-148428571D01*
X74333333Y-148523809D01*
X74333333Y-148761904D01*
X74285714Y-148857142D01*
X74238095Y-148904761D01*
X74142857Y-148952380D01*
X73857142Y-148952380D01*
X73761904Y-148904761D01*
X73714285Y-148857142D01*
X98238095Y-128327380D02*
X98238095Y-129136904D01*
X98285714Y-129232142D01*
X98333333Y-129279761D01*
X98428571Y-129327380D01*
X98619047Y-129327380D01*
X98714285Y-129279761D01*
X98761904Y-129232142D01*
X98809523Y-129136904D01*
X98809523Y-128327380D01*
X99238095Y-128422619D02*
X99285714Y-128375000D01*
X99380952Y-128327380D01*
X99619047Y-128327380D01*
X99714285Y-128375000D01*
X99761904Y-128422619D01*
X99809523Y-128517857D01*
X99809523Y-128613095D01*
X99761904Y-128755952D01*
X99190476Y-129327380D01*
X99809523Y-129327380D01*
X110988095Y-123952380D02*
X110988095Y-124761904D01*
X111035714Y-124857142D01*
X111083333Y-124904761D01*
X111178571Y-124952380D01*
X111369047Y-124952380D01*
X111464285Y-124904761D01*
X111511904Y-124857142D01*
X111559523Y-124761904D01*
X111559523Y-123952380D01*
X111940476Y-123952380D02*
X112559523Y-123952380D01*
X112226190Y-124333333D01*
X112369047Y-124333333D01*
X112464285Y-124380952D01*
X112511904Y-124428571D01*
X112559523Y-124523809D01*
X112559523Y-124761904D01*
X112511904Y-124857142D01*
X112464285Y-124904761D01*
X112369047Y-124952380D01*
X112083333Y-124952380D01*
X111988095Y-124904761D01*
X111940476Y-124857142D01*
X137752380Y-66761904D02*
X138561904Y-66761904D01*
X138657142Y-66714285D01*
X138704761Y-66666666D01*
X138752380Y-66571428D01*
X138752380Y-66380952D01*
X138704761Y-66285714D01*
X138657142Y-66238095D01*
X138561904Y-66190476D01*
X137752380Y-66190476D01*
X138085714Y-65285714D02*
X138752380Y-65285714D01*
X137704761Y-65523809D02*
X138419047Y-65761904D01*
X138419047Y-65142857D01*
X72238095Y-54927381D02*
X72238095Y-55736905D01*
X72285714Y-55832143D01*
X72333333Y-55879762D01*
X72428571Y-55927381D01*
X72619047Y-55927381D01*
X72714285Y-55879762D01*
X72761904Y-55832143D01*
X72809523Y-55736905D01*
X72809523Y-54927381D01*
X73761904Y-54927381D02*
X73285714Y-54927381D01*
X73238095Y-55403572D01*
X73285714Y-55355953D01*
X73380952Y-55308334D01*
X73619047Y-55308334D01*
X73714285Y-55355953D01*
X73761904Y-55403572D01*
X73809523Y-55498810D01*
X73809523Y-55736905D01*
X73761904Y-55832143D01*
X73714285Y-55879762D01*
X73619047Y-55927381D01*
X73380952Y-55927381D01*
X73285714Y-55879762D01*
X73238095Y-55832143D01*
X67690476Y-57927381D02*
X67214285Y-57927381D01*
X67214285Y-56927381D01*
X68595238Y-57832143D02*
X68547619Y-57879762D01*
X68404761Y-57927381D01*
X68309523Y-57927381D01*
X68166666Y-57879762D01*
X68071428Y-57784524D01*
X68023809Y-57689286D01*
X67976190Y-57498810D01*
X67976190Y-57355953D01*
X68023809Y-57165477D01*
X68071428Y-57070239D01*
X68166666Y-56975001D01*
X68309523Y-56927381D01*
X68404761Y-56927381D01*
X68547619Y-56975001D01*
X68595238Y-57022620D01*
X69023809Y-57927381D02*
X69023809Y-56927381D01*
X69261904Y-56927381D01*
X69404761Y-56975001D01*
X69500000Y-57070239D01*
X69547619Y-57165477D01*
X69595238Y-57355953D01*
X69595238Y-57498810D01*
X69547619Y-57689286D01*
X69500000Y-57784524D01*
X69404761Y-57879762D01*
X69261904Y-57927381D01*
X69023809Y-57927381D01*
X71214285Y-57927381D02*
X71214285Y-57403572D01*
X71166666Y-57308334D01*
X71071428Y-57260715D01*
X70880952Y-57260715D01*
X70785714Y-57308334D01*
X71214285Y-57879762D02*
X71119047Y-57927381D01*
X70880952Y-57927381D01*
X70785714Y-57879762D01*
X70738095Y-57784524D01*
X70738095Y-57689286D01*
X70785714Y-57594048D01*
X70880952Y-57546429D01*
X71119047Y-57546429D01*
X71214285Y-57498810D01*
X72119047Y-57879762D02*
X72023809Y-57927381D01*
X71833333Y-57927381D01*
X71738095Y-57879762D01*
X71690476Y-57832143D01*
X71642857Y-57736905D01*
X71642857Y-57451191D01*
X71690476Y-57355953D01*
X71738095Y-57308334D01*
X71833333Y-57260715D01*
X72023809Y-57260715D01*
X72119047Y-57308334D01*
X72404761Y-57260715D02*
X72785714Y-57260715D01*
X72547619Y-56927381D02*
X72547619Y-57784524D01*
X72595238Y-57879762D01*
X72690476Y-57927381D01*
X72785714Y-57927381D01*
X73119047Y-57927381D02*
X73119047Y-57260715D01*
X73119047Y-56927381D02*
X73071428Y-56975001D01*
X73119047Y-57022620D01*
X73166666Y-56975001D01*
X73119047Y-56927381D01*
X73119047Y-57022620D01*
X73500000Y-57260715D02*
X73738095Y-57927381D01*
X73976190Y-57260715D01*
X74738095Y-57879762D02*
X74642857Y-57927381D01*
X74452380Y-57927381D01*
X74357142Y-57879762D01*
X74309523Y-57784524D01*
X74309523Y-57403572D01*
X74357142Y-57308334D01*
X74452380Y-57260715D01*
X74642857Y-57260715D01*
X74738095Y-57308334D01*
X74785714Y-57403572D01*
X74785714Y-57498810D01*
X74309523Y-57594048D01*
X76404761Y-57927381D02*
X76404761Y-57403572D01*
X76357142Y-57308334D01*
X76261904Y-57260715D01*
X76071428Y-57260715D01*
X75976190Y-57308334D01*
X76404761Y-57879762D02*
X76309523Y-57927381D01*
X76071428Y-57927381D01*
X75976190Y-57879762D01*
X75928571Y-57784524D01*
X75928571Y-57689286D01*
X75976190Y-57594048D01*
X76071428Y-57546429D01*
X76309523Y-57546429D01*
X76404761Y-57498810D01*
X76880952Y-57927381D02*
X76880952Y-57260715D01*
X76880952Y-57451191D02*
X76928571Y-57355953D01*
X76976190Y-57308334D01*
X77071428Y-57260715D01*
X77166666Y-57260715D01*
X77880952Y-57879762D02*
X77785714Y-57927381D01*
X77595238Y-57927381D01*
X77500000Y-57879762D01*
X77452380Y-57784524D01*
X77452380Y-57403572D01*
X77500000Y-57308334D01*
X77595238Y-57260715D01*
X77785714Y-57260715D01*
X77880952Y-57308334D01*
X77928571Y-57403572D01*
X77928571Y-57498810D01*
X77452380Y-57594048D01*
X78785714Y-57927381D02*
X78785714Y-57403572D01*
X78738095Y-57308334D01*
X78642857Y-57260715D01*
X78452380Y-57260715D01*
X78357142Y-57308334D01*
X78785714Y-57879762D02*
X78690476Y-57927381D01*
X78452380Y-57927381D01*
X78357142Y-57879762D01*
X78309523Y-57784524D01*
X78309523Y-57689286D01*
X78357142Y-57594048D01*
X78452380Y-57546429D01*
X78690476Y-57546429D01*
X78785714Y-57498810D01*
X67166666Y-59927381D02*
X66595238Y-59927381D01*
X66880952Y-59927381D02*
X66880952Y-58927381D01*
X66785714Y-59070239D01*
X66690476Y-59165477D01*
X66595238Y-59213096D01*
X67547619Y-59022620D02*
X67595238Y-58975001D01*
X67690476Y-58927381D01*
X67928571Y-58927381D01*
X68023809Y-58975001D01*
X68071428Y-59022620D01*
X68119047Y-59117858D01*
X68119047Y-59213096D01*
X68071428Y-59355953D01*
X67500000Y-59927381D01*
X68119047Y-59927381D01*
X68690476Y-59355953D02*
X68595238Y-59308334D01*
X68547619Y-59260715D01*
X68500000Y-59165477D01*
X68500000Y-59117858D01*
X68547619Y-59022620D01*
X68595238Y-58975001D01*
X68690476Y-58927381D01*
X68880952Y-58927381D01*
X68976190Y-58975001D01*
X69023809Y-59022620D01*
X69071428Y-59117858D01*
X69071428Y-59165477D01*
X69023809Y-59260715D01*
X68976190Y-59308334D01*
X68880952Y-59355953D01*
X68690476Y-59355953D01*
X68595238Y-59403572D01*
X68547619Y-59451191D01*
X68500000Y-59546429D01*
X68500000Y-59736905D01*
X68547619Y-59832143D01*
X68595238Y-59879762D01*
X68690476Y-59927381D01*
X68880952Y-59927381D01*
X68976190Y-59879762D01*
X69023809Y-59832143D01*
X69071428Y-59736905D01*
X69071428Y-59546429D01*
X69023809Y-59451191D01*
X68976190Y-59403572D01*
X68880952Y-59355953D01*
X70166666Y-59927381D02*
X70690476Y-59260715D01*
X70166666Y-59260715D02*
X70690476Y-59927381D01*
X72357142Y-59927381D02*
X71785714Y-59927381D01*
X72071428Y-59927381D02*
X72071428Y-58927381D01*
X71976190Y-59070239D01*
X71880952Y-59165477D01*
X71785714Y-59213096D01*
X72738095Y-59022620D02*
X72785714Y-58975001D01*
X72880952Y-58927381D01*
X73119047Y-58927381D01*
X73214285Y-58975001D01*
X73261904Y-59022620D01*
X73309523Y-59117858D01*
X73309523Y-59213096D01*
X73261904Y-59355953D01*
X72690476Y-59927381D01*
X73309523Y-59927381D01*
X73880952Y-59355953D02*
X73785714Y-59308334D01*
X73738095Y-59260715D01*
X73690476Y-59165477D01*
X73690476Y-59117858D01*
X73738095Y-59022620D01*
X73785714Y-58975001D01*
X73880952Y-58927381D01*
X74071428Y-58927381D01*
X74166666Y-58975001D01*
X74214285Y-59022620D01*
X74261904Y-59117858D01*
X74261904Y-59165477D01*
X74214285Y-59260715D01*
X74166666Y-59308334D01*
X74071428Y-59355953D01*
X73880952Y-59355953D01*
X73785714Y-59403572D01*
X73738095Y-59451191D01*
X73690476Y-59546429D01*
X73690476Y-59736905D01*
X73738095Y-59832143D01*
X73785714Y-59879762D01*
X73880952Y-59927381D01*
X74071428Y-59927381D01*
X74166666Y-59879762D01*
X74214285Y-59832143D01*
X74261904Y-59736905D01*
X74261904Y-59546429D01*
X74214285Y-59451191D01*
X74166666Y-59403572D01*
X74071428Y-59355953D01*
X75452380Y-59260715D02*
X75452380Y-60260715D01*
X75452380Y-59308334D02*
X75547619Y-59260715D01*
X75738095Y-59260715D01*
X75833333Y-59308334D01*
X75880952Y-59355953D01*
X75928571Y-59451191D01*
X75928571Y-59736905D01*
X75880952Y-59832143D01*
X75833333Y-59879762D01*
X75738095Y-59927381D01*
X75547619Y-59927381D01*
X75452380Y-59879762D01*
X76357142Y-59927381D02*
X76357142Y-59260715D01*
X76357142Y-58927381D02*
X76309523Y-58975001D01*
X76357142Y-59022620D01*
X76404761Y-58975001D01*
X76357142Y-58927381D01*
X76357142Y-59022620D01*
X76738095Y-59927381D02*
X77261904Y-59260715D01*
X76738095Y-59260715D02*
X77261904Y-59927381D01*
X78023809Y-59879762D02*
X77928571Y-59927381D01*
X77738095Y-59927381D01*
X77642857Y-59879762D01*
X77595238Y-59784524D01*
X77595238Y-59403572D01*
X77642857Y-59308334D01*
X77738095Y-59260715D01*
X77928571Y-59260715D01*
X78023809Y-59308334D01*
X78071428Y-59403572D01*
X78071428Y-59498810D01*
X77595238Y-59594048D01*
X78642857Y-59927381D02*
X78547619Y-59879762D01*
X78500000Y-59784524D01*
X78500000Y-58927381D01*
X78976190Y-59879762D02*
X79071428Y-59927381D01*
X79261904Y-59927381D01*
X79357142Y-59879762D01*
X79404761Y-59784524D01*
X79404761Y-59736905D01*
X79357142Y-59641667D01*
X79261904Y-59594048D01*
X79119047Y-59594048D01*
X79023809Y-59546429D01*
X78976190Y-59451191D01*
X78976190Y-59403572D01*
X79023809Y-59308334D01*
X79119047Y-59260715D01*
X79261904Y-59260715D01*
X79357142Y-59308334D01*
X139238095Y-115452380D02*
X139238095Y-116261904D01*
X139285714Y-116357142D01*
X139333333Y-116404761D01*
X139428571Y-116452380D01*
X139619047Y-116452380D01*
X139714285Y-116404761D01*
X139761904Y-116357142D01*
X139809523Y-116261904D01*
X139809523Y-115452380D01*
X140714285Y-115452380D02*
X140523809Y-115452380D01*
X140428571Y-115500000D01*
X140380952Y-115547619D01*
X140285714Y-115690476D01*
X140238095Y-115880952D01*
X140238095Y-116261904D01*
X140285714Y-116357142D01*
X140333333Y-116404761D01*
X140428571Y-116452380D01*
X140619047Y-116452380D01*
X140714285Y-116404761D01*
X140761904Y-116357142D01*
X140809523Y-116261904D01*
X140809523Y-116023809D01*
X140761904Y-115928571D01*
X140714285Y-115880952D01*
X140619047Y-115833333D01*
X140428571Y-115833333D01*
X140333333Y-115880952D01*
X140285714Y-115928571D01*
X140238095Y-116023809D01*
X123238095Y-126452380D02*
X123238095Y-127261904D01*
X123285714Y-127357142D01*
X123333333Y-127404761D01*
X123428571Y-127452380D01*
X123619047Y-127452380D01*
X123714285Y-127404761D01*
X123761904Y-127357142D01*
X123809523Y-127261904D01*
X123809523Y-126452380D01*
X124190476Y-126452380D02*
X124857142Y-126452380D01*
X124428571Y-127452380D01*
X117202380Y-143761904D02*
X118011904Y-143761904D01*
X118107142Y-143714285D01*
X118154761Y-143666666D01*
X118202380Y-143571428D01*
X118202380Y-143380952D01*
X118154761Y-143285714D01*
X118107142Y-143238095D01*
X118011904Y-143190476D01*
X117202380Y-143190476D01*
X117630952Y-142571428D02*
X117583333Y-142666666D01*
X117535714Y-142714285D01*
X117440476Y-142761904D01*
X117392857Y-142761904D01*
X117297619Y-142714285D01*
X117250000Y-142666666D01*
X117202380Y-142571428D01*
X117202380Y-142380952D01*
X117250000Y-142285714D01*
X117297619Y-142238095D01*
X117392857Y-142190476D01*
X117440476Y-142190476D01*
X117535714Y-142238095D01*
X117583333Y-142285714D01*
X117630952Y-142380952D01*
X117630952Y-142571428D01*
X117678571Y-142666666D01*
X117726190Y-142714285D01*
X117821428Y-142761904D01*
X118011904Y-142761904D01*
X118107142Y-142714285D01*
X118154761Y-142666666D01*
X118202380Y-142571428D01*
X118202380Y-142380952D01*
X118154761Y-142285714D01*
X118107142Y-142238095D01*
X118011904Y-142190476D01*
X117821428Y-142190476D01*
X117726190Y-142238095D01*
X117678571Y-142285714D01*
X117630952Y-142380952D01*
X97452380Y-137261904D02*
X98261904Y-137261904D01*
X98357142Y-137214285D01*
X98404761Y-137166666D01*
X98452380Y-137071428D01*
X98452380Y-136880952D01*
X98404761Y-136785714D01*
X98357142Y-136738095D01*
X98261904Y-136690476D01*
X97452380Y-136690476D01*
X98452380Y-136166666D02*
X98452380Y-135976190D01*
X98404761Y-135880952D01*
X98357142Y-135833333D01*
X98214285Y-135738095D01*
X98023809Y-135690476D01*
X97642857Y-135690476D01*
X97547619Y-135738095D01*
X97500000Y-135785714D01*
X97452380Y-135880952D01*
X97452380Y-136071428D01*
X97500000Y-136166666D01*
X97547619Y-136214285D01*
X97642857Y-136261904D01*
X97880952Y-136261904D01*
X97976190Y-136214285D01*
X98023809Y-136166666D01*
X98071428Y-136071428D01*
X98071428Y-135880952D01*
X98023809Y-135785714D01*
X97976190Y-135738095D01*
X97880952Y-135690476D01*
X131761904Y-112452380D02*
X131761904Y-113261904D01*
X131809523Y-113357142D01*
X131857142Y-113404761D01*
X131952380Y-113452380D01*
X132142857Y-113452380D01*
X132238095Y-113404761D01*
X132285714Y-113357142D01*
X132333333Y-113261904D01*
X132333333Y-112452380D01*
X133333333Y-113452380D02*
X132761904Y-113452380D01*
X133047619Y-113452380D02*
X133047619Y-112452380D01*
X132952380Y-112595238D01*
X132857142Y-112690476D01*
X132761904Y-112738095D01*
X133952380Y-112452380D02*
X134047619Y-112452380D01*
X134142857Y-112500000D01*
X134190476Y-112547619D01*
X134238095Y-112642857D01*
X134285714Y-112833333D01*
X134285714Y-113071428D01*
X134238095Y-113261904D01*
X134190476Y-113357142D01*
X134142857Y-113404761D01*
X134047619Y-113452380D01*
X133952380Y-113452380D01*
X133857142Y-113404761D01*
X133809523Y-113357142D01*
X133761904Y-113261904D01*
X133714285Y-113071428D01*
X133714285Y-112833333D01*
X133761904Y-112642857D01*
X133809523Y-112547619D01*
X133857142Y-112500000D01*
X133952380Y-112452380D01*
X52261904Y-112952380D02*
X52261904Y-113761904D01*
X52309523Y-113857142D01*
X52357142Y-113904761D01*
X52452380Y-113952380D01*
X52642857Y-113952380D01*
X52738095Y-113904761D01*
X52785714Y-113857142D01*
X52833333Y-113761904D01*
X52833333Y-112952380D01*
X53833333Y-113952380D02*
X53261904Y-113952380D01*
X53547619Y-113952380D02*
X53547619Y-112952380D01*
X53452380Y-113095238D01*
X53357142Y-113190476D01*
X53261904Y-113238095D01*
X54785714Y-113952380D02*
X54214285Y-113952380D01*
X54500000Y-113952380D02*
X54500000Y-112952380D01*
X54404761Y-113095238D01*
X54309523Y-113190476D01*
X54214285Y-113238095D01*
X134054761Y-144333333D02*
X134102380Y-144190476D01*
X134102380Y-143952380D01*
X134054761Y-143857142D01*
X134007142Y-143809523D01*
X133911904Y-143761904D01*
X133816666Y-143761904D01*
X133721428Y-143809523D01*
X133673809Y-143857142D01*
X133626190Y-143952380D01*
X133578571Y-144142857D01*
X133530952Y-144238095D01*
X133483333Y-144285714D01*
X133388095Y-144333333D01*
X133292857Y-144333333D01*
X133197619Y-144285714D01*
X133150000Y-144238095D01*
X133102380Y-144142857D01*
X133102380Y-143904761D01*
X133150000Y-143761904D01*
X133102380Y-143428571D02*
X134102380Y-143190476D01*
X133388095Y-143000000D01*
X134102380Y-142809523D01*
X133102380Y-142571428D01*
X134102380Y-141666666D02*
X134102380Y-142238095D01*
X134102380Y-141952380D02*
X133102380Y-141952380D01*
X133245238Y-142047619D01*
X133340476Y-142142857D01*
X133388095Y-142238095D01*
X142054761Y-144333333D02*
X142102380Y-144190476D01*
X142102380Y-143952380D01*
X142054761Y-143857142D01*
X142007142Y-143809523D01*
X141911904Y-143761904D01*
X141816666Y-143761904D01*
X141721428Y-143809523D01*
X141673809Y-143857142D01*
X141626190Y-143952380D01*
X141578571Y-144142857D01*
X141530952Y-144238095D01*
X141483333Y-144285714D01*
X141388095Y-144333333D01*
X141292857Y-144333333D01*
X141197619Y-144285714D01*
X141150000Y-144238095D01*
X141102380Y-144142857D01*
X141102380Y-143904761D01*
X141150000Y-143761904D01*
X141102380Y-143428571D02*
X142102380Y-143190476D01*
X141388095Y-143000000D01*
X142102380Y-142809523D01*
X141102380Y-142571428D01*
X141197619Y-142238095D02*
X141150000Y-142190476D01*
X141102380Y-142095238D01*
X141102380Y-141857142D01*
X141150000Y-141761904D01*
X141197619Y-141714285D01*
X141292857Y-141666666D01*
X141388095Y-141666666D01*
X141530952Y-141714285D01*
X142102380Y-142285714D01*
X142102380Y-141666666D01*
X145666666Y-57122380D02*
X145666666Y-57836666D01*
X145619047Y-57979523D01*
X145523809Y-58074761D01*
X145380952Y-58122380D01*
X145285714Y-58122380D01*
X146095238Y-57217619D02*
X146142857Y-57170000D01*
X146238095Y-57122380D01*
X146476190Y-57122380D01*
X146571428Y-57170000D01*
X146619047Y-57217619D01*
X146666666Y-57312857D01*
X146666666Y-57408095D01*
X146619047Y-57550952D01*
X146047619Y-58122380D01*
X146666666Y-58122380D01*
X145666666Y-75622380D02*
X145666666Y-76336666D01*
X145619047Y-76479523D01*
X145523809Y-76574761D01*
X145380952Y-76622380D01*
X145285714Y-76622380D01*
X146047619Y-75622380D02*
X146666666Y-75622380D01*
X146333333Y-76003333D01*
X146476190Y-76003333D01*
X146571428Y-76050952D01*
X146619047Y-76098571D01*
X146666666Y-76193809D01*
X146666666Y-76431904D01*
X146619047Y-76527142D01*
X146571428Y-76574761D01*
X146476190Y-76622380D01*
X146190476Y-76622380D01*
X146095238Y-76574761D01*
X146047619Y-76527142D01*
X84357142Y-107452380D02*
X84023809Y-106976190D01*
X83785714Y-107452380D02*
X83785714Y-106452380D01*
X84166666Y-106452380D01*
X84261904Y-106500000D01*
X84309523Y-106547619D01*
X84357142Y-106642857D01*
X84357142Y-106785714D01*
X84309523Y-106880952D01*
X84261904Y-106928571D01*
X84166666Y-106976190D01*
X83785714Y-106976190D01*
X85309523Y-107452380D02*
X84738095Y-107452380D01*
X85023809Y-107452380D02*
X85023809Y-106452380D01*
X84928571Y-106595238D01*
X84833333Y-106690476D01*
X84738095Y-106738095D01*
X86261904Y-107452380D02*
X85690476Y-107452380D01*
X85976190Y-107452380D02*
X85976190Y-106452380D01*
X85880952Y-106595238D01*
X85785714Y-106690476D01*
X85690476Y-106738095D01*
X85857142Y-105452380D02*
X85523809Y-104976190D01*
X85285714Y-105452380D02*
X85285714Y-104452380D01*
X85666666Y-104452380D01*
X85761904Y-104500000D01*
X85809523Y-104547619D01*
X85857142Y-104642857D01*
X85857142Y-104785714D01*
X85809523Y-104880952D01*
X85761904Y-104928571D01*
X85666666Y-104976190D01*
X85285714Y-104976190D01*
X86238095Y-104547619D02*
X86285714Y-104500000D01*
X86380952Y-104452380D01*
X86619047Y-104452380D01*
X86714285Y-104500000D01*
X86761904Y-104547619D01*
X86809523Y-104642857D01*
X86809523Y-104738095D01*
X86761904Y-104880952D01*
X86190476Y-105452380D01*
X86809523Y-105452380D01*
X87428571Y-104452380D02*
X87523809Y-104452380D01*
X87619047Y-104500000D01*
X87666666Y-104547619D01*
X87714285Y-104642857D01*
X87761904Y-104833333D01*
X87761904Y-105071428D01*
X87714285Y-105261904D01*
X87666666Y-105357142D01*
X87619047Y-105404761D01*
X87523809Y-105452380D01*
X87428571Y-105452380D01*
X87333333Y-105404761D01*
X87285714Y-105357142D01*
X87238095Y-105261904D01*
X87190476Y-105071428D01*
X87190476Y-104833333D01*
X87238095Y-104642857D01*
X87285714Y-104547619D01*
X87333333Y-104500000D01*
X87428571Y-104452380D01*
M02*
