G04 #@! TF.GenerationSoftware,KiCad,Pcbnew,(5.1.0-0)*
G04 #@! TF.CreationDate,2019-04-19T23:51:09-04:00*
G04 #@! TF.ProjectId,thingb-eval-hw,7468696e-6762-42d6-9576-616c2d68772e,rev?*
G04 #@! TF.SameCoordinates,Original*
G04 #@! TF.FileFunction,Copper,L2,Bot*
G04 #@! TF.FilePolarity,Positive*
%FSLAX46Y46*%
G04 Gerber Fmt 4.6, Leading zero omitted, Abs format (unit mm)*
G04 Created by KiCad (PCBNEW (5.1.0-0)) date 2019-04-19 23:51:09*
%MOMM*%
%LPD*%
G04 APERTURE LIST*
%ADD10C,0.700000*%
%ADD11C,4.400000*%
%ADD12C,0.650000*%
%ADD13O,1.000000X1.600000*%
%ADD14O,1.000000X2.100000*%
%ADD15R,1.700000X1.700000*%
%ADD16O,1.700000X1.700000*%
%ADD17C,2.000000*%
%ADD18C,2.100000*%
%ADD19C,0.800000*%
%ADD20C,0.250000*%
%ADD21C,0.254000*%
G04 APERTURE END LIST*
D10*
X147166726Y-52833274D03*
X146000000Y-52350000D03*
X144833274Y-52833274D03*
X144350000Y-54000000D03*
X144833274Y-55166726D03*
X146000000Y-55650000D03*
X147166726Y-55166726D03*
X147650000Y-54000000D03*
D11*
X146000000Y-54000000D03*
D10*
X55166726Y-52833274D03*
X54000000Y-52350000D03*
X52833274Y-52833274D03*
X52350000Y-54000000D03*
X52833274Y-55166726D03*
X54000000Y-55650000D03*
X55166726Y-55166726D03*
X55650000Y-54000000D03*
D11*
X54000000Y-54000000D03*
D10*
X55166726Y-144833274D03*
X54000000Y-144350000D03*
X52833274Y-144833274D03*
X52350000Y-146000000D03*
X52833274Y-147166726D03*
X54000000Y-147650000D03*
X55166726Y-147166726D03*
X55650000Y-146000000D03*
D11*
X54000000Y-146000000D03*
D10*
X147166726Y-144833274D03*
X146000000Y-144350000D03*
X144833274Y-144833274D03*
X144350000Y-146000000D03*
X144833274Y-147166726D03*
X146000000Y-147650000D03*
X147166726Y-147166726D03*
X147650000Y-146000000D03*
D11*
X146000000Y-146000000D03*
D12*
X102890000Y-145030000D03*
X97110000Y-145030000D03*
D13*
X95680000Y-148680000D03*
X104320000Y-148680000D03*
D14*
X104320000Y-144500000D03*
X95680000Y-144500000D03*
D15*
X114000000Y-132400000D03*
D16*
X114000000Y-134940000D03*
D17*
X69818000Y-126818000D03*
D18*
X66453000Y-123453000D03*
D17*
X76182000Y-133182000D03*
D18*
X79547000Y-136547000D03*
X71890000Y-131110000D03*
X79548000Y-123452000D03*
X56850000Y-133610000D03*
X89150000Y-126390000D03*
X80750000Y-145102000D03*
X65250000Y-114898000D03*
D11*
X83610000Y-140610000D03*
X62390000Y-119390000D03*
X62390000Y-140610000D03*
X83610000Y-119390000D03*
D18*
X69746000Y-146079000D03*
D15*
X146000000Y-60000000D03*
D16*
X146000000Y-62540000D03*
X146000000Y-65080000D03*
X146000000Y-67620000D03*
X146000000Y-70160000D03*
X146000000Y-72700000D03*
D15*
X146000000Y-78500000D03*
D16*
X146000000Y-81040000D03*
X146000000Y-83580000D03*
X146000000Y-86120000D03*
X146000000Y-88660000D03*
D19*
X106000000Y-124500000D03*
X127000000Y-132500000D03*
X118000000Y-145500000D03*
X112000000Y-138500000D03*
X118500000Y-141000000D03*
X117500000Y-126500000D03*
X117000000Y-120000000D03*
X139000000Y-62000000D03*
X119500000Y-71500000D03*
X102000000Y-54500000D03*
X140000000Y-55500000D03*
X70500000Y-107500000D03*
X114000000Y-69500000D03*
X124500000Y-94000000D03*
X144500000Y-126000000D03*
X110500000Y-119000000D03*
X145000000Y-104500000D03*
X123000000Y-124000000D03*
X127000000Y-124000000D03*
X129500000Y-59000000D03*
X116000000Y-117500000D03*
X122500000Y-115500000D03*
X74500000Y-112500000D03*
X90885000Y-108615000D03*
X53625000Y-105625000D03*
X128000000Y-61000000D03*
X86500000Y-82000000D03*
X91000000Y-88000000D03*
X111000000Y-105000000D03*
X116000000Y-104500000D03*
X123000000Y-114000000D03*
X122125000Y-111375000D03*
X134000000Y-55000000D03*
X127500000Y-55000000D03*
X132000000Y-96000000D03*
X133500000Y-86000000D03*
X134500000Y-87000000D03*
X133000000Y-96000000D03*
X106035473Y-79535473D03*
X97000000Y-89000000D03*
X135000000Y-128500000D03*
X135000000Y-123000000D03*
X117500000Y-68000000D03*
X119500000Y-69000000D03*
X135000000Y-76000000D03*
X124000000Y-76000000D03*
X133000000Y-77000000D03*
X125500000Y-78000000D03*
X130000000Y-80000000D03*
X126500000Y-80000000D03*
X71000000Y-112000000D03*
X59000000Y-111500000D03*
X132500000Y-85500000D03*
X130000000Y-96000000D03*
X142000000Y-123000000D03*
X142000000Y-126000000D03*
X119000000Y-54500000D03*
X127225000Y-71000000D03*
X126500000Y-92500000D03*
X128500000Y-96000000D03*
X128500000Y-103000000D03*
X128500000Y-113500000D03*
X136000000Y-122000000D03*
X139000000Y-136500000D03*
X96500000Y-123500000D03*
X91500000Y-126000000D03*
X91500000Y-116000000D03*
X96500000Y-122000000D03*
X79500000Y-82500000D03*
X77000000Y-85500000D03*
X107600001Y-76399999D03*
X96000000Y-89000000D03*
X106500012Y-70000000D03*
X85000000Y-92000000D03*
X85000000Y-110500000D03*
X86500000Y-113500000D03*
X105500009Y-70000000D03*
X85875001Y-90500000D03*
X110000000Y-137500000D03*
X104500006Y-70000000D03*
X87000000Y-89000000D03*
X87000000Y-110500000D03*
X105500000Y-136000000D03*
X109000000Y-118000000D03*
X103500003Y-70000000D03*
X94000000Y-86500000D03*
X102500000Y-70000000D03*
X88500000Y-87000000D03*
X101500000Y-70000000D03*
X88500000Y-85500000D03*
X127000000Y-81500000D03*
X131000000Y-80500000D03*
X132000000Y-75000000D03*
X132950000Y-71500000D03*
X124500000Y-79000000D03*
X133073002Y-79000000D03*
D20*
X123000000Y-124000000D02*
X127000000Y-124000000D01*
X130000000Y-58500000D02*
X129500000Y-59000000D01*
X143400000Y-58500000D02*
X130000000Y-58500000D01*
X144900000Y-60000000D02*
X143400000Y-58500000D01*
X146000000Y-60000000D02*
X144900000Y-60000000D01*
X118000000Y-115500000D02*
X122500000Y-115500000D01*
X116000000Y-117500000D02*
X118000000Y-115500000D01*
X85811998Y-108615000D02*
X90885000Y-108615000D01*
X81926998Y-112500000D02*
X85811998Y-108615000D01*
X74500000Y-112500000D02*
X81926998Y-112500000D01*
X74500000Y-107000000D02*
X74000000Y-106500000D01*
X54500000Y-106500000D02*
X53625000Y-105625000D01*
X74000000Y-106500000D02*
X54500000Y-106500000D01*
X74500000Y-112500000D02*
X74500000Y-107000000D01*
X129500000Y-59500000D02*
X129500000Y-59000000D01*
X128000000Y-61000000D02*
X129500000Y-59500000D01*
X88426998Y-88000000D02*
X91000000Y-88000000D01*
X86500000Y-86073002D02*
X88426998Y-88000000D01*
X86500000Y-82000000D02*
X86500000Y-86073002D01*
X115500000Y-105000000D02*
X116000000Y-104500000D01*
X111000000Y-105000000D02*
X115500000Y-105000000D01*
X122125000Y-113125000D02*
X122125000Y-111375000D01*
X123000000Y-114000000D02*
X122125000Y-113125000D01*
X134000000Y-55000000D02*
X127500000Y-55000000D01*
X132000000Y-87500000D02*
X133500000Y-86000000D01*
X132000000Y-96000000D02*
X132000000Y-87500000D01*
X133000000Y-88500000D02*
X133000000Y-96000000D01*
X134500000Y-87000000D02*
X133000000Y-88500000D01*
X102270906Y-83300040D02*
X100199960Y-83300040D01*
X106035473Y-79535473D02*
X102270906Y-83300040D01*
X100199960Y-83300040D02*
X99500000Y-84000000D01*
X97000000Y-86500000D02*
X97000000Y-89000000D01*
X99500000Y-84000000D02*
X97000000Y-86500000D01*
X135000000Y-128500000D02*
X135000000Y-123000000D01*
X118500000Y-68000000D02*
X119500000Y-69000000D01*
X117500000Y-68000000D02*
X118500000Y-68000000D01*
X124000000Y-76000000D02*
X135000000Y-76000000D01*
X132000000Y-78000000D02*
X133000000Y-77000000D01*
X125500000Y-78000000D02*
X132000000Y-78000000D01*
X130000000Y-80000000D02*
X128000000Y-80000000D01*
X128000000Y-80000000D02*
X126500000Y-80000000D01*
X70500000Y-111500000D02*
X59000000Y-111500000D01*
X71000000Y-112000000D02*
X70500000Y-111500000D01*
X130000000Y-88000000D02*
X130000000Y-96000000D01*
X132500000Y-85500000D02*
X130000000Y-88000000D01*
X142000000Y-123000000D02*
X142000000Y-126000000D01*
X119000000Y-54500000D02*
X126000000Y-54500000D01*
X126000000Y-54500000D02*
X126500000Y-55000000D01*
X126500000Y-70275000D02*
X127225000Y-71000000D01*
X126500000Y-55000000D02*
X126500000Y-70275000D01*
X126500000Y-94000000D02*
X128500000Y-96000000D01*
X126500000Y-92500000D02*
X126500000Y-94000000D01*
X128500000Y-103000000D02*
X128500000Y-113500000D01*
X136000000Y-133500000D02*
X139000000Y-136500000D01*
X136000000Y-122000000D02*
X136000000Y-133500000D01*
X96500000Y-123500000D02*
X93000000Y-123500000D01*
X93000000Y-123500000D02*
X92500000Y-123500000D01*
X91500000Y-124500000D02*
X91500000Y-126000000D01*
X92500000Y-123500000D02*
X91500000Y-124500000D01*
X91500000Y-116000000D02*
X91500000Y-121000000D01*
X92500000Y-122000000D02*
X96500000Y-122000000D01*
X91500000Y-121000000D02*
X92500000Y-122000000D01*
X79500000Y-83000000D02*
X79500000Y-82500000D01*
X77000000Y-85500000D02*
X79500000Y-83000000D01*
X107600001Y-76945639D02*
X107600001Y-76399999D01*
X101695610Y-82850030D02*
X107600001Y-76945639D01*
X99968430Y-82850030D02*
X101695610Y-82850030D01*
X96075029Y-86743431D02*
X99968430Y-82850030D01*
X96075029Y-87834199D02*
X96075029Y-86743431D01*
X96075029Y-87834201D02*
X96075029Y-86743431D01*
X96075029Y-88924971D02*
X96000000Y-89000000D01*
X96075029Y-87834201D02*
X96075029Y-88924971D01*
X85000000Y-112000000D02*
X86500000Y-113500000D01*
X85000000Y-110500000D02*
X85000000Y-112000000D01*
X91272820Y-92000000D02*
X85000000Y-92000000D01*
X95625020Y-87647800D02*
X91272820Y-92000000D01*
X95625021Y-86557029D02*
X95625020Y-87647800D01*
X99782030Y-82400020D02*
X95625021Y-86557029D01*
X106500012Y-77409218D02*
X101509210Y-82400020D01*
X101509210Y-82400020D02*
X99782030Y-82400020D01*
X106500012Y-70000000D02*
X106500012Y-77409218D01*
X93186401Y-89450009D02*
X95175011Y-87461399D01*
X105500009Y-77772811D02*
X105500009Y-70000000D01*
X95175011Y-87461399D02*
X95175011Y-86370629D01*
X87622992Y-89450010D02*
X93186401Y-89450009D01*
X99595630Y-81950010D02*
X101322810Y-81950010D01*
X86573002Y-90500000D02*
X87622992Y-89450010D01*
X101322810Y-81950010D02*
X105500009Y-77772811D01*
X95175011Y-86370629D02*
X99595630Y-81950010D01*
X85875001Y-90500000D02*
X86573002Y-90500000D01*
X104774999Y-136348001D02*
X104774999Y-135651999D01*
X105926998Y-137500000D02*
X104774999Y-136348001D01*
X110000000Y-137500000D02*
X105926998Y-137500000D01*
X104774999Y-135651999D02*
X104774999Y-124274999D01*
X104774999Y-124274999D02*
X91000000Y-110500000D01*
X91000000Y-110500000D02*
X87000000Y-110500000D01*
X94725001Y-87274999D02*
X93000000Y-89000000D01*
X99409230Y-81500000D02*
X94725001Y-86184229D01*
X101136410Y-81500000D02*
X99409230Y-81500000D01*
X94725001Y-86184229D02*
X94725001Y-87274999D01*
X104500000Y-78136410D02*
X101136410Y-81500000D01*
X93000000Y-89000000D02*
X92000000Y-89000000D01*
X104500006Y-70000000D02*
X104500006Y-70072999D01*
X104500000Y-70073005D02*
X104500000Y-78136410D01*
X92000000Y-89000000D02*
X87000000Y-89000000D01*
X104500006Y-70072999D02*
X104500000Y-70073005D01*
X105500000Y-136000000D02*
X109000000Y-132500000D01*
X109000000Y-132500000D02*
X109000000Y-118000000D01*
X103500003Y-78499997D02*
X103500003Y-70000000D01*
X100981785Y-81018215D02*
X103500003Y-78499997D01*
X99254605Y-81018215D02*
X100981785Y-81018215D01*
X94272820Y-86227180D02*
X94000000Y-86500000D01*
X94272820Y-86000000D02*
X94272820Y-86227180D01*
X94272820Y-86000000D02*
X99254605Y-81018215D01*
X102500000Y-78863590D02*
X102500000Y-70000000D01*
X100795385Y-80568205D02*
X102500000Y-78863590D01*
X99068205Y-80568205D02*
X100795385Y-80568205D01*
X94636409Y-85000001D02*
X99068205Y-80568205D01*
X93500000Y-85000000D02*
X94636409Y-85000001D01*
X91500000Y-87000000D02*
X93500000Y-85000000D01*
X88500000Y-87000000D02*
X91500000Y-87000000D01*
X92363590Y-85500000D02*
X88500000Y-85500000D01*
X93313599Y-84549991D02*
X92363590Y-85500000D01*
X101500000Y-79227180D02*
X100608985Y-80118195D01*
X94450009Y-84549991D02*
X93313599Y-84549991D01*
X98881805Y-80118195D02*
X94450009Y-84549991D01*
X100608985Y-80118195D02*
X98881805Y-80118195D01*
X101500000Y-70000000D02*
X101500000Y-79227180D01*
X132950000Y-74050000D02*
X132950000Y-71500000D01*
X132000000Y-75000000D02*
X132950000Y-74050000D01*
X127500000Y-81000000D02*
X127000000Y-81500000D01*
X130500000Y-81000000D02*
X127500000Y-81000000D01*
X131000000Y-80500000D02*
X130500000Y-81000000D01*
X132000000Y-79000000D02*
X124500000Y-79000000D01*
X132000000Y-79000000D02*
X133073002Y-79000000D01*
D21*
G36*
X149340001Y-149340000D02*
G01*
X105402392Y-149340000D01*
X105408415Y-149325987D01*
X105455000Y-149107000D01*
X105455000Y-148807000D01*
X104447000Y-148807000D01*
X104447000Y-148827000D01*
X104193000Y-148827000D01*
X104193000Y-148807000D01*
X103185000Y-148807000D01*
X103185000Y-149107000D01*
X103231585Y-149325987D01*
X103237608Y-149340000D01*
X96762392Y-149340000D01*
X96768415Y-149325987D01*
X96815000Y-149107000D01*
X96815000Y-148807000D01*
X95807000Y-148807000D01*
X95807000Y-148827000D01*
X95553000Y-148827000D01*
X95553000Y-148807000D01*
X94545000Y-148807000D01*
X94545000Y-149107000D01*
X94591585Y-149325987D01*
X94597608Y-149340000D01*
X50660000Y-149340000D01*
X50660000Y-147989775D01*
X52189830Y-147989775D01*
X52429976Y-148377018D01*
X52923877Y-148637641D01*
X53459133Y-148796901D01*
X54015174Y-148848678D01*
X54570632Y-148790981D01*
X55104161Y-148626028D01*
X55570024Y-148377018D01*
X55646932Y-148253000D01*
X94545000Y-148253000D01*
X94545000Y-148553000D01*
X95553000Y-148553000D01*
X95553000Y-147412046D01*
X95807000Y-147412046D01*
X95807000Y-148553000D01*
X96815000Y-148553000D01*
X96815000Y-148253000D01*
X103185000Y-148253000D01*
X103185000Y-148553000D01*
X104193000Y-148553000D01*
X104193000Y-147412046D01*
X104447000Y-147412046D01*
X104447000Y-148553000D01*
X105455000Y-148553000D01*
X105455000Y-148253000D01*
X105408415Y-148034013D01*
X105389401Y-147989775D01*
X144189830Y-147989775D01*
X144429976Y-148377018D01*
X144923877Y-148637641D01*
X145459133Y-148796901D01*
X146015174Y-148848678D01*
X146570632Y-148790981D01*
X147104161Y-148626028D01*
X147570024Y-148377018D01*
X147810170Y-147989775D01*
X146000000Y-146179605D01*
X144189830Y-147989775D01*
X105389401Y-147989775D01*
X105320003Y-147828322D01*
X105193161Y-147643831D01*
X105032764Y-147487631D01*
X104844976Y-147365724D01*
X104621874Y-147285881D01*
X104447000Y-147412046D01*
X104193000Y-147412046D01*
X104018126Y-147285881D01*
X103795024Y-147365724D01*
X103607236Y-147487631D01*
X103446839Y-147643831D01*
X103319997Y-147828322D01*
X103231585Y-148034013D01*
X103185000Y-148253000D01*
X96815000Y-148253000D01*
X96768415Y-148034013D01*
X96680003Y-147828322D01*
X96553161Y-147643831D01*
X96392764Y-147487631D01*
X96204976Y-147365724D01*
X95981874Y-147285881D01*
X95807000Y-147412046D01*
X95553000Y-147412046D01*
X95378126Y-147285881D01*
X95155024Y-147365724D01*
X94967236Y-147487631D01*
X94806839Y-147643831D01*
X94679997Y-147828322D01*
X94591585Y-148034013D01*
X94545000Y-148253000D01*
X55646932Y-148253000D01*
X55810170Y-147989775D01*
X54000000Y-146179605D01*
X52189830Y-147989775D01*
X50660000Y-147989775D01*
X50660000Y-146015174D01*
X51151322Y-146015174D01*
X51209019Y-146570632D01*
X51373972Y-147104161D01*
X51622982Y-147570024D01*
X52010225Y-147810170D01*
X53820395Y-146000000D01*
X54179605Y-146000000D01*
X55989775Y-147810170D01*
X56377018Y-147570024D01*
X56637641Y-147076123D01*
X56796901Y-146540867D01*
X56803634Y-146468558D01*
X68098271Y-146468558D01*
X68205931Y-146782529D01*
X68372775Y-147069463D01*
X68592391Y-147318334D01*
X68856339Y-147519578D01*
X69154476Y-147665462D01*
X69356442Y-147726729D01*
X69619000Y-147608138D01*
X69619000Y-146206000D01*
X69873000Y-146206000D01*
X69873000Y-147608138D01*
X70135558Y-147726729D01*
X70449529Y-147619069D01*
X70736463Y-147452225D01*
X70985334Y-147232609D01*
X71186578Y-146968661D01*
X71332462Y-146670524D01*
X71393729Y-146468558D01*
X71275138Y-146206000D01*
X69873000Y-146206000D01*
X69619000Y-146206000D01*
X68216862Y-146206000D01*
X68098271Y-146468558D01*
X56803634Y-146468558D01*
X56848678Y-145984826D01*
X56817996Y-145689442D01*
X68098271Y-145689442D01*
X68216862Y-145952000D01*
X69619000Y-145952000D01*
X69619000Y-144549862D01*
X69873000Y-144549862D01*
X69873000Y-145952000D01*
X71275138Y-145952000D01*
X71393729Y-145689442D01*
X71286069Y-145375471D01*
X71119225Y-145088537D01*
X70984656Y-144936042D01*
X79065000Y-144936042D01*
X79065000Y-145267958D01*
X79129754Y-145593496D01*
X79256772Y-145900147D01*
X79441175Y-146176125D01*
X79675875Y-146410825D01*
X79951853Y-146595228D01*
X80258504Y-146722246D01*
X80584042Y-146787000D01*
X80915958Y-146787000D01*
X81241496Y-146722246D01*
X81548147Y-146595228D01*
X81824125Y-146410825D01*
X82058825Y-146176125D01*
X82243228Y-145900147D01*
X82370246Y-145593496D01*
X82435000Y-145267958D01*
X82435000Y-144936042D01*
X82373528Y-144627000D01*
X94545000Y-144627000D01*
X94545000Y-145177000D01*
X94591585Y-145395987D01*
X94679997Y-145601678D01*
X94806839Y-145786169D01*
X94967236Y-145942369D01*
X95155024Y-146064276D01*
X95378126Y-146144119D01*
X95553000Y-146017954D01*
X95553000Y-144627000D01*
X94545000Y-144627000D01*
X82373528Y-144627000D01*
X82370246Y-144610504D01*
X82243228Y-144303853D01*
X82058825Y-144027875D01*
X81853950Y-143823000D01*
X94545000Y-143823000D01*
X94545000Y-144373000D01*
X95553000Y-144373000D01*
X95553000Y-142982046D01*
X95807000Y-142982046D01*
X95807000Y-144373000D01*
X95827000Y-144373000D01*
X95827000Y-144627000D01*
X95807000Y-144627000D01*
X95807000Y-146017954D01*
X95981874Y-146144119D01*
X96204976Y-146064276D01*
X96392764Y-145942369D01*
X96537116Y-145801794D01*
X96655269Y-145880741D01*
X96829978Y-145953108D01*
X97015448Y-145990000D01*
X97204552Y-145990000D01*
X97390022Y-145953108D01*
X97564731Y-145880741D01*
X97721964Y-145775681D01*
X97855681Y-145641964D01*
X97960741Y-145484731D01*
X98033108Y-145310022D01*
X98070000Y-145124552D01*
X98070000Y-144935448D01*
X101930000Y-144935448D01*
X101930000Y-145124552D01*
X101966892Y-145310022D01*
X102039259Y-145484731D01*
X102144319Y-145641964D01*
X102278036Y-145775681D01*
X102435269Y-145880741D01*
X102609978Y-145953108D01*
X102795448Y-145990000D01*
X102984552Y-145990000D01*
X103170022Y-145953108D01*
X103344731Y-145880741D01*
X103462884Y-145801794D01*
X103607236Y-145942369D01*
X103795024Y-146064276D01*
X104018126Y-146144119D01*
X104193000Y-146017954D01*
X104193000Y-144627000D01*
X104447000Y-144627000D01*
X104447000Y-146017954D01*
X104621874Y-146144119D01*
X104844976Y-146064276D01*
X104920613Y-146015174D01*
X143151322Y-146015174D01*
X143209019Y-146570632D01*
X143373972Y-147104161D01*
X143622982Y-147570024D01*
X144010225Y-147810170D01*
X145820395Y-146000000D01*
X146179605Y-146000000D01*
X147989775Y-147810170D01*
X148377018Y-147570024D01*
X148637641Y-147076123D01*
X148796901Y-146540867D01*
X148848678Y-145984826D01*
X148790981Y-145429368D01*
X148626028Y-144895839D01*
X148377018Y-144429976D01*
X147989775Y-144189830D01*
X146179605Y-146000000D01*
X145820395Y-146000000D01*
X144010225Y-144189830D01*
X143622982Y-144429976D01*
X143362359Y-144923877D01*
X143203099Y-145459133D01*
X143151322Y-146015174D01*
X104920613Y-146015174D01*
X105032764Y-145942369D01*
X105193161Y-145786169D01*
X105320003Y-145601678D01*
X105408415Y-145395987D01*
X105455000Y-145177000D01*
X105455000Y-144627000D01*
X104447000Y-144627000D01*
X104193000Y-144627000D01*
X104173000Y-144627000D01*
X104173000Y-144373000D01*
X104193000Y-144373000D01*
X104193000Y-142982046D01*
X104447000Y-142982046D01*
X104447000Y-144373000D01*
X105455000Y-144373000D01*
X105455000Y-144010225D01*
X144189830Y-144010225D01*
X146000000Y-145820395D01*
X147810170Y-144010225D01*
X147570024Y-143622982D01*
X147076123Y-143362359D01*
X146540867Y-143203099D01*
X145984826Y-143151322D01*
X145429368Y-143209019D01*
X144895839Y-143373972D01*
X144429976Y-143622982D01*
X144189830Y-144010225D01*
X105455000Y-144010225D01*
X105455000Y-143823000D01*
X105408415Y-143604013D01*
X105320003Y-143398322D01*
X105193161Y-143213831D01*
X105032764Y-143057631D01*
X104844976Y-142935724D01*
X104621874Y-142855881D01*
X104447000Y-142982046D01*
X104193000Y-142982046D01*
X104018126Y-142855881D01*
X103795024Y-142935724D01*
X103607236Y-143057631D01*
X103446839Y-143213831D01*
X103319997Y-143398322D01*
X103231585Y-143604013D01*
X103185000Y-143823000D01*
X103185000Y-144113096D01*
X103170022Y-144106892D01*
X102984552Y-144070000D01*
X102795448Y-144070000D01*
X102609978Y-144106892D01*
X102435269Y-144179259D01*
X102278036Y-144284319D01*
X102144319Y-144418036D01*
X102039259Y-144575269D01*
X101966892Y-144749978D01*
X101930000Y-144935448D01*
X98070000Y-144935448D01*
X98033108Y-144749978D01*
X97960741Y-144575269D01*
X97855681Y-144418036D01*
X97721964Y-144284319D01*
X97564731Y-144179259D01*
X97390022Y-144106892D01*
X97204552Y-144070000D01*
X97015448Y-144070000D01*
X96829978Y-144106892D01*
X96815000Y-144113096D01*
X96815000Y-143823000D01*
X96768415Y-143604013D01*
X96680003Y-143398322D01*
X96553161Y-143213831D01*
X96392764Y-143057631D01*
X96204976Y-142935724D01*
X95981874Y-142855881D01*
X95807000Y-142982046D01*
X95553000Y-142982046D01*
X95378126Y-142855881D01*
X95155024Y-142935724D01*
X94967236Y-143057631D01*
X94806839Y-143213831D01*
X94679997Y-143398322D01*
X94591585Y-143604013D01*
X94545000Y-143823000D01*
X81853950Y-143823000D01*
X81824125Y-143793175D01*
X81548147Y-143608772D01*
X81241496Y-143481754D01*
X80915958Y-143417000D01*
X80584042Y-143417000D01*
X80258504Y-143481754D01*
X79951853Y-143608772D01*
X79675875Y-143793175D01*
X79441175Y-144027875D01*
X79256772Y-144303853D01*
X79129754Y-144610504D01*
X79065000Y-144936042D01*
X70984656Y-144936042D01*
X70899609Y-144839666D01*
X70635661Y-144638422D01*
X70337524Y-144492538D01*
X70135558Y-144431271D01*
X69873000Y-144549862D01*
X69619000Y-144549862D01*
X69356442Y-144431271D01*
X69042471Y-144538931D01*
X68755537Y-144705775D01*
X68506666Y-144925391D01*
X68305422Y-145189339D01*
X68159538Y-145487476D01*
X68098271Y-145689442D01*
X56817996Y-145689442D01*
X56790981Y-145429368D01*
X56626028Y-144895839D01*
X56377018Y-144429976D01*
X55989775Y-144189830D01*
X54179605Y-146000000D01*
X53820395Y-146000000D01*
X52010225Y-144189830D01*
X51622982Y-144429976D01*
X51362359Y-144923877D01*
X51203099Y-145459133D01*
X51151322Y-146015174D01*
X50660000Y-146015174D01*
X50660000Y-144010225D01*
X52189830Y-144010225D01*
X54000000Y-145820395D01*
X55810170Y-144010225D01*
X55570024Y-143622982D01*
X55076123Y-143362359D01*
X54540867Y-143203099D01*
X53984826Y-143151322D01*
X53429368Y-143209019D01*
X52895839Y-143373972D01*
X52429976Y-143622982D01*
X52189830Y-144010225D01*
X50660000Y-144010225D01*
X50660000Y-140330777D01*
X59555000Y-140330777D01*
X59555000Y-140889223D01*
X59663948Y-141436939D01*
X59877656Y-141952876D01*
X60187912Y-142417207D01*
X60582793Y-142812088D01*
X61047124Y-143122344D01*
X61563061Y-143336052D01*
X62110777Y-143445000D01*
X62669223Y-143445000D01*
X63216939Y-143336052D01*
X63732876Y-143122344D01*
X64197207Y-142812088D01*
X64592088Y-142417207D01*
X64902344Y-141952876D01*
X65116052Y-141436939D01*
X65225000Y-140889223D01*
X65225000Y-140330777D01*
X80775000Y-140330777D01*
X80775000Y-140889223D01*
X80883948Y-141436939D01*
X81097656Y-141952876D01*
X81407912Y-142417207D01*
X81802793Y-142812088D01*
X82267124Y-143122344D01*
X82783061Y-143336052D01*
X83330777Y-143445000D01*
X83889223Y-143445000D01*
X84436939Y-143336052D01*
X84952876Y-143122344D01*
X85417207Y-142812088D01*
X85812088Y-142417207D01*
X86122344Y-141952876D01*
X86336052Y-141436939D01*
X86445000Y-140889223D01*
X86445000Y-140330777D01*
X86336052Y-139783061D01*
X86122344Y-139267124D01*
X85812088Y-138802793D01*
X85417207Y-138407912D01*
X84952876Y-138097656D01*
X84436939Y-137883948D01*
X83889223Y-137775000D01*
X83330777Y-137775000D01*
X82783061Y-137883948D01*
X82267124Y-138097656D01*
X81802793Y-138407912D01*
X81407912Y-138802793D01*
X81097656Y-139267124D01*
X80883948Y-139783061D01*
X80775000Y-140330777D01*
X65225000Y-140330777D01*
X65116052Y-139783061D01*
X64902344Y-139267124D01*
X64592088Y-138802793D01*
X64197207Y-138407912D01*
X63732876Y-138097656D01*
X63216939Y-137883948D01*
X62669223Y-137775000D01*
X62110777Y-137775000D01*
X61563061Y-137883948D01*
X61047124Y-138097656D01*
X60582793Y-138407912D01*
X60187912Y-138802793D01*
X59877656Y-139267124D01*
X59663948Y-139783061D01*
X59555000Y-140330777D01*
X50660000Y-140330777D01*
X50660000Y-136381042D01*
X77862000Y-136381042D01*
X77862000Y-136712958D01*
X77926754Y-137038496D01*
X78053772Y-137345147D01*
X78238175Y-137621125D01*
X78472875Y-137855825D01*
X78748853Y-138040228D01*
X79055504Y-138167246D01*
X79381042Y-138232000D01*
X79712958Y-138232000D01*
X80038496Y-138167246D01*
X80345147Y-138040228D01*
X80621125Y-137855825D01*
X80855825Y-137621125D01*
X81040228Y-137345147D01*
X81167246Y-137038496D01*
X81232000Y-136712958D01*
X81232000Y-136381042D01*
X81167246Y-136055504D01*
X81040228Y-135748853D01*
X80855825Y-135472875D01*
X80621125Y-135238175D01*
X80345147Y-135053772D01*
X80038496Y-134926754D01*
X79712958Y-134862000D01*
X79381042Y-134862000D01*
X79055504Y-134926754D01*
X78748853Y-135053772D01*
X78472875Y-135238175D01*
X78238175Y-135472875D01*
X78053772Y-135748853D01*
X77926754Y-136055504D01*
X77862000Y-136381042D01*
X50660000Y-136381042D01*
X50660000Y-133444042D01*
X55165000Y-133444042D01*
X55165000Y-133775958D01*
X55229754Y-134101496D01*
X55356772Y-134408147D01*
X55541175Y-134684125D01*
X55775875Y-134918825D01*
X56051853Y-135103228D01*
X56358504Y-135230246D01*
X56684042Y-135295000D01*
X57015958Y-135295000D01*
X57341496Y-135230246D01*
X57648147Y-135103228D01*
X57924125Y-134918825D01*
X58158825Y-134684125D01*
X58343228Y-134408147D01*
X58470246Y-134101496D01*
X58535000Y-133775958D01*
X58535000Y-133444042D01*
X58470246Y-133118504D01*
X58429846Y-133020967D01*
X74547000Y-133020967D01*
X74547000Y-133343033D01*
X74609832Y-133658912D01*
X74733082Y-133956463D01*
X74912013Y-134224252D01*
X75139748Y-134451987D01*
X75407537Y-134630918D01*
X75705088Y-134754168D01*
X76020967Y-134817000D01*
X76343033Y-134817000D01*
X76658912Y-134754168D01*
X76956463Y-134630918D01*
X77224252Y-134451987D01*
X77451987Y-134224252D01*
X77630918Y-133956463D01*
X77754168Y-133658912D01*
X77817000Y-133343033D01*
X77817000Y-133020967D01*
X77754168Y-132705088D01*
X77630918Y-132407537D01*
X77451987Y-132139748D01*
X77224252Y-131912013D01*
X76956463Y-131733082D01*
X76658912Y-131609832D01*
X76343033Y-131547000D01*
X76020967Y-131547000D01*
X75705088Y-131609832D01*
X75407537Y-131733082D01*
X75139748Y-131912013D01*
X74912013Y-132139748D01*
X74733082Y-132407537D01*
X74609832Y-132705088D01*
X74547000Y-133020967D01*
X58429846Y-133020967D01*
X58343228Y-132811853D01*
X58158825Y-132535875D01*
X57924125Y-132301175D01*
X57648147Y-132116772D01*
X57341496Y-131989754D01*
X57015958Y-131925000D01*
X56684042Y-131925000D01*
X56358504Y-131989754D01*
X56051853Y-132116772D01*
X55775875Y-132301175D01*
X55541175Y-132535875D01*
X55356772Y-132811853D01*
X55229754Y-133118504D01*
X55165000Y-133444042D01*
X50660000Y-133444042D01*
X50660000Y-130944042D01*
X70205000Y-130944042D01*
X70205000Y-131275958D01*
X70269754Y-131601496D01*
X70396772Y-131908147D01*
X70581175Y-132184125D01*
X70815875Y-132418825D01*
X71091853Y-132603228D01*
X71398504Y-132730246D01*
X71724042Y-132795000D01*
X72055958Y-132795000D01*
X72381496Y-132730246D01*
X72688147Y-132603228D01*
X72964125Y-132418825D01*
X73198825Y-132184125D01*
X73383228Y-131908147D01*
X73510246Y-131601496D01*
X73575000Y-131275958D01*
X73575000Y-130944042D01*
X73510246Y-130618504D01*
X73383228Y-130311853D01*
X73198825Y-130035875D01*
X72964125Y-129801175D01*
X72688147Y-129616772D01*
X72381496Y-129489754D01*
X72055958Y-129425000D01*
X71724042Y-129425000D01*
X71398504Y-129489754D01*
X71091853Y-129616772D01*
X70815875Y-129801175D01*
X70581175Y-130035875D01*
X70396772Y-130311853D01*
X70269754Y-130618504D01*
X70205000Y-130944042D01*
X50660000Y-130944042D01*
X50660000Y-126656967D01*
X68183000Y-126656967D01*
X68183000Y-126979033D01*
X68245832Y-127294912D01*
X68369082Y-127592463D01*
X68548013Y-127860252D01*
X68775748Y-128087987D01*
X69043537Y-128266918D01*
X69341088Y-128390168D01*
X69656967Y-128453000D01*
X69979033Y-128453000D01*
X70294912Y-128390168D01*
X70592463Y-128266918D01*
X70860252Y-128087987D01*
X71087987Y-127860252D01*
X71266918Y-127592463D01*
X71390168Y-127294912D01*
X71453000Y-126979033D01*
X71453000Y-126656967D01*
X71390168Y-126341088D01*
X71341686Y-126224042D01*
X87465000Y-126224042D01*
X87465000Y-126555958D01*
X87529754Y-126881496D01*
X87656772Y-127188147D01*
X87841175Y-127464125D01*
X88075875Y-127698825D01*
X88351853Y-127883228D01*
X88658504Y-128010246D01*
X88984042Y-128075000D01*
X89315958Y-128075000D01*
X89641496Y-128010246D01*
X89948147Y-127883228D01*
X90224125Y-127698825D01*
X90458825Y-127464125D01*
X90643228Y-127188147D01*
X90770246Y-126881496D01*
X90794724Y-126758435D01*
X90840226Y-126803937D01*
X91009744Y-126917205D01*
X91198102Y-126995226D01*
X91398061Y-127035000D01*
X91601939Y-127035000D01*
X91801898Y-126995226D01*
X91990256Y-126917205D01*
X92159774Y-126803937D01*
X92303937Y-126659774D01*
X92417205Y-126490256D01*
X92495226Y-126301898D01*
X92535000Y-126101939D01*
X92535000Y-125898061D01*
X92495226Y-125698102D01*
X92417205Y-125509744D01*
X92303937Y-125340226D01*
X92260000Y-125296289D01*
X92260000Y-124814801D01*
X92814802Y-124260000D01*
X95796289Y-124260000D01*
X95840226Y-124303937D01*
X96009744Y-124417205D01*
X96198102Y-124495226D01*
X96398061Y-124535000D01*
X96601939Y-124535000D01*
X96801898Y-124495226D01*
X96990256Y-124417205D01*
X97159774Y-124303937D01*
X97303937Y-124159774D01*
X97417205Y-123990256D01*
X97495226Y-123801898D01*
X97535000Y-123601939D01*
X97535000Y-123398061D01*
X97495226Y-123198102D01*
X97417205Y-123009744D01*
X97303937Y-122840226D01*
X97213711Y-122750000D01*
X97303937Y-122659774D01*
X97417205Y-122490256D01*
X97495226Y-122301898D01*
X97535000Y-122101939D01*
X97535000Y-121898061D01*
X97495226Y-121698102D01*
X97417205Y-121509744D01*
X97303937Y-121340226D01*
X97159774Y-121196063D01*
X96990256Y-121082795D01*
X96801898Y-121004774D01*
X96601939Y-120965000D01*
X96398061Y-120965000D01*
X96198102Y-121004774D01*
X96009744Y-121082795D01*
X95840226Y-121196063D01*
X95796289Y-121240000D01*
X92814802Y-121240000D01*
X92260000Y-120685199D01*
X92260000Y-116703711D01*
X92303937Y-116659774D01*
X92417205Y-116490256D01*
X92495226Y-116301898D01*
X92535000Y-116101939D01*
X92535000Y-115898061D01*
X92495226Y-115698102D01*
X92417205Y-115509744D01*
X92303937Y-115340226D01*
X92159774Y-115196063D01*
X91990256Y-115082795D01*
X91801898Y-115004774D01*
X91601939Y-114965000D01*
X91398061Y-114965000D01*
X91198102Y-115004774D01*
X91009744Y-115082795D01*
X90840226Y-115196063D01*
X90696063Y-115340226D01*
X90582795Y-115509744D01*
X90504774Y-115698102D01*
X90465000Y-115898061D01*
X90465000Y-116101939D01*
X90504774Y-116301898D01*
X90582795Y-116490256D01*
X90696063Y-116659774D01*
X90740000Y-116703711D01*
X90740001Y-120962668D01*
X90736324Y-121000000D01*
X90750998Y-121148985D01*
X90794454Y-121292246D01*
X90865026Y-121424276D01*
X90918142Y-121488997D01*
X90960000Y-121540001D01*
X90988998Y-121563799D01*
X91936201Y-122511003D01*
X91959999Y-122540001D01*
X91988997Y-122563799D01*
X92075724Y-122634974D01*
X92207753Y-122705546D01*
X92351014Y-122749003D01*
X92361137Y-122750000D01*
X92351014Y-122750997D01*
X92207753Y-122794454D01*
X92075724Y-122865026D01*
X91959999Y-122959999D01*
X91936201Y-122988997D01*
X90989002Y-123936196D01*
X90959999Y-123959999D01*
X90904871Y-124027174D01*
X90865026Y-124075724D01*
X90821835Y-124156529D01*
X90794454Y-124207754D01*
X90750997Y-124351015D01*
X90740000Y-124462668D01*
X90740000Y-124462678D01*
X90736324Y-124500000D01*
X90740000Y-124537323D01*
X90740001Y-125296288D01*
X90696063Y-125340226D01*
X90585580Y-125505576D01*
X90458825Y-125315875D01*
X90224125Y-125081175D01*
X89948147Y-124896772D01*
X89641496Y-124769754D01*
X89315958Y-124705000D01*
X88984042Y-124705000D01*
X88658504Y-124769754D01*
X88351853Y-124896772D01*
X88075875Y-125081175D01*
X87841175Y-125315875D01*
X87656772Y-125591853D01*
X87529754Y-125898504D01*
X87465000Y-126224042D01*
X71341686Y-126224042D01*
X71266918Y-126043537D01*
X71087987Y-125775748D01*
X70860252Y-125548013D01*
X70592463Y-125369082D01*
X70294912Y-125245832D01*
X69979033Y-125183000D01*
X69656967Y-125183000D01*
X69341088Y-125245832D01*
X69043537Y-125369082D01*
X68775748Y-125548013D01*
X68548013Y-125775748D01*
X68369082Y-126043537D01*
X68245832Y-126341088D01*
X68183000Y-126656967D01*
X50660000Y-126656967D01*
X50660000Y-123842558D01*
X64805271Y-123842558D01*
X64912931Y-124156529D01*
X65079775Y-124443463D01*
X65299391Y-124692334D01*
X65563339Y-124893578D01*
X65861476Y-125039462D01*
X66063442Y-125100729D01*
X66326000Y-124982138D01*
X66326000Y-123580000D01*
X66580000Y-123580000D01*
X66580000Y-124982138D01*
X66842558Y-125100729D01*
X67156529Y-124993069D01*
X67443463Y-124826225D01*
X67692334Y-124606609D01*
X67893578Y-124342661D01*
X68039462Y-124044524D01*
X68100729Y-123842558D01*
X67982138Y-123580000D01*
X66580000Y-123580000D01*
X66326000Y-123580000D01*
X64923862Y-123580000D01*
X64805271Y-123842558D01*
X50660000Y-123842558D01*
X50660000Y-123063442D01*
X64805271Y-123063442D01*
X64923862Y-123326000D01*
X66326000Y-123326000D01*
X66326000Y-121923862D01*
X66580000Y-121923862D01*
X66580000Y-123326000D01*
X67982138Y-123326000D01*
X68000186Y-123286042D01*
X77863000Y-123286042D01*
X77863000Y-123617958D01*
X77927754Y-123943496D01*
X78054772Y-124250147D01*
X78239175Y-124526125D01*
X78473875Y-124760825D01*
X78749853Y-124945228D01*
X79056504Y-125072246D01*
X79382042Y-125137000D01*
X79713958Y-125137000D01*
X80039496Y-125072246D01*
X80346147Y-124945228D01*
X80622125Y-124760825D01*
X80856825Y-124526125D01*
X81041228Y-124250147D01*
X81168246Y-123943496D01*
X81233000Y-123617958D01*
X81233000Y-123286042D01*
X81168246Y-122960504D01*
X81041228Y-122653853D01*
X80856825Y-122377875D01*
X80622125Y-122143175D01*
X80346147Y-121958772D01*
X80039496Y-121831754D01*
X79713958Y-121767000D01*
X79382042Y-121767000D01*
X79056504Y-121831754D01*
X78749853Y-121958772D01*
X78473875Y-122143175D01*
X78239175Y-122377875D01*
X78054772Y-122653853D01*
X77927754Y-122960504D01*
X77863000Y-123286042D01*
X68000186Y-123286042D01*
X68100729Y-123063442D01*
X67993069Y-122749471D01*
X67826225Y-122462537D01*
X67606609Y-122213666D01*
X67342661Y-122012422D01*
X67044524Y-121866538D01*
X66842558Y-121805271D01*
X66580000Y-121923862D01*
X66326000Y-121923862D01*
X66063442Y-121805271D01*
X65749471Y-121912931D01*
X65462537Y-122079775D01*
X65213666Y-122299391D01*
X65012422Y-122563339D01*
X64866538Y-122861476D01*
X64805271Y-123063442D01*
X50660000Y-123063442D01*
X50660000Y-119110777D01*
X59555000Y-119110777D01*
X59555000Y-119669223D01*
X59663948Y-120216939D01*
X59877656Y-120732876D01*
X60187912Y-121197207D01*
X60582793Y-121592088D01*
X61047124Y-121902344D01*
X61563061Y-122116052D01*
X62110777Y-122225000D01*
X62669223Y-122225000D01*
X63216939Y-122116052D01*
X63732876Y-121902344D01*
X64197207Y-121592088D01*
X64592088Y-121197207D01*
X64902344Y-120732876D01*
X65116052Y-120216939D01*
X65225000Y-119669223D01*
X65225000Y-119110777D01*
X80775000Y-119110777D01*
X80775000Y-119669223D01*
X80883948Y-120216939D01*
X81097656Y-120732876D01*
X81407912Y-121197207D01*
X81802793Y-121592088D01*
X82267124Y-121902344D01*
X82783061Y-122116052D01*
X83330777Y-122225000D01*
X83889223Y-122225000D01*
X84436939Y-122116052D01*
X84952876Y-121902344D01*
X85417207Y-121592088D01*
X85812088Y-121197207D01*
X86122344Y-120732876D01*
X86336052Y-120216939D01*
X86445000Y-119669223D01*
X86445000Y-119110777D01*
X86336052Y-118563061D01*
X86122344Y-118047124D01*
X85812088Y-117582793D01*
X85417207Y-117187912D01*
X84952876Y-116877656D01*
X84436939Y-116663948D01*
X83889223Y-116555000D01*
X83330777Y-116555000D01*
X82783061Y-116663948D01*
X82267124Y-116877656D01*
X81802793Y-117187912D01*
X81407912Y-117582793D01*
X81097656Y-118047124D01*
X80883948Y-118563061D01*
X80775000Y-119110777D01*
X65225000Y-119110777D01*
X65116052Y-118563061D01*
X64902344Y-118047124D01*
X64592088Y-117582793D01*
X64197207Y-117187912D01*
X63732876Y-116877656D01*
X63216939Y-116663948D01*
X62669223Y-116555000D01*
X62110777Y-116555000D01*
X61563061Y-116663948D01*
X61047124Y-116877656D01*
X60582793Y-117187912D01*
X60187912Y-117582793D01*
X59877656Y-118047124D01*
X59663948Y-118563061D01*
X59555000Y-119110777D01*
X50660000Y-119110777D01*
X50660000Y-114732042D01*
X63565000Y-114732042D01*
X63565000Y-115063958D01*
X63629754Y-115389496D01*
X63756772Y-115696147D01*
X63941175Y-115972125D01*
X64175875Y-116206825D01*
X64451853Y-116391228D01*
X64758504Y-116518246D01*
X65084042Y-116583000D01*
X65415958Y-116583000D01*
X65741496Y-116518246D01*
X66048147Y-116391228D01*
X66324125Y-116206825D01*
X66558825Y-115972125D01*
X66743228Y-115696147D01*
X66870246Y-115389496D01*
X66935000Y-115063958D01*
X66935000Y-114732042D01*
X66870246Y-114406504D01*
X66743228Y-114099853D01*
X66558825Y-113823875D01*
X66324125Y-113589175D01*
X66048147Y-113404772D01*
X65741496Y-113277754D01*
X65415958Y-113213000D01*
X65084042Y-113213000D01*
X64758504Y-113277754D01*
X64451853Y-113404772D01*
X64175875Y-113589175D01*
X63941175Y-113823875D01*
X63756772Y-114099853D01*
X63629754Y-114406504D01*
X63565000Y-114732042D01*
X50660000Y-114732042D01*
X50660000Y-111398061D01*
X57965000Y-111398061D01*
X57965000Y-111601939D01*
X58004774Y-111801898D01*
X58082795Y-111990256D01*
X58196063Y-112159774D01*
X58340226Y-112303937D01*
X58509744Y-112417205D01*
X58698102Y-112495226D01*
X58898061Y-112535000D01*
X59101939Y-112535000D01*
X59301898Y-112495226D01*
X59490256Y-112417205D01*
X59659774Y-112303937D01*
X59703711Y-112260000D01*
X69996440Y-112260000D01*
X70004774Y-112301898D01*
X70082795Y-112490256D01*
X70196063Y-112659774D01*
X70340226Y-112803937D01*
X70509744Y-112917205D01*
X70698102Y-112995226D01*
X70898061Y-113035000D01*
X71101939Y-113035000D01*
X71301898Y-112995226D01*
X71490256Y-112917205D01*
X71659774Y-112803937D01*
X71803937Y-112659774D01*
X71917205Y-112490256D01*
X71995226Y-112301898D01*
X72035000Y-112101939D01*
X72035000Y-111898061D01*
X71995226Y-111698102D01*
X71917205Y-111509744D01*
X71803937Y-111340226D01*
X71659774Y-111196063D01*
X71490256Y-111082795D01*
X71301898Y-111004774D01*
X71101939Y-110965000D01*
X71044105Y-110965000D01*
X71040001Y-110959999D01*
X70924276Y-110865026D01*
X70792247Y-110794454D01*
X70648986Y-110750997D01*
X70537333Y-110740000D01*
X70537322Y-110740000D01*
X70500000Y-110736324D01*
X70462678Y-110740000D01*
X59703711Y-110740000D01*
X59659774Y-110696063D01*
X59490256Y-110582795D01*
X59301898Y-110504774D01*
X59101939Y-110465000D01*
X58898061Y-110465000D01*
X58698102Y-110504774D01*
X58509744Y-110582795D01*
X58340226Y-110696063D01*
X58196063Y-110840226D01*
X58082795Y-111009744D01*
X58004774Y-111198102D01*
X57965000Y-111398061D01*
X50660000Y-111398061D01*
X50660000Y-105523061D01*
X52590000Y-105523061D01*
X52590000Y-105726939D01*
X52629774Y-105926898D01*
X52707795Y-106115256D01*
X52821063Y-106284774D01*
X52965226Y-106428937D01*
X53134744Y-106542205D01*
X53323102Y-106620226D01*
X53523061Y-106660000D01*
X53585198Y-106660000D01*
X53936200Y-107011002D01*
X53959999Y-107040001D01*
X54075724Y-107134974D01*
X54207753Y-107205546D01*
X54351014Y-107249003D01*
X54462667Y-107260000D01*
X54462677Y-107260000D01*
X54500000Y-107263676D01*
X54537323Y-107260000D01*
X73685199Y-107260000D01*
X73740001Y-107314802D01*
X73740000Y-111796289D01*
X73696063Y-111840226D01*
X73582795Y-112009744D01*
X73504774Y-112198102D01*
X73465000Y-112398061D01*
X73465000Y-112601939D01*
X73504774Y-112801898D01*
X73582795Y-112990256D01*
X73696063Y-113159774D01*
X73840226Y-113303937D01*
X74009744Y-113417205D01*
X74198102Y-113495226D01*
X74398061Y-113535000D01*
X74601939Y-113535000D01*
X74801898Y-113495226D01*
X74990256Y-113417205D01*
X75159774Y-113303937D01*
X75203711Y-113260000D01*
X81889676Y-113260000D01*
X81926998Y-113263676D01*
X81964320Y-113260000D01*
X81964331Y-113260000D01*
X82075984Y-113249003D01*
X82219245Y-113205546D01*
X82351274Y-113134974D01*
X82466999Y-113040001D01*
X82490802Y-113010997D01*
X84240001Y-111261799D01*
X84240001Y-111962668D01*
X84236324Y-112000000D01*
X84240001Y-112037333D01*
X84250998Y-112148986D01*
X84260083Y-112178937D01*
X84294454Y-112292246D01*
X84365026Y-112424276D01*
X84419175Y-112490256D01*
X84460000Y-112540001D01*
X84488998Y-112563799D01*
X85465000Y-113539802D01*
X85465000Y-113601939D01*
X85504774Y-113801898D01*
X85582795Y-113990256D01*
X85696063Y-114159774D01*
X85840226Y-114303937D01*
X86009744Y-114417205D01*
X86198102Y-114495226D01*
X86398061Y-114535000D01*
X86601939Y-114535000D01*
X86801898Y-114495226D01*
X86990256Y-114417205D01*
X87159774Y-114303937D01*
X87303937Y-114159774D01*
X87417205Y-113990256D01*
X87495226Y-113801898D01*
X87535000Y-113601939D01*
X87535000Y-113398061D01*
X87495226Y-113198102D01*
X87417205Y-113009744D01*
X87303937Y-112840226D01*
X87159774Y-112696063D01*
X86990256Y-112582795D01*
X86801898Y-112504774D01*
X86601939Y-112465000D01*
X86539802Y-112465000D01*
X85760000Y-111685199D01*
X85760000Y-111203711D01*
X85803937Y-111159774D01*
X85917205Y-110990256D01*
X85995226Y-110801898D01*
X86000000Y-110777897D01*
X86004774Y-110801898D01*
X86082795Y-110990256D01*
X86196063Y-111159774D01*
X86340226Y-111303937D01*
X86509744Y-111417205D01*
X86698102Y-111495226D01*
X86898061Y-111535000D01*
X87101939Y-111535000D01*
X87301898Y-111495226D01*
X87490256Y-111417205D01*
X87659774Y-111303937D01*
X87703711Y-111260000D01*
X90685199Y-111260000D01*
X104015000Y-124589803D01*
X104014999Y-135614666D01*
X104014999Y-136310679D01*
X104011323Y-136348001D01*
X104014999Y-136385323D01*
X104014999Y-136385333D01*
X104025996Y-136496986D01*
X104069453Y-136640247D01*
X104140025Y-136772277D01*
X104164335Y-136801898D01*
X104234998Y-136888002D01*
X104264002Y-136911805D01*
X105363199Y-138011003D01*
X105386997Y-138040001D01*
X105415995Y-138063799D01*
X105502722Y-138134974D01*
X105634751Y-138205546D01*
X105778012Y-138249003D01*
X105926998Y-138263677D01*
X105964331Y-138260000D01*
X109296289Y-138260000D01*
X109340226Y-138303937D01*
X109509744Y-138417205D01*
X109698102Y-138495226D01*
X109898061Y-138535000D01*
X110101939Y-138535000D01*
X110301898Y-138495226D01*
X110490256Y-138417205D01*
X110659774Y-138303937D01*
X110803937Y-138159774D01*
X110917205Y-137990256D01*
X110995226Y-137801898D01*
X111035000Y-137601939D01*
X111035000Y-137398061D01*
X110995226Y-137198102D01*
X110917205Y-137009744D01*
X110803937Y-136840226D01*
X110659774Y-136696063D01*
X110490256Y-136582795D01*
X110301898Y-136504774D01*
X110101939Y-136465000D01*
X109898061Y-136465000D01*
X109698102Y-136504774D01*
X109509744Y-136582795D01*
X109340226Y-136696063D01*
X109296289Y-136740000D01*
X106241800Y-136740000D01*
X106232755Y-136730956D01*
X106303937Y-136659774D01*
X106417205Y-136490256D01*
X106495226Y-136301898D01*
X106535000Y-136101939D01*
X106535000Y-136039801D01*
X107634801Y-134940000D01*
X112507815Y-134940000D01*
X112536487Y-135231111D01*
X112621401Y-135511034D01*
X112759294Y-135769014D01*
X112944866Y-135995134D01*
X113170986Y-136180706D01*
X113428966Y-136318599D01*
X113708889Y-136403513D01*
X113927050Y-136425000D01*
X114072950Y-136425000D01*
X114291111Y-136403513D01*
X114571034Y-136318599D01*
X114829014Y-136180706D01*
X115055134Y-135995134D01*
X115240706Y-135769014D01*
X115378599Y-135511034D01*
X115463513Y-135231111D01*
X115492185Y-134940000D01*
X115463513Y-134648889D01*
X115378599Y-134368966D01*
X115240706Y-134110986D01*
X115055134Y-133884866D01*
X115025313Y-133860393D01*
X115094180Y-133839502D01*
X115204494Y-133780537D01*
X115301185Y-133701185D01*
X115380537Y-133604494D01*
X115439502Y-133494180D01*
X115475812Y-133374482D01*
X115488072Y-133250000D01*
X115488072Y-131550000D01*
X115475812Y-131425518D01*
X115439502Y-131305820D01*
X115380537Y-131195506D01*
X115301185Y-131098815D01*
X115204494Y-131019463D01*
X115094180Y-130960498D01*
X114974482Y-130924188D01*
X114850000Y-130911928D01*
X113150000Y-130911928D01*
X113025518Y-130924188D01*
X112905820Y-130960498D01*
X112795506Y-131019463D01*
X112698815Y-131098815D01*
X112619463Y-131195506D01*
X112560498Y-131305820D01*
X112524188Y-131425518D01*
X112511928Y-131550000D01*
X112511928Y-133250000D01*
X112524188Y-133374482D01*
X112560498Y-133494180D01*
X112619463Y-133604494D01*
X112698815Y-133701185D01*
X112795506Y-133780537D01*
X112905820Y-133839502D01*
X112974687Y-133860393D01*
X112944866Y-133884866D01*
X112759294Y-134110986D01*
X112621401Y-134368966D01*
X112536487Y-134648889D01*
X112507815Y-134940000D01*
X107634801Y-134940000D01*
X109511009Y-133063794D01*
X109540001Y-133040001D01*
X109563795Y-133011008D01*
X109563799Y-133011004D01*
X109634973Y-132924277D01*
X109634974Y-132924276D01*
X109705546Y-132792247D01*
X109749003Y-132648986D01*
X109760000Y-132537333D01*
X109760000Y-132537324D01*
X109763676Y-132500001D01*
X109760000Y-132462678D01*
X109760000Y-123898061D01*
X121965000Y-123898061D01*
X121965000Y-124101939D01*
X122004774Y-124301898D01*
X122082795Y-124490256D01*
X122196063Y-124659774D01*
X122340226Y-124803937D01*
X122509744Y-124917205D01*
X122698102Y-124995226D01*
X122898061Y-125035000D01*
X123101939Y-125035000D01*
X123301898Y-124995226D01*
X123490256Y-124917205D01*
X123659774Y-124803937D01*
X123703711Y-124760000D01*
X126296289Y-124760000D01*
X126340226Y-124803937D01*
X126509744Y-124917205D01*
X126698102Y-124995226D01*
X126898061Y-125035000D01*
X127101939Y-125035000D01*
X127301898Y-124995226D01*
X127490256Y-124917205D01*
X127659774Y-124803937D01*
X127803937Y-124659774D01*
X127917205Y-124490256D01*
X127995226Y-124301898D01*
X128035000Y-124101939D01*
X128035000Y-123898061D01*
X127995226Y-123698102D01*
X127917205Y-123509744D01*
X127803937Y-123340226D01*
X127659774Y-123196063D01*
X127490256Y-123082795D01*
X127301898Y-123004774D01*
X127101939Y-122965000D01*
X126898061Y-122965000D01*
X126698102Y-123004774D01*
X126509744Y-123082795D01*
X126340226Y-123196063D01*
X126296289Y-123240000D01*
X123703711Y-123240000D01*
X123659774Y-123196063D01*
X123490256Y-123082795D01*
X123301898Y-123004774D01*
X123101939Y-122965000D01*
X122898061Y-122965000D01*
X122698102Y-123004774D01*
X122509744Y-123082795D01*
X122340226Y-123196063D01*
X122196063Y-123340226D01*
X122082795Y-123509744D01*
X122004774Y-123698102D01*
X121965000Y-123898061D01*
X109760000Y-123898061D01*
X109760000Y-122898061D01*
X133965000Y-122898061D01*
X133965000Y-123101939D01*
X134004774Y-123301898D01*
X134082795Y-123490256D01*
X134196063Y-123659774D01*
X134240001Y-123703712D01*
X134240000Y-127796289D01*
X134196063Y-127840226D01*
X134082795Y-128009744D01*
X134004774Y-128198102D01*
X133965000Y-128398061D01*
X133965000Y-128601939D01*
X134004774Y-128801898D01*
X134082795Y-128990256D01*
X134196063Y-129159774D01*
X134340226Y-129303937D01*
X134509744Y-129417205D01*
X134698102Y-129495226D01*
X134898061Y-129535000D01*
X135101939Y-129535000D01*
X135240001Y-129507538D01*
X135240001Y-133462668D01*
X135236324Y-133500000D01*
X135250998Y-133648985D01*
X135294454Y-133792246D01*
X135365026Y-133924276D01*
X135436201Y-134011002D01*
X135460000Y-134040001D01*
X135488998Y-134063799D01*
X137965000Y-136539802D01*
X137965000Y-136601939D01*
X138004774Y-136801898D01*
X138082795Y-136990256D01*
X138196063Y-137159774D01*
X138340226Y-137303937D01*
X138509744Y-137417205D01*
X138698102Y-137495226D01*
X138898061Y-137535000D01*
X139101939Y-137535000D01*
X139301898Y-137495226D01*
X139490256Y-137417205D01*
X139659774Y-137303937D01*
X139803937Y-137159774D01*
X139917205Y-136990256D01*
X139995226Y-136801898D01*
X140035000Y-136601939D01*
X140035000Y-136398061D01*
X139995226Y-136198102D01*
X139917205Y-136009744D01*
X139803937Y-135840226D01*
X139659774Y-135696063D01*
X139490256Y-135582795D01*
X139301898Y-135504774D01*
X139101939Y-135465000D01*
X139039802Y-135465000D01*
X136760000Y-133185199D01*
X136760000Y-122898061D01*
X140965000Y-122898061D01*
X140965000Y-123101939D01*
X141004774Y-123301898D01*
X141082795Y-123490256D01*
X141196063Y-123659774D01*
X141240000Y-123703711D01*
X141240001Y-125296288D01*
X141196063Y-125340226D01*
X141082795Y-125509744D01*
X141004774Y-125698102D01*
X140965000Y-125898061D01*
X140965000Y-126101939D01*
X141004774Y-126301898D01*
X141082795Y-126490256D01*
X141196063Y-126659774D01*
X141340226Y-126803937D01*
X141509744Y-126917205D01*
X141698102Y-126995226D01*
X141898061Y-127035000D01*
X142101939Y-127035000D01*
X142301898Y-126995226D01*
X142490256Y-126917205D01*
X142659774Y-126803937D01*
X142803937Y-126659774D01*
X142917205Y-126490256D01*
X142995226Y-126301898D01*
X143035000Y-126101939D01*
X143035000Y-125898061D01*
X142995226Y-125698102D01*
X142917205Y-125509744D01*
X142803937Y-125340226D01*
X142760000Y-125296289D01*
X142760000Y-123703711D01*
X142803937Y-123659774D01*
X142917205Y-123490256D01*
X142995226Y-123301898D01*
X143035000Y-123101939D01*
X143035000Y-122898061D01*
X142995226Y-122698102D01*
X142917205Y-122509744D01*
X142803937Y-122340226D01*
X142659774Y-122196063D01*
X142490256Y-122082795D01*
X142301898Y-122004774D01*
X142101939Y-121965000D01*
X141898061Y-121965000D01*
X141698102Y-122004774D01*
X141509744Y-122082795D01*
X141340226Y-122196063D01*
X141196063Y-122340226D01*
X141082795Y-122509744D01*
X141004774Y-122698102D01*
X140965000Y-122898061D01*
X136760000Y-122898061D01*
X136760000Y-122703711D01*
X136803937Y-122659774D01*
X136917205Y-122490256D01*
X136995226Y-122301898D01*
X137035000Y-122101939D01*
X137035000Y-121898061D01*
X136995226Y-121698102D01*
X136917205Y-121509744D01*
X136803937Y-121340226D01*
X136659774Y-121196063D01*
X136490256Y-121082795D01*
X136301898Y-121004774D01*
X136101939Y-120965000D01*
X135898061Y-120965000D01*
X135698102Y-121004774D01*
X135509744Y-121082795D01*
X135340226Y-121196063D01*
X135196063Y-121340226D01*
X135082795Y-121509744D01*
X135004774Y-121698102D01*
X134965000Y-121898061D01*
X134965000Y-121965000D01*
X134898061Y-121965000D01*
X134698102Y-122004774D01*
X134509744Y-122082795D01*
X134340226Y-122196063D01*
X134196063Y-122340226D01*
X134082795Y-122509744D01*
X134004774Y-122698102D01*
X133965000Y-122898061D01*
X109760000Y-122898061D01*
X109760000Y-118703711D01*
X109803937Y-118659774D01*
X109917205Y-118490256D01*
X109995226Y-118301898D01*
X110035000Y-118101939D01*
X110035000Y-117898061D01*
X109995226Y-117698102D01*
X109917205Y-117509744D01*
X109842582Y-117398061D01*
X114965000Y-117398061D01*
X114965000Y-117601939D01*
X115004774Y-117801898D01*
X115082795Y-117990256D01*
X115196063Y-118159774D01*
X115340226Y-118303937D01*
X115509744Y-118417205D01*
X115698102Y-118495226D01*
X115898061Y-118535000D01*
X116101939Y-118535000D01*
X116301898Y-118495226D01*
X116490256Y-118417205D01*
X116659774Y-118303937D01*
X116803937Y-118159774D01*
X116917205Y-117990256D01*
X116995226Y-117801898D01*
X117035000Y-117601939D01*
X117035000Y-117539801D01*
X118314802Y-116260000D01*
X121796289Y-116260000D01*
X121840226Y-116303937D01*
X122009744Y-116417205D01*
X122198102Y-116495226D01*
X122398061Y-116535000D01*
X122601939Y-116535000D01*
X122801898Y-116495226D01*
X122990256Y-116417205D01*
X123159774Y-116303937D01*
X123303937Y-116159774D01*
X123417205Y-115990256D01*
X123495226Y-115801898D01*
X123535000Y-115601939D01*
X123535000Y-115398061D01*
X123495226Y-115198102D01*
X123417205Y-115009744D01*
X123384612Y-114960965D01*
X123490256Y-114917205D01*
X123659774Y-114803937D01*
X123803937Y-114659774D01*
X123917205Y-114490256D01*
X123995226Y-114301898D01*
X124035000Y-114101939D01*
X124035000Y-113898061D01*
X123995226Y-113698102D01*
X123917205Y-113509744D01*
X123803937Y-113340226D01*
X123659774Y-113196063D01*
X123490256Y-113082795D01*
X123301898Y-113004774D01*
X123101939Y-112965000D01*
X123039801Y-112965000D01*
X122885000Y-112810199D01*
X122885000Y-112078711D01*
X122928937Y-112034774D01*
X123042205Y-111865256D01*
X123120226Y-111676898D01*
X123160000Y-111476939D01*
X123160000Y-111273061D01*
X123120226Y-111073102D01*
X123042205Y-110884744D01*
X122928937Y-110715226D01*
X122784774Y-110571063D01*
X122615256Y-110457795D01*
X122426898Y-110379774D01*
X122226939Y-110340000D01*
X122023061Y-110340000D01*
X121823102Y-110379774D01*
X121634744Y-110457795D01*
X121465226Y-110571063D01*
X121321063Y-110715226D01*
X121207795Y-110884744D01*
X121129774Y-111073102D01*
X121090000Y-111273061D01*
X121090000Y-111476939D01*
X121129774Y-111676898D01*
X121207795Y-111865256D01*
X121321063Y-112034774D01*
X121365001Y-112078712D01*
X121365000Y-113087677D01*
X121361324Y-113125000D01*
X121365000Y-113162322D01*
X121365000Y-113162332D01*
X121375997Y-113273985D01*
X121415670Y-113404772D01*
X121419454Y-113417246D01*
X121490026Y-113549276D01*
X121511732Y-113575724D01*
X121584999Y-113665001D01*
X121614002Y-113688803D01*
X121965000Y-114039801D01*
X121965000Y-114101939D01*
X122004774Y-114301898D01*
X122082795Y-114490256D01*
X122115388Y-114539035D01*
X122009744Y-114582795D01*
X121840226Y-114696063D01*
X121796289Y-114740000D01*
X118037322Y-114740000D01*
X117999999Y-114736324D01*
X117962676Y-114740000D01*
X117962667Y-114740000D01*
X117851014Y-114750997D01*
X117707753Y-114794454D01*
X117575723Y-114865026D01*
X117492083Y-114933668D01*
X117459999Y-114959999D01*
X117436201Y-114988997D01*
X115960199Y-116465000D01*
X115898061Y-116465000D01*
X115698102Y-116504774D01*
X115509744Y-116582795D01*
X115340226Y-116696063D01*
X115196063Y-116840226D01*
X115082795Y-117009744D01*
X115004774Y-117198102D01*
X114965000Y-117398061D01*
X109842582Y-117398061D01*
X109803937Y-117340226D01*
X109659774Y-117196063D01*
X109490256Y-117082795D01*
X109301898Y-117004774D01*
X109101939Y-116965000D01*
X108898061Y-116965000D01*
X108698102Y-117004774D01*
X108509744Y-117082795D01*
X108340226Y-117196063D01*
X108196063Y-117340226D01*
X108082795Y-117509744D01*
X108004774Y-117698102D01*
X107965000Y-117898061D01*
X107965000Y-118101939D01*
X108004774Y-118301898D01*
X108082795Y-118490256D01*
X108196063Y-118659774D01*
X108240001Y-118703712D01*
X108240000Y-132185197D01*
X105534999Y-134890200D01*
X105534999Y-124312321D01*
X105538675Y-124274998D01*
X105534999Y-124237675D01*
X105534999Y-124237666D01*
X105524002Y-124126013D01*
X105480545Y-123982752D01*
X105409973Y-123850723D01*
X105371577Y-123803937D01*
X105338798Y-123763995D01*
X105338794Y-123763991D01*
X105315000Y-123734998D01*
X105286007Y-123711204D01*
X91563804Y-109989003D01*
X91540001Y-109959999D01*
X91424276Y-109865026D01*
X91292247Y-109794454D01*
X91148986Y-109750997D01*
X91037333Y-109740000D01*
X91037322Y-109740000D01*
X91000000Y-109736324D01*
X90962678Y-109740000D01*
X87703711Y-109740000D01*
X87659774Y-109696063D01*
X87490256Y-109582795D01*
X87301898Y-109504774D01*
X87101939Y-109465000D01*
X86898061Y-109465000D01*
X86698102Y-109504774D01*
X86509744Y-109582795D01*
X86340226Y-109696063D01*
X86196063Y-109840226D01*
X86082795Y-110009744D01*
X86004774Y-110198102D01*
X86000000Y-110222103D01*
X85995226Y-110198102D01*
X85917205Y-110009744D01*
X85803937Y-109840226D01*
X85732755Y-109769044D01*
X86126800Y-109375000D01*
X90181289Y-109375000D01*
X90225226Y-109418937D01*
X90394744Y-109532205D01*
X90583102Y-109610226D01*
X90783061Y-109650000D01*
X90986939Y-109650000D01*
X91186898Y-109610226D01*
X91375256Y-109532205D01*
X91544774Y-109418937D01*
X91688937Y-109274774D01*
X91802205Y-109105256D01*
X91880226Y-108916898D01*
X91920000Y-108716939D01*
X91920000Y-108513061D01*
X91880226Y-108313102D01*
X91802205Y-108124744D01*
X91688937Y-107955226D01*
X91544774Y-107811063D01*
X91375256Y-107697795D01*
X91186898Y-107619774D01*
X90986939Y-107580000D01*
X90783061Y-107580000D01*
X90583102Y-107619774D01*
X90394744Y-107697795D01*
X90225226Y-107811063D01*
X90181289Y-107855000D01*
X85849323Y-107855000D01*
X85811998Y-107851324D01*
X85774673Y-107855000D01*
X85774665Y-107855000D01*
X85663012Y-107865997D01*
X85519751Y-107909454D01*
X85387722Y-107980026D01*
X85271997Y-108074999D01*
X85248199Y-108103997D01*
X81612197Y-111740000D01*
X75260000Y-111740000D01*
X75260000Y-107037325D01*
X75263676Y-107000000D01*
X75260000Y-106962675D01*
X75260000Y-106962667D01*
X75249003Y-106851014D01*
X75205546Y-106707753D01*
X75134974Y-106575724D01*
X75040001Y-106459999D01*
X75010997Y-106436196D01*
X74563804Y-105989003D01*
X74540001Y-105959999D01*
X74424276Y-105865026D01*
X74292247Y-105794454D01*
X74148986Y-105750997D01*
X74037333Y-105740000D01*
X74037322Y-105740000D01*
X74000000Y-105736324D01*
X73962678Y-105740000D01*
X54814802Y-105740000D01*
X54660000Y-105585198D01*
X54660000Y-105523061D01*
X54620226Y-105323102D01*
X54542205Y-105134744D01*
X54428937Y-104965226D01*
X54361772Y-104898061D01*
X109965000Y-104898061D01*
X109965000Y-105101939D01*
X110004774Y-105301898D01*
X110082795Y-105490256D01*
X110196063Y-105659774D01*
X110340226Y-105803937D01*
X110509744Y-105917205D01*
X110698102Y-105995226D01*
X110898061Y-106035000D01*
X111101939Y-106035000D01*
X111301898Y-105995226D01*
X111490256Y-105917205D01*
X111659774Y-105803937D01*
X111703711Y-105760000D01*
X115462678Y-105760000D01*
X115500000Y-105763676D01*
X115537322Y-105760000D01*
X115537333Y-105760000D01*
X115648986Y-105749003D01*
X115792247Y-105705546D01*
X115924276Y-105634974D01*
X116040001Y-105540001D01*
X116044105Y-105535000D01*
X116101939Y-105535000D01*
X116301898Y-105495226D01*
X116490256Y-105417205D01*
X116659774Y-105303937D01*
X116803937Y-105159774D01*
X116917205Y-104990256D01*
X116995226Y-104801898D01*
X117035000Y-104601939D01*
X117035000Y-104398061D01*
X116995226Y-104198102D01*
X116917205Y-104009744D01*
X116803937Y-103840226D01*
X116659774Y-103696063D01*
X116490256Y-103582795D01*
X116301898Y-103504774D01*
X116101939Y-103465000D01*
X115898061Y-103465000D01*
X115698102Y-103504774D01*
X115509744Y-103582795D01*
X115340226Y-103696063D01*
X115196063Y-103840226D01*
X115082795Y-104009744D01*
X115004774Y-104198102D01*
X114996440Y-104240000D01*
X111703711Y-104240000D01*
X111659774Y-104196063D01*
X111490256Y-104082795D01*
X111301898Y-104004774D01*
X111101939Y-103965000D01*
X110898061Y-103965000D01*
X110698102Y-104004774D01*
X110509744Y-104082795D01*
X110340226Y-104196063D01*
X110196063Y-104340226D01*
X110082795Y-104509744D01*
X110004774Y-104698102D01*
X109965000Y-104898061D01*
X54361772Y-104898061D01*
X54284774Y-104821063D01*
X54115256Y-104707795D01*
X53926898Y-104629774D01*
X53726939Y-104590000D01*
X53523061Y-104590000D01*
X53323102Y-104629774D01*
X53134744Y-104707795D01*
X52965226Y-104821063D01*
X52821063Y-104965226D01*
X52707795Y-105134744D01*
X52629774Y-105323102D01*
X52590000Y-105523061D01*
X50660000Y-105523061D01*
X50660000Y-102898061D01*
X127465000Y-102898061D01*
X127465000Y-103101939D01*
X127504774Y-103301898D01*
X127582795Y-103490256D01*
X127696063Y-103659774D01*
X127740000Y-103703711D01*
X127740001Y-112796288D01*
X127696063Y-112840226D01*
X127582795Y-113009744D01*
X127504774Y-113198102D01*
X127465000Y-113398061D01*
X127465000Y-113601939D01*
X127504774Y-113801898D01*
X127582795Y-113990256D01*
X127696063Y-114159774D01*
X127840226Y-114303937D01*
X128009744Y-114417205D01*
X128198102Y-114495226D01*
X128398061Y-114535000D01*
X128601939Y-114535000D01*
X128801898Y-114495226D01*
X128990256Y-114417205D01*
X129159774Y-114303937D01*
X129303937Y-114159774D01*
X129417205Y-113990256D01*
X129495226Y-113801898D01*
X129535000Y-113601939D01*
X129535000Y-113398061D01*
X129495226Y-113198102D01*
X129417205Y-113009744D01*
X129303937Y-112840226D01*
X129260000Y-112796289D01*
X129260000Y-103703711D01*
X129303937Y-103659774D01*
X129417205Y-103490256D01*
X129495226Y-103301898D01*
X129535000Y-103101939D01*
X129535000Y-102898061D01*
X129495226Y-102698102D01*
X129417205Y-102509744D01*
X129303937Y-102340226D01*
X129159774Y-102196063D01*
X128990256Y-102082795D01*
X128801898Y-102004774D01*
X128601939Y-101965000D01*
X128398061Y-101965000D01*
X128198102Y-102004774D01*
X128009744Y-102082795D01*
X127840226Y-102196063D01*
X127696063Y-102340226D01*
X127582795Y-102509744D01*
X127504774Y-102698102D01*
X127465000Y-102898061D01*
X50660000Y-102898061D01*
X50660000Y-91898061D01*
X83965000Y-91898061D01*
X83965000Y-92101939D01*
X84004774Y-92301898D01*
X84082795Y-92490256D01*
X84196063Y-92659774D01*
X84340226Y-92803937D01*
X84509744Y-92917205D01*
X84698102Y-92995226D01*
X84898061Y-93035000D01*
X85101939Y-93035000D01*
X85301898Y-92995226D01*
X85490256Y-92917205D01*
X85659774Y-92803937D01*
X85703711Y-92760000D01*
X91235498Y-92760000D01*
X91272820Y-92763676D01*
X91310142Y-92760000D01*
X91310153Y-92760000D01*
X91421806Y-92749003D01*
X91565067Y-92705546D01*
X91697096Y-92634974D01*
X91812821Y-92540001D01*
X91836624Y-92510997D01*
X91949560Y-92398061D01*
X125465000Y-92398061D01*
X125465000Y-92601939D01*
X125504774Y-92801898D01*
X125582795Y-92990256D01*
X125696063Y-93159774D01*
X125740000Y-93203711D01*
X125740001Y-93962668D01*
X125736324Y-94000000D01*
X125750998Y-94148985D01*
X125794454Y-94292246D01*
X125865026Y-94424276D01*
X125936201Y-94511002D01*
X125960000Y-94540001D01*
X125988998Y-94563799D01*
X127465000Y-96039802D01*
X127465000Y-96101939D01*
X127504774Y-96301898D01*
X127582795Y-96490256D01*
X127696063Y-96659774D01*
X127840226Y-96803937D01*
X128009744Y-96917205D01*
X128198102Y-96995226D01*
X128398061Y-97035000D01*
X128601939Y-97035000D01*
X128801898Y-96995226D01*
X128990256Y-96917205D01*
X129159774Y-96803937D01*
X129250000Y-96713711D01*
X129340226Y-96803937D01*
X129509744Y-96917205D01*
X129698102Y-96995226D01*
X129898061Y-97035000D01*
X130101939Y-97035000D01*
X130301898Y-96995226D01*
X130490256Y-96917205D01*
X130659774Y-96803937D01*
X130803937Y-96659774D01*
X130917205Y-96490256D01*
X130995226Y-96301898D01*
X131000000Y-96277897D01*
X131004774Y-96301898D01*
X131082795Y-96490256D01*
X131196063Y-96659774D01*
X131340226Y-96803937D01*
X131509744Y-96917205D01*
X131698102Y-96995226D01*
X131898061Y-97035000D01*
X132101939Y-97035000D01*
X132301898Y-96995226D01*
X132490256Y-96917205D01*
X132500000Y-96910694D01*
X132509744Y-96917205D01*
X132698102Y-96995226D01*
X132898061Y-97035000D01*
X133101939Y-97035000D01*
X133301898Y-96995226D01*
X133490256Y-96917205D01*
X133659774Y-96803937D01*
X133803937Y-96659774D01*
X133917205Y-96490256D01*
X133995226Y-96301898D01*
X134035000Y-96101939D01*
X134035000Y-95898061D01*
X133995226Y-95698102D01*
X133917205Y-95509744D01*
X133803937Y-95340226D01*
X133760000Y-95296289D01*
X133760000Y-89016890D01*
X144558524Y-89016890D01*
X144603175Y-89164099D01*
X144728359Y-89426920D01*
X144902412Y-89660269D01*
X145118645Y-89855178D01*
X145368748Y-90004157D01*
X145643109Y-90101481D01*
X145873000Y-89980814D01*
X145873000Y-88787000D01*
X146127000Y-88787000D01*
X146127000Y-89980814D01*
X146356891Y-90101481D01*
X146631252Y-90004157D01*
X146881355Y-89855178D01*
X147097588Y-89660269D01*
X147271641Y-89426920D01*
X147396825Y-89164099D01*
X147441476Y-89016890D01*
X147320155Y-88787000D01*
X146127000Y-88787000D01*
X145873000Y-88787000D01*
X144679845Y-88787000D01*
X144558524Y-89016890D01*
X133760000Y-89016890D01*
X133760000Y-88814801D01*
X134539802Y-88035000D01*
X134601939Y-88035000D01*
X134801898Y-87995226D01*
X134990256Y-87917205D01*
X135159774Y-87803937D01*
X135303937Y-87659774D01*
X135417205Y-87490256D01*
X135495226Y-87301898D01*
X135535000Y-87101939D01*
X135535000Y-86898061D01*
X135495226Y-86698102D01*
X135417205Y-86509744D01*
X135303937Y-86340226D01*
X135159774Y-86196063D01*
X134990256Y-86082795D01*
X134801898Y-86004774D01*
X134601939Y-85965000D01*
X134535000Y-85965000D01*
X134535000Y-85898061D01*
X134495226Y-85698102D01*
X134417205Y-85509744D01*
X134303937Y-85340226D01*
X134159774Y-85196063D01*
X133990256Y-85082795D01*
X133801898Y-85004774D01*
X133601939Y-84965000D01*
X133398061Y-84965000D01*
X133388570Y-84966888D01*
X133303937Y-84840226D01*
X133159774Y-84696063D01*
X132990256Y-84582795D01*
X132801898Y-84504774D01*
X132601939Y-84465000D01*
X132398061Y-84465000D01*
X132198102Y-84504774D01*
X132009744Y-84582795D01*
X131840226Y-84696063D01*
X131696063Y-84840226D01*
X131582795Y-85009744D01*
X131504774Y-85198102D01*
X131465000Y-85398061D01*
X131465000Y-85460198D01*
X129489003Y-87436196D01*
X129459999Y-87459999D01*
X129404871Y-87527174D01*
X129365026Y-87575724D01*
X129306501Y-87685216D01*
X129294454Y-87707754D01*
X129250997Y-87851015D01*
X129240000Y-87962668D01*
X129240000Y-87962678D01*
X129236324Y-88000000D01*
X129240000Y-88037322D01*
X129240001Y-95276290D01*
X129159774Y-95196063D01*
X128990256Y-95082795D01*
X128801898Y-95004774D01*
X128601939Y-94965000D01*
X128539802Y-94965000D01*
X127260000Y-93685199D01*
X127260000Y-93203711D01*
X127303937Y-93159774D01*
X127417205Y-92990256D01*
X127495226Y-92801898D01*
X127535000Y-92601939D01*
X127535000Y-92398061D01*
X127495226Y-92198102D01*
X127417205Y-92009744D01*
X127303937Y-91840226D01*
X127159774Y-91696063D01*
X126990256Y-91582795D01*
X126801898Y-91504774D01*
X126601939Y-91465000D01*
X126398061Y-91465000D01*
X126198102Y-91504774D01*
X126009744Y-91582795D01*
X125840226Y-91696063D01*
X125696063Y-91840226D01*
X125582795Y-92009744D01*
X125504774Y-92198102D01*
X125465000Y-92398061D01*
X91949560Y-92398061D01*
X95016768Y-89330854D01*
X95082795Y-89490256D01*
X95196063Y-89659774D01*
X95340226Y-89803937D01*
X95509744Y-89917205D01*
X95698102Y-89995226D01*
X95898061Y-90035000D01*
X96101939Y-90035000D01*
X96301898Y-89995226D01*
X96490256Y-89917205D01*
X96500000Y-89910694D01*
X96509744Y-89917205D01*
X96698102Y-89995226D01*
X96898061Y-90035000D01*
X97101939Y-90035000D01*
X97301898Y-89995226D01*
X97490256Y-89917205D01*
X97659774Y-89803937D01*
X97803937Y-89659774D01*
X97917205Y-89490256D01*
X97995226Y-89301898D01*
X98035000Y-89101939D01*
X98035000Y-88898061D01*
X97995226Y-88698102D01*
X97917205Y-88509744D01*
X97803937Y-88340226D01*
X97760000Y-88296289D01*
X97760000Y-86814801D01*
X100063799Y-84511003D01*
X100063803Y-84510998D01*
X100514762Y-84060040D01*
X102233584Y-84060040D01*
X102270906Y-84063716D01*
X102308228Y-84060040D01*
X102308239Y-84060040D01*
X102419892Y-84049043D01*
X102563153Y-84005586D01*
X102695182Y-83935014D01*
X102810907Y-83840041D01*
X102834710Y-83811037D01*
X106075275Y-80570473D01*
X106137412Y-80570473D01*
X106337371Y-80530699D01*
X106525729Y-80452678D01*
X106695247Y-80339410D01*
X106839410Y-80195247D01*
X106952678Y-80025729D01*
X107030699Y-79837371D01*
X107070473Y-79637412D01*
X107070473Y-79433534D01*
X107030699Y-79233575D01*
X106952678Y-79045217D01*
X106839410Y-78875699D01*
X106792076Y-78828365D01*
X108111005Y-77509437D01*
X108140002Y-77485640D01*
X108234975Y-77369915D01*
X108305547Y-77237886D01*
X108340260Y-77123451D01*
X108403938Y-77059773D01*
X108517206Y-76890255D01*
X108595227Y-76701897D01*
X108635001Y-76501938D01*
X108635001Y-76298060D01*
X108595227Y-76098101D01*
X108517206Y-75909743D01*
X108509401Y-75898061D01*
X122965000Y-75898061D01*
X122965000Y-76101939D01*
X123004774Y-76301898D01*
X123082795Y-76490256D01*
X123196063Y-76659774D01*
X123340226Y-76803937D01*
X123509744Y-76917205D01*
X123698102Y-76995226D01*
X123898061Y-77035000D01*
X124101939Y-77035000D01*
X124301898Y-76995226D01*
X124490256Y-76917205D01*
X124659774Y-76803937D01*
X124703711Y-76760000D01*
X131992462Y-76760000D01*
X131965000Y-76898061D01*
X131965000Y-76960198D01*
X131685199Y-77240000D01*
X126203711Y-77240000D01*
X126159774Y-77196063D01*
X125990256Y-77082795D01*
X125801898Y-77004774D01*
X125601939Y-76965000D01*
X125398061Y-76965000D01*
X125198102Y-77004774D01*
X125009744Y-77082795D01*
X124840226Y-77196063D01*
X124696063Y-77340226D01*
X124582795Y-77509744D01*
X124504774Y-77698102D01*
X124465000Y-77898061D01*
X124465000Y-77965000D01*
X124398061Y-77965000D01*
X124198102Y-78004774D01*
X124009744Y-78082795D01*
X123840226Y-78196063D01*
X123696063Y-78340226D01*
X123582795Y-78509744D01*
X123504774Y-78698102D01*
X123465000Y-78898061D01*
X123465000Y-79101939D01*
X123504774Y-79301898D01*
X123582795Y-79490256D01*
X123696063Y-79659774D01*
X123840226Y-79803937D01*
X124009744Y-79917205D01*
X124198102Y-79995226D01*
X124398061Y-80035000D01*
X124601939Y-80035000D01*
X124801898Y-79995226D01*
X124990256Y-79917205D01*
X125159774Y-79803937D01*
X125203711Y-79760000D01*
X125492462Y-79760000D01*
X125465000Y-79898061D01*
X125465000Y-80101939D01*
X125504774Y-80301898D01*
X125582795Y-80490256D01*
X125696063Y-80659774D01*
X125840226Y-80803937D01*
X126009744Y-80917205D01*
X126115388Y-80960965D01*
X126082795Y-81009744D01*
X126004774Y-81198102D01*
X125965000Y-81398061D01*
X125965000Y-81601939D01*
X126004774Y-81801898D01*
X126082795Y-81990256D01*
X126196063Y-82159774D01*
X126340226Y-82303937D01*
X126509744Y-82417205D01*
X126698102Y-82495226D01*
X126898061Y-82535000D01*
X127101939Y-82535000D01*
X127301898Y-82495226D01*
X127490256Y-82417205D01*
X127659774Y-82303937D01*
X127803937Y-82159774D01*
X127917205Y-81990256D01*
X127995226Y-81801898D01*
X128003560Y-81760000D01*
X130462678Y-81760000D01*
X130500000Y-81763676D01*
X130537322Y-81760000D01*
X130537333Y-81760000D01*
X130648986Y-81749003D01*
X130792247Y-81705546D01*
X130924276Y-81634974D01*
X131040001Y-81540001D01*
X131044105Y-81535000D01*
X131101939Y-81535000D01*
X131301898Y-81495226D01*
X131490256Y-81417205D01*
X131659774Y-81303937D01*
X131803937Y-81159774D01*
X131883967Y-81040000D01*
X144507815Y-81040000D01*
X144536487Y-81331111D01*
X144621401Y-81611034D01*
X144759294Y-81869014D01*
X144944866Y-82095134D01*
X145170986Y-82280706D01*
X145225791Y-82310000D01*
X145170986Y-82339294D01*
X144944866Y-82524866D01*
X144759294Y-82750986D01*
X144621401Y-83008966D01*
X144536487Y-83288889D01*
X144507815Y-83580000D01*
X144536487Y-83871111D01*
X144621401Y-84151034D01*
X144759294Y-84409014D01*
X144944866Y-84635134D01*
X145170986Y-84820706D01*
X145225791Y-84850000D01*
X145170986Y-84879294D01*
X144944866Y-85064866D01*
X144759294Y-85290986D01*
X144621401Y-85548966D01*
X144536487Y-85828889D01*
X144507815Y-86120000D01*
X144536487Y-86411111D01*
X144621401Y-86691034D01*
X144759294Y-86949014D01*
X144944866Y-87175134D01*
X145170986Y-87360706D01*
X145235523Y-87395201D01*
X145118645Y-87464822D01*
X144902412Y-87659731D01*
X144728359Y-87893080D01*
X144603175Y-88155901D01*
X144558524Y-88303110D01*
X144679845Y-88533000D01*
X145873000Y-88533000D01*
X145873000Y-88513000D01*
X146127000Y-88513000D01*
X146127000Y-88533000D01*
X147320155Y-88533000D01*
X147441476Y-88303110D01*
X147396825Y-88155901D01*
X147271641Y-87893080D01*
X147097588Y-87659731D01*
X146881355Y-87464822D01*
X146764477Y-87395201D01*
X146829014Y-87360706D01*
X147055134Y-87175134D01*
X147240706Y-86949014D01*
X147378599Y-86691034D01*
X147463513Y-86411111D01*
X147492185Y-86120000D01*
X147463513Y-85828889D01*
X147378599Y-85548966D01*
X147240706Y-85290986D01*
X147055134Y-85064866D01*
X146829014Y-84879294D01*
X146774209Y-84850000D01*
X146829014Y-84820706D01*
X147055134Y-84635134D01*
X147240706Y-84409014D01*
X147378599Y-84151034D01*
X147463513Y-83871111D01*
X147492185Y-83580000D01*
X147463513Y-83288889D01*
X147378599Y-83008966D01*
X147240706Y-82750986D01*
X147055134Y-82524866D01*
X146829014Y-82339294D01*
X146774209Y-82310000D01*
X146829014Y-82280706D01*
X147055134Y-82095134D01*
X147240706Y-81869014D01*
X147378599Y-81611034D01*
X147463513Y-81331111D01*
X147492185Y-81040000D01*
X147463513Y-80748889D01*
X147378599Y-80468966D01*
X147240706Y-80210986D01*
X147055134Y-79984866D01*
X147025313Y-79960393D01*
X147094180Y-79939502D01*
X147204494Y-79880537D01*
X147301185Y-79801185D01*
X147380537Y-79704494D01*
X147439502Y-79594180D01*
X147475812Y-79474482D01*
X147488072Y-79350000D01*
X147488072Y-77650000D01*
X147475812Y-77525518D01*
X147439502Y-77405820D01*
X147380537Y-77295506D01*
X147301185Y-77198815D01*
X147204494Y-77119463D01*
X147094180Y-77060498D01*
X146974482Y-77024188D01*
X146850000Y-77011928D01*
X145150000Y-77011928D01*
X145025518Y-77024188D01*
X144905820Y-77060498D01*
X144795506Y-77119463D01*
X144698815Y-77198815D01*
X144619463Y-77295506D01*
X144560498Y-77405820D01*
X144524188Y-77525518D01*
X144511928Y-77650000D01*
X144511928Y-79350000D01*
X144524188Y-79474482D01*
X144560498Y-79594180D01*
X144619463Y-79704494D01*
X144698815Y-79801185D01*
X144795506Y-79880537D01*
X144905820Y-79939502D01*
X144974687Y-79960393D01*
X144944866Y-79984866D01*
X144759294Y-80210986D01*
X144621401Y-80468966D01*
X144536487Y-80748889D01*
X144507815Y-81040000D01*
X131883967Y-81040000D01*
X131917205Y-80990256D01*
X131995226Y-80801898D01*
X132035000Y-80601939D01*
X132035000Y-80398061D01*
X131995226Y-80198102D01*
X131917205Y-80009744D01*
X131803937Y-79840226D01*
X131723711Y-79760000D01*
X132369291Y-79760000D01*
X132413228Y-79803937D01*
X132582746Y-79917205D01*
X132771104Y-79995226D01*
X132971063Y-80035000D01*
X133174941Y-80035000D01*
X133374900Y-79995226D01*
X133563258Y-79917205D01*
X133732776Y-79803937D01*
X133876939Y-79659774D01*
X133990207Y-79490256D01*
X134068228Y-79301898D01*
X134108002Y-79101939D01*
X134108002Y-78898061D01*
X134068228Y-78698102D01*
X133990207Y-78509744D01*
X133876939Y-78340226D01*
X133732776Y-78196063D01*
X133563258Y-78082795D01*
X133374900Y-78004774D01*
X133310009Y-77991866D01*
X133490256Y-77917205D01*
X133659774Y-77803937D01*
X133803937Y-77659774D01*
X133917205Y-77490256D01*
X133995226Y-77301898D01*
X134035000Y-77101939D01*
X134035000Y-76898061D01*
X134007538Y-76760000D01*
X134296289Y-76760000D01*
X134340226Y-76803937D01*
X134509744Y-76917205D01*
X134698102Y-76995226D01*
X134898061Y-77035000D01*
X135101939Y-77035000D01*
X135301898Y-76995226D01*
X135490256Y-76917205D01*
X135659774Y-76803937D01*
X135803937Y-76659774D01*
X135917205Y-76490256D01*
X135995226Y-76301898D01*
X136035000Y-76101939D01*
X136035000Y-75898061D01*
X135995226Y-75698102D01*
X135917205Y-75509744D01*
X135803937Y-75340226D01*
X135659774Y-75196063D01*
X135490256Y-75082795D01*
X135301898Y-75004774D01*
X135101939Y-74965000D01*
X134898061Y-74965000D01*
X134698102Y-75004774D01*
X134509744Y-75082795D01*
X134340226Y-75196063D01*
X134296289Y-75240000D01*
X133007538Y-75240000D01*
X133035000Y-75101939D01*
X133035000Y-75039802D01*
X133461004Y-74613798D01*
X133490001Y-74590001D01*
X133516332Y-74557917D01*
X133584974Y-74474277D01*
X133655546Y-74342247D01*
X133656159Y-74340226D01*
X133699003Y-74198986D01*
X133710000Y-74087333D01*
X133710000Y-74087323D01*
X133713676Y-74050000D01*
X133710000Y-74012677D01*
X133710000Y-73056890D01*
X144558524Y-73056890D01*
X144603175Y-73204099D01*
X144728359Y-73466920D01*
X144902412Y-73700269D01*
X145118645Y-73895178D01*
X145368748Y-74044157D01*
X145643109Y-74141481D01*
X145873000Y-74020814D01*
X145873000Y-72827000D01*
X146127000Y-72827000D01*
X146127000Y-74020814D01*
X146356891Y-74141481D01*
X146631252Y-74044157D01*
X146881355Y-73895178D01*
X147097588Y-73700269D01*
X147271641Y-73466920D01*
X147396825Y-73204099D01*
X147441476Y-73056890D01*
X147320155Y-72827000D01*
X146127000Y-72827000D01*
X145873000Y-72827000D01*
X144679845Y-72827000D01*
X144558524Y-73056890D01*
X133710000Y-73056890D01*
X133710000Y-72203711D01*
X133753937Y-72159774D01*
X133867205Y-71990256D01*
X133945226Y-71801898D01*
X133985000Y-71601939D01*
X133985000Y-71398061D01*
X133945226Y-71198102D01*
X133867205Y-71009744D01*
X133753937Y-70840226D01*
X133609774Y-70696063D01*
X133440256Y-70582795D01*
X133251898Y-70504774D01*
X133051939Y-70465000D01*
X132848061Y-70465000D01*
X132648102Y-70504774D01*
X132459744Y-70582795D01*
X132290226Y-70696063D01*
X132146063Y-70840226D01*
X132032795Y-71009744D01*
X131954774Y-71198102D01*
X131915000Y-71398061D01*
X131915000Y-71601939D01*
X131954774Y-71801898D01*
X132032795Y-71990256D01*
X132146063Y-72159774D01*
X132190001Y-72203712D01*
X132190000Y-73735198D01*
X131960198Y-73965000D01*
X131898061Y-73965000D01*
X131698102Y-74004774D01*
X131509744Y-74082795D01*
X131340226Y-74196063D01*
X131196063Y-74340226D01*
X131082795Y-74509744D01*
X131004774Y-74698102D01*
X130965000Y-74898061D01*
X130965000Y-75101939D01*
X130992462Y-75240000D01*
X124703711Y-75240000D01*
X124659774Y-75196063D01*
X124490256Y-75082795D01*
X124301898Y-75004774D01*
X124101939Y-74965000D01*
X123898061Y-74965000D01*
X123698102Y-75004774D01*
X123509744Y-75082795D01*
X123340226Y-75196063D01*
X123196063Y-75340226D01*
X123082795Y-75509744D01*
X123004774Y-75698102D01*
X122965000Y-75898061D01*
X108509401Y-75898061D01*
X108403938Y-75740225D01*
X108259775Y-75596062D01*
X108090257Y-75482794D01*
X107901899Y-75404773D01*
X107701940Y-75364999D01*
X107498062Y-75364999D01*
X107298103Y-75404773D01*
X107260012Y-75420551D01*
X107260012Y-70703711D01*
X107303949Y-70659774D01*
X107417217Y-70490256D01*
X107495238Y-70301898D01*
X107535012Y-70101939D01*
X107535012Y-69898061D01*
X107495238Y-69698102D01*
X107417217Y-69509744D01*
X107303949Y-69340226D01*
X107159786Y-69196063D01*
X106990268Y-69082795D01*
X106801910Y-69004774D01*
X106601951Y-68965000D01*
X106398073Y-68965000D01*
X106198114Y-69004774D01*
X106009756Y-69082795D01*
X106000011Y-69089307D01*
X105990265Y-69082795D01*
X105801907Y-69004774D01*
X105601948Y-68965000D01*
X105398070Y-68965000D01*
X105198111Y-69004774D01*
X105009753Y-69082795D01*
X105000008Y-69089307D01*
X104990262Y-69082795D01*
X104801904Y-69004774D01*
X104601945Y-68965000D01*
X104398067Y-68965000D01*
X104198108Y-69004774D01*
X104009750Y-69082795D01*
X104000005Y-69089307D01*
X103990259Y-69082795D01*
X103801901Y-69004774D01*
X103601942Y-68965000D01*
X103398064Y-68965000D01*
X103198105Y-69004774D01*
X103009747Y-69082795D01*
X103000002Y-69089307D01*
X102990256Y-69082795D01*
X102801898Y-69004774D01*
X102601939Y-68965000D01*
X102398061Y-68965000D01*
X102198102Y-69004774D01*
X102009744Y-69082795D01*
X102000000Y-69089306D01*
X101990256Y-69082795D01*
X101801898Y-69004774D01*
X101601939Y-68965000D01*
X101398061Y-68965000D01*
X101198102Y-69004774D01*
X101009744Y-69082795D01*
X100840226Y-69196063D01*
X100696063Y-69340226D01*
X100582795Y-69509744D01*
X100504774Y-69698102D01*
X100465000Y-69898061D01*
X100465000Y-70101939D01*
X100504774Y-70301898D01*
X100582795Y-70490256D01*
X100696063Y-70659774D01*
X100740000Y-70703711D01*
X100740001Y-78912377D01*
X100294183Y-79358195D01*
X98919127Y-79358195D01*
X98881804Y-79354519D01*
X98844482Y-79358195D01*
X98844472Y-79358195D01*
X98732819Y-79369192D01*
X98619419Y-79403591D01*
X98589558Y-79412649D01*
X98457528Y-79483221D01*
X98388342Y-79540001D01*
X98341804Y-79578194D01*
X98318006Y-79607192D01*
X94135208Y-83789991D01*
X93350932Y-83789991D01*
X93313599Y-83786314D01*
X93276266Y-83789991D01*
X93164613Y-83800988D01*
X93021352Y-83844445D01*
X92889323Y-83915017D01*
X92773598Y-84009990D01*
X92749800Y-84038988D01*
X92048789Y-84740000D01*
X89203711Y-84740000D01*
X89159774Y-84696063D01*
X88990256Y-84582795D01*
X88801898Y-84504774D01*
X88601939Y-84465000D01*
X88398061Y-84465000D01*
X88198102Y-84504774D01*
X88009744Y-84582795D01*
X87840226Y-84696063D01*
X87696063Y-84840226D01*
X87582795Y-85009744D01*
X87504774Y-85198102D01*
X87465000Y-85398061D01*
X87465000Y-85601939D01*
X87504774Y-85801898D01*
X87582795Y-85990256D01*
X87696063Y-86159774D01*
X87786289Y-86250000D01*
X87769044Y-86267245D01*
X87260000Y-85758201D01*
X87260000Y-82703711D01*
X87303937Y-82659774D01*
X87417205Y-82490256D01*
X87495226Y-82301898D01*
X87535000Y-82101939D01*
X87535000Y-81898061D01*
X87495226Y-81698102D01*
X87417205Y-81509744D01*
X87303937Y-81340226D01*
X87159774Y-81196063D01*
X86990256Y-81082795D01*
X86801898Y-81004774D01*
X86601939Y-80965000D01*
X86398061Y-80965000D01*
X86198102Y-81004774D01*
X86009744Y-81082795D01*
X85840226Y-81196063D01*
X85696063Y-81340226D01*
X85582795Y-81509744D01*
X85504774Y-81698102D01*
X85465000Y-81898061D01*
X85465000Y-82101939D01*
X85504774Y-82301898D01*
X85582795Y-82490256D01*
X85696063Y-82659774D01*
X85740000Y-82703711D01*
X85740001Y-86035670D01*
X85736324Y-86073002D01*
X85740001Y-86110335D01*
X85750998Y-86221988D01*
X85764180Y-86265444D01*
X85794454Y-86365248D01*
X85865026Y-86497278D01*
X85914063Y-86557029D01*
X85960000Y-86613003D01*
X85988998Y-86636801D01*
X87395913Y-88043716D01*
X87301898Y-88004774D01*
X87101939Y-87965000D01*
X86898061Y-87965000D01*
X86698102Y-88004774D01*
X86509744Y-88082795D01*
X86340226Y-88196063D01*
X86196063Y-88340226D01*
X86082795Y-88509744D01*
X86004774Y-88698102D01*
X85965000Y-88898061D01*
X85965000Y-89101939D01*
X86004774Y-89301898D01*
X86080899Y-89485679D01*
X85976940Y-89465000D01*
X85773062Y-89465000D01*
X85573103Y-89504774D01*
X85384745Y-89582795D01*
X85215227Y-89696063D01*
X85071064Y-89840226D01*
X84957796Y-90009744D01*
X84879775Y-90198102D01*
X84840001Y-90398061D01*
X84840001Y-90601939D01*
X84879775Y-90801898D01*
X84947335Y-90965000D01*
X84898061Y-90965000D01*
X84698102Y-91004774D01*
X84509744Y-91082795D01*
X84340226Y-91196063D01*
X84196063Y-91340226D01*
X84082795Y-91509744D01*
X84004774Y-91698102D01*
X83965000Y-91898061D01*
X50660000Y-91898061D01*
X50660000Y-85398061D01*
X75965000Y-85398061D01*
X75965000Y-85601939D01*
X76004774Y-85801898D01*
X76082795Y-85990256D01*
X76196063Y-86159774D01*
X76340226Y-86303937D01*
X76509744Y-86417205D01*
X76698102Y-86495226D01*
X76898061Y-86535000D01*
X77101939Y-86535000D01*
X77301898Y-86495226D01*
X77490256Y-86417205D01*
X77659774Y-86303937D01*
X77803937Y-86159774D01*
X77917205Y-85990256D01*
X77995226Y-85801898D01*
X78035000Y-85601939D01*
X78035000Y-85539801D01*
X80011004Y-83563798D01*
X80040001Y-83540001D01*
X80105657Y-83459999D01*
X80134974Y-83424277D01*
X80205546Y-83292247D01*
X80210988Y-83274306D01*
X80220386Y-83243325D01*
X80303937Y-83159774D01*
X80417205Y-82990256D01*
X80495226Y-82801898D01*
X80535000Y-82601939D01*
X80535000Y-82398061D01*
X80495226Y-82198102D01*
X80417205Y-82009744D01*
X80303937Y-81840226D01*
X80159774Y-81696063D01*
X79990256Y-81582795D01*
X79801898Y-81504774D01*
X79601939Y-81465000D01*
X79398061Y-81465000D01*
X79198102Y-81504774D01*
X79009744Y-81582795D01*
X78840226Y-81696063D01*
X78696063Y-81840226D01*
X78582795Y-82009744D01*
X78504774Y-82198102D01*
X78465000Y-82398061D01*
X78465000Y-82601939D01*
X78504774Y-82801898D01*
X78539490Y-82885708D01*
X76960199Y-84465000D01*
X76898061Y-84465000D01*
X76698102Y-84504774D01*
X76509744Y-84582795D01*
X76340226Y-84696063D01*
X76196063Y-84840226D01*
X76082795Y-85009744D01*
X76004774Y-85198102D01*
X75965000Y-85398061D01*
X50660000Y-85398061D01*
X50660000Y-67898061D01*
X116465000Y-67898061D01*
X116465000Y-68101939D01*
X116504774Y-68301898D01*
X116582795Y-68490256D01*
X116696063Y-68659774D01*
X116840226Y-68803937D01*
X117009744Y-68917205D01*
X117198102Y-68995226D01*
X117398061Y-69035000D01*
X117601939Y-69035000D01*
X117801898Y-68995226D01*
X117990256Y-68917205D01*
X118159774Y-68803937D01*
X118194455Y-68769256D01*
X118465000Y-69039802D01*
X118465000Y-69101939D01*
X118504774Y-69301898D01*
X118582795Y-69490256D01*
X118696063Y-69659774D01*
X118840226Y-69803937D01*
X119009744Y-69917205D01*
X119198102Y-69995226D01*
X119398061Y-70035000D01*
X119601939Y-70035000D01*
X119801898Y-69995226D01*
X119990256Y-69917205D01*
X120159774Y-69803937D01*
X120303937Y-69659774D01*
X120417205Y-69490256D01*
X120495226Y-69301898D01*
X120535000Y-69101939D01*
X120535000Y-68898061D01*
X120495226Y-68698102D01*
X120417205Y-68509744D01*
X120303937Y-68340226D01*
X120159774Y-68196063D01*
X119990256Y-68082795D01*
X119801898Y-68004774D01*
X119601939Y-67965000D01*
X119539802Y-67965000D01*
X119063804Y-67489002D01*
X119040001Y-67459999D01*
X118924276Y-67365026D01*
X118792247Y-67294454D01*
X118648986Y-67250997D01*
X118537333Y-67240000D01*
X118537322Y-67240000D01*
X118500000Y-67236324D01*
X118462678Y-67240000D01*
X118203711Y-67240000D01*
X118159774Y-67196063D01*
X117990256Y-67082795D01*
X117801898Y-67004774D01*
X117601939Y-66965000D01*
X117398061Y-66965000D01*
X117198102Y-67004774D01*
X117009744Y-67082795D01*
X116840226Y-67196063D01*
X116696063Y-67340226D01*
X116582795Y-67509744D01*
X116504774Y-67698102D01*
X116465000Y-67898061D01*
X50660000Y-67898061D01*
X50660000Y-55989775D01*
X52189830Y-55989775D01*
X52429976Y-56377018D01*
X52923877Y-56637641D01*
X53459133Y-56796901D01*
X54015174Y-56848678D01*
X54570632Y-56790981D01*
X55104161Y-56626028D01*
X55570024Y-56377018D01*
X55810170Y-55989775D01*
X54000000Y-54179605D01*
X52189830Y-55989775D01*
X50660000Y-55989775D01*
X50660000Y-54015174D01*
X51151322Y-54015174D01*
X51209019Y-54570632D01*
X51373972Y-55104161D01*
X51622982Y-55570024D01*
X52010225Y-55810170D01*
X53820395Y-54000000D01*
X54179605Y-54000000D01*
X55989775Y-55810170D01*
X56377018Y-55570024D01*
X56637641Y-55076123D01*
X56796901Y-54540867D01*
X56810198Y-54398061D01*
X117965000Y-54398061D01*
X117965000Y-54601939D01*
X118004774Y-54801898D01*
X118082795Y-54990256D01*
X118196063Y-55159774D01*
X118340226Y-55303937D01*
X118509744Y-55417205D01*
X118698102Y-55495226D01*
X118898061Y-55535000D01*
X119101939Y-55535000D01*
X119301898Y-55495226D01*
X119490256Y-55417205D01*
X119659774Y-55303937D01*
X119703711Y-55260000D01*
X125685199Y-55260000D01*
X125740000Y-55314801D01*
X125740001Y-70237667D01*
X125736324Y-70275000D01*
X125740001Y-70312333D01*
X125745213Y-70365245D01*
X125750998Y-70423985D01*
X125794454Y-70567246D01*
X125865026Y-70699276D01*
X125907473Y-70750997D01*
X125960000Y-70815001D01*
X125988998Y-70838799D01*
X126190000Y-71039801D01*
X126190000Y-71101939D01*
X126229774Y-71301898D01*
X126307795Y-71490256D01*
X126421063Y-71659774D01*
X126565226Y-71803937D01*
X126734744Y-71917205D01*
X126923102Y-71995226D01*
X127123061Y-72035000D01*
X127326939Y-72035000D01*
X127526898Y-71995226D01*
X127715256Y-71917205D01*
X127884774Y-71803937D01*
X128028937Y-71659774D01*
X128142205Y-71490256D01*
X128220226Y-71301898D01*
X128260000Y-71101939D01*
X128260000Y-70898061D01*
X128220226Y-70698102D01*
X128142205Y-70509744D01*
X128028937Y-70340226D01*
X127884774Y-70196063D01*
X127715256Y-70082795D01*
X127526898Y-70004774D01*
X127326939Y-69965000D01*
X127264801Y-69965000D01*
X127260000Y-69960199D01*
X127260000Y-61723711D01*
X127340226Y-61803937D01*
X127509744Y-61917205D01*
X127698102Y-61995226D01*
X127898061Y-62035000D01*
X128101939Y-62035000D01*
X128301898Y-61995226D01*
X128490256Y-61917205D01*
X128659774Y-61803937D01*
X128803937Y-61659774D01*
X128917205Y-61490256D01*
X128995226Y-61301898D01*
X129035000Y-61101939D01*
X129035000Y-61039801D01*
X130011004Y-60063798D01*
X130040001Y-60040001D01*
X130134974Y-59924276D01*
X130205546Y-59792247D01*
X130220386Y-59743325D01*
X130303937Y-59659774D01*
X130417205Y-59490256D01*
X130495226Y-59301898D01*
X130503560Y-59260000D01*
X143085199Y-59260000D01*
X144336201Y-60511003D01*
X144359999Y-60540001D01*
X144475724Y-60634974D01*
X144511928Y-60654326D01*
X144511928Y-60850000D01*
X144524188Y-60974482D01*
X144560498Y-61094180D01*
X144619463Y-61204494D01*
X144698815Y-61301185D01*
X144795506Y-61380537D01*
X144905820Y-61439502D01*
X144974687Y-61460393D01*
X144944866Y-61484866D01*
X144759294Y-61710986D01*
X144621401Y-61968966D01*
X144536487Y-62248889D01*
X144507815Y-62540000D01*
X144536487Y-62831111D01*
X144621401Y-63111034D01*
X144759294Y-63369014D01*
X144944866Y-63595134D01*
X145170986Y-63780706D01*
X145225791Y-63810000D01*
X145170986Y-63839294D01*
X144944866Y-64024866D01*
X144759294Y-64250986D01*
X144621401Y-64508966D01*
X144536487Y-64788889D01*
X144507815Y-65080000D01*
X144536487Y-65371111D01*
X144621401Y-65651034D01*
X144759294Y-65909014D01*
X144944866Y-66135134D01*
X145170986Y-66320706D01*
X145225791Y-66350000D01*
X145170986Y-66379294D01*
X144944866Y-66564866D01*
X144759294Y-66790986D01*
X144621401Y-67048966D01*
X144536487Y-67328889D01*
X144507815Y-67620000D01*
X144536487Y-67911111D01*
X144621401Y-68191034D01*
X144759294Y-68449014D01*
X144944866Y-68675134D01*
X145170986Y-68860706D01*
X145225791Y-68890000D01*
X145170986Y-68919294D01*
X144944866Y-69104866D01*
X144759294Y-69330986D01*
X144621401Y-69588966D01*
X144536487Y-69868889D01*
X144507815Y-70160000D01*
X144536487Y-70451111D01*
X144621401Y-70731034D01*
X144759294Y-70989014D01*
X144944866Y-71215134D01*
X145170986Y-71400706D01*
X145235523Y-71435201D01*
X145118645Y-71504822D01*
X144902412Y-71699731D01*
X144728359Y-71933080D01*
X144603175Y-72195901D01*
X144558524Y-72343110D01*
X144679845Y-72573000D01*
X145873000Y-72573000D01*
X145873000Y-72553000D01*
X146127000Y-72553000D01*
X146127000Y-72573000D01*
X147320155Y-72573000D01*
X147441476Y-72343110D01*
X147396825Y-72195901D01*
X147271641Y-71933080D01*
X147097588Y-71699731D01*
X146881355Y-71504822D01*
X146764477Y-71435201D01*
X146829014Y-71400706D01*
X147055134Y-71215134D01*
X147240706Y-70989014D01*
X147378599Y-70731034D01*
X147463513Y-70451111D01*
X147492185Y-70160000D01*
X147463513Y-69868889D01*
X147378599Y-69588966D01*
X147240706Y-69330986D01*
X147055134Y-69104866D01*
X146829014Y-68919294D01*
X146774209Y-68890000D01*
X146829014Y-68860706D01*
X147055134Y-68675134D01*
X147240706Y-68449014D01*
X147378599Y-68191034D01*
X147463513Y-67911111D01*
X147492185Y-67620000D01*
X147463513Y-67328889D01*
X147378599Y-67048966D01*
X147240706Y-66790986D01*
X147055134Y-66564866D01*
X146829014Y-66379294D01*
X146774209Y-66350000D01*
X146829014Y-66320706D01*
X147055134Y-66135134D01*
X147240706Y-65909014D01*
X147378599Y-65651034D01*
X147463513Y-65371111D01*
X147492185Y-65080000D01*
X147463513Y-64788889D01*
X147378599Y-64508966D01*
X147240706Y-64250986D01*
X147055134Y-64024866D01*
X146829014Y-63839294D01*
X146774209Y-63810000D01*
X146829014Y-63780706D01*
X147055134Y-63595134D01*
X147240706Y-63369014D01*
X147378599Y-63111034D01*
X147463513Y-62831111D01*
X147492185Y-62540000D01*
X147463513Y-62248889D01*
X147378599Y-61968966D01*
X147240706Y-61710986D01*
X147055134Y-61484866D01*
X147025313Y-61460393D01*
X147094180Y-61439502D01*
X147204494Y-61380537D01*
X147301185Y-61301185D01*
X147380537Y-61204494D01*
X147439502Y-61094180D01*
X147475812Y-60974482D01*
X147488072Y-60850000D01*
X147488072Y-59150000D01*
X147475812Y-59025518D01*
X147439502Y-58905820D01*
X147380537Y-58795506D01*
X147301185Y-58698815D01*
X147204494Y-58619463D01*
X147094180Y-58560498D01*
X146974482Y-58524188D01*
X146850000Y-58511928D01*
X145150000Y-58511928D01*
X145025518Y-58524188D01*
X144905820Y-58560498D01*
X144795506Y-58619463D01*
X144698815Y-58698815D01*
X144687457Y-58712655D01*
X143963804Y-57989003D01*
X143940001Y-57959999D01*
X143824276Y-57865026D01*
X143692247Y-57794454D01*
X143548986Y-57750997D01*
X143437333Y-57740000D01*
X143437322Y-57740000D01*
X143400000Y-57736324D01*
X143362678Y-57740000D01*
X130037325Y-57740000D01*
X130000000Y-57736324D01*
X129962675Y-57740000D01*
X129962667Y-57740000D01*
X129851014Y-57750997D01*
X129707753Y-57794454D01*
X129575724Y-57865026D01*
X129459999Y-57959999D01*
X129455895Y-57965000D01*
X129398061Y-57965000D01*
X129198102Y-58004774D01*
X129009744Y-58082795D01*
X128840226Y-58196063D01*
X128696063Y-58340226D01*
X128582795Y-58509744D01*
X128504774Y-58698102D01*
X128465000Y-58898061D01*
X128465000Y-59101939D01*
X128504774Y-59301898D01*
X128539490Y-59385709D01*
X127960199Y-59965000D01*
X127898061Y-59965000D01*
X127698102Y-60004774D01*
X127509744Y-60082795D01*
X127340226Y-60196063D01*
X127260000Y-60276289D01*
X127260000Y-56007538D01*
X127398061Y-56035000D01*
X127601939Y-56035000D01*
X127801898Y-55995226D01*
X127990256Y-55917205D01*
X128159774Y-55803937D01*
X128203711Y-55760000D01*
X133296289Y-55760000D01*
X133340226Y-55803937D01*
X133509744Y-55917205D01*
X133698102Y-55995226D01*
X133898061Y-56035000D01*
X134101939Y-56035000D01*
X134301898Y-55995226D01*
X134315057Y-55989775D01*
X144189830Y-55989775D01*
X144429976Y-56377018D01*
X144923877Y-56637641D01*
X145459133Y-56796901D01*
X146015174Y-56848678D01*
X146570632Y-56790981D01*
X147104161Y-56626028D01*
X147570024Y-56377018D01*
X147810170Y-55989775D01*
X146000000Y-54179605D01*
X144189830Y-55989775D01*
X134315057Y-55989775D01*
X134490256Y-55917205D01*
X134659774Y-55803937D01*
X134803937Y-55659774D01*
X134917205Y-55490256D01*
X134995226Y-55301898D01*
X135035000Y-55101939D01*
X135035000Y-54898061D01*
X134995226Y-54698102D01*
X134917205Y-54509744D01*
X134803937Y-54340226D01*
X134659774Y-54196063D01*
X134490256Y-54082795D01*
X134327006Y-54015174D01*
X143151322Y-54015174D01*
X143209019Y-54570632D01*
X143373972Y-55104161D01*
X143622982Y-55570024D01*
X144010225Y-55810170D01*
X145820395Y-54000000D01*
X146179605Y-54000000D01*
X147989775Y-55810170D01*
X148377018Y-55570024D01*
X148637641Y-55076123D01*
X148796901Y-54540867D01*
X148848678Y-53984826D01*
X148790981Y-53429368D01*
X148626028Y-52895839D01*
X148377018Y-52429976D01*
X147989775Y-52189830D01*
X146179605Y-54000000D01*
X145820395Y-54000000D01*
X144010225Y-52189830D01*
X143622982Y-52429976D01*
X143362359Y-52923877D01*
X143203099Y-53459133D01*
X143151322Y-54015174D01*
X134327006Y-54015174D01*
X134301898Y-54004774D01*
X134101939Y-53965000D01*
X133898061Y-53965000D01*
X133698102Y-54004774D01*
X133509744Y-54082795D01*
X133340226Y-54196063D01*
X133296289Y-54240000D01*
X128203711Y-54240000D01*
X128159774Y-54196063D01*
X127990256Y-54082795D01*
X127801898Y-54004774D01*
X127601939Y-53965000D01*
X127398061Y-53965000D01*
X127198102Y-54004774D01*
X127009744Y-54082795D01*
X126840226Y-54196063D01*
X126805545Y-54230744D01*
X126563804Y-53989003D01*
X126540001Y-53959999D01*
X126424276Y-53865026D01*
X126292247Y-53794454D01*
X126148986Y-53750997D01*
X126037333Y-53740000D01*
X126037322Y-53740000D01*
X126000000Y-53736324D01*
X125962678Y-53740000D01*
X119703711Y-53740000D01*
X119659774Y-53696063D01*
X119490256Y-53582795D01*
X119301898Y-53504774D01*
X119101939Y-53465000D01*
X118898061Y-53465000D01*
X118698102Y-53504774D01*
X118509744Y-53582795D01*
X118340226Y-53696063D01*
X118196063Y-53840226D01*
X118082795Y-54009744D01*
X118004774Y-54198102D01*
X117965000Y-54398061D01*
X56810198Y-54398061D01*
X56848678Y-53984826D01*
X56790981Y-53429368D01*
X56626028Y-52895839D01*
X56377018Y-52429976D01*
X55989775Y-52189830D01*
X54179605Y-54000000D01*
X53820395Y-54000000D01*
X52010225Y-52189830D01*
X51622982Y-52429976D01*
X51362359Y-52923877D01*
X51203099Y-53459133D01*
X51151322Y-54015174D01*
X50660000Y-54015174D01*
X50660000Y-52010225D01*
X52189830Y-52010225D01*
X54000000Y-53820395D01*
X55810170Y-52010225D01*
X144189830Y-52010225D01*
X146000000Y-53820395D01*
X147810170Y-52010225D01*
X147570024Y-51622982D01*
X147076123Y-51362359D01*
X146540867Y-51203099D01*
X145984826Y-51151322D01*
X145429368Y-51209019D01*
X144895839Y-51373972D01*
X144429976Y-51622982D01*
X144189830Y-52010225D01*
X55810170Y-52010225D01*
X55570024Y-51622982D01*
X55076123Y-51362359D01*
X54540867Y-51203099D01*
X53984826Y-51151322D01*
X53429368Y-51209019D01*
X52895839Y-51373972D01*
X52429976Y-51622982D01*
X52189830Y-52010225D01*
X50660000Y-52010225D01*
X50660000Y-50660000D01*
X149340000Y-50660000D01*
X149340001Y-149340000D01*
X149340001Y-149340000D01*
G37*
X149340001Y-149340000D02*
X105402392Y-149340000D01*
X105408415Y-149325987D01*
X105455000Y-149107000D01*
X105455000Y-148807000D01*
X104447000Y-148807000D01*
X104447000Y-148827000D01*
X104193000Y-148827000D01*
X104193000Y-148807000D01*
X103185000Y-148807000D01*
X103185000Y-149107000D01*
X103231585Y-149325987D01*
X103237608Y-149340000D01*
X96762392Y-149340000D01*
X96768415Y-149325987D01*
X96815000Y-149107000D01*
X96815000Y-148807000D01*
X95807000Y-148807000D01*
X95807000Y-148827000D01*
X95553000Y-148827000D01*
X95553000Y-148807000D01*
X94545000Y-148807000D01*
X94545000Y-149107000D01*
X94591585Y-149325987D01*
X94597608Y-149340000D01*
X50660000Y-149340000D01*
X50660000Y-147989775D01*
X52189830Y-147989775D01*
X52429976Y-148377018D01*
X52923877Y-148637641D01*
X53459133Y-148796901D01*
X54015174Y-148848678D01*
X54570632Y-148790981D01*
X55104161Y-148626028D01*
X55570024Y-148377018D01*
X55646932Y-148253000D01*
X94545000Y-148253000D01*
X94545000Y-148553000D01*
X95553000Y-148553000D01*
X95553000Y-147412046D01*
X95807000Y-147412046D01*
X95807000Y-148553000D01*
X96815000Y-148553000D01*
X96815000Y-148253000D01*
X103185000Y-148253000D01*
X103185000Y-148553000D01*
X104193000Y-148553000D01*
X104193000Y-147412046D01*
X104447000Y-147412046D01*
X104447000Y-148553000D01*
X105455000Y-148553000D01*
X105455000Y-148253000D01*
X105408415Y-148034013D01*
X105389401Y-147989775D01*
X144189830Y-147989775D01*
X144429976Y-148377018D01*
X144923877Y-148637641D01*
X145459133Y-148796901D01*
X146015174Y-148848678D01*
X146570632Y-148790981D01*
X147104161Y-148626028D01*
X147570024Y-148377018D01*
X147810170Y-147989775D01*
X146000000Y-146179605D01*
X144189830Y-147989775D01*
X105389401Y-147989775D01*
X105320003Y-147828322D01*
X105193161Y-147643831D01*
X105032764Y-147487631D01*
X104844976Y-147365724D01*
X104621874Y-147285881D01*
X104447000Y-147412046D01*
X104193000Y-147412046D01*
X104018126Y-147285881D01*
X103795024Y-147365724D01*
X103607236Y-147487631D01*
X103446839Y-147643831D01*
X103319997Y-147828322D01*
X103231585Y-148034013D01*
X103185000Y-148253000D01*
X96815000Y-148253000D01*
X96768415Y-148034013D01*
X96680003Y-147828322D01*
X96553161Y-147643831D01*
X96392764Y-147487631D01*
X96204976Y-147365724D01*
X95981874Y-147285881D01*
X95807000Y-147412046D01*
X95553000Y-147412046D01*
X95378126Y-147285881D01*
X95155024Y-147365724D01*
X94967236Y-147487631D01*
X94806839Y-147643831D01*
X94679997Y-147828322D01*
X94591585Y-148034013D01*
X94545000Y-148253000D01*
X55646932Y-148253000D01*
X55810170Y-147989775D01*
X54000000Y-146179605D01*
X52189830Y-147989775D01*
X50660000Y-147989775D01*
X50660000Y-146015174D01*
X51151322Y-146015174D01*
X51209019Y-146570632D01*
X51373972Y-147104161D01*
X51622982Y-147570024D01*
X52010225Y-147810170D01*
X53820395Y-146000000D01*
X54179605Y-146000000D01*
X55989775Y-147810170D01*
X56377018Y-147570024D01*
X56637641Y-147076123D01*
X56796901Y-146540867D01*
X56803634Y-146468558D01*
X68098271Y-146468558D01*
X68205931Y-146782529D01*
X68372775Y-147069463D01*
X68592391Y-147318334D01*
X68856339Y-147519578D01*
X69154476Y-147665462D01*
X69356442Y-147726729D01*
X69619000Y-147608138D01*
X69619000Y-146206000D01*
X69873000Y-146206000D01*
X69873000Y-147608138D01*
X70135558Y-147726729D01*
X70449529Y-147619069D01*
X70736463Y-147452225D01*
X70985334Y-147232609D01*
X71186578Y-146968661D01*
X71332462Y-146670524D01*
X71393729Y-146468558D01*
X71275138Y-146206000D01*
X69873000Y-146206000D01*
X69619000Y-146206000D01*
X68216862Y-146206000D01*
X68098271Y-146468558D01*
X56803634Y-146468558D01*
X56848678Y-145984826D01*
X56817996Y-145689442D01*
X68098271Y-145689442D01*
X68216862Y-145952000D01*
X69619000Y-145952000D01*
X69619000Y-144549862D01*
X69873000Y-144549862D01*
X69873000Y-145952000D01*
X71275138Y-145952000D01*
X71393729Y-145689442D01*
X71286069Y-145375471D01*
X71119225Y-145088537D01*
X70984656Y-144936042D01*
X79065000Y-144936042D01*
X79065000Y-145267958D01*
X79129754Y-145593496D01*
X79256772Y-145900147D01*
X79441175Y-146176125D01*
X79675875Y-146410825D01*
X79951853Y-146595228D01*
X80258504Y-146722246D01*
X80584042Y-146787000D01*
X80915958Y-146787000D01*
X81241496Y-146722246D01*
X81548147Y-146595228D01*
X81824125Y-146410825D01*
X82058825Y-146176125D01*
X82243228Y-145900147D01*
X82370246Y-145593496D01*
X82435000Y-145267958D01*
X82435000Y-144936042D01*
X82373528Y-144627000D01*
X94545000Y-144627000D01*
X94545000Y-145177000D01*
X94591585Y-145395987D01*
X94679997Y-145601678D01*
X94806839Y-145786169D01*
X94967236Y-145942369D01*
X95155024Y-146064276D01*
X95378126Y-146144119D01*
X95553000Y-146017954D01*
X95553000Y-144627000D01*
X94545000Y-144627000D01*
X82373528Y-144627000D01*
X82370246Y-144610504D01*
X82243228Y-144303853D01*
X82058825Y-144027875D01*
X81853950Y-143823000D01*
X94545000Y-143823000D01*
X94545000Y-144373000D01*
X95553000Y-144373000D01*
X95553000Y-142982046D01*
X95807000Y-142982046D01*
X95807000Y-144373000D01*
X95827000Y-144373000D01*
X95827000Y-144627000D01*
X95807000Y-144627000D01*
X95807000Y-146017954D01*
X95981874Y-146144119D01*
X96204976Y-146064276D01*
X96392764Y-145942369D01*
X96537116Y-145801794D01*
X96655269Y-145880741D01*
X96829978Y-145953108D01*
X97015448Y-145990000D01*
X97204552Y-145990000D01*
X97390022Y-145953108D01*
X97564731Y-145880741D01*
X97721964Y-145775681D01*
X97855681Y-145641964D01*
X97960741Y-145484731D01*
X98033108Y-145310022D01*
X98070000Y-145124552D01*
X98070000Y-144935448D01*
X101930000Y-144935448D01*
X101930000Y-145124552D01*
X101966892Y-145310022D01*
X102039259Y-145484731D01*
X102144319Y-145641964D01*
X102278036Y-145775681D01*
X102435269Y-145880741D01*
X102609978Y-145953108D01*
X102795448Y-145990000D01*
X102984552Y-145990000D01*
X103170022Y-145953108D01*
X103344731Y-145880741D01*
X103462884Y-145801794D01*
X103607236Y-145942369D01*
X103795024Y-146064276D01*
X104018126Y-146144119D01*
X104193000Y-146017954D01*
X104193000Y-144627000D01*
X104447000Y-144627000D01*
X104447000Y-146017954D01*
X104621874Y-146144119D01*
X104844976Y-146064276D01*
X104920613Y-146015174D01*
X143151322Y-146015174D01*
X143209019Y-146570632D01*
X143373972Y-147104161D01*
X143622982Y-147570024D01*
X144010225Y-147810170D01*
X145820395Y-146000000D01*
X146179605Y-146000000D01*
X147989775Y-147810170D01*
X148377018Y-147570024D01*
X148637641Y-147076123D01*
X148796901Y-146540867D01*
X148848678Y-145984826D01*
X148790981Y-145429368D01*
X148626028Y-144895839D01*
X148377018Y-144429976D01*
X147989775Y-144189830D01*
X146179605Y-146000000D01*
X145820395Y-146000000D01*
X144010225Y-144189830D01*
X143622982Y-144429976D01*
X143362359Y-144923877D01*
X143203099Y-145459133D01*
X143151322Y-146015174D01*
X104920613Y-146015174D01*
X105032764Y-145942369D01*
X105193161Y-145786169D01*
X105320003Y-145601678D01*
X105408415Y-145395987D01*
X105455000Y-145177000D01*
X105455000Y-144627000D01*
X104447000Y-144627000D01*
X104193000Y-144627000D01*
X104173000Y-144627000D01*
X104173000Y-144373000D01*
X104193000Y-144373000D01*
X104193000Y-142982046D01*
X104447000Y-142982046D01*
X104447000Y-144373000D01*
X105455000Y-144373000D01*
X105455000Y-144010225D01*
X144189830Y-144010225D01*
X146000000Y-145820395D01*
X147810170Y-144010225D01*
X147570024Y-143622982D01*
X147076123Y-143362359D01*
X146540867Y-143203099D01*
X145984826Y-143151322D01*
X145429368Y-143209019D01*
X144895839Y-143373972D01*
X144429976Y-143622982D01*
X144189830Y-144010225D01*
X105455000Y-144010225D01*
X105455000Y-143823000D01*
X105408415Y-143604013D01*
X105320003Y-143398322D01*
X105193161Y-143213831D01*
X105032764Y-143057631D01*
X104844976Y-142935724D01*
X104621874Y-142855881D01*
X104447000Y-142982046D01*
X104193000Y-142982046D01*
X104018126Y-142855881D01*
X103795024Y-142935724D01*
X103607236Y-143057631D01*
X103446839Y-143213831D01*
X103319997Y-143398322D01*
X103231585Y-143604013D01*
X103185000Y-143823000D01*
X103185000Y-144113096D01*
X103170022Y-144106892D01*
X102984552Y-144070000D01*
X102795448Y-144070000D01*
X102609978Y-144106892D01*
X102435269Y-144179259D01*
X102278036Y-144284319D01*
X102144319Y-144418036D01*
X102039259Y-144575269D01*
X101966892Y-144749978D01*
X101930000Y-144935448D01*
X98070000Y-144935448D01*
X98033108Y-144749978D01*
X97960741Y-144575269D01*
X97855681Y-144418036D01*
X97721964Y-144284319D01*
X97564731Y-144179259D01*
X97390022Y-144106892D01*
X97204552Y-144070000D01*
X97015448Y-144070000D01*
X96829978Y-144106892D01*
X96815000Y-144113096D01*
X96815000Y-143823000D01*
X96768415Y-143604013D01*
X96680003Y-143398322D01*
X96553161Y-143213831D01*
X96392764Y-143057631D01*
X96204976Y-142935724D01*
X95981874Y-142855881D01*
X95807000Y-142982046D01*
X95553000Y-142982046D01*
X95378126Y-142855881D01*
X95155024Y-142935724D01*
X94967236Y-143057631D01*
X94806839Y-143213831D01*
X94679997Y-143398322D01*
X94591585Y-143604013D01*
X94545000Y-143823000D01*
X81853950Y-143823000D01*
X81824125Y-143793175D01*
X81548147Y-143608772D01*
X81241496Y-143481754D01*
X80915958Y-143417000D01*
X80584042Y-143417000D01*
X80258504Y-143481754D01*
X79951853Y-143608772D01*
X79675875Y-143793175D01*
X79441175Y-144027875D01*
X79256772Y-144303853D01*
X79129754Y-144610504D01*
X79065000Y-144936042D01*
X70984656Y-144936042D01*
X70899609Y-144839666D01*
X70635661Y-144638422D01*
X70337524Y-144492538D01*
X70135558Y-144431271D01*
X69873000Y-144549862D01*
X69619000Y-144549862D01*
X69356442Y-144431271D01*
X69042471Y-144538931D01*
X68755537Y-144705775D01*
X68506666Y-144925391D01*
X68305422Y-145189339D01*
X68159538Y-145487476D01*
X68098271Y-145689442D01*
X56817996Y-145689442D01*
X56790981Y-145429368D01*
X56626028Y-144895839D01*
X56377018Y-144429976D01*
X55989775Y-144189830D01*
X54179605Y-146000000D01*
X53820395Y-146000000D01*
X52010225Y-144189830D01*
X51622982Y-144429976D01*
X51362359Y-144923877D01*
X51203099Y-145459133D01*
X51151322Y-146015174D01*
X50660000Y-146015174D01*
X50660000Y-144010225D01*
X52189830Y-144010225D01*
X54000000Y-145820395D01*
X55810170Y-144010225D01*
X55570024Y-143622982D01*
X55076123Y-143362359D01*
X54540867Y-143203099D01*
X53984826Y-143151322D01*
X53429368Y-143209019D01*
X52895839Y-143373972D01*
X52429976Y-143622982D01*
X52189830Y-144010225D01*
X50660000Y-144010225D01*
X50660000Y-140330777D01*
X59555000Y-140330777D01*
X59555000Y-140889223D01*
X59663948Y-141436939D01*
X59877656Y-141952876D01*
X60187912Y-142417207D01*
X60582793Y-142812088D01*
X61047124Y-143122344D01*
X61563061Y-143336052D01*
X62110777Y-143445000D01*
X62669223Y-143445000D01*
X63216939Y-143336052D01*
X63732876Y-143122344D01*
X64197207Y-142812088D01*
X64592088Y-142417207D01*
X64902344Y-141952876D01*
X65116052Y-141436939D01*
X65225000Y-140889223D01*
X65225000Y-140330777D01*
X80775000Y-140330777D01*
X80775000Y-140889223D01*
X80883948Y-141436939D01*
X81097656Y-141952876D01*
X81407912Y-142417207D01*
X81802793Y-142812088D01*
X82267124Y-143122344D01*
X82783061Y-143336052D01*
X83330777Y-143445000D01*
X83889223Y-143445000D01*
X84436939Y-143336052D01*
X84952876Y-143122344D01*
X85417207Y-142812088D01*
X85812088Y-142417207D01*
X86122344Y-141952876D01*
X86336052Y-141436939D01*
X86445000Y-140889223D01*
X86445000Y-140330777D01*
X86336052Y-139783061D01*
X86122344Y-139267124D01*
X85812088Y-138802793D01*
X85417207Y-138407912D01*
X84952876Y-138097656D01*
X84436939Y-137883948D01*
X83889223Y-137775000D01*
X83330777Y-137775000D01*
X82783061Y-137883948D01*
X82267124Y-138097656D01*
X81802793Y-138407912D01*
X81407912Y-138802793D01*
X81097656Y-139267124D01*
X80883948Y-139783061D01*
X80775000Y-140330777D01*
X65225000Y-140330777D01*
X65116052Y-139783061D01*
X64902344Y-139267124D01*
X64592088Y-138802793D01*
X64197207Y-138407912D01*
X63732876Y-138097656D01*
X63216939Y-137883948D01*
X62669223Y-137775000D01*
X62110777Y-137775000D01*
X61563061Y-137883948D01*
X61047124Y-138097656D01*
X60582793Y-138407912D01*
X60187912Y-138802793D01*
X59877656Y-139267124D01*
X59663948Y-139783061D01*
X59555000Y-140330777D01*
X50660000Y-140330777D01*
X50660000Y-136381042D01*
X77862000Y-136381042D01*
X77862000Y-136712958D01*
X77926754Y-137038496D01*
X78053772Y-137345147D01*
X78238175Y-137621125D01*
X78472875Y-137855825D01*
X78748853Y-138040228D01*
X79055504Y-138167246D01*
X79381042Y-138232000D01*
X79712958Y-138232000D01*
X80038496Y-138167246D01*
X80345147Y-138040228D01*
X80621125Y-137855825D01*
X80855825Y-137621125D01*
X81040228Y-137345147D01*
X81167246Y-137038496D01*
X81232000Y-136712958D01*
X81232000Y-136381042D01*
X81167246Y-136055504D01*
X81040228Y-135748853D01*
X80855825Y-135472875D01*
X80621125Y-135238175D01*
X80345147Y-135053772D01*
X80038496Y-134926754D01*
X79712958Y-134862000D01*
X79381042Y-134862000D01*
X79055504Y-134926754D01*
X78748853Y-135053772D01*
X78472875Y-135238175D01*
X78238175Y-135472875D01*
X78053772Y-135748853D01*
X77926754Y-136055504D01*
X77862000Y-136381042D01*
X50660000Y-136381042D01*
X50660000Y-133444042D01*
X55165000Y-133444042D01*
X55165000Y-133775958D01*
X55229754Y-134101496D01*
X55356772Y-134408147D01*
X55541175Y-134684125D01*
X55775875Y-134918825D01*
X56051853Y-135103228D01*
X56358504Y-135230246D01*
X56684042Y-135295000D01*
X57015958Y-135295000D01*
X57341496Y-135230246D01*
X57648147Y-135103228D01*
X57924125Y-134918825D01*
X58158825Y-134684125D01*
X58343228Y-134408147D01*
X58470246Y-134101496D01*
X58535000Y-133775958D01*
X58535000Y-133444042D01*
X58470246Y-133118504D01*
X58429846Y-133020967D01*
X74547000Y-133020967D01*
X74547000Y-133343033D01*
X74609832Y-133658912D01*
X74733082Y-133956463D01*
X74912013Y-134224252D01*
X75139748Y-134451987D01*
X75407537Y-134630918D01*
X75705088Y-134754168D01*
X76020967Y-134817000D01*
X76343033Y-134817000D01*
X76658912Y-134754168D01*
X76956463Y-134630918D01*
X77224252Y-134451987D01*
X77451987Y-134224252D01*
X77630918Y-133956463D01*
X77754168Y-133658912D01*
X77817000Y-133343033D01*
X77817000Y-133020967D01*
X77754168Y-132705088D01*
X77630918Y-132407537D01*
X77451987Y-132139748D01*
X77224252Y-131912013D01*
X76956463Y-131733082D01*
X76658912Y-131609832D01*
X76343033Y-131547000D01*
X76020967Y-131547000D01*
X75705088Y-131609832D01*
X75407537Y-131733082D01*
X75139748Y-131912013D01*
X74912013Y-132139748D01*
X74733082Y-132407537D01*
X74609832Y-132705088D01*
X74547000Y-133020967D01*
X58429846Y-133020967D01*
X58343228Y-132811853D01*
X58158825Y-132535875D01*
X57924125Y-132301175D01*
X57648147Y-132116772D01*
X57341496Y-131989754D01*
X57015958Y-131925000D01*
X56684042Y-131925000D01*
X56358504Y-131989754D01*
X56051853Y-132116772D01*
X55775875Y-132301175D01*
X55541175Y-132535875D01*
X55356772Y-132811853D01*
X55229754Y-133118504D01*
X55165000Y-133444042D01*
X50660000Y-133444042D01*
X50660000Y-130944042D01*
X70205000Y-130944042D01*
X70205000Y-131275958D01*
X70269754Y-131601496D01*
X70396772Y-131908147D01*
X70581175Y-132184125D01*
X70815875Y-132418825D01*
X71091853Y-132603228D01*
X71398504Y-132730246D01*
X71724042Y-132795000D01*
X72055958Y-132795000D01*
X72381496Y-132730246D01*
X72688147Y-132603228D01*
X72964125Y-132418825D01*
X73198825Y-132184125D01*
X73383228Y-131908147D01*
X73510246Y-131601496D01*
X73575000Y-131275958D01*
X73575000Y-130944042D01*
X73510246Y-130618504D01*
X73383228Y-130311853D01*
X73198825Y-130035875D01*
X72964125Y-129801175D01*
X72688147Y-129616772D01*
X72381496Y-129489754D01*
X72055958Y-129425000D01*
X71724042Y-129425000D01*
X71398504Y-129489754D01*
X71091853Y-129616772D01*
X70815875Y-129801175D01*
X70581175Y-130035875D01*
X70396772Y-130311853D01*
X70269754Y-130618504D01*
X70205000Y-130944042D01*
X50660000Y-130944042D01*
X50660000Y-126656967D01*
X68183000Y-126656967D01*
X68183000Y-126979033D01*
X68245832Y-127294912D01*
X68369082Y-127592463D01*
X68548013Y-127860252D01*
X68775748Y-128087987D01*
X69043537Y-128266918D01*
X69341088Y-128390168D01*
X69656967Y-128453000D01*
X69979033Y-128453000D01*
X70294912Y-128390168D01*
X70592463Y-128266918D01*
X70860252Y-128087987D01*
X71087987Y-127860252D01*
X71266918Y-127592463D01*
X71390168Y-127294912D01*
X71453000Y-126979033D01*
X71453000Y-126656967D01*
X71390168Y-126341088D01*
X71341686Y-126224042D01*
X87465000Y-126224042D01*
X87465000Y-126555958D01*
X87529754Y-126881496D01*
X87656772Y-127188147D01*
X87841175Y-127464125D01*
X88075875Y-127698825D01*
X88351853Y-127883228D01*
X88658504Y-128010246D01*
X88984042Y-128075000D01*
X89315958Y-128075000D01*
X89641496Y-128010246D01*
X89948147Y-127883228D01*
X90224125Y-127698825D01*
X90458825Y-127464125D01*
X90643228Y-127188147D01*
X90770246Y-126881496D01*
X90794724Y-126758435D01*
X90840226Y-126803937D01*
X91009744Y-126917205D01*
X91198102Y-126995226D01*
X91398061Y-127035000D01*
X91601939Y-127035000D01*
X91801898Y-126995226D01*
X91990256Y-126917205D01*
X92159774Y-126803937D01*
X92303937Y-126659774D01*
X92417205Y-126490256D01*
X92495226Y-126301898D01*
X92535000Y-126101939D01*
X92535000Y-125898061D01*
X92495226Y-125698102D01*
X92417205Y-125509744D01*
X92303937Y-125340226D01*
X92260000Y-125296289D01*
X92260000Y-124814801D01*
X92814802Y-124260000D01*
X95796289Y-124260000D01*
X95840226Y-124303937D01*
X96009744Y-124417205D01*
X96198102Y-124495226D01*
X96398061Y-124535000D01*
X96601939Y-124535000D01*
X96801898Y-124495226D01*
X96990256Y-124417205D01*
X97159774Y-124303937D01*
X97303937Y-124159774D01*
X97417205Y-123990256D01*
X97495226Y-123801898D01*
X97535000Y-123601939D01*
X97535000Y-123398061D01*
X97495226Y-123198102D01*
X97417205Y-123009744D01*
X97303937Y-122840226D01*
X97213711Y-122750000D01*
X97303937Y-122659774D01*
X97417205Y-122490256D01*
X97495226Y-122301898D01*
X97535000Y-122101939D01*
X97535000Y-121898061D01*
X97495226Y-121698102D01*
X97417205Y-121509744D01*
X97303937Y-121340226D01*
X97159774Y-121196063D01*
X96990256Y-121082795D01*
X96801898Y-121004774D01*
X96601939Y-120965000D01*
X96398061Y-120965000D01*
X96198102Y-121004774D01*
X96009744Y-121082795D01*
X95840226Y-121196063D01*
X95796289Y-121240000D01*
X92814802Y-121240000D01*
X92260000Y-120685199D01*
X92260000Y-116703711D01*
X92303937Y-116659774D01*
X92417205Y-116490256D01*
X92495226Y-116301898D01*
X92535000Y-116101939D01*
X92535000Y-115898061D01*
X92495226Y-115698102D01*
X92417205Y-115509744D01*
X92303937Y-115340226D01*
X92159774Y-115196063D01*
X91990256Y-115082795D01*
X91801898Y-115004774D01*
X91601939Y-114965000D01*
X91398061Y-114965000D01*
X91198102Y-115004774D01*
X91009744Y-115082795D01*
X90840226Y-115196063D01*
X90696063Y-115340226D01*
X90582795Y-115509744D01*
X90504774Y-115698102D01*
X90465000Y-115898061D01*
X90465000Y-116101939D01*
X90504774Y-116301898D01*
X90582795Y-116490256D01*
X90696063Y-116659774D01*
X90740000Y-116703711D01*
X90740001Y-120962668D01*
X90736324Y-121000000D01*
X90750998Y-121148985D01*
X90794454Y-121292246D01*
X90865026Y-121424276D01*
X90918142Y-121488997D01*
X90960000Y-121540001D01*
X90988998Y-121563799D01*
X91936201Y-122511003D01*
X91959999Y-122540001D01*
X91988997Y-122563799D01*
X92075724Y-122634974D01*
X92207753Y-122705546D01*
X92351014Y-122749003D01*
X92361137Y-122750000D01*
X92351014Y-122750997D01*
X92207753Y-122794454D01*
X92075724Y-122865026D01*
X91959999Y-122959999D01*
X91936201Y-122988997D01*
X90989002Y-123936196D01*
X90959999Y-123959999D01*
X90904871Y-124027174D01*
X90865026Y-124075724D01*
X90821835Y-124156529D01*
X90794454Y-124207754D01*
X90750997Y-124351015D01*
X90740000Y-124462668D01*
X90740000Y-124462678D01*
X90736324Y-124500000D01*
X90740000Y-124537323D01*
X90740001Y-125296288D01*
X90696063Y-125340226D01*
X90585580Y-125505576D01*
X90458825Y-125315875D01*
X90224125Y-125081175D01*
X89948147Y-124896772D01*
X89641496Y-124769754D01*
X89315958Y-124705000D01*
X88984042Y-124705000D01*
X88658504Y-124769754D01*
X88351853Y-124896772D01*
X88075875Y-125081175D01*
X87841175Y-125315875D01*
X87656772Y-125591853D01*
X87529754Y-125898504D01*
X87465000Y-126224042D01*
X71341686Y-126224042D01*
X71266918Y-126043537D01*
X71087987Y-125775748D01*
X70860252Y-125548013D01*
X70592463Y-125369082D01*
X70294912Y-125245832D01*
X69979033Y-125183000D01*
X69656967Y-125183000D01*
X69341088Y-125245832D01*
X69043537Y-125369082D01*
X68775748Y-125548013D01*
X68548013Y-125775748D01*
X68369082Y-126043537D01*
X68245832Y-126341088D01*
X68183000Y-126656967D01*
X50660000Y-126656967D01*
X50660000Y-123842558D01*
X64805271Y-123842558D01*
X64912931Y-124156529D01*
X65079775Y-124443463D01*
X65299391Y-124692334D01*
X65563339Y-124893578D01*
X65861476Y-125039462D01*
X66063442Y-125100729D01*
X66326000Y-124982138D01*
X66326000Y-123580000D01*
X66580000Y-123580000D01*
X66580000Y-124982138D01*
X66842558Y-125100729D01*
X67156529Y-124993069D01*
X67443463Y-124826225D01*
X67692334Y-124606609D01*
X67893578Y-124342661D01*
X68039462Y-124044524D01*
X68100729Y-123842558D01*
X67982138Y-123580000D01*
X66580000Y-123580000D01*
X66326000Y-123580000D01*
X64923862Y-123580000D01*
X64805271Y-123842558D01*
X50660000Y-123842558D01*
X50660000Y-123063442D01*
X64805271Y-123063442D01*
X64923862Y-123326000D01*
X66326000Y-123326000D01*
X66326000Y-121923862D01*
X66580000Y-121923862D01*
X66580000Y-123326000D01*
X67982138Y-123326000D01*
X68000186Y-123286042D01*
X77863000Y-123286042D01*
X77863000Y-123617958D01*
X77927754Y-123943496D01*
X78054772Y-124250147D01*
X78239175Y-124526125D01*
X78473875Y-124760825D01*
X78749853Y-124945228D01*
X79056504Y-125072246D01*
X79382042Y-125137000D01*
X79713958Y-125137000D01*
X80039496Y-125072246D01*
X80346147Y-124945228D01*
X80622125Y-124760825D01*
X80856825Y-124526125D01*
X81041228Y-124250147D01*
X81168246Y-123943496D01*
X81233000Y-123617958D01*
X81233000Y-123286042D01*
X81168246Y-122960504D01*
X81041228Y-122653853D01*
X80856825Y-122377875D01*
X80622125Y-122143175D01*
X80346147Y-121958772D01*
X80039496Y-121831754D01*
X79713958Y-121767000D01*
X79382042Y-121767000D01*
X79056504Y-121831754D01*
X78749853Y-121958772D01*
X78473875Y-122143175D01*
X78239175Y-122377875D01*
X78054772Y-122653853D01*
X77927754Y-122960504D01*
X77863000Y-123286042D01*
X68000186Y-123286042D01*
X68100729Y-123063442D01*
X67993069Y-122749471D01*
X67826225Y-122462537D01*
X67606609Y-122213666D01*
X67342661Y-122012422D01*
X67044524Y-121866538D01*
X66842558Y-121805271D01*
X66580000Y-121923862D01*
X66326000Y-121923862D01*
X66063442Y-121805271D01*
X65749471Y-121912931D01*
X65462537Y-122079775D01*
X65213666Y-122299391D01*
X65012422Y-122563339D01*
X64866538Y-122861476D01*
X64805271Y-123063442D01*
X50660000Y-123063442D01*
X50660000Y-119110777D01*
X59555000Y-119110777D01*
X59555000Y-119669223D01*
X59663948Y-120216939D01*
X59877656Y-120732876D01*
X60187912Y-121197207D01*
X60582793Y-121592088D01*
X61047124Y-121902344D01*
X61563061Y-122116052D01*
X62110777Y-122225000D01*
X62669223Y-122225000D01*
X63216939Y-122116052D01*
X63732876Y-121902344D01*
X64197207Y-121592088D01*
X64592088Y-121197207D01*
X64902344Y-120732876D01*
X65116052Y-120216939D01*
X65225000Y-119669223D01*
X65225000Y-119110777D01*
X80775000Y-119110777D01*
X80775000Y-119669223D01*
X80883948Y-120216939D01*
X81097656Y-120732876D01*
X81407912Y-121197207D01*
X81802793Y-121592088D01*
X82267124Y-121902344D01*
X82783061Y-122116052D01*
X83330777Y-122225000D01*
X83889223Y-122225000D01*
X84436939Y-122116052D01*
X84952876Y-121902344D01*
X85417207Y-121592088D01*
X85812088Y-121197207D01*
X86122344Y-120732876D01*
X86336052Y-120216939D01*
X86445000Y-119669223D01*
X86445000Y-119110777D01*
X86336052Y-118563061D01*
X86122344Y-118047124D01*
X85812088Y-117582793D01*
X85417207Y-117187912D01*
X84952876Y-116877656D01*
X84436939Y-116663948D01*
X83889223Y-116555000D01*
X83330777Y-116555000D01*
X82783061Y-116663948D01*
X82267124Y-116877656D01*
X81802793Y-117187912D01*
X81407912Y-117582793D01*
X81097656Y-118047124D01*
X80883948Y-118563061D01*
X80775000Y-119110777D01*
X65225000Y-119110777D01*
X65116052Y-118563061D01*
X64902344Y-118047124D01*
X64592088Y-117582793D01*
X64197207Y-117187912D01*
X63732876Y-116877656D01*
X63216939Y-116663948D01*
X62669223Y-116555000D01*
X62110777Y-116555000D01*
X61563061Y-116663948D01*
X61047124Y-116877656D01*
X60582793Y-117187912D01*
X60187912Y-117582793D01*
X59877656Y-118047124D01*
X59663948Y-118563061D01*
X59555000Y-119110777D01*
X50660000Y-119110777D01*
X50660000Y-114732042D01*
X63565000Y-114732042D01*
X63565000Y-115063958D01*
X63629754Y-115389496D01*
X63756772Y-115696147D01*
X63941175Y-115972125D01*
X64175875Y-116206825D01*
X64451853Y-116391228D01*
X64758504Y-116518246D01*
X65084042Y-116583000D01*
X65415958Y-116583000D01*
X65741496Y-116518246D01*
X66048147Y-116391228D01*
X66324125Y-116206825D01*
X66558825Y-115972125D01*
X66743228Y-115696147D01*
X66870246Y-115389496D01*
X66935000Y-115063958D01*
X66935000Y-114732042D01*
X66870246Y-114406504D01*
X66743228Y-114099853D01*
X66558825Y-113823875D01*
X66324125Y-113589175D01*
X66048147Y-113404772D01*
X65741496Y-113277754D01*
X65415958Y-113213000D01*
X65084042Y-113213000D01*
X64758504Y-113277754D01*
X64451853Y-113404772D01*
X64175875Y-113589175D01*
X63941175Y-113823875D01*
X63756772Y-114099853D01*
X63629754Y-114406504D01*
X63565000Y-114732042D01*
X50660000Y-114732042D01*
X50660000Y-111398061D01*
X57965000Y-111398061D01*
X57965000Y-111601939D01*
X58004774Y-111801898D01*
X58082795Y-111990256D01*
X58196063Y-112159774D01*
X58340226Y-112303937D01*
X58509744Y-112417205D01*
X58698102Y-112495226D01*
X58898061Y-112535000D01*
X59101939Y-112535000D01*
X59301898Y-112495226D01*
X59490256Y-112417205D01*
X59659774Y-112303937D01*
X59703711Y-112260000D01*
X69996440Y-112260000D01*
X70004774Y-112301898D01*
X70082795Y-112490256D01*
X70196063Y-112659774D01*
X70340226Y-112803937D01*
X70509744Y-112917205D01*
X70698102Y-112995226D01*
X70898061Y-113035000D01*
X71101939Y-113035000D01*
X71301898Y-112995226D01*
X71490256Y-112917205D01*
X71659774Y-112803937D01*
X71803937Y-112659774D01*
X71917205Y-112490256D01*
X71995226Y-112301898D01*
X72035000Y-112101939D01*
X72035000Y-111898061D01*
X71995226Y-111698102D01*
X71917205Y-111509744D01*
X71803937Y-111340226D01*
X71659774Y-111196063D01*
X71490256Y-111082795D01*
X71301898Y-111004774D01*
X71101939Y-110965000D01*
X71044105Y-110965000D01*
X71040001Y-110959999D01*
X70924276Y-110865026D01*
X70792247Y-110794454D01*
X70648986Y-110750997D01*
X70537333Y-110740000D01*
X70537322Y-110740000D01*
X70500000Y-110736324D01*
X70462678Y-110740000D01*
X59703711Y-110740000D01*
X59659774Y-110696063D01*
X59490256Y-110582795D01*
X59301898Y-110504774D01*
X59101939Y-110465000D01*
X58898061Y-110465000D01*
X58698102Y-110504774D01*
X58509744Y-110582795D01*
X58340226Y-110696063D01*
X58196063Y-110840226D01*
X58082795Y-111009744D01*
X58004774Y-111198102D01*
X57965000Y-111398061D01*
X50660000Y-111398061D01*
X50660000Y-105523061D01*
X52590000Y-105523061D01*
X52590000Y-105726939D01*
X52629774Y-105926898D01*
X52707795Y-106115256D01*
X52821063Y-106284774D01*
X52965226Y-106428937D01*
X53134744Y-106542205D01*
X53323102Y-106620226D01*
X53523061Y-106660000D01*
X53585198Y-106660000D01*
X53936200Y-107011002D01*
X53959999Y-107040001D01*
X54075724Y-107134974D01*
X54207753Y-107205546D01*
X54351014Y-107249003D01*
X54462667Y-107260000D01*
X54462677Y-107260000D01*
X54500000Y-107263676D01*
X54537323Y-107260000D01*
X73685199Y-107260000D01*
X73740001Y-107314802D01*
X73740000Y-111796289D01*
X73696063Y-111840226D01*
X73582795Y-112009744D01*
X73504774Y-112198102D01*
X73465000Y-112398061D01*
X73465000Y-112601939D01*
X73504774Y-112801898D01*
X73582795Y-112990256D01*
X73696063Y-113159774D01*
X73840226Y-113303937D01*
X74009744Y-113417205D01*
X74198102Y-113495226D01*
X74398061Y-113535000D01*
X74601939Y-113535000D01*
X74801898Y-113495226D01*
X74990256Y-113417205D01*
X75159774Y-113303937D01*
X75203711Y-113260000D01*
X81889676Y-113260000D01*
X81926998Y-113263676D01*
X81964320Y-113260000D01*
X81964331Y-113260000D01*
X82075984Y-113249003D01*
X82219245Y-113205546D01*
X82351274Y-113134974D01*
X82466999Y-113040001D01*
X82490802Y-113010997D01*
X84240001Y-111261799D01*
X84240001Y-111962668D01*
X84236324Y-112000000D01*
X84240001Y-112037333D01*
X84250998Y-112148986D01*
X84260083Y-112178937D01*
X84294454Y-112292246D01*
X84365026Y-112424276D01*
X84419175Y-112490256D01*
X84460000Y-112540001D01*
X84488998Y-112563799D01*
X85465000Y-113539802D01*
X85465000Y-113601939D01*
X85504774Y-113801898D01*
X85582795Y-113990256D01*
X85696063Y-114159774D01*
X85840226Y-114303937D01*
X86009744Y-114417205D01*
X86198102Y-114495226D01*
X86398061Y-114535000D01*
X86601939Y-114535000D01*
X86801898Y-114495226D01*
X86990256Y-114417205D01*
X87159774Y-114303937D01*
X87303937Y-114159774D01*
X87417205Y-113990256D01*
X87495226Y-113801898D01*
X87535000Y-113601939D01*
X87535000Y-113398061D01*
X87495226Y-113198102D01*
X87417205Y-113009744D01*
X87303937Y-112840226D01*
X87159774Y-112696063D01*
X86990256Y-112582795D01*
X86801898Y-112504774D01*
X86601939Y-112465000D01*
X86539802Y-112465000D01*
X85760000Y-111685199D01*
X85760000Y-111203711D01*
X85803937Y-111159774D01*
X85917205Y-110990256D01*
X85995226Y-110801898D01*
X86000000Y-110777897D01*
X86004774Y-110801898D01*
X86082795Y-110990256D01*
X86196063Y-111159774D01*
X86340226Y-111303937D01*
X86509744Y-111417205D01*
X86698102Y-111495226D01*
X86898061Y-111535000D01*
X87101939Y-111535000D01*
X87301898Y-111495226D01*
X87490256Y-111417205D01*
X87659774Y-111303937D01*
X87703711Y-111260000D01*
X90685199Y-111260000D01*
X104015000Y-124589803D01*
X104014999Y-135614666D01*
X104014999Y-136310679D01*
X104011323Y-136348001D01*
X104014999Y-136385323D01*
X104014999Y-136385333D01*
X104025996Y-136496986D01*
X104069453Y-136640247D01*
X104140025Y-136772277D01*
X104164335Y-136801898D01*
X104234998Y-136888002D01*
X104264002Y-136911805D01*
X105363199Y-138011003D01*
X105386997Y-138040001D01*
X105415995Y-138063799D01*
X105502722Y-138134974D01*
X105634751Y-138205546D01*
X105778012Y-138249003D01*
X105926998Y-138263677D01*
X105964331Y-138260000D01*
X109296289Y-138260000D01*
X109340226Y-138303937D01*
X109509744Y-138417205D01*
X109698102Y-138495226D01*
X109898061Y-138535000D01*
X110101939Y-138535000D01*
X110301898Y-138495226D01*
X110490256Y-138417205D01*
X110659774Y-138303937D01*
X110803937Y-138159774D01*
X110917205Y-137990256D01*
X110995226Y-137801898D01*
X111035000Y-137601939D01*
X111035000Y-137398061D01*
X110995226Y-137198102D01*
X110917205Y-137009744D01*
X110803937Y-136840226D01*
X110659774Y-136696063D01*
X110490256Y-136582795D01*
X110301898Y-136504774D01*
X110101939Y-136465000D01*
X109898061Y-136465000D01*
X109698102Y-136504774D01*
X109509744Y-136582795D01*
X109340226Y-136696063D01*
X109296289Y-136740000D01*
X106241800Y-136740000D01*
X106232755Y-136730956D01*
X106303937Y-136659774D01*
X106417205Y-136490256D01*
X106495226Y-136301898D01*
X106535000Y-136101939D01*
X106535000Y-136039801D01*
X107634801Y-134940000D01*
X112507815Y-134940000D01*
X112536487Y-135231111D01*
X112621401Y-135511034D01*
X112759294Y-135769014D01*
X112944866Y-135995134D01*
X113170986Y-136180706D01*
X113428966Y-136318599D01*
X113708889Y-136403513D01*
X113927050Y-136425000D01*
X114072950Y-136425000D01*
X114291111Y-136403513D01*
X114571034Y-136318599D01*
X114829014Y-136180706D01*
X115055134Y-135995134D01*
X115240706Y-135769014D01*
X115378599Y-135511034D01*
X115463513Y-135231111D01*
X115492185Y-134940000D01*
X115463513Y-134648889D01*
X115378599Y-134368966D01*
X115240706Y-134110986D01*
X115055134Y-133884866D01*
X115025313Y-133860393D01*
X115094180Y-133839502D01*
X115204494Y-133780537D01*
X115301185Y-133701185D01*
X115380537Y-133604494D01*
X115439502Y-133494180D01*
X115475812Y-133374482D01*
X115488072Y-133250000D01*
X115488072Y-131550000D01*
X115475812Y-131425518D01*
X115439502Y-131305820D01*
X115380537Y-131195506D01*
X115301185Y-131098815D01*
X115204494Y-131019463D01*
X115094180Y-130960498D01*
X114974482Y-130924188D01*
X114850000Y-130911928D01*
X113150000Y-130911928D01*
X113025518Y-130924188D01*
X112905820Y-130960498D01*
X112795506Y-131019463D01*
X112698815Y-131098815D01*
X112619463Y-131195506D01*
X112560498Y-131305820D01*
X112524188Y-131425518D01*
X112511928Y-131550000D01*
X112511928Y-133250000D01*
X112524188Y-133374482D01*
X112560498Y-133494180D01*
X112619463Y-133604494D01*
X112698815Y-133701185D01*
X112795506Y-133780537D01*
X112905820Y-133839502D01*
X112974687Y-133860393D01*
X112944866Y-133884866D01*
X112759294Y-134110986D01*
X112621401Y-134368966D01*
X112536487Y-134648889D01*
X112507815Y-134940000D01*
X107634801Y-134940000D01*
X109511009Y-133063794D01*
X109540001Y-133040001D01*
X109563795Y-133011008D01*
X109563799Y-133011004D01*
X109634973Y-132924277D01*
X109634974Y-132924276D01*
X109705546Y-132792247D01*
X109749003Y-132648986D01*
X109760000Y-132537333D01*
X109760000Y-132537324D01*
X109763676Y-132500001D01*
X109760000Y-132462678D01*
X109760000Y-123898061D01*
X121965000Y-123898061D01*
X121965000Y-124101939D01*
X122004774Y-124301898D01*
X122082795Y-124490256D01*
X122196063Y-124659774D01*
X122340226Y-124803937D01*
X122509744Y-124917205D01*
X122698102Y-124995226D01*
X122898061Y-125035000D01*
X123101939Y-125035000D01*
X123301898Y-124995226D01*
X123490256Y-124917205D01*
X123659774Y-124803937D01*
X123703711Y-124760000D01*
X126296289Y-124760000D01*
X126340226Y-124803937D01*
X126509744Y-124917205D01*
X126698102Y-124995226D01*
X126898061Y-125035000D01*
X127101939Y-125035000D01*
X127301898Y-124995226D01*
X127490256Y-124917205D01*
X127659774Y-124803937D01*
X127803937Y-124659774D01*
X127917205Y-124490256D01*
X127995226Y-124301898D01*
X128035000Y-124101939D01*
X128035000Y-123898061D01*
X127995226Y-123698102D01*
X127917205Y-123509744D01*
X127803937Y-123340226D01*
X127659774Y-123196063D01*
X127490256Y-123082795D01*
X127301898Y-123004774D01*
X127101939Y-122965000D01*
X126898061Y-122965000D01*
X126698102Y-123004774D01*
X126509744Y-123082795D01*
X126340226Y-123196063D01*
X126296289Y-123240000D01*
X123703711Y-123240000D01*
X123659774Y-123196063D01*
X123490256Y-123082795D01*
X123301898Y-123004774D01*
X123101939Y-122965000D01*
X122898061Y-122965000D01*
X122698102Y-123004774D01*
X122509744Y-123082795D01*
X122340226Y-123196063D01*
X122196063Y-123340226D01*
X122082795Y-123509744D01*
X122004774Y-123698102D01*
X121965000Y-123898061D01*
X109760000Y-123898061D01*
X109760000Y-122898061D01*
X133965000Y-122898061D01*
X133965000Y-123101939D01*
X134004774Y-123301898D01*
X134082795Y-123490256D01*
X134196063Y-123659774D01*
X134240001Y-123703712D01*
X134240000Y-127796289D01*
X134196063Y-127840226D01*
X134082795Y-128009744D01*
X134004774Y-128198102D01*
X133965000Y-128398061D01*
X133965000Y-128601939D01*
X134004774Y-128801898D01*
X134082795Y-128990256D01*
X134196063Y-129159774D01*
X134340226Y-129303937D01*
X134509744Y-129417205D01*
X134698102Y-129495226D01*
X134898061Y-129535000D01*
X135101939Y-129535000D01*
X135240001Y-129507538D01*
X135240001Y-133462668D01*
X135236324Y-133500000D01*
X135250998Y-133648985D01*
X135294454Y-133792246D01*
X135365026Y-133924276D01*
X135436201Y-134011002D01*
X135460000Y-134040001D01*
X135488998Y-134063799D01*
X137965000Y-136539802D01*
X137965000Y-136601939D01*
X138004774Y-136801898D01*
X138082795Y-136990256D01*
X138196063Y-137159774D01*
X138340226Y-137303937D01*
X138509744Y-137417205D01*
X138698102Y-137495226D01*
X138898061Y-137535000D01*
X139101939Y-137535000D01*
X139301898Y-137495226D01*
X139490256Y-137417205D01*
X139659774Y-137303937D01*
X139803937Y-137159774D01*
X139917205Y-136990256D01*
X139995226Y-136801898D01*
X140035000Y-136601939D01*
X140035000Y-136398061D01*
X139995226Y-136198102D01*
X139917205Y-136009744D01*
X139803937Y-135840226D01*
X139659774Y-135696063D01*
X139490256Y-135582795D01*
X139301898Y-135504774D01*
X139101939Y-135465000D01*
X139039802Y-135465000D01*
X136760000Y-133185199D01*
X136760000Y-122898061D01*
X140965000Y-122898061D01*
X140965000Y-123101939D01*
X141004774Y-123301898D01*
X141082795Y-123490256D01*
X141196063Y-123659774D01*
X141240000Y-123703711D01*
X141240001Y-125296288D01*
X141196063Y-125340226D01*
X141082795Y-125509744D01*
X141004774Y-125698102D01*
X140965000Y-125898061D01*
X140965000Y-126101939D01*
X141004774Y-126301898D01*
X141082795Y-126490256D01*
X141196063Y-126659774D01*
X141340226Y-126803937D01*
X141509744Y-126917205D01*
X141698102Y-126995226D01*
X141898061Y-127035000D01*
X142101939Y-127035000D01*
X142301898Y-126995226D01*
X142490256Y-126917205D01*
X142659774Y-126803937D01*
X142803937Y-126659774D01*
X142917205Y-126490256D01*
X142995226Y-126301898D01*
X143035000Y-126101939D01*
X143035000Y-125898061D01*
X142995226Y-125698102D01*
X142917205Y-125509744D01*
X142803937Y-125340226D01*
X142760000Y-125296289D01*
X142760000Y-123703711D01*
X142803937Y-123659774D01*
X142917205Y-123490256D01*
X142995226Y-123301898D01*
X143035000Y-123101939D01*
X143035000Y-122898061D01*
X142995226Y-122698102D01*
X142917205Y-122509744D01*
X142803937Y-122340226D01*
X142659774Y-122196063D01*
X142490256Y-122082795D01*
X142301898Y-122004774D01*
X142101939Y-121965000D01*
X141898061Y-121965000D01*
X141698102Y-122004774D01*
X141509744Y-122082795D01*
X141340226Y-122196063D01*
X141196063Y-122340226D01*
X141082795Y-122509744D01*
X141004774Y-122698102D01*
X140965000Y-122898061D01*
X136760000Y-122898061D01*
X136760000Y-122703711D01*
X136803937Y-122659774D01*
X136917205Y-122490256D01*
X136995226Y-122301898D01*
X137035000Y-122101939D01*
X137035000Y-121898061D01*
X136995226Y-121698102D01*
X136917205Y-121509744D01*
X136803937Y-121340226D01*
X136659774Y-121196063D01*
X136490256Y-121082795D01*
X136301898Y-121004774D01*
X136101939Y-120965000D01*
X135898061Y-120965000D01*
X135698102Y-121004774D01*
X135509744Y-121082795D01*
X135340226Y-121196063D01*
X135196063Y-121340226D01*
X135082795Y-121509744D01*
X135004774Y-121698102D01*
X134965000Y-121898061D01*
X134965000Y-121965000D01*
X134898061Y-121965000D01*
X134698102Y-122004774D01*
X134509744Y-122082795D01*
X134340226Y-122196063D01*
X134196063Y-122340226D01*
X134082795Y-122509744D01*
X134004774Y-122698102D01*
X133965000Y-122898061D01*
X109760000Y-122898061D01*
X109760000Y-118703711D01*
X109803937Y-118659774D01*
X109917205Y-118490256D01*
X109995226Y-118301898D01*
X110035000Y-118101939D01*
X110035000Y-117898061D01*
X109995226Y-117698102D01*
X109917205Y-117509744D01*
X109842582Y-117398061D01*
X114965000Y-117398061D01*
X114965000Y-117601939D01*
X115004774Y-117801898D01*
X115082795Y-117990256D01*
X115196063Y-118159774D01*
X115340226Y-118303937D01*
X115509744Y-118417205D01*
X115698102Y-118495226D01*
X115898061Y-118535000D01*
X116101939Y-118535000D01*
X116301898Y-118495226D01*
X116490256Y-118417205D01*
X116659774Y-118303937D01*
X116803937Y-118159774D01*
X116917205Y-117990256D01*
X116995226Y-117801898D01*
X117035000Y-117601939D01*
X117035000Y-117539801D01*
X118314802Y-116260000D01*
X121796289Y-116260000D01*
X121840226Y-116303937D01*
X122009744Y-116417205D01*
X122198102Y-116495226D01*
X122398061Y-116535000D01*
X122601939Y-116535000D01*
X122801898Y-116495226D01*
X122990256Y-116417205D01*
X123159774Y-116303937D01*
X123303937Y-116159774D01*
X123417205Y-115990256D01*
X123495226Y-115801898D01*
X123535000Y-115601939D01*
X123535000Y-115398061D01*
X123495226Y-115198102D01*
X123417205Y-115009744D01*
X123384612Y-114960965D01*
X123490256Y-114917205D01*
X123659774Y-114803937D01*
X123803937Y-114659774D01*
X123917205Y-114490256D01*
X123995226Y-114301898D01*
X124035000Y-114101939D01*
X124035000Y-113898061D01*
X123995226Y-113698102D01*
X123917205Y-113509744D01*
X123803937Y-113340226D01*
X123659774Y-113196063D01*
X123490256Y-113082795D01*
X123301898Y-113004774D01*
X123101939Y-112965000D01*
X123039801Y-112965000D01*
X122885000Y-112810199D01*
X122885000Y-112078711D01*
X122928937Y-112034774D01*
X123042205Y-111865256D01*
X123120226Y-111676898D01*
X123160000Y-111476939D01*
X123160000Y-111273061D01*
X123120226Y-111073102D01*
X123042205Y-110884744D01*
X122928937Y-110715226D01*
X122784774Y-110571063D01*
X122615256Y-110457795D01*
X122426898Y-110379774D01*
X122226939Y-110340000D01*
X122023061Y-110340000D01*
X121823102Y-110379774D01*
X121634744Y-110457795D01*
X121465226Y-110571063D01*
X121321063Y-110715226D01*
X121207795Y-110884744D01*
X121129774Y-111073102D01*
X121090000Y-111273061D01*
X121090000Y-111476939D01*
X121129774Y-111676898D01*
X121207795Y-111865256D01*
X121321063Y-112034774D01*
X121365001Y-112078712D01*
X121365000Y-113087677D01*
X121361324Y-113125000D01*
X121365000Y-113162322D01*
X121365000Y-113162332D01*
X121375997Y-113273985D01*
X121415670Y-113404772D01*
X121419454Y-113417246D01*
X121490026Y-113549276D01*
X121511732Y-113575724D01*
X121584999Y-113665001D01*
X121614002Y-113688803D01*
X121965000Y-114039801D01*
X121965000Y-114101939D01*
X122004774Y-114301898D01*
X122082795Y-114490256D01*
X122115388Y-114539035D01*
X122009744Y-114582795D01*
X121840226Y-114696063D01*
X121796289Y-114740000D01*
X118037322Y-114740000D01*
X117999999Y-114736324D01*
X117962676Y-114740000D01*
X117962667Y-114740000D01*
X117851014Y-114750997D01*
X117707753Y-114794454D01*
X117575723Y-114865026D01*
X117492083Y-114933668D01*
X117459999Y-114959999D01*
X117436201Y-114988997D01*
X115960199Y-116465000D01*
X115898061Y-116465000D01*
X115698102Y-116504774D01*
X115509744Y-116582795D01*
X115340226Y-116696063D01*
X115196063Y-116840226D01*
X115082795Y-117009744D01*
X115004774Y-117198102D01*
X114965000Y-117398061D01*
X109842582Y-117398061D01*
X109803937Y-117340226D01*
X109659774Y-117196063D01*
X109490256Y-117082795D01*
X109301898Y-117004774D01*
X109101939Y-116965000D01*
X108898061Y-116965000D01*
X108698102Y-117004774D01*
X108509744Y-117082795D01*
X108340226Y-117196063D01*
X108196063Y-117340226D01*
X108082795Y-117509744D01*
X108004774Y-117698102D01*
X107965000Y-117898061D01*
X107965000Y-118101939D01*
X108004774Y-118301898D01*
X108082795Y-118490256D01*
X108196063Y-118659774D01*
X108240001Y-118703712D01*
X108240000Y-132185197D01*
X105534999Y-134890200D01*
X105534999Y-124312321D01*
X105538675Y-124274998D01*
X105534999Y-124237675D01*
X105534999Y-124237666D01*
X105524002Y-124126013D01*
X105480545Y-123982752D01*
X105409973Y-123850723D01*
X105371577Y-123803937D01*
X105338798Y-123763995D01*
X105338794Y-123763991D01*
X105315000Y-123734998D01*
X105286007Y-123711204D01*
X91563804Y-109989003D01*
X91540001Y-109959999D01*
X91424276Y-109865026D01*
X91292247Y-109794454D01*
X91148986Y-109750997D01*
X91037333Y-109740000D01*
X91037322Y-109740000D01*
X91000000Y-109736324D01*
X90962678Y-109740000D01*
X87703711Y-109740000D01*
X87659774Y-109696063D01*
X87490256Y-109582795D01*
X87301898Y-109504774D01*
X87101939Y-109465000D01*
X86898061Y-109465000D01*
X86698102Y-109504774D01*
X86509744Y-109582795D01*
X86340226Y-109696063D01*
X86196063Y-109840226D01*
X86082795Y-110009744D01*
X86004774Y-110198102D01*
X86000000Y-110222103D01*
X85995226Y-110198102D01*
X85917205Y-110009744D01*
X85803937Y-109840226D01*
X85732755Y-109769044D01*
X86126800Y-109375000D01*
X90181289Y-109375000D01*
X90225226Y-109418937D01*
X90394744Y-109532205D01*
X90583102Y-109610226D01*
X90783061Y-109650000D01*
X90986939Y-109650000D01*
X91186898Y-109610226D01*
X91375256Y-109532205D01*
X91544774Y-109418937D01*
X91688937Y-109274774D01*
X91802205Y-109105256D01*
X91880226Y-108916898D01*
X91920000Y-108716939D01*
X91920000Y-108513061D01*
X91880226Y-108313102D01*
X91802205Y-108124744D01*
X91688937Y-107955226D01*
X91544774Y-107811063D01*
X91375256Y-107697795D01*
X91186898Y-107619774D01*
X90986939Y-107580000D01*
X90783061Y-107580000D01*
X90583102Y-107619774D01*
X90394744Y-107697795D01*
X90225226Y-107811063D01*
X90181289Y-107855000D01*
X85849323Y-107855000D01*
X85811998Y-107851324D01*
X85774673Y-107855000D01*
X85774665Y-107855000D01*
X85663012Y-107865997D01*
X85519751Y-107909454D01*
X85387722Y-107980026D01*
X85271997Y-108074999D01*
X85248199Y-108103997D01*
X81612197Y-111740000D01*
X75260000Y-111740000D01*
X75260000Y-107037325D01*
X75263676Y-107000000D01*
X75260000Y-106962675D01*
X75260000Y-106962667D01*
X75249003Y-106851014D01*
X75205546Y-106707753D01*
X75134974Y-106575724D01*
X75040001Y-106459999D01*
X75010997Y-106436196D01*
X74563804Y-105989003D01*
X74540001Y-105959999D01*
X74424276Y-105865026D01*
X74292247Y-105794454D01*
X74148986Y-105750997D01*
X74037333Y-105740000D01*
X74037322Y-105740000D01*
X74000000Y-105736324D01*
X73962678Y-105740000D01*
X54814802Y-105740000D01*
X54660000Y-105585198D01*
X54660000Y-105523061D01*
X54620226Y-105323102D01*
X54542205Y-105134744D01*
X54428937Y-104965226D01*
X54361772Y-104898061D01*
X109965000Y-104898061D01*
X109965000Y-105101939D01*
X110004774Y-105301898D01*
X110082795Y-105490256D01*
X110196063Y-105659774D01*
X110340226Y-105803937D01*
X110509744Y-105917205D01*
X110698102Y-105995226D01*
X110898061Y-106035000D01*
X111101939Y-106035000D01*
X111301898Y-105995226D01*
X111490256Y-105917205D01*
X111659774Y-105803937D01*
X111703711Y-105760000D01*
X115462678Y-105760000D01*
X115500000Y-105763676D01*
X115537322Y-105760000D01*
X115537333Y-105760000D01*
X115648986Y-105749003D01*
X115792247Y-105705546D01*
X115924276Y-105634974D01*
X116040001Y-105540001D01*
X116044105Y-105535000D01*
X116101939Y-105535000D01*
X116301898Y-105495226D01*
X116490256Y-105417205D01*
X116659774Y-105303937D01*
X116803937Y-105159774D01*
X116917205Y-104990256D01*
X116995226Y-104801898D01*
X117035000Y-104601939D01*
X117035000Y-104398061D01*
X116995226Y-104198102D01*
X116917205Y-104009744D01*
X116803937Y-103840226D01*
X116659774Y-103696063D01*
X116490256Y-103582795D01*
X116301898Y-103504774D01*
X116101939Y-103465000D01*
X115898061Y-103465000D01*
X115698102Y-103504774D01*
X115509744Y-103582795D01*
X115340226Y-103696063D01*
X115196063Y-103840226D01*
X115082795Y-104009744D01*
X115004774Y-104198102D01*
X114996440Y-104240000D01*
X111703711Y-104240000D01*
X111659774Y-104196063D01*
X111490256Y-104082795D01*
X111301898Y-104004774D01*
X111101939Y-103965000D01*
X110898061Y-103965000D01*
X110698102Y-104004774D01*
X110509744Y-104082795D01*
X110340226Y-104196063D01*
X110196063Y-104340226D01*
X110082795Y-104509744D01*
X110004774Y-104698102D01*
X109965000Y-104898061D01*
X54361772Y-104898061D01*
X54284774Y-104821063D01*
X54115256Y-104707795D01*
X53926898Y-104629774D01*
X53726939Y-104590000D01*
X53523061Y-104590000D01*
X53323102Y-104629774D01*
X53134744Y-104707795D01*
X52965226Y-104821063D01*
X52821063Y-104965226D01*
X52707795Y-105134744D01*
X52629774Y-105323102D01*
X52590000Y-105523061D01*
X50660000Y-105523061D01*
X50660000Y-102898061D01*
X127465000Y-102898061D01*
X127465000Y-103101939D01*
X127504774Y-103301898D01*
X127582795Y-103490256D01*
X127696063Y-103659774D01*
X127740000Y-103703711D01*
X127740001Y-112796288D01*
X127696063Y-112840226D01*
X127582795Y-113009744D01*
X127504774Y-113198102D01*
X127465000Y-113398061D01*
X127465000Y-113601939D01*
X127504774Y-113801898D01*
X127582795Y-113990256D01*
X127696063Y-114159774D01*
X127840226Y-114303937D01*
X128009744Y-114417205D01*
X128198102Y-114495226D01*
X128398061Y-114535000D01*
X128601939Y-114535000D01*
X128801898Y-114495226D01*
X128990256Y-114417205D01*
X129159774Y-114303937D01*
X129303937Y-114159774D01*
X129417205Y-113990256D01*
X129495226Y-113801898D01*
X129535000Y-113601939D01*
X129535000Y-113398061D01*
X129495226Y-113198102D01*
X129417205Y-113009744D01*
X129303937Y-112840226D01*
X129260000Y-112796289D01*
X129260000Y-103703711D01*
X129303937Y-103659774D01*
X129417205Y-103490256D01*
X129495226Y-103301898D01*
X129535000Y-103101939D01*
X129535000Y-102898061D01*
X129495226Y-102698102D01*
X129417205Y-102509744D01*
X129303937Y-102340226D01*
X129159774Y-102196063D01*
X128990256Y-102082795D01*
X128801898Y-102004774D01*
X128601939Y-101965000D01*
X128398061Y-101965000D01*
X128198102Y-102004774D01*
X128009744Y-102082795D01*
X127840226Y-102196063D01*
X127696063Y-102340226D01*
X127582795Y-102509744D01*
X127504774Y-102698102D01*
X127465000Y-102898061D01*
X50660000Y-102898061D01*
X50660000Y-91898061D01*
X83965000Y-91898061D01*
X83965000Y-92101939D01*
X84004774Y-92301898D01*
X84082795Y-92490256D01*
X84196063Y-92659774D01*
X84340226Y-92803937D01*
X84509744Y-92917205D01*
X84698102Y-92995226D01*
X84898061Y-93035000D01*
X85101939Y-93035000D01*
X85301898Y-92995226D01*
X85490256Y-92917205D01*
X85659774Y-92803937D01*
X85703711Y-92760000D01*
X91235498Y-92760000D01*
X91272820Y-92763676D01*
X91310142Y-92760000D01*
X91310153Y-92760000D01*
X91421806Y-92749003D01*
X91565067Y-92705546D01*
X91697096Y-92634974D01*
X91812821Y-92540001D01*
X91836624Y-92510997D01*
X91949560Y-92398061D01*
X125465000Y-92398061D01*
X125465000Y-92601939D01*
X125504774Y-92801898D01*
X125582795Y-92990256D01*
X125696063Y-93159774D01*
X125740000Y-93203711D01*
X125740001Y-93962668D01*
X125736324Y-94000000D01*
X125750998Y-94148985D01*
X125794454Y-94292246D01*
X125865026Y-94424276D01*
X125936201Y-94511002D01*
X125960000Y-94540001D01*
X125988998Y-94563799D01*
X127465000Y-96039802D01*
X127465000Y-96101939D01*
X127504774Y-96301898D01*
X127582795Y-96490256D01*
X127696063Y-96659774D01*
X127840226Y-96803937D01*
X128009744Y-96917205D01*
X128198102Y-96995226D01*
X128398061Y-97035000D01*
X128601939Y-97035000D01*
X128801898Y-96995226D01*
X128990256Y-96917205D01*
X129159774Y-96803937D01*
X129250000Y-96713711D01*
X129340226Y-96803937D01*
X129509744Y-96917205D01*
X129698102Y-96995226D01*
X129898061Y-97035000D01*
X130101939Y-97035000D01*
X130301898Y-96995226D01*
X130490256Y-96917205D01*
X130659774Y-96803937D01*
X130803937Y-96659774D01*
X130917205Y-96490256D01*
X130995226Y-96301898D01*
X131000000Y-96277897D01*
X131004774Y-96301898D01*
X131082795Y-96490256D01*
X131196063Y-96659774D01*
X131340226Y-96803937D01*
X131509744Y-96917205D01*
X131698102Y-96995226D01*
X131898061Y-97035000D01*
X132101939Y-97035000D01*
X132301898Y-96995226D01*
X132490256Y-96917205D01*
X132500000Y-96910694D01*
X132509744Y-96917205D01*
X132698102Y-96995226D01*
X132898061Y-97035000D01*
X133101939Y-97035000D01*
X133301898Y-96995226D01*
X133490256Y-96917205D01*
X133659774Y-96803937D01*
X133803937Y-96659774D01*
X133917205Y-96490256D01*
X133995226Y-96301898D01*
X134035000Y-96101939D01*
X134035000Y-95898061D01*
X133995226Y-95698102D01*
X133917205Y-95509744D01*
X133803937Y-95340226D01*
X133760000Y-95296289D01*
X133760000Y-89016890D01*
X144558524Y-89016890D01*
X144603175Y-89164099D01*
X144728359Y-89426920D01*
X144902412Y-89660269D01*
X145118645Y-89855178D01*
X145368748Y-90004157D01*
X145643109Y-90101481D01*
X145873000Y-89980814D01*
X145873000Y-88787000D01*
X146127000Y-88787000D01*
X146127000Y-89980814D01*
X146356891Y-90101481D01*
X146631252Y-90004157D01*
X146881355Y-89855178D01*
X147097588Y-89660269D01*
X147271641Y-89426920D01*
X147396825Y-89164099D01*
X147441476Y-89016890D01*
X147320155Y-88787000D01*
X146127000Y-88787000D01*
X145873000Y-88787000D01*
X144679845Y-88787000D01*
X144558524Y-89016890D01*
X133760000Y-89016890D01*
X133760000Y-88814801D01*
X134539802Y-88035000D01*
X134601939Y-88035000D01*
X134801898Y-87995226D01*
X134990256Y-87917205D01*
X135159774Y-87803937D01*
X135303937Y-87659774D01*
X135417205Y-87490256D01*
X135495226Y-87301898D01*
X135535000Y-87101939D01*
X135535000Y-86898061D01*
X135495226Y-86698102D01*
X135417205Y-86509744D01*
X135303937Y-86340226D01*
X135159774Y-86196063D01*
X134990256Y-86082795D01*
X134801898Y-86004774D01*
X134601939Y-85965000D01*
X134535000Y-85965000D01*
X134535000Y-85898061D01*
X134495226Y-85698102D01*
X134417205Y-85509744D01*
X134303937Y-85340226D01*
X134159774Y-85196063D01*
X133990256Y-85082795D01*
X133801898Y-85004774D01*
X133601939Y-84965000D01*
X133398061Y-84965000D01*
X133388570Y-84966888D01*
X133303937Y-84840226D01*
X133159774Y-84696063D01*
X132990256Y-84582795D01*
X132801898Y-84504774D01*
X132601939Y-84465000D01*
X132398061Y-84465000D01*
X132198102Y-84504774D01*
X132009744Y-84582795D01*
X131840226Y-84696063D01*
X131696063Y-84840226D01*
X131582795Y-85009744D01*
X131504774Y-85198102D01*
X131465000Y-85398061D01*
X131465000Y-85460198D01*
X129489003Y-87436196D01*
X129459999Y-87459999D01*
X129404871Y-87527174D01*
X129365026Y-87575724D01*
X129306501Y-87685216D01*
X129294454Y-87707754D01*
X129250997Y-87851015D01*
X129240000Y-87962668D01*
X129240000Y-87962678D01*
X129236324Y-88000000D01*
X129240000Y-88037322D01*
X129240001Y-95276290D01*
X129159774Y-95196063D01*
X128990256Y-95082795D01*
X128801898Y-95004774D01*
X128601939Y-94965000D01*
X128539802Y-94965000D01*
X127260000Y-93685199D01*
X127260000Y-93203711D01*
X127303937Y-93159774D01*
X127417205Y-92990256D01*
X127495226Y-92801898D01*
X127535000Y-92601939D01*
X127535000Y-92398061D01*
X127495226Y-92198102D01*
X127417205Y-92009744D01*
X127303937Y-91840226D01*
X127159774Y-91696063D01*
X126990256Y-91582795D01*
X126801898Y-91504774D01*
X126601939Y-91465000D01*
X126398061Y-91465000D01*
X126198102Y-91504774D01*
X126009744Y-91582795D01*
X125840226Y-91696063D01*
X125696063Y-91840226D01*
X125582795Y-92009744D01*
X125504774Y-92198102D01*
X125465000Y-92398061D01*
X91949560Y-92398061D01*
X95016768Y-89330854D01*
X95082795Y-89490256D01*
X95196063Y-89659774D01*
X95340226Y-89803937D01*
X95509744Y-89917205D01*
X95698102Y-89995226D01*
X95898061Y-90035000D01*
X96101939Y-90035000D01*
X96301898Y-89995226D01*
X96490256Y-89917205D01*
X96500000Y-89910694D01*
X96509744Y-89917205D01*
X96698102Y-89995226D01*
X96898061Y-90035000D01*
X97101939Y-90035000D01*
X97301898Y-89995226D01*
X97490256Y-89917205D01*
X97659774Y-89803937D01*
X97803937Y-89659774D01*
X97917205Y-89490256D01*
X97995226Y-89301898D01*
X98035000Y-89101939D01*
X98035000Y-88898061D01*
X97995226Y-88698102D01*
X97917205Y-88509744D01*
X97803937Y-88340226D01*
X97760000Y-88296289D01*
X97760000Y-86814801D01*
X100063799Y-84511003D01*
X100063803Y-84510998D01*
X100514762Y-84060040D01*
X102233584Y-84060040D01*
X102270906Y-84063716D01*
X102308228Y-84060040D01*
X102308239Y-84060040D01*
X102419892Y-84049043D01*
X102563153Y-84005586D01*
X102695182Y-83935014D01*
X102810907Y-83840041D01*
X102834710Y-83811037D01*
X106075275Y-80570473D01*
X106137412Y-80570473D01*
X106337371Y-80530699D01*
X106525729Y-80452678D01*
X106695247Y-80339410D01*
X106839410Y-80195247D01*
X106952678Y-80025729D01*
X107030699Y-79837371D01*
X107070473Y-79637412D01*
X107070473Y-79433534D01*
X107030699Y-79233575D01*
X106952678Y-79045217D01*
X106839410Y-78875699D01*
X106792076Y-78828365D01*
X108111005Y-77509437D01*
X108140002Y-77485640D01*
X108234975Y-77369915D01*
X108305547Y-77237886D01*
X108340260Y-77123451D01*
X108403938Y-77059773D01*
X108517206Y-76890255D01*
X108595227Y-76701897D01*
X108635001Y-76501938D01*
X108635001Y-76298060D01*
X108595227Y-76098101D01*
X108517206Y-75909743D01*
X108509401Y-75898061D01*
X122965000Y-75898061D01*
X122965000Y-76101939D01*
X123004774Y-76301898D01*
X123082795Y-76490256D01*
X123196063Y-76659774D01*
X123340226Y-76803937D01*
X123509744Y-76917205D01*
X123698102Y-76995226D01*
X123898061Y-77035000D01*
X124101939Y-77035000D01*
X124301898Y-76995226D01*
X124490256Y-76917205D01*
X124659774Y-76803937D01*
X124703711Y-76760000D01*
X131992462Y-76760000D01*
X131965000Y-76898061D01*
X131965000Y-76960198D01*
X131685199Y-77240000D01*
X126203711Y-77240000D01*
X126159774Y-77196063D01*
X125990256Y-77082795D01*
X125801898Y-77004774D01*
X125601939Y-76965000D01*
X125398061Y-76965000D01*
X125198102Y-77004774D01*
X125009744Y-77082795D01*
X124840226Y-77196063D01*
X124696063Y-77340226D01*
X124582795Y-77509744D01*
X124504774Y-77698102D01*
X124465000Y-77898061D01*
X124465000Y-77965000D01*
X124398061Y-77965000D01*
X124198102Y-78004774D01*
X124009744Y-78082795D01*
X123840226Y-78196063D01*
X123696063Y-78340226D01*
X123582795Y-78509744D01*
X123504774Y-78698102D01*
X123465000Y-78898061D01*
X123465000Y-79101939D01*
X123504774Y-79301898D01*
X123582795Y-79490256D01*
X123696063Y-79659774D01*
X123840226Y-79803937D01*
X124009744Y-79917205D01*
X124198102Y-79995226D01*
X124398061Y-80035000D01*
X124601939Y-80035000D01*
X124801898Y-79995226D01*
X124990256Y-79917205D01*
X125159774Y-79803937D01*
X125203711Y-79760000D01*
X125492462Y-79760000D01*
X125465000Y-79898061D01*
X125465000Y-80101939D01*
X125504774Y-80301898D01*
X125582795Y-80490256D01*
X125696063Y-80659774D01*
X125840226Y-80803937D01*
X126009744Y-80917205D01*
X126115388Y-80960965D01*
X126082795Y-81009744D01*
X126004774Y-81198102D01*
X125965000Y-81398061D01*
X125965000Y-81601939D01*
X126004774Y-81801898D01*
X126082795Y-81990256D01*
X126196063Y-82159774D01*
X126340226Y-82303937D01*
X126509744Y-82417205D01*
X126698102Y-82495226D01*
X126898061Y-82535000D01*
X127101939Y-82535000D01*
X127301898Y-82495226D01*
X127490256Y-82417205D01*
X127659774Y-82303937D01*
X127803937Y-82159774D01*
X127917205Y-81990256D01*
X127995226Y-81801898D01*
X128003560Y-81760000D01*
X130462678Y-81760000D01*
X130500000Y-81763676D01*
X130537322Y-81760000D01*
X130537333Y-81760000D01*
X130648986Y-81749003D01*
X130792247Y-81705546D01*
X130924276Y-81634974D01*
X131040001Y-81540001D01*
X131044105Y-81535000D01*
X131101939Y-81535000D01*
X131301898Y-81495226D01*
X131490256Y-81417205D01*
X131659774Y-81303937D01*
X131803937Y-81159774D01*
X131883967Y-81040000D01*
X144507815Y-81040000D01*
X144536487Y-81331111D01*
X144621401Y-81611034D01*
X144759294Y-81869014D01*
X144944866Y-82095134D01*
X145170986Y-82280706D01*
X145225791Y-82310000D01*
X145170986Y-82339294D01*
X144944866Y-82524866D01*
X144759294Y-82750986D01*
X144621401Y-83008966D01*
X144536487Y-83288889D01*
X144507815Y-83580000D01*
X144536487Y-83871111D01*
X144621401Y-84151034D01*
X144759294Y-84409014D01*
X144944866Y-84635134D01*
X145170986Y-84820706D01*
X145225791Y-84850000D01*
X145170986Y-84879294D01*
X144944866Y-85064866D01*
X144759294Y-85290986D01*
X144621401Y-85548966D01*
X144536487Y-85828889D01*
X144507815Y-86120000D01*
X144536487Y-86411111D01*
X144621401Y-86691034D01*
X144759294Y-86949014D01*
X144944866Y-87175134D01*
X145170986Y-87360706D01*
X145235523Y-87395201D01*
X145118645Y-87464822D01*
X144902412Y-87659731D01*
X144728359Y-87893080D01*
X144603175Y-88155901D01*
X144558524Y-88303110D01*
X144679845Y-88533000D01*
X145873000Y-88533000D01*
X145873000Y-88513000D01*
X146127000Y-88513000D01*
X146127000Y-88533000D01*
X147320155Y-88533000D01*
X147441476Y-88303110D01*
X147396825Y-88155901D01*
X147271641Y-87893080D01*
X147097588Y-87659731D01*
X146881355Y-87464822D01*
X146764477Y-87395201D01*
X146829014Y-87360706D01*
X147055134Y-87175134D01*
X147240706Y-86949014D01*
X147378599Y-86691034D01*
X147463513Y-86411111D01*
X147492185Y-86120000D01*
X147463513Y-85828889D01*
X147378599Y-85548966D01*
X147240706Y-85290986D01*
X147055134Y-85064866D01*
X146829014Y-84879294D01*
X146774209Y-84850000D01*
X146829014Y-84820706D01*
X147055134Y-84635134D01*
X147240706Y-84409014D01*
X147378599Y-84151034D01*
X147463513Y-83871111D01*
X147492185Y-83580000D01*
X147463513Y-83288889D01*
X147378599Y-83008966D01*
X147240706Y-82750986D01*
X147055134Y-82524866D01*
X146829014Y-82339294D01*
X146774209Y-82310000D01*
X146829014Y-82280706D01*
X147055134Y-82095134D01*
X147240706Y-81869014D01*
X147378599Y-81611034D01*
X147463513Y-81331111D01*
X147492185Y-81040000D01*
X147463513Y-80748889D01*
X147378599Y-80468966D01*
X147240706Y-80210986D01*
X147055134Y-79984866D01*
X147025313Y-79960393D01*
X147094180Y-79939502D01*
X147204494Y-79880537D01*
X147301185Y-79801185D01*
X147380537Y-79704494D01*
X147439502Y-79594180D01*
X147475812Y-79474482D01*
X147488072Y-79350000D01*
X147488072Y-77650000D01*
X147475812Y-77525518D01*
X147439502Y-77405820D01*
X147380537Y-77295506D01*
X147301185Y-77198815D01*
X147204494Y-77119463D01*
X147094180Y-77060498D01*
X146974482Y-77024188D01*
X146850000Y-77011928D01*
X145150000Y-77011928D01*
X145025518Y-77024188D01*
X144905820Y-77060498D01*
X144795506Y-77119463D01*
X144698815Y-77198815D01*
X144619463Y-77295506D01*
X144560498Y-77405820D01*
X144524188Y-77525518D01*
X144511928Y-77650000D01*
X144511928Y-79350000D01*
X144524188Y-79474482D01*
X144560498Y-79594180D01*
X144619463Y-79704494D01*
X144698815Y-79801185D01*
X144795506Y-79880537D01*
X144905820Y-79939502D01*
X144974687Y-79960393D01*
X144944866Y-79984866D01*
X144759294Y-80210986D01*
X144621401Y-80468966D01*
X144536487Y-80748889D01*
X144507815Y-81040000D01*
X131883967Y-81040000D01*
X131917205Y-80990256D01*
X131995226Y-80801898D01*
X132035000Y-80601939D01*
X132035000Y-80398061D01*
X131995226Y-80198102D01*
X131917205Y-80009744D01*
X131803937Y-79840226D01*
X131723711Y-79760000D01*
X132369291Y-79760000D01*
X132413228Y-79803937D01*
X132582746Y-79917205D01*
X132771104Y-79995226D01*
X132971063Y-80035000D01*
X133174941Y-80035000D01*
X133374900Y-79995226D01*
X133563258Y-79917205D01*
X133732776Y-79803937D01*
X133876939Y-79659774D01*
X133990207Y-79490256D01*
X134068228Y-79301898D01*
X134108002Y-79101939D01*
X134108002Y-78898061D01*
X134068228Y-78698102D01*
X133990207Y-78509744D01*
X133876939Y-78340226D01*
X133732776Y-78196063D01*
X133563258Y-78082795D01*
X133374900Y-78004774D01*
X133310009Y-77991866D01*
X133490256Y-77917205D01*
X133659774Y-77803937D01*
X133803937Y-77659774D01*
X133917205Y-77490256D01*
X133995226Y-77301898D01*
X134035000Y-77101939D01*
X134035000Y-76898061D01*
X134007538Y-76760000D01*
X134296289Y-76760000D01*
X134340226Y-76803937D01*
X134509744Y-76917205D01*
X134698102Y-76995226D01*
X134898061Y-77035000D01*
X135101939Y-77035000D01*
X135301898Y-76995226D01*
X135490256Y-76917205D01*
X135659774Y-76803937D01*
X135803937Y-76659774D01*
X135917205Y-76490256D01*
X135995226Y-76301898D01*
X136035000Y-76101939D01*
X136035000Y-75898061D01*
X135995226Y-75698102D01*
X135917205Y-75509744D01*
X135803937Y-75340226D01*
X135659774Y-75196063D01*
X135490256Y-75082795D01*
X135301898Y-75004774D01*
X135101939Y-74965000D01*
X134898061Y-74965000D01*
X134698102Y-75004774D01*
X134509744Y-75082795D01*
X134340226Y-75196063D01*
X134296289Y-75240000D01*
X133007538Y-75240000D01*
X133035000Y-75101939D01*
X133035000Y-75039802D01*
X133461004Y-74613798D01*
X133490001Y-74590001D01*
X133516332Y-74557917D01*
X133584974Y-74474277D01*
X133655546Y-74342247D01*
X133656159Y-74340226D01*
X133699003Y-74198986D01*
X133710000Y-74087333D01*
X133710000Y-74087323D01*
X133713676Y-74050000D01*
X133710000Y-74012677D01*
X133710000Y-73056890D01*
X144558524Y-73056890D01*
X144603175Y-73204099D01*
X144728359Y-73466920D01*
X144902412Y-73700269D01*
X145118645Y-73895178D01*
X145368748Y-74044157D01*
X145643109Y-74141481D01*
X145873000Y-74020814D01*
X145873000Y-72827000D01*
X146127000Y-72827000D01*
X146127000Y-74020814D01*
X146356891Y-74141481D01*
X146631252Y-74044157D01*
X146881355Y-73895178D01*
X147097588Y-73700269D01*
X147271641Y-73466920D01*
X147396825Y-73204099D01*
X147441476Y-73056890D01*
X147320155Y-72827000D01*
X146127000Y-72827000D01*
X145873000Y-72827000D01*
X144679845Y-72827000D01*
X144558524Y-73056890D01*
X133710000Y-73056890D01*
X133710000Y-72203711D01*
X133753937Y-72159774D01*
X133867205Y-71990256D01*
X133945226Y-71801898D01*
X133985000Y-71601939D01*
X133985000Y-71398061D01*
X133945226Y-71198102D01*
X133867205Y-71009744D01*
X133753937Y-70840226D01*
X133609774Y-70696063D01*
X133440256Y-70582795D01*
X133251898Y-70504774D01*
X133051939Y-70465000D01*
X132848061Y-70465000D01*
X132648102Y-70504774D01*
X132459744Y-70582795D01*
X132290226Y-70696063D01*
X132146063Y-70840226D01*
X132032795Y-71009744D01*
X131954774Y-71198102D01*
X131915000Y-71398061D01*
X131915000Y-71601939D01*
X131954774Y-71801898D01*
X132032795Y-71990256D01*
X132146063Y-72159774D01*
X132190001Y-72203712D01*
X132190000Y-73735198D01*
X131960198Y-73965000D01*
X131898061Y-73965000D01*
X131698102Y-74004774D01*
X131509744Y-74082795D01*
X131340226Y-74196063D01*
X131196063Y-74340226D01*
X131082795Y-74509744D01*
X131004774Y-74698102D01*
X130965000Y-74898061D01*
X130965000Y-75101939D01*
X130992462Y-75240000D01*
X124703711Y-75240000D01*
X124659774Y-75196063D01*
X124490256Y-75082795D01*
X124301898Y-75004774D01*
X124101939Y-74965000D01*
X123898061Y-74965000D01*
X123698102Y-75004774D01*
X123509744Y-75082795D01*
X123340226Y-75196063D01*
X123196063Y-75340226D01*
X123082795Y-75509744D01*
X123004774Y-75698102D01*
X122965000Y-75898061D01*
X108509401Y-75898061D01*
X108403938Y-75740225D01*
X108259775Y-75596062D01*
X108090257Y-75482794D01*
X107901899Y-75404773D01*
X107701940Y-75364999D01*
X107498062Y-75364999D01*
X107298103Y-75404773D01*
X107260012Y-75420551D01*
X107260012Y-70703711D01*
X107303949Y-70659774D01*
X107417217Y-70490256D01*
X107495238Y-70301898D01*
X107535012Y-70101939D01*
X107535012Y-69898061D01*
X107495238Y-69698102D01*
X107417217Y-69509744D01*
X107303949Y-69340226D01*
X107159786Y-69196063D01*
X106990268Y-69082795D01*
X106801910Y-69004774D01*
X106601951Y-68965000D01*
X106398073Y-68965000D01*
X106198114Y-69004774D01*
X106009756Y-69082795D01*
X106000011Y-69089307D01*
X105990265Y-69082795D01*
X105801907Y-69004774D01*
X105601948Y-68965000D01*
X105398070Y-68965000D01*
X105198111Y-69004774D01*
X105009753Y-69082795D01*
X105000008Y-69089307D01*
X104990262Y-69082795D01*
X104801904Y-69004774D01*
X104601945Y-68965000D01*
X104398067Y-68965000D01*
X104198108Y-69004774D01*
X104009750Y-69082795D01*
X104000005Y-69089307D01*
X103990259Y-69082795D01*
X103801901Y-69004774D01*
X103601942Y-68965000D01*
X103398064Y-68965000D01*
X103198105Y-69004774D01*
X103009747Y-69082795D01*
X103000002Y-69089307D01*
X102990256Y-69082795D01*
X102801898Y-69004774D01*
X102601939Y-68965000D01*
X102398061Y-68965000D01*
X102198102Y-69004774D01*
X102009744Y-69082795D01*
X102000000Y-69089306D01*
X101990256Y-69082795D01*
X101801898Y-69004774D01*
X101601939Y-68965000D01*
X101398061Y-68965000D01*
X101198102Y-69004774D01*
X101009744Y-69082795D01*
X100840226Y-69196063D01*
X100696063Y-69340226D01*
X100582795Y-69509744D01*
X100504774Y-69698102D01*
X100465000Y-69898061D01*
X100465000Y-70101939D01*
X100504774Y-70301898D01*
X100582795Y-70490256D01*
X100696063Y-70659774D01*
X100740000Y-70703711D01*
X100740001Y-78912377D01*
X100294183Y-79358195D01*
X98919127Y-79358195D01*
X98881804Y-79354519D01*
X98844482Y-79358195D01*
X98844472Y-79358195D01*
X98732819Y-79369192D01*
X98619419Y-79403591D01*
X98589558Y-79412649D01*
X98457528Y-79483221D01*
X98388342Y-79540001D01*
X98341804Y-79578194D01*
X98318006Y-79607192D01*
X94135208Y-83789991D01*
X93350932Y-83789991D01*
X93313599Y-83786314D01*
X93276266Y-83789991D01*
X93164613Y-83800988D01*
X93021352Y-83844445D01*
X92889323Y-83915017D01*
X92773598Y-84009990D01*
X92749800Y-84038988D01*
X92048789Y-84740000D01*
X89203711Y-84740000D01*
X89159774Y-84696063D01*
X88990256Y-84582795D01*
X88801898Y-84504774D01*
X88601939Y-84465000D01*
X88398061Y-84465000D01*
X88198102Y-84504774D01*
X88009744Y-84582795D01*
X87840226Y-84696063D01*
X87696063Y-84840226D01*
X87582795Y-85009744D01*
X87504774Y-85198102D01*
X87465000Y-85398061D01*
X87465000Y-85601939D01*
X87504774Y-85801898D01*
X87582795Y-85990256D01*
X87696063Y-86159774D01*
X87786289Y-86250000D01*
X87769044Y-86267245D01*
X87260000Y-85758201D01*
X87260000Y-82703711D01*
X87303937Y-82659774D01*
X87417205Y-82490256D01*
X87495226Y-82301898D01*
X87535000Y-82101939D01*
X87535000Y-81898061D01*
X87495226Y-81698102D01*
X87417205Y-81509744D01*
X87303937Y-81340226D01*
X87159774Y-81196063D01*
X86990256Y-81082795D01*
X86801898Y-81004774D01*
X86601939Y-80965000D01*
X86398061Y-80965000D01*
X86198102Y-81004774D01*
X86009744Y-81082795D01*
X85840226Y-81196063D01*
X85696063Y-81340226D01*
X85582795Y-81509744D01*
X85504774Y-81698102D01*
X85465000Y-81898061D01*
X85465000Y-82101939D01*
X85504774Y-82301898D01*
X85582795Y-82490256D01*
X85696063Y-82659774D01*
X85740000Y-82703711D01*
X85740001Y-86035670D01*
X85736324Y-86073002D01*
X85740001Y-86110335D01*
X85750998Y-86221988D01*
X85764180Y-86265444D01*
X85794454Y-86365248D01*
X85865026Y-86497278D01*
X85914063Y-86557029D01*
X85960000Y-86613003D01*
X85988998Y-86636801D01*
X87395913Y-88043716D01*
X87301898Y-88004774D01*
X87101939Y-87965000D01*
X86898061Y-87965000D01*
X86698102Y-88004774D01*
X86509744Y-88082795D01*
X86340226Y-88196063D01*
X86196063Y-88340226D01*
X86082795Y-88509744D01*
X86004774Y-88698102D01*
X85965000Y-88898061D01*
X85965000Y-89101939D01*
X86004774Y-89301898D01*
X86080899Y-89485679D01*
X85976940Y-89465000D01*
X85773062Y-89465000D01*
X85573103Y-89504774D01*
X85384745Y-89582795D01*
X85215227Y-89696063D01*
X85071064Y-89840226D01*
X84957796Y-90009744D01*
X84879775Y-90198102D01*
X84840001Y-90398061D01*
X84840001Y-90601939D01*
X84879775Y-90801898D01*
X84947335Y-90965000D01*
X84898061Y-90965000D01*
X84698102Y-91004774D01*
X84509744Y-91082795D01*
X84340226Y-91196063D01*
X84196063Y-91340226D01*
X84082795Y-91509744D01*
X84004774Y-91698102D01*
X83965000Y-91898061D01*
X50660000Y-91898061D01*
X50660000Y-85398061D01*
X75965000Y-85398061D01*
X75965000Y-85601939D01*
X76004774Y-85801898D01*
X76082795Y-85990256D01*
X76196063Y-86159774D01*
X76340226Y-86303937D01*
X76509744Y-86417205D01*
X76698102Y-86495226D01*
X76898061Y-86535000D01*
X77101939Y-86535000D01*
X77301898Y-86495226D01*
X77490256Y-86417205D01*
X77659774Y-86303937D01*
X77803937Y-86159774D01*
X77917205Y-85990256D01*
X77995226Y-85801898D01*
X78035000Y-85601939D01*
X78035000Y-85539801D01*
X80011004Y-83563798D01*
X80040001Y-83540001D01*
X80105657Y-83459999D01*
X80134974Y-83424277D01*
X80205546Y-83292247D01*
X80210988Y-83274306D01*
X80220386Y-83243325D01*
X80303937Y-83159774D01*
X80417205Y-82990256D01*
X80495226Y-82801898D01*
X80535000Y-82601939D01*
X80535000Y-82398061D01*
X80495226Y-82198102D01*
X80417205Y-82009744D01*
X80303937Y-81840226D01*
X80159774Y-81696063D01*
X79990256Y-81582795D01*
X79801898Y-81504774D01*
X79601939Y-81465000D01*
X79398061Y-81465000D01*
X79198102Y-81504774D01*
X79009744Y-81582795D01*
X78840226Y-81696063D01*
X78696063Y-81840226D01*
X78582795Y-82009744D01*
X78504774Y-82198102D01*
X78465000Y-82398061D01*
X78465000Y-82601939D01*
X78504774Y-82801898D01*
X78539490Y-82885708D01*
X76960199Y-84465000D01*
X76898061Y-84465000D01*
X76698102Y-84504774D01*
X76509744Y-84582795D01*
X76340226Y-84696063D01*
X76196063Y-84840226D01*
X76082795Y-85009744D01*
X76004774Y-85198102D01*
X75965000Y-85398061D01*
X50660000Y-85398061D01*
X50660000Y-67898061D01*
X116465000Y-67898061D01*
X116465000Y-68101939D01*
X116504774Y-68301898D01*
X116582795Y-68490256D01*
X116696063Y-68659774D01*
X116840226Y-68803937D01*
X117009744Y-68917205D01*
X117198102Y-68995226D01*
X117398061Y-69035000D01*
X117601939Y-69035000D01*
X117801898Y-68995226D01*
X117990256Y-68917205D01*
X118159774Y-68803937D01*
X118194455Y-68769256D01*
X118465000Y-69039802D01*
X118465000Y-69101939D01*
X118504774Y-69301898D01*
X118582795Y-69490256D01*
X118696063Y-69659774D01*
X118840226Y-69803937D01*
X119009744Y-69917205D01*
X119198102Y-69995226D01*
X119398061Y-70035000D01*
X119601939Y-70035000D01*
X119801898Y-69995226D01*
X119990256Y-69917205D01*
X120159774Y-69803937D01*
X120303937Y-69659774D01*
X120417205Y-69490256D01*
X120495226Y-69301898D01*
X120535000Y-69101939D01*
X120535000Y-68898061D01*
X120495226Y-68698102D01*
X120417205Y-68509744D01*
X120303937Y-68340226D01*
X120159774Y-68196063D01*
X119990256Y-68082795D01*
X119801898Y-68004774D01*
X119601939Y-67965000D01*
X119539802Y-67965000D01*
X119063804Y-67489002D01*
X119040001Y-67459999D01*
X118924276Y-67365026D01*
X118792247Y-67294454D01*
X118648986Y-67250997D01*
X118537333Y-67240000D01*
X118537322Y-67240000D01*
X118500000Y-67236324D01*
X118462678Y-67240000D01*
X118203711Y-67240000D01*
X118159774Y-67196063D01*
X117990256Y-67082795D01*
X117801898Y-67004774D01*
X117601939Y-66965000D01*
X117398061Y-66965000D01*
X117198102Y-67004774D01*
X117009744Y-67082795D01*
X116840226Y-67196063D01*
X116696063Y-67340226D01*
X116582795Y-67509744D01*
X116504774Y-67698102D01*
X116465000Y-67898061D01*
X50660000Y-67898061D01*
X50660000Y-55989775D01*
X52189830Y-55989775D01*
X52429976Y-56377018D01*
X52923877Y-56637641D01*
X53459133Y-56796901D01*
X54015174Y-56848678D01*
X54570632Y-56790981D01*
X55104161Y-56626028D01*
X55570024Y-56377018D01*
X55810170Y-55989775D01*
X54000000Y-54179605D01*
X52189830Y-55989775D01*
X50660000Y-55989775D01*
X50660000Y-54015174D01*
X51151322Y-54015174D01*
X51209019Y-54570632D01*
X51373972Y-55104161D01*
X51622982Y-55570024D01*
X52010225Y-55810170D01*
X53820395Y-54000000D01*
X54179605Y-54000000D01*
X55989775Y-55810170D01*
X56377018Y-55570024D01*
X56637641Y-55076123D01*
X56796901Y-54540867D01*
X56810198Y-54398061D01*
X117965000Y-54398061D01*
X117965000Y-54601939D01*
X118004774Y-54801898D01*
X118082795Y-54990256D01*
X118196063Y-55159774D01*
X118340226Y-55303937D01*
X118509744Y-55417205D01*
X118698102Y-55495226D01*
X118898061Y-55535000D01*
X119101939Y-55535000D01*
X119301898Y-55495226D01*
X119490256Y-55417205D01*
X119659774Y-55303937D01*
X119703711Y-55260000D01*
X125685199Y-55260000D01*
X125740000Y-55314801D01*
X125740001Y-70237667D01*
X125736324Y-70275000D01*
X125740001Y-70312333D01*
X125745213Y-70365245D01*
X125750998Y-70423985D01*
X125794454Y-70567246D01*
X125865026Y-70699276D01*
X125907473Y-70750997D01*
X125960000Y-70815001D01*
X125988998Y-70838799D01*
X126190000Y-71039801D01*
X126190000Y-71101939D01*
X126229774Y-71301898D01*
X126307795Y-71490256D01*
X126421063Y-71659774D01*
X126565226Y-71803937D01*
X126734744Y-71917205D01*
X126923102Y-71995226D01*
X127123061Y-72035000D01*
X127326939Y-72035000D01*
X127526898Y-71995226D01*
X127715256Y-71917205D01*
X127884774Y-71803937D01*
X128028937Y-71659774D01*
X128142205Y-71490256D01*
X128220226Y-71301898D01*
X128260000Y-71101939D01*
X128260000Y-70898061D01*
X128220226Y-70698102D01*
X128142205Y-70509744D01*
X128028937Y-70340226D01*
X127884774Y-70196063D01*
X127715256Y-70082795D01*
X127526898Y-70004774D01*
X127326939Y-69965000D01*
X127264801Y-69965000D01*
X127260000Y-69960199D01*
X127260000Y-61723711D01*
X127340226Y-61803937D01*
X127509744Y-61917205D01*
X127698102Y-61995226D01*
X127898061Y-62035000D01*
X128101939Y-62035000D01*
X128301898Y-61995226D01*
X128490256Y-61917205D01*
X128659774Y-61803937D01*
X128803937Y-61659774D01*
X128917205Y-61490256D01*
X128995226Y-61301898D01*
X129035000Y-61101939D01*
X129035000Y-61039801D01*
X130011004Y-60063798D01*
X130040001Y-60040001D01*
X130134974Y-59924276D01*
X130205546Y-59792247D01*
X130220386Y-59743325D01*
X130303937Y-59659774D01*
X130417205Y-59490256D01*
X130495226Y-59301898D01*
X130503560Y-59260000D01*
X143085199Y-59260000D01*
X144336201Y-60511003D01*
X144359999Y-60540001D01*
X144475724Y-60634974D01*
X144511928Y-60654326D01*
X144511928Y-60850000D01*
X144524188Y-60974482D01*
X144560498Y-61094180D01*
X144619463Y-61204494D01*
X144698815Y-61301185D01*
X144795506Y-61380537D01*
X144905820Y-61439502D01*
X144974687Y-61460393D01*
X144944866Y-61484866D01*
X144759294Y-61710986D01*
X144621401Y-61968966D01*
X144536487Y-62248889D01*
X144507815Y-62540000D01*
X144536487Y-62831111D01*
X144621401Y-63111034D01*
X144759294Y-63369014D01*
X144944866Y-63595134D01*
X145170986Y-63780706D01*
X145225791Y-63810000D01*
X145170986Y-63839294D01*
X144944866Y-64024866D01*
X144759294Y-64250986D01*
X144621401Y-64508966D01*
X144536487Y-64788889D01*
X144507815Y-65080000D01*
X144536487Y-65371111D01*
X144621401Y-65651034D01*
X144759294Y-65909014D01*
X144944866Y-66135134D01*
X145170986Y-66320706D01*
X145225791Y-66350000D01*
X145170986Y-66379294D01*
X144944866Y-66564866D01*
X144759294Y-66790986D01*
X144621401Y-67048966D01*
X144536487Y-67328889D01*
X144507815Y-67620000D01*
X144536487Y-67911111D01*
X144621401Y-68191034D01*
X144759294Y-68449014D01*
X144944866Y-68675134D01*
X145170986Y-68860706D01*
X145225791Y-68890000D01*
X145170986Y-68919294D01*
X144944866Y-69104866D01*
X144759294Y-69330986D01*
X144621401Y-69588966D01*
X144536487Y-69868889D01*
X144507815Y-70160000D01*
X144536487Y-70451111D01*
X144621401Y-70731034D01*
X144759294Y-70989014D01*
X144944866Y-71215134D01*
X145170986Y-71400706D01*
X145235523Y-71435201D01*
X145118645Y-71504822D01*
X144902412Y-71699731D01*
X144728359Y-71933080D01*
X144603175Y-72195901D01*
X144558524Y-72343110D01*
X144679845Y-72573000D01*
X145873000Y-72573000D01*
X145873000Y-72553000D01*
X146127000Y-72553000D01*
X146127000Y-72573000D01*
X147320155Y-72573000D01*
X147441476Y-72343110D01*
X147396825Y-72195901D01*
X147271641Y-71933080D01*
X147097588Y-71699731D01*
X146881355Y-71504822D01*
X146764477Y-71435201D01*
X146829014Y-71400706D01*
X147055134Y-71215134D01*
X147240706Y-70989014D01*
X147378599Y-70731034D01*
X147463513Y-70451111D01*
X147492185Y-70160000D01*
X147463513Y-69868889D01*
X147378599Y-69588966D01*
X147240706Y-69330986D01*
X147055134Y-69104866D01*
X146829014Y-68919294D01*
X146774209Y-68890000D01*
X146829014Y-68860706D01*
X147055134Y-68675134D01*
X147240706Y-68449014D01*
X147378599Y-68191034D01*
X147463513Y-67911111D01*
X147492185Y-67620000D01*
X147463513Y-67328889D01*
X147378599Y-67048966D01*
X147240706Y-66790986D01*
X147055134Y-66564866D01*
X146829014Y-66379294D01*
X146774209Y-66350000D01*
X146829014Y-66320706D01*
X147055134Y-66135134D01*
X147240706Y-65909014D01*
X147378599Y-65651034D01*
X147463513Y-65371111D01*
X147492185Y-65080000D01*
X147463513Y-64788889D01*
X147378599Y-64508966D01*
X147240706Y-64250986D01*
X147055134Y-64024866D01*
X146829014Y-63839294D01*
X146774209Y-63810000D01*
X146829014Y-63780706D01*
X147055134Y-63595134D01*
X147240706Y-63369014D01*
X147378599Y-63111034D01*
X147463513Y-62831111D01*
X147492185Y-62540000D01*
X147463513Y-62248889D01*
X147378599Y-61968966D01*
X147240706Y-61710986D01*
X147055134Y-61484866D01*
X147025313Y-61460393D01*
X147094180Y-61439502D01*
X147204494Y-61380537D01*
X147301185Y-61301185D01*
X147380537Y-61204494D01*
X147439502Y-61094180D01*
X147475812Y-60974482D01*
X147488072Y-60850000D01*
X147488072Y-59150000D01*
X147475812Y-59025518D01*
X147439502Y-58905820D01*
X147380537Y-58795506D01*
X147301185Y-58698815D01*
X147204494Y-58619463D01*
X147094180Y-58560498D01*
X146974482Y-58524188D01*
X146850000Y-58511928D01*
X145150000Y-58511928D01*
X145025518Y-58524188D01*
X144905820Y-58560498D01*
X144795506Y-58619463D01*
X144698815Y-58698815D01*
X144687457Y-58712655D01*
X143963804Y-57989003D01*
X143940001Y-57959999D01*
X143824276Y-57865026D01*
X143692247Y-57794454D01*
X143548986Y-57750997D01*
X143437333Y-57740000D01*
X143437322Y-57740000D01*
X143400000Y-57736324D01*
X143362678Y-57740000D01*
X130037325Y-57740000D01*
X130000000Y-57736324D01*
X129962675Y-57740000D01*
X129962667Y-57740000D01*
X129851014Y-57750997D01*
X129707753Y-57794454D01*
X129575724Y-57865026D01*
X129459999Y-57959999D01*
X129455895Y-57965000D01*
X129398061Y-57965000D01*
X129198102Y-58004774D01*
X129009744Y-58082795D01*
X128840226Y-58196063D01*
X128696063Y-58340226D01*
X128582795Y-58509744D01*
X128504774Y-58698102D01*
X128465000Y-58898061D01*
X128465000Y-59101939D01*
X128504774Y-59301898D01*
X128539490Y-59385709D01*
X127960199Y-59965000D01*
X127898061Y-59965000D01*
X127698102Y-60004774D01*
X127509744Y-60082795D01*
X127340226Y-60196063D01*
X127260000Y-60276289D01*
X127260000Y-56007538D01*
X127398061Y-56035000D01*
X127601939Y-56035000D01*
X127801898Y-55995226D01*
X127990256Y-55917205D01*
X128159774Y-55803937D01*
X128203711Y-55760000D01*
X133296289Y-55760000D01*
X133340226Y-55803937D01*
X133509744Y-55917205D01*
X133698102Y-55995226D01*
X133898061Y-56035000D01*
X134101939Y-56035000D01*
X134301898Y-55995226D01*
X134315057Y-55989775D01*
X144189830Y-55989775D01*
X144429976Y-56377018D01*
X144923877Y-56637641D01*
X145459133Y-56796901D01*
X146015174Y-56848678D01*
X146570632Y-56790981D01*
X147104161Y-56626028D01*
X147570024Y-56377018D01*
X147810170Y-55989775D01*
X146000000Y-54179605D01*
X144189830Y-55989775D01*
X134315057Y-55989775D01*
X134490256Y-55917205D01*
X134659774Y-55803937D01*
X134803937Y-55659774D01*
X134917205Y-55490256D01*
X134995226Y-55301898D01*
X135035000Y-55101939D01*
X135035000Y-54898061D01*
X134995226Y-54698102D01*
X134917205Y-54509744D01*
X134803937Y-54340226D01*
X134659774Y-54196063D01*
X134490256Y-54082795D01*
X134327006Y-54015174D01*
X143151322Y-54015174D01*
X143209019Y-54570632D01*
X143373972Y-55104161D01*
X143622982Y-55570024D01*
X144010225Y-55810170D01*
X145820395Y-54000000D01*
X146179605Y-54000000D01*
X147989775Y-55810170D01*
X148377018Y-55570024D01*
X148637641Y-55076123D01*
X148796901Y-54540867D01*
X148848678Y-53984826D01*
X148790981Y-53429368D01*
X148626028Y-52895839D01*
X148377018Y-52429976D01*
X147989775Y-52189830D01*
X146179605Y-54000000D01*
X145820395Y-54000000D01*
X144010225Y-52189830D01*
X143622982Y-52429976D01*
X143362359Y-52923877D01*
X143203099Y-53459133D01*
X143151322Y-54015174D01*
X134327006Y-54015174D01*
X134301898Y-54004774D01*
X134101939Y-53965000D01*
X133898061Y-53965000D01*
X133698102Y-54004774D01*
X133509744Y-54082795D01*
X133340226Y-54196063D01*
X133296289Y-54240000D01*
X128203711Y-54240000D01*
X128159774Y-54196063D01*
X127990256Y-54082795D01*
X127801898Y-54004774D01*
X127601939Y-53965000D01*
X127398061Y-53965000D01*
X127198102Y-54004774D01*
X127009744Y-54082795D01*
X126840226Y-54196063D01*
X126805545Y-54230744D01*
X126563804Y-53989003D01*
X126540001Y-53959999D01*
X126424276Y-53865026D01*
X126292247Y-53794454D01*
X126148986Y-53750997D01*
X126037333Y-53740000D01*
X126037322Y-53740000D01*
X126000000Y-53736324D01*
X125962678Y-53740000D01*
X119703711Y-53740000D01*
X119659774Y-53696063D01*
X119490256Y-53582795D01*
X119301898Y-53504774D01*
X119101939Y-53465000D01*
X118898061Y-53465000D01*
X118698102Y-53504774D01*
X118509744Y-53582795D01*
X118340226Y-53696063D01*
X118196063Y-53840226D01*
X118082795Y-54009744D01*
X118004774Y-54198102D01*
X117965000Y-54398061D01*
X56810198Y-54398061D01*
X56848678Y-53984826D01*
X56790981Y-53429368D01*
X56626028Y-52895839D01*
X56377018Y-52429976D01*
X55989775Y-52189830D01*
X54179605Y-54000000D01*
X53820395Y-54000000D01*
X52010225Y-52189830D01*
X51622982Y-52429976D01*
X51362359Y-52923877D01*
X51203099Y-53459133D01*
X51151322Y-54015174D01*
X50660000Y-54015174D01*
X50660000Y-52010225D01*
X52189830Y-52010225D01*
X54000000Y-53820395D01*
X55810170Y-52010225D01*
X144189830Y-52010225D01*
X146000000Y-53820395D01*
X147810170Y-52010225D01*
X147570024Y-51622982D01*
X147076123Y-51362359D01*
X146540867Y-51203099D01*
X145984826Y-51151322D01*
X145429368Y-51209019D01*
X144895839Y-51373972D01*
X144429976Y-51622982D01*
X144189830Y-52010225D01*
X55810170Y-52010225D01*
X55570024Y-51622982D01*
X55076123Y-51362359D01*
X54540867Y-51203099D01*
X53984826Y-51151322D01*
X53429368Y-51209019D01*
X52895839Y-51373972D01*
X52429976Y-51622982D01*
X52189830Y-52010225D01*
X50660000Y-52010225D01*
X50660000Y-50660000D01*
X149340000Y-50660000D01*
X149340001Y-149340000D01*
M02*
