M48
; DRILL file {KiCad (5.1.0-0)} date Friday, April 19, 2019 at 11:51:14 PM
; FORMAT={-:-/ absolute / inch / decimal}
; #@! TF.CreationDate,2019-04-19T23:51:14-04:00
; #@! TF.GenerationSoftware,Kicad,Pcbnew,(5.1.0-0)
; #@! TF.FileFunction,Plated,1,2,PTH
FMAT,2
INCH
T1C0.0157
T2C0.0236
T3C0.0256
T4C0.0394
T5C0.0551
T6C0.0630
T7C0.0866
T8C0.1575
%
G90
G05
T1
X2.1112Y-4.1585
X2.3228Y-4.3898
X2.7756Y-4.2323
X2.7953Y-4.4094
X2.9331Y-4.4291
X3.0315Y-3.3661
X3.1299Y-3.248
X3.3465Y-3.622
X3.3465Y-4.3504
X3.3809Y-3.563
X3.4055Y-3.2283
X3.4055Y-4.4685
X3.4252Y-3.5039
X3.4252Y-4.3504
X3.4843Y-3.3661
X3.4843Y-3.4252
X3.5781Y-4.2762
X3.5827Y-3.4646
X3.6024Y-4.5669
X3.6024Y-4.9606
X3.7008Y-3.4055
X3.7795Y-3.5039
X3.7992Y-4.8031
X3.7992Y-4.8622
X3.8189Y-3.5039
X3.9961Y-2.7559
X4.0157Y-2.1457
X4.0354Y-2.7559
X4.0748Y-2.7559
X4.1142Y-2.7559
X4.1535Y-5.3543
X4.1535Y-2.7559
X4.1732Y-4.9016
X4.1746Y-3.1313
X4.1929Y-2.7559
X4.2362Y-3.0079
X4.2913Y-4.6457
X4.3307Y-5.4134
X4.3504Y-4.685
X4.3701Y-4.1339
X4.4094Y-5.4528
X4.4882Y-2.7362
X4.5669Y-4.1142
X4.5669Y-4.626
X4.6063Y-4.7244
X4.626Y-2.6772
X4.626Y-4.9803
X4.6457Y-5.7283
X4.6654Y-5.5512
X4.685Y-2.1457
X4.7047Y-2.7165
X4.7047Y-2.815
X4.8081Y-4.3848
X4.8228Y-4.5472
X4.8425Y-4.4882
X4.8425Y-4.8819
X4.8819Y-2.9921
X4.9016Y-3.1102
X4.9016Y-3.7008
X4.9409Y-3.0709
X4.9803Y-3.1496
X4.9803Y-3.6417
X5.0Y-3.2087
X5.0Y-4.8819
X5.0Y-5.2165
X5.0089Y-2.7953
X5.0197Y-2.1654
X5.0394Y-2.4016
X5.0591Y-3.7795
X5.0591Y-4.0551
X5.0591Y-4.4685
X5.0984Y-2.3228
X5.1181Y-3.1496
X5.1181Y-3.7795
X5.1575Y-3.1693
X5.1969Y-2.9528
X5.1969Y-3.7795
X5.2165Y-3.3661
X5.2343Y-2.815
X5.2362Y-3.0315
X5.2362Y-3.7795
X5.2391Y-3.1102
X5.2559Y-3.3858
X5.2756Y-2.1654
X5.2953Y-3.4252
X5.315Y-2.9921
X5.315Y-4.8425
X5.315Y-5.0591
X5.3543Y-4.8031
X5.4724Y-2.4409
X5.4724Y-5.374
X5.5118Y-2.185
X5.5906Y-4.8425
X5.5906Y-4.9606
X5.689Y-4.9606
X5.7087Y-4.1142
X2.061Y-5.748
X2.0801Y-5.7021
X2.0801Y-5.794
X2.126Y-5.6831
X2.126Y-5.813
X2.1719Y-5.7021
X2.1719Y-5.794
X2.1909Y-5.748
X5.6831Y-2.126
X5.7021Y-2.0801
X5.7021Y-2.1719
X5.748Y-2.061
X2.061Y-2.126
X5.794Y-5.794
X5.813Y-5.748
X2.0801Y-2.0801
X2.0801Y-2.1719
X2.126Y-2.061
X2.126Y-2.1909
X2.1719Y-2.0801
X2.1719Y-2.1719
X2.1909Y-2.126
X5.748Y-2.1909
X5.794Y-2.0801
X5.794Y-2.1719
X5.813Y-2.126
X5.6831Y-5.748
X5.7021Y-5.7021
X5.7021Y-5.794
X5.748Y-5.6831
X5.748Y-5.813
X5.794Y-5.7021
T3
X3.8232Y-5.7098
X4.0508Y-5.7098
T4
X5.748Y-3.0906
X5.748Y-3.1906
X5.748Y-3.2906
X5.748Y-3.3906
X5.748Y-3.4906
X4.4882Y-5.2126
X4.4882Y-5.3126
X5.748Y-2.3622
X5.748Y-2.4622
X5.748Y-2.5622
X5.748Y-2.6622
X5.748Y-2.7622
X5.748Y-2.8622
T5
X2.2382Y-5.2602
X2.5689Y-4.5235
X2.6163Y-4.8604
X2.7459Y-5.7511
X2.8303Y-5.1618
X3.1318Y-5.3759
X3.1318Y-4.8603
X3.1791Y-5.7127
X3.5098Y-4.976
T6
X2.7487Y-4.9928
X2.9993Y-5.2434
T7
X2.126Y-5.748
X5.748Y-5.748
X2.126Y-2.126
X5.748Y-2.126
T8
X2.4563Y-4.7004
X2.4563Y-5.5358
X3.2917Y-4.7004
X3.2917Y-5.5358
T2
G00X3.7669Y-5.6673
M15
G01X3.7669Y-5.7106
M16
G05
G00X3.7669Y-5.8417
M15
G01X3.7669Y-5.8654
M16
G05
G00X4.1071Y-5.6673
M15
G01X4.1071Y-5.7106
M16
G05
G00X4.1071Y-5.8417
M15
G01X4.1071Y-5.8654
M16
G05
T0
M30
