G04 #@! TF.GenerationSoftware,KiCad,Pcbnew,(5.1.0-0)*
G04 #@! TF.CreationDate,2019-04-19T23:51:10-04:00*
G04 #@! TF.ProjectId,thingb-eval-hw,7468696e-6762-42d6-9576-616c2d68772e,rev?*
G04 #@! TF.SameCoordinates,Original*
G04 #@! TF.FileFunction,Soldermask,Bot*
G04 #@! TF.FilePolarity,Negative*
%FSLAX46Y46*%
G04 Gerber Fmt 4.6, Leading zero omitted, Abs format (unit mm)*
G04 Created by KiCad (PCBNEW (5.1.0-0)) date 2019-04-19 23:51:10*
%MOMM*%
%LPD*%
G04 APERTURE LIST*
%ADD10C,0.100000*%
G04 APERTURE END LIST*
D10*
G36*
X95788014Y-147836973D02*
G01*
X95891878Y-147868479D01*
X95935907Y-147892013D01*
X95987599Y-147919643D01*
X95987601Y-147919644D01*
X95987600Y-147919644D01*
X96071501Y-147988499D01*
X96140356Y-148072400D01*
X96191521Y-148168121D01*
X96223027Y-148271985D01*
X96231000Y-148352933D01*
X96231000Y-149007067D01*
X96223027Y-149088015D01*
X96191521Y-149191879D01*
X96191519Y-149191882D01*
X96140357Y-149287600D01*
X96071501Y-149371501D01*
X95987600Y-149440357D01*
X95919055Y-149476995D01*
X95891879Y-149491521D01*
X95788015Y-149523027D01*
X95680000Y-149533666D01*
X95571986Y-149523027D01*
X95468122Y-149491521D01*
X95440946Y-149476995D01*
X95372401Y-149440357D01*
X95288500Y-149371501D01*
X95219645Y-149287601D01*
X95168480Y-149191879D01*
X95136973Y-149088015D01*
X95129000Y-149007067D01*
X95129000Y-148352934D01*
X95136973Y-148271986D01*
X95168479Y-148168122D01*
X95219644Y-148072400D01*
X95288499Y-147988499D01*
X95372400Y-147919644D01*
X95372399Y-147919644D01*
X95372401Y-147919643D01*
X95424093Y-147892013D01*
X95468121Y-147868479D01*
X95571985Y-147836973D01*
X95680000Y-147826334D01*
X95788014Y-147836973D01*
X95788014Y-147836973D01*
G37*
G36*
X104428014Y-147836973D02*
G01*
X104531878Y-147868479D01*
X104575907Y-147892013D01*
X104627599Y-147919643D01*
X104627601Y-147919644D01*
X104627600Y-147919644D01*
X104711501Y-147988499D01*
X104780356Y-148072400D01*
X104831521Y-148168121D01*
X104863027Y-148271985D01*
X104871000Y-148352933D01*
X104871000Y-149007067D01*
X104863027Y-149088015D01*
X104831521Y-149191879D01*
X104831519Y-149191882D01*
X104780357Y-149287600D01*
X104711501Y-149371501D01*
X104627600Y-149440357D01*
X104559055Y-149476995D01*
X104531879Y-149491521D01*
X104428015Y-149523027D01*
X104320000Y-149533666D01*
X104211986Y-149523027D01*
X104108122Y-149491521D01*
X104080946Y-149476995D01*
X104012401Y-149440357D01*
X103928500Y-149371501D01*
X103859645Y-149287601D01*
X103808480Y-149191879D01*
X103776973Y-149088015D01*
X103769000Y-149007067D01*
X103769000Y-148352934D01*
X103776973Y-148271986D01*
X103808479Y-148168122D01*
X103859644Y-148072400D01*
X103928499Y-147988499D01*
X104012400Y-147919644D01*
X104012399Y-147919644D01*
X104012401Y-147919643D01*
X104064093Y-147892013D01*
X104108121Y-147868479D01*
X104211985Y-147836973D01*
X104320000Y-147826334D01*
X104428014Y-147836973D01*
X104428014Y-147836973D01*
G37*
G36*
X146275880Y-143759776D02*
G01*
X146656593Y-143835504D01*
X147066249Y-144005189D01*
X147434929Y-144251534D01*
X147748466Y-144565071D01*
X147994811Y-144933751D01*
X148164496Y-145343407D01*
X148251000Y-145778296D01*
X148251000Y-146221704D01*
X148164496Y-146656593D01*
X147994811Y-147066249D01*
X147748466Y-147434929D01*
X147434929Y-147748466D01*
X147066249Y-147994811D01*
X146656593Y-148164496D01*
X146275880Y-148240224D01*
X146221705Y-148251000D01*
X145778295Y-148251000D01*
X145724120Y-148240224D01*
X145343407Y-148164496D01*
X144933751Y-147994811D01*
X144565071Y-147748466D01*
X144251534Y-147434929D01*
X144005189Y-147066249D01*
X143835504Y-146656593D01*
X143749000Y-146221704D01*
X143749000Y-145778296D01*
X143835504Y-145343407D01*
X144005189Y-144933751D01*
X144251534Y-144565071D01*
X144565071Y-144251534D01*
X144933751Y-144005189D01*
X145343407Y-143835504D01*
X145724120Y-143759776D01*
X145778295Y-143749000D01*
X146221705Y-143749000D01*
X146275880Y-143759776D01*
X146275880Y-143759776D01*
G37*
G36*
X54275880Y-143759776D02*
G01*
X54656593Y-143835504D01*
X55066249Y-144005189D01*
X55434929Y-144251534D01*
X55748466Y-144565071D01*
X55994811Y-144933751D01*
X56164496Y-145343407D01*
X56251000Y-145778296D01*
X56251000Y-146221704D01*
X56164496Y-146656593D01*
X55994811Y-147066249D01*
X55748466Y-147434929D01*
X55434929Y-147748466D01*
X55066249Y-147994811D01*
X54656593Y-148164496D01*
X54275880Y-148240224D01*
X54221705Y-148251000D01*
X53778295Y-148251000D01*
X53724120Y-148240224D01*
X53343407Y-148164496D01*
X52933751Y-147994811D01*
X52565071Y-147748466D01*
X52251534Y-147434929D01*
X52005189Y-147066249D01*
X51835504Y-146656593D01*
X51749000Y-146221704D01*
X51749000Y-145778296D01*
X51835504Y-145343407D01*
X52005189Y-144933751D01*
X52251534Y-144565071D01*
X52565071Y-144251534D01*
X52933751Y-144005189D01*
X53343407Y-143835504D01*
X53724120Y-143759776D01*
X53778295Y-143749000D01*
X54221705Y-143749000D01*
X54275880Y-143759776D01*
X54275880Y-143759776D01*
G37*
G36*
X69929678Y-144992966D02*
G01*
X70067150Y-145020311D01*
X70074170Y-145023219D01*
X70267520Y-145103307D01*
X70447844Y-145223795D01*
X70601205Y-145377156D01*
X70721693Y-145557480D01*
X70757795Y-145644639D01*
X70799109Y-145744378D01*
X70804689Y-145757851D01*
X70847000Y-145970560D01*
X70847000Y-146187440D01*
X70804689Y-146400149D01*
X70721693Y-146600520D01*
X70601205Y-146780844D01*
X70447844Y-146934205D01*
X70267520Y-147054693D01*
X70167334Y-147096191D01*
X70067150Y-147137689D01*
X69960794Y-147158845D01*
X69854440Y-147180000D01*
X69637560Y-147180000D01*
X69531206Y-147158845D01*
X69424850Y-147137689D01*
X69324666Y-147096191D01*
X69224480Y-147054693D01*
X69044156Y-146934205D01*
X68890795Y-146780844D01*
X68770307Y-146600520D01*
X68687311Y-146400149D01*
X68645000Y-146187440D01*
X68645000Y-145970560D01*
X68687311Y-145757851D01*
X68692892Y-145744378D01*
X68734205Y-145644639D01*
X68770307Y-145557480D01*
X68890795Y-145377156D01*
X69044156Y-145223795D01*
X69224480Y-145103307D01*
X69417830Y-145023219D01*
X69424850Y-145020311D01*
X69562322Y-144992966D01*
X69637560Y-144978000D01*
X69854440Y-144978000D01*
X69929678Y-144992966D01*
X69929678Y-144992966D01*
G37*
G36*
X80964794Y-144022155D02*
G01*
X81071150Y-144043311D01*
X81271520Y-144126307D01*
X81451844Y-144246795D01*
X81605205Y-144400156D01*
X81725693Y-144580480D01*
X81725693Y-144580481D01*
X81808689Y-144780850D01*
X81851000Y-144993561D01*
X81851000Y-145210439D01*
X81808689Y-145423150D01*
X81772567Y-145510356D01*
X81725693Y-145623520D01*
X81605205Y-145803844D01*
X81451844Y-145957205D01*
X81271520Y-146077693D01*
X81176704Y-146116967D01*
X81071150Y-146160689D01*
X80964795Y-146181844D01*
X80858440Y-146203000D01*
X80641560Y-146203000D01*
X80535205Y-146181844D01*
X80428850Y-146160689D01*
X80323296Y-146116967D01*
X80228480Y-146077693D01*
X80048156Y-145957205D01*
X79894795Y-145803844D01*
X79774307Y-145623520D01*
X79727433Y-145510356D01*
X79691311Y-145423150D01*
X79649000Y-145210439D01*
X79649000Y-144993561D01*
X79691311Y-144780850D01*
X79774307Y-144580481D01*
X79774307Y-144580480D01*
X79894795Y-144400156D01*
X80048156Y-144246795D01*
X80228480Y-144126307D01*
X80428850Y-144043311D01*
X80535206Y-144022155D01*
X80641560Y-144001000D01*
X80858440Y-144001000D01*
X80964794Y-144022155D01*
X80964794Y-144022155D01*
G37*
G36*
X104428014Y-143406973D02*
G01*
X104531878Y-143438479D01*
X104575907Y-143462013D01*
X104627599Y-143489643D01*
X104627601Y-143489644D01*
X104627600Y-143489644D01*
X104711501Y-143558499D01*
X104780356Y-143642400D01*
X104831521Y-143738121D01*
X104863027Y-143841985D01*
X104871000Y-143922933D01*
X104871000Y-145077067D01*
X104863027Y-145158015D01*
X104831521Y-145261879D01*
X104827348Y-145269686D01*
X104780357Y-145357600D01*
X104711501Y-145441501D01*
X104627600Y-145510357D01*
X104559055Y-145546995D01*
X104531879Y-145561521D01*
X104428015Y-145593027D01*
X104320000Y-145603666D01*
X104211986Y-145593027D01*
X104108122Y-145561521D01*
X104080946Y-145546995D01*
X104012401Y-145510357D01*
X103928500Y-145441501D01*
X103859644Y-145357600D01*
X103812653Y-145269686D01*
X103808480Y-145261879D01*
X103776974Y-145158015D01*
X103769001Y-145077067D01*
X103769000Y-143922934D01*
X103776973Y-143841986D01*
X103808479Y-143738122D01*
X103859644Y-143642400D01*
X103928499Y-143558499D01*
X104012400Y-143489644D01*
X104012399Y-143489644D01*
X104012401Y-143489643D01*
X104064093Y-143462013D01*
X104108121Y-143438479D01*
X104211985Y-143406973D01*
X104320000Y-143396334D01*
X104428014Y-143406973D01*
X104428014Y-143406973D01*
G37*
G36*
X95788014Y-143406973D02*
G01*
X95891878Y-143438479D01*
X95935907Y-143462013D01*
X95987599Y-143489643D01*
X95987601Y-143489644D01*
X95987600Y-143489644D01*
X96071501Y-143558499D01*
X96140356Y-143642400D01*
X96191521Y-143738121D01*
X96223027Y-143841985D01*
X96231000Y-143922933D01*
X96231000Y-145077067D01*
X96223027Y-145158015D01*
X96191521Y-145261879D01*
X96187348Y-145269686D01*
X96140357Y-145357600D01*
X96071501Y-145441501D01*
X95987600Y-145510357D01*
X95919055Y-145546995D01*
X95891879Y-145561521D01*
X95788015Y-145593027D01*
X95680000Y-145603666D01*
X95571986Y-145593027D01*
X95468122Y-145561521D01*
X95440946Y-145546995D01*
X95372401Y-145510357D01*
X95288500Y-145441501D01*
X95219644Y-145357600D01*
X95172653Y-145269686D01*
X95168480Y-145261879D01*
X95136974Y-145158015D01*
X95129001Y-145077067D01*
X95129000Y-143922934D01*
X95136973Y-143841986D01*
X95168479Y-143738122D01*
X95219644Y-143642400D01*
X95288499Y-143558499D01*
X95372400Y-143489644D01*
X95372399Y-143489644D01*
X95372401Y-143489643D01*
X95424093Y-143462013D01*
X95468121Y-143438479D01*
X95571985Y-143406973D01*
X95680000Y-143396334D01*
X95788014Y-143406973D01*
X95788014Y-143406973D01*
G37*
G36*
X102999672Y-144668449D02*
G01*
X102999674Y-144668450D01*
X102999675Y-144668450D01*
X103068103Y-144696793D01*
X103129686Y-144737942D01*
X103182058Y-144790314D01*
X103223207Y-144851897D01*
X103251550Y-144920325D01*
X103251551Y-144920328D01*
X103266000Y-144992966D01*
X103266000Y-145067034D01*
X103258785Y-145103307D01*
X103251550Y-145139675D01*
X103223207Y-145208103D01*
X103182058Y-145269686D01*
X103129686Y-145322058D01*
X103068103Y-145363207D01*
X102999675Y-145391550D01*
X102999674Y-145391550D01*
X102999672Y-145391551D01*
X102927034Y-145406000D01*
X102852966Y-145406000D01*
X102780328Y-145391551D01*
X102780326Y-145391550D01*
X102780325Y-145391550D01*
X102711897Y-145363207D01*
X102650314Y-145322058D01*
X102597942Y-145269686D01*
X102556793Y-145208103D01*
X102528450Y-145139675D01*
X102521216Y-145103307D01*
X102514000Y-145067034D01*
X102514000Y-144992966D01*
X102528449Y-144920328D01*
X102528450Y-144920325D01*
X102556793Y-144851897D01*
X102597942Y-144790314D01*
X102650314Y-144737942D01*
X102711897Y-144696793D01*
X102780325Y-144668450D01*
X102780326Y-144668450D01*
X102780328Y-144668449D01*
X102852966Y-144654000D01*
X102927034Y-144654000D01*
X102999672Y-144668449D01*
X102999672Y-144668449D01*
G37*
G36*
X97219672Y-144668449D02*
G01*
X97219674Y-144668450D01*
X97219675Y-144668450D01*
X97288103Y-144696793D01*
X97349686Y-144737942D01*
X97402058Y-144790314D01*
X97443207Y-144851897D01*
X97471550Y-144920325D01*
X97471551Y-144920328D01*
X97486000Y-144992966D01*
X97486000Y-145067034D01*
X97478785Y-145103307D01*
X97471550Y-145139675D01*
X97443207Y-145208103D01*
X97402058Y-145269686D01*
X97349686Y-145322058D01*
X97288103Y-145363207D01*
X97219675Y-145391550D01*
X97219674Y-145391550D01*
X97219672Y-145391551D01*
X97147034Y-145406000D01*
X97072966Y-145406000D01*
X97000328Y-145391551D01*
X97000326Y-145391550D01*
X97000325Y-145391550D01*
X96931897Y-145363207D01*
X96870314Y-145322058D01*
X96817942Y-145269686D01*
X96776793Y-145208103D01*
X96748450Y-145139675D01*
X96741216Y-145103307D01*
X96734000Y-145067034D01*
X96734000Y-144992966D01*
X96748449Y-144920328D01*
X96748450Y-144920325D01*
X96776793Y-144851897D01*
X96817942Y-144790314D01*
X96870314Y-144737942D01*
X96931897Y-144696793D01*
X97000325Y-144668450D01*
X97000326Y-144668450D01*
X97000328Y-144668449D01*
X97072966Y-144654000D01*
X97147034Y-144654000D01*
X97219672Y-144668449D01*
X97219672Y-144668449D01*
G37*
G36*
X83885880Y-138369776D02*
G01*
X84266593Y-138445504D01*
X84676249Y-138615189D01*
X85044929Y-138861534D01*
X85358466Y-139175071D01*
X85604811Y-139543751D01*
X85774496Y-139953407D01*
X85861000Y-140388296D01*
X85861000Y-140831704D01*
X85774496Y-141266593D01*
X85604811Y-141676249D01*
X85358466Y-142044929D01*
X85044929Y-142358466D01*
X84676249Y-142604811D01*
X84266593Y-142774496D01*
X83885880Y-142850224D01*
X83831705Y-142861000D01*
X83388295Y-142861000D01*
X83334120Y-142850224D01*
X82953407Y-142774496D01*
X82543751Y-142604811D01*
X82175071Y-142358466D01*
X81861534Y-142044929D01*
X81615189Y-141676249D01*
X81445504Y-141266593D01*
X81359000Y-140831704D01*
X81359000Y-140388296D01*
X81445504Y-139953407D01*
X81615189Y-139543751D01*
X81861534Y-139175071D01*
X82175071Y-138861534D01*
X82543751Y-138615189D01*
X82953407Y-138445504D01*
X83334120Y-138369776D01*
X83388295Y-138359000D01*
X83831705Y-138359000D01*
X83885880Y-138369776D01*
X83885880Y-138369776D01*
G37*
G36*
X62665880Y-138369776D02*
G01*
X63046593Y-138445504D01*
X63456249Y-138615189D01*
X63824929Y-138861534D01*
X64138466Y-139175071D01*
X64384811Y-139543751D01*
X64554496Y-139953407D01*
X64641000Y-140388296D01*
X64641000Y-140831704D01*
X64554496Y-141266593D01*
X64384811Y-141676249D01*
X64138466Y-142044929D01*
X63824929Y-142358466D01*
X63456249Y-142604811D01*
X63046593Y-142774496D01*
X62665880Y-142850224D01*
X62611705Y-142861000D01*
X62168295Y-142861000D01*
X62114120Y-142850224D01*
X61733407Y-142774496D01*
X61323751Y-142604811D01*
X60955071Y-142358466D01*
X60641534Y-142044929D01*
X60395189Y-141676249D01*
X60225504Y-141266593D01*
X60139000Y-140831704D01*
X60139000Y-140388296D01*
X60225504Y-139953407D01*
X60395189Y-139543751D01*
X60641534Y-139175071D01*
X60955071Y-138861534D01*
X61323751Y-138615189D01*
X61733407Y-138445504D01*
X62114120Y-138369776D01*
X62168295Y-138359000D01*
X62611705Y-138359000D01*
X62665880Y-138369776D01*
X62665880Y-138369776D01*
G37*
G36*
X79761794Y-135467155D02*
G01*
X79868150Y-135488311D01*
X79968334Y-135529809D01*
X80068520Y-135571307D01*
X80248844Y-135691795D01*
X80402205Y-135845156D01*
X80522693Y-136025480D01*
X80605689Y-136225851D01*
X80648000Y-136438560D01*
X80648000Y-136655440D01*
X80605689Y-136868149D01*
X80522693Y-137068520D01*
X80402205Y-137248844D01*
X80248844Y-137402205D01*
X80068520Y-137522693D01*
X79968334Y-137564191D01*
X79868150Y-137605689D01*
X79761795Y-137626844D01*
X79655440Y-137648000D01*
X79438560Y-137648000D01*
X79332205Y-137626844D01*
X79225850Y-137605689D01*
X79125666Y-137564191D01*
X79025480Y-137522693D01*
X78845156Y-137402205D01*
X78691795Y-137248844D01*
X78571307Y-137068520D01*
X78488311Y-136868149D01*
X78446000Y-136655440D01*
X78446000Y-136438560D01*
X78488311Y-136225851D01*
X78571307Y-136025480D01*
X78691795Y-135845156D01*
X78845156Y-135691795D01*
X79025480Y-135571307D01*
X79125666Y-135529809D01*
X79225850Y-135488311D01*
X79332206Y-135467155D01*
X79438560Y-135446000D01*
X79655440Y-135446000D01*
X79761794Y-135467155D01*
X79761794Y-135467155D01*
G37*
G36*
X114110442Y-134045518D02*
G01*
X114176627Y-134052037D01*
X114346466Y-134103557D01*
X114502991Y-134187222D01*
X114509556Y-134192610D01*
X114640186Y-134299814D01*
X114723448Y-134401271D01*
X114752778Y-134437009D01*
X114836443Y-134593534D01*
X114887963Y-134763373D01*
X114905359Y-134940000D01*
X114887963Y-135116627D01*
X114836443Y-135286466D01*
X114752778Y-135442991D01*
X114723448Y-135478729D01*
X114640186Y-135580186D01*
X114538729Y-135663448D01*
X114502991Y-135692778D01*
X114346466Y-135776443D01*
X114176627Y-135827963D01*
X114110442Y-135834482D01*
X114044260Y-135841000D01*
X113955740Y-135841000D01*
X113889558Y-135834482D01*
X113823373Y-135827963D01*
X113653534Y-135776443D01*
X113497009Y-135692778D01*
X113461271Y-135663448D01*
X113359814Y-135580186D01*
X113276552Y-135478729D01*
X113247222Y-135442991D01*
X113163557Y-135286466D01*
X113112037Y-135116627D01*
X113094641Y-134940000D01*
X113112037Y-134763373D01*
X113163557Y-134593534D01*
X113247222Y-134437009D01*
X113276552Y-134401271D01*
X113359814Y-134299814D01*
X113490444Y-134192610D01*
X113497009Y-134187222D01*
X113653534Y-134103557D01*
X113823373Y-134052037D01*
X113889558Y-134045518D01*
X113955740Y-134039000D01*
X114044260Y-134039000D01*
X114110442Y-134045518D01*
X114110442Y-134045518D01*
G37*
G36*
X57064795Y-132530156D02*
G01*
X57171150Y-132551311D01*
X57371520Y-132634307D01*
X57551844Y-132754795D01*
X57705205Y-132908156D01*
X57825693Y-133088480D01*
X57908689Y-133288851D01*
X57951000Y-133501560D01*
X57951000Y-133718440D01*
X57908689Y-133931149D01*
X57825693Y-134131520D01*
X57705205Y-134311844D01*
X57551844Y-134465205D01*
X57371520Y-134585693D01*
X57271334Y-134627191D01*
X57171150Y-134668689D01*
X57064794Y-134689845D01*
X56958440Y-134711000D01*
X56741560Y-134711000D01*
X56635206Y-134689845D01*
X56528850Y-134668689D01*
X56428666Y-134627191D01*
X56328480Y-134585693D01*
X56148156Y-134465205D01*
X55994795Y-134311844D01*
X55874307Y-134131520D01*
X55791311Y-133931149D01*
X55749000Y-133718440D01*
X55749000Y-133501560D01*
X55791311Y-133288851D01*
X55874307Y-133088480D01*
X55994795Y-132908156D01*
X56148156Y-132754795D01*
X56328480Y-132634307D01*
X56528850Y-132551311D01*
X56635205Y-132530156D01*
X56741560Y-132509000D01*
X56958440Y-132509000D01*
X57064795Y-132530156D01*
X57064795Y-132530156D01*
G37*
G36*
X76488564Y-132171389D02*
G01*
X76679833Y-132250615D01*
X76679835Y-132250616D01*
X76851973Y-132365635D01*
X76998365Y-132512027D01*
X77113385Y-132684167D01*
X77192611Y-132875436D01*
X77233000Y-133078484D01*
X77233000Y-133285516D01*
X77192611Y-133488564D01*
X77187227Y-133501561D01*
X77113384Y-133679835D01*
X76998365Y-133851973D01*
X76851973Y-133998365D01*
X76679835Y-134113384D01*
X76679834Y-134113385D01*
X76679833Y-134113385D01*
X76488564Y-134192611D01*
X76285516Y-134233000D01*
X76078484Y-134233000D01*
X75875436Y-134192611D01*
X75684167Y-134113385D01*
X75684166Y-134113385D01*
X75684165Y-134113384D01*
X75512027Y-133998365D01*
X75365635Y-133851973D01*
X75250616Y-133679835D01*
X75176773Y-133501561D01*
X75171389Y-133488564D01*
X75131000Y-133285516D01*
X75131000Y-133078484D01*
X75171389Y-132875436D01*
X75250615Y-132684167D01*
X75365635Y-132512027D01*
X75512027Y-132365635D01*
X75684165Y-132250616D01*
X75684167Y-132250615D01*
X75875436Y-132171389D01*
X76078484Y-132131000D01*
X76285516Y-132131000D01*
X76488564Y-132171389D01*
X76488564Y-132171389D01*
G37*
G36*
X114901000Y-133301000D02*
G01*
X113099000Y-133301000D01*
X113099000Y-131499000D01*
X114901000Y-131499000D01*
X114901000Y-133301000D01*
X114901000Y-133301000D01*
G37*
G36*
X72104794Y-130030155D02*
G01*
X72211150Y-130051311D01*
X72311334Y-130092809D01*
X72411520Y-130134307D01*
X72591844Y-130254795D01*
X72745205Y-130408156D01*
X72865693Y-130588480D01*
X72948689Y-130788851D01*
X72991000Y-131001560D01*
X72991000Y-131218440D01*
X72948689Y-131431149D01*
X72865693Y-131631520D01*
X72745205Y-131811844D01*
X72591844Y-131965205D01*
X72411520Y-132085693D01*
X72211150Y-132168689D01*
X72104794Y-132189845D01*
X71998440Y-132211000D01*
X71781560Y-132211000D01*
X71675206Y-132189845D01*
X71568850Y-132168689D01*
X71368480Y-132085693D01*
X71188156Y-131965205D01*
X71034795Y-131811844D01*
X70914307Y-131631520D01*
X70831311Y-131431149D01*
X70789000Y-131218440D01*
X70789000Y-131001560D01*
X70831311Y-130788851D01*
X70914307Y-130588480D01*
X71034795Y-130408156D01*
X71188156Y-130254795D01*
X71368480Y-130134307D01*
X71468666Y-130092809D01*
X71568850Y-130051311D01*
X71675206Y-130030155D01*
X71781560Y-130009000D01*
X71998440Y-130009000D01*
X72104794Y-130030155D01*
X72104794Y-130030155D01*
G37*
G36*
X70124564Y-125807389D02*
G01*
X70315833Y-125886615D01*
X70315835Y-125886616D01*
X70487973Y-126001635D01*
X70634365Y-126148027D01*
X70723590Y-126281561D01*
X70749385Y-126320167D01*
X70828611Y-126511436D01*
X70869000Y-126714484D01*
X70869000Y-126921516D01*
X70828611Y-127124564D01*
X70778641Y-127245202D01*
X70749384Y-127315835D01*
X70634365Y-127487973D01*
X70487973Y-127634365D01*
X70315835Y-127749384D01*
X70315834Y-127749385D01*
X70315833Y-127749385D01*
X70124564Y-127828611D01*
X69921516Y-127869000D01*
X69714484Y-127869000D01*
X69511436Y-127828611D01*
X69320167Y-127749385D01*
X69320166Y-127749385D01*
X69320165Y-127749384D01*
X69148027Y-127634365D01*
X69001635Y-127487973D01*
X68886616Y-127315835D01*
X68857359Y-127245202D01*
X68807389Y-127124564D01*
X68767000Y-126921516D01*
X68767000Y-126714484D01*
X68807389Y-126511436D01*
X68886615Y-126320167D01*
X68912411Y-126281561D01*
X69001635Y-126148027D01*
X69148027Y-126001635D01*
X69320165Y-125886616D01*
X69320167Y-125886615D01*
X69511436Y-125807389D01*
X69714484Y-125767000D01*
X69921516Y-125767000D01*
X70124564Y-125807389D01*
X70124564Y-125807389D01*
G37*
G36*
X89364795Y-125310156D02*
G01*
X89471150Y-125331311D01*
X89571334Y-125372809D01*
X89671520Y-125414307D01*
X89851844Y-125534795D01*
X90005205Y-125688156D01*
X90125693Y-125868480D01*
X90208689Y-126068851D01*
X90251000Y-126281560D01*
X90251000Y-126498440D01*
X90208689Y-126711149D01*
X90125693Y-126911520D01*
X90005205Y-127091844D01*
X89851844Y-127245205D01*
X89671520Y-127365693D01*
X89471150Y-127448689D01*
X89364794Y-127469845D01*
X89258440Y-127491000D01*
X89041560Y-127491000D01*
X88935206Y-127469845D01*
X88828850Y-127448689D01*
X88628480Y-127365693D01*
X88448156Y-127245205D01*
X88294795Y-127091844D01*
X88174307Y-126911520D01*
X88091311Y-126711149D01*
X88049000Y-126498440D01*
X88049000Y-126281560D01*
X88091311Y-126068851D01*
X88174307Y-125868480D01*
X88294795Y-125688156D01*
X88448156Y-125534795D01*
X88628480Y-125414307D01*
X88728666Y-125372809D01*
X88828850Y-125331311D01*
X88935205Y-125310156D01*
X89041560Y-125289000D01*
X89258440Y-125289000D01*
X89364795Y-125310156D01*
X89364795Y-125310156D01*
G37*
G36*
X66667795Y-122373156D02*
G01*
X66774150Y-122394311D01*
X66974520Y-122477307D01*
X67154844Y-122597795D01*
X67308205Y-122751156D01*
X67428693Y-122931480D01*
X67428693Y-122931481D01*
X67511275Y-123130850D01*
X67511689Y-123131851D01*
X67554000Y-123344560D01*
X67554000Y-123561440D01*
X67511689Y-123774149D01*
X67428693Y-123974520D01*
X67308205Y-124154844D01*
X67154844Y-124308205D01*
X66974520Y-124428693D01*
X66874334Y-124470191D01*
X66774150Y-124511689D01*
X66667794Y-124532845D01*
X66561440Y-124554000D01*
X66344560Y-124554000D01*
X66238206Y-124532845D01*
X66131850Y-124511689D01*
X66031666Y-124470191D01*
X65931480Y-124428693D01*
X65751156Y-124308205D01*
X65597795Y-124154844D01*
X65477307Y-123974520D01*
X65394311Y-123774149D01*
X65352000Y-123561440D01*
X65352000Y-123344560D01*
X65394311Y-123131851D01*
X65394726Y-123130850D01*
X65477307Y-122931481D01*
X65477307Y-122931480D01*
X65597795Y-122751156D01*
X65751156Y-122597795D01*
X65931480Y-122477307D01*
X66131850Y-122394311D01*
X66238205Y-122373156D01*
X66344560Y-122352000D01*
X66561440Y-122352000D01*
X66667795Y-122373156D01*
X66667795Y-122373156D01*
G37*
G36*
X79762795Y-122372156D02*
G01*
X79869150Y-122393311D01*
X79969334Y-122434809D01*
X80069520Y-122476307D01*
X80249844Y-122596795D01*
X80403205Y-122750156D01*
X80523693Y-122930480D01*
X80606689Y-123130850D01*
X80649000Y-123343561D01*
X80649000Y-123560439D01*
X80606689Y-123773150D01*
X80565191Y-123873334D01*
X80523693Y-123973520D01*
X80403205Y-124153844D01*
X80249844Y-124307205D01*
X80069520Y-124427693D01*
X79869150Y-124510689D01*
X79762795Y-124531844D01*
X79656440Y-124553000D01*
X79439560Y-124553000D01*
X79333205Y-124531844D01*
X79226850Y-124510689D01*
X79026480Y-124427693D01*
X78846156Y-124307205D01*
X78692795Y-124153844D01*
X78572307Y-123973520D01*
X78489311Y-123773150D01*
X78447000Y-123560439D01*
X78447000Y-123343561D01*
X78489311Y-123130850D01*
X78530809Y-123030666D01*
X78572307Y-122930480D01*
X78692795Y-122750156D01*
X78846156Y-122596795D01*
X79026480Y-122476307D01*
X79126666Y-122434809D01*
X79226850Y-122393311D01*
X79333205Y-122372156D01*
X79439560Y-122351000D01*
X79656440Y-122351000D01*
X79762795Y-122372156D01*
X79762795Y-122372156D01*
G37*
G36*
X62665880Y-117149776D02*
G01*
X63046593Y-117225504D01*
X63456249Y-117395189D01*
X63824929Y-117641534D01*
X64138466Y-117955071D01*
X64384811Y-118323751D01*
X64554496Y-118733407D01*
X64641000Y-119168296D01*
X64641000Y-119611704D01*
X64554496Y-120046593D01*
X64384811Y-120456249D01*
X64138466Y-120824929D01*
X63824929Y-121138466D01*
X63456249Y-121384811D01*
X63046593Y-121554496D01*
X62665880Y-121630224D01*
X62611705Y-121641000D01*
X62168295Y-121641000D01*
X62114120Y-121630224D01*
X61733407Y-121554496D01*
X61323751Y-121384811D01*
X60955071Y-121138466D01*
X60641534Y-120824929D01*
X60395189Y-120456249D01*
X60225504Y-120046593D01*
X60139000Y-119611704D01*
X60139000Y-119168296D01*
X60225504Y-118733407D01*
X60395189Y-118323751D01*
X60641534Y-117955071D01*
X60955071Y-117641534D01*
X61323751Y-117395189D01*
X61733407Y-117225504D01*
X62114120Y-117149776D01*
X62168295Y-117139000D01*
X62611705Y-117139000D01*
X62665880Y-117149776D01*
X62665880Y-117149776D01*
G37*
G36*
X83885880Y-117149776D02*
G01*
X84266593Y-117225504D01*
X84676249Y-117395189D01*
X85044929Y-117641534D01*
X85358466Y-117955071D01*
X85604811Y-118323751D01*
X85774496Y-118733407D01*
X85861000Y-119168296D01*
X85861000Y-119611704D01*
X85774496Y-120046593D01*
X85604811Y-120456249D01*
X85358466Y-120824929D01*
X85044929Y-121138466D01*
X84676249Y-121384811D01*
X84266593Y-121554496D01*
X83885880Y-121630224D01*
X83831705Y-121641000D01*
X83388295Y-121641000D01*
X83334120Y-121630224D01*
X82953407Y-121554496D01*
X82543751Y-121384811D01*
X82175071Y-121138466D01*
X81861534Y-120824929D01*
X81615189Y-120456249D01*
X81445504Y-120046593D01*
X81359000Y-119611704D01*
X81359000Y-119168296D01*
X81445504Y-118733407D01*
X81615189Y-118323751D01*
X81861534Y-117955071D01*
X82175071Y-117641534D01*
X82543751Y-117395189D01*
X82953407Y-117225504D01*
X83334120Y-117149776D01*
X83388295Y-117139000D01*
X83831705Y-117139000D01*
X83885880Y-117149776D01*
X83885880Y-117149776D01*
G37*
G36*
X65464795Y-113818156D02*
G01*
X65571150Y-113839311D01*
X65671334Y-113880809D01*
X65771520Y-113922307D01*
X65951844Y-114042795D01*
X66105205Y-114196156D01*
X66225693Y-114376480D01*
X66308689Y-114576851D01*
X66351000Y-114789560D01*
X66351000Y-115006440D01*
X66308689Y-115219149D01*
X66225693Y-115419520D01*
X66105205Y-115599844D01*
X65951844Y-115753205D01*
X65771520Y-115873693D01*
X65571150Y-115956689D01*
X65464794Y-115977845D01*
X65358440Y-115999000D01*
X65141560Y-115999000D01*
X65035206Y-115977845D01*
X64928850Y-115956689D01*
X64728480Y-115873693D01*
X64548156Y-115753205D01*
X64394795Y-115599844D01*
X64274307Y-115419520D01*
X64191311Y-115219149D01*
X64149000Y-115006440D01*
X64149000Y-114789560D01*
X64191311Y-114576851D01*
X64274307Y-114376480D01*
X64394795Y-114196156D01*
X64548156Y-114042795D01*
X64728480Y-113922307D01*
X64828666Y-113880809D01*
X64928850Y-113839311D01*
X65035205Y-113818156D01*
X65141560Y-113797000D01*
X65358440Y-113797000D01*
X65464795Y-113818156D01*
X65464795Y-113818156D01*
G37*
G36*
X146110443Y-87765519D02*
G01*
X146176627Y-87772037D01*
X146346466Y-87823557D01*
X146502991Y-87907222D01*
X146538729Y-87936552D01*
X146640186Y-88019814D01*
X146723448Y-88121271D01*
X146752778Y-88157009D01*
X146836443Y-88313534D01*
X146887963Y-88483373D01*
X146905359Y-88660000D01*
X146887963Y-88836627D01*
X146836443Y-89006466D01*
X146752778Y-89162991D01*
X146723448Y-89198729D01*
X146640186Y-89300186D01*
X146538729Y-89383448D01*
X146502991Y-89412778D01*
X146346466Y-89496443D01*
X146176627Y-89547963D01*
X146110443Y-89554481D01*
X146044260Y-89561000D01*
X145955740Y-89561000D01*
X145889557Y-89554481D01*
X145823373Y-89547963D01*
X145653534Y-89496443D01*
X145497009Y-89412778D01*
X145461271Y-89383448D01*
X145359814Y-89300186D01*
X145276552Y-89198729D01*
X145247222Y-89162991D01*
X145163557Y-89006466D01*
X145112037Y-88836627D01*
X145094641Y-88660000D01*
X145112037Y-88483373D01*
X145163557Y-88313534D01*
X145247222Y-88157009D01*
X145276552Y-88121271D01*
X145359814Y-88019814D01*
X145461271Y-87936552D01*
X145497009Y-87907222D01*
X145653534Y-87823557D01*
X145823373Y-87772037D01*
X145889557Y-87765519D01*
X145955740Y-87759000D01*
X146044260Y-87759000D01*
X146110443Y-87765519D01*
X146110443Y-87765519D01*
G37*
G36*
X146110442Y-85225518D02*
G01*
X146176627Y-85232037D01*
X146346466Y-85283557D01*
X146502991Y-85367222D01*
X146538729Y-85396552D01*
X146640186Y-85479814D01*
X146723448Y-85581271D01*
X146752778Y-85617009D01*
X146836443Y-85773534D01*
X146887963Y-85943373D01*
X146905359Y-86120000D01*
X146887963Y-86296627D01*
X146836443Y-86466466D01*
X146752778Y-86622991D01*
X146723448Y-86658729D01*
X146640186Y-86760186D01*
X146538729Y-86843448D01*
X146502991Y-86872778D01*
X146346466Y-86956443D01*
X146176627Y-87007963D01*
X146110442Y-87014482D01*
X146044260Y-87021000D01*
X145955740Y-87021000D01*
X145889558Y-87014482D01*
X145823373Y-87007963D01*
X145653534Y-86956443D01*
X145497009Y-86872778D01*
X145461271Y-86843448D01*
X145359814Y-86760186D01*
X145276552Y-86658729D01*
X145247222Y-86622991D01*
X145163557Y-86466466D01*
X145112037Y-86296627D01*
X145094641Y-86120000D01*
X145112037Y-85943373D01*
X145163557Y-85773534D01*
X145247222Y-85617009D01*
X145276552Y-85581271D01*
X145359814Y-85479814D01*
X145461271Y-85396552D01*
X145497009Y-85367222D01*
X145653534Y-85283557D01*
X145823373Y-85232037D01*
X145889558Y-85225518D01*
X145955740Y-85219000D01*
X146044260Y-85219000D01*
X146110442Y-85225518D01*
X146110442Y-85225518D01*
G37*
G36*
X146110443Y-82685519D02*
G01*
X146176627Y-82692037D01*
X146346466Y-82743557D01*
X146502991Y-82827222D01*
X146538729Y-82856552D01*
X146640186Y-82939814D01*
X146723448Y-83041271D01*
X146752778Y-83077009D01*
X146836443Y-83233534D01*
X146887963Y-83403373D01*
X146905359Y-83580000D01*
X146887963Y-83756627D01*
X146836443Y-83926466D01*
X146752778Y-84082991D01*
X146723448Y-84118729D01*
X146640186Y-84220186D01*
X146538729Y-84303448D01*
X146502991Y-84332778D01*
X146346466Y-84416443D01*
X146176627Y-84467963D01*
X146110442Y-84474482D01*
X146044260Y-84481000D01*
X145955740Y-84481000D01*
X145889558Y-84474482D01*
X145823373Y-84467963D01*
X145653534Y-84416443D01*
X145497009Y-84332778D01*
X145461271Y-84303448D01*
X145359814Y-84220186D01*
X145276552Y-84118729D01*
X145247222Y-84082991D01*
X145163557Y-83926466D01*
X145112037Y-83756627D01*
X145094641Y-83580000D01*
X145112037Y-83403373D01*
X145163557Y-83233534D01*
X145247222Y-83077009D01*
X145276552Y-83041271D01*
X145359814Y-82939814D01*
X145461271Y-82856552D01*
X145497009Y-82827222D01*
X145653534Y-82743557D01*
X145823373Y-82692037D01*
X145889557Y-82685519D01*
X145955740Y-82679000D01*
X146044260Y-82679000D01*
X146110443Y-82685519D01*
X146110443Y-82685519D01*
G37*
G36*
X146110442Y-80145518D02*
G01*
X146176627Y-80152037D01*
X146346466Y-80203557D01*
X146502991Y-80287222D01*
X146538729Y-80316552D01*
X146640186Y-80399814D01*
X146723448Y-80501271D01*
X146752778Y-80537009D01*
X146836443Y-80693534D01*
X146887963Y-80863373D01*
X146905359Y-81040000D01*
X146887963Y-81216627D01*
X146836443Y-81386466D01*
X146752778Y-81542991D01*
X146723448Y-81578729D01*
X146640186Y-81680186D01*
X146538729Y-81763448D01*
X146502991Y-81792778D01*
X146346466Y-81876443D01*
X146176627Y-81927963D01*
X146110443Y-81934481D01*
X146044260Y-81941000D01*
X145955740Y-81941000D01*
X145889557Y-81934481D01*
X145823373Y-81927963D01*
X145653534Y-81876443D01*
X145497009Y-81792778D01*
X145461271Y-81763448D01*
X145359814Y-81680186D01*
X145276552Y-81578729D01*
X145247222Y-81542991D01*
X145163557Y-81386466D01*
X145112037Y-81216627D01*
X145094641Y-81040000D01*
X145112037Y-80863373D01*
X145163557Y-80693534D01*
X145247222Y-80537009D01*
X145276552Y-80501271D01*
X145359814Y-80399814D01*
X145461271Y-80316552D01*
X145497009Y-80287222D01*
X145653534Y-80203557D01*
X145823373Y-80152037D01*
X145889558Y-80145518D01*
X145955740Y-80139000D01*
X146044260Y-80139000D01*
X146110442Y-80145518D01*
X146110442Y-80145518D01*
G37*
G36*
X146901000Y-79401000D02*
G01*
X145099000Y-79401000D01*
X145099000Y-77599000D01*
X146901000Y-77599000D01*
X146901000Y-79401000D01*
X146901000Y-79401000D01*
G37*
G36*
X146110442Y-71805518D02*
G01*
X146176627Y-71812037D01*
X146346466Y-71863557D01*
X146502991Y-71947222D01*
X146538729Y-71976552D01*
X146640186Y-72059814D01*
X146723448Y-72161271D01*
X146752778Y-72197009D01*
X146836443Y-72353534D01*
X146887963Y-72523373D01*
X146905359Y-72700000D01*
X146887963Y-72876627D01*
X146836443Y-73046466D01*
X146752778Y-73202991D01*
X146723448Y-73238729D01*
X146640186Y-73340186D01*
X146538729Y-73423448D01*
X146502991Y-73452778D01*
X146346466Y-73536443D01*
X146176627Y-73587963D01*
X146110443Y-73594481D01*
X146044260Y-73601000D01*
X145955740Y-73601000D01*
X145889557Y-73594481D01*
X145823373Y-73587963D01*
X145653534Y-73536443D01*
X145497009Y-73452778D01*
X145461271Y-73423448D01*
X145359814Y-73340186D01*
X145276552Y-73238729D01*
X145247222Y-73202991D01*
X145163557Y-73046466D01*
X145112037Y-72876627D01*
X145094641Y-72700000D01*
X145112037Y-72523373D01*
X145163557Y-72353534D01*
X145247222Y-72197009D01*
X145276552Y-72161271D01*
X145359814Y-72059814D01*
X145461271Y-71976552D01*
X145497009Y-71947222D01*
X145653534Y-71863557D01*
X145823373Y-71812037D01*
X145889558Y-71805518D01*
X145955740Y-71799000D01*
X146044260Y-71799000D01*
X146110442Y-71805518D01*
X146110442Y-71805518D01*
G37*
G36*
X146110443Y-69265519D02*
G01*
X146176627Y-69272037D01*
X146346466Y-69323557D01*
X146502991Y-69407222D01*
X146538729Y-69436552D01*
X146640186Y-69519814D01*
X146723448Y-69621271D01*
X146752778Y-69657009D01*
X146836443Y-69813534D01*
X146887963Y-69983373D01*
X146905359Y-70160000D01*
X146887963Y-70336627D01*
X146836443Y-70506466D01*
X146752778Y-70662991D01*
X146723448Y-70698729D01*
X146640186Y-70800186D01*
X146538729Y-70883448D01*
X146502991Y-70912778D01*
X146346466Y-70996443D01*
X146176627Y-71047963D01*
X146110442Y-71054482D01*
X146044260Y-71061000D01*
X145955740Y-71061000D01*
X145889558Y-71054482D01*
X145823373Y-71047963D01*
X145653534Y-70996443D01*
X145497009Y-70912778D01*
X145461271Y-70883448D01*
X145359814Y-70800186D01*
X145276552Y-70698729D01*
X145247222Y-70662991D01*
X145163557Y-70506466D01*
X145112037Y-70336627D01*
X145094641Y-70160000D01*
X145112037Y-69983373D01*
X145163557Y-69813534D01*
X145247222Y-69657009D01*
X145276552Y-69621271D01*
X145359814Y-69519814D01*
X145461271Y-69436552D01*
X145497009Y-69407222D01*
X145653534Y-69323557D01*
X145823373Y-69272037D01*
X145889557Y-69265519D01*
X145955740Y-69259000D01*
X146044260Y-69259000D01*
X146110443Y-69265519D01*
X146110443Y-69265519D01*
G37*
G36*
X146110443Y-66725519D02*
G01*
X146176627Y-66732037D01*
X146346466Y-66783557D01*
X146502991Y-66867222D01*
X146538729Y-66896552D01*
X146640186Y-66979814D01*
X146723448Y-67081271D01*
X146752778Y-67117009D01*
X146836443Y-67273534D01*
X146887963Y-67443373D01*
X146905359Y-67620000D01*
X146887963Y-67796627D01*
X146836443Y-67966466D01*
X146752778Y-68122991D01*
X146723448Y-68158729D01*
X146640186Y-68260186D01*
X146538729Y-68343448D01*
X146502991Y-68372778D01*
X146346466Y-68456443D01*
X146176627Y-68507963D01*
X146110442Y-68514482D01*
X146044260Y-68521000D01*
X145955740Y-68521000D01*
X145889558Y-68514482D01*
X145823373Y-68507963D01*
X145653534Y-68456443D01*
X145497009Y-68372778D01*
X145461271Y-68343448D01*
X145359814Y-68260186D01*
X145276552Y-68158729D01*
X145247222Y-68122991D01*
X145163557Y-67966466D01*
X145112037Y-67796627D01*
X145094641Y-67620000D01*
X145112037Y-67443373D01*
X145163557Y-67273534D01*
X145247222Y-67117009D01*
X145276552Y-67081271D01*
X145359814Y-66979814D01*
X145461271Y-66896552D01*
X145497009Y-66867222D01*
X145653534Y-66783557D01*
X145823373Y-66732037D01*
X145889557Y-66725519D01*
X145955740Y-66719000D01*
X146044260Y-66719000D01*
X146110443Y-66725519D01*
X146110443Y-66725519D01*
G37*
G36*
X146110442Y-64185518D02*
G01*
X146176627Y-64192037D01*
X146346466Y-64243557D01*
X146502991Y-64327222D01*
X146538729Y-64356552D01*
X146640186Y-64439814D01*
X146723448Y-64541271D01*
X146752778Y-64577009D01*
X146836443Y-64733534D01*
X146887963Y-64903373D01*
X146905359Y-65080000D01*
X146887963Y-65256627D01*
X146836443Y-65426466D01*
X146752778Y-65582991D01*
X146723448Y-65618729D01*
X146640186Y-65720186D01*
X146538729Y-65803448D01*
X146502991Y-65832778D01*
X146346466Y-65916443D01*
X146176627Y-65967963D01*
X146110443Y-65974481D01*
X146044260Y-65981000D01*
X145955740Y-65981000D01*
X145889557Y-65974481D01*
X145823373Y-65967963D01*
X145653534Y-65916443D01*
X145497009Y-65832778D01*
X145461271Y-65803448D01*
X145359814Y-65720186D01*
X145276552Y-65618729D01*
X145247222Y-65582991D01*
X145163557Y-65426466D01*
X145112037Y-65256627D01*
X145094641Y-65080000D01*
X145112037Y-64903373D01*
X145163557Y-64733534D01*
X145247222Y-64577009D01*
X145276552Y-64541271D01*
X145359814Y-64439814D01*
X145461271Y-64356552D01*
X145497009Y-64327222D01*
X145653534Y-64243557D01*
X145823373Y-64192037D01*
X145889558Y-64185518D01*
X145955740Y-64179000D01*
X146044260Y-64179000D01*
X146110442Y-64185518D01*
X146110442Y-64185518D01*
G37*
G36*
X146110443Y-61645519D02*
G01*
X146176627Y-61652037D01*
X146346466Y-61703557D01*
X146502991Y-61787222D01*
X146538729Y-61816552D01*
X146640186Y-61899814D01*
X146723448Y-62001271D01*
X146752778Y-62037009D01*
X146836443Y-62193534D01*
X146887963Y-62363373D01*
X146905359Y-62540000D01*
X146887963Y-62716627D01*
X146836443Y-62886466D01*
X146752778Y-63042991D01*
X146723448Y-63078729D01*
X146640186Y-63180186D01*
X146538729Y-63263448D01*
X146502991Y-63292778D01*
X146346466Y-63376443D01*
X146176627Y-63427963D01*
X146110443Y-63434481D01*
X146044260Y-63441000D01*
X145955740Y-63441000D01*
X145889557Y-63434481D01*
X145823373Y-63427963D01*
X145653534Y-63376443D01*
X145497009Y-63292778D01*
X145461271Y-63263448D01*
X145359814Y-63180186D01*
X145276552Y-63078729D01*
X145247222Y-63042991D01*
X145163557Y-62886466D01*
X145112037Y-62716627D01*
X145094641Y-62540000D01*
X145112037Y-62363373D01*
X145163557Y-62193534D01*
X145247222Y-62037009D01*
X145276552Y-62001271D01*
X145359814Y-61899814D01*
X145461271Y-61816552D01*
X145497009Y-61787222D01*
X145653534Y-61703557D01*
X145823373Y-61652037D01*
X145889557Y-61645519D01*
X145955740Y-61639000D01*
X146044260Y-61639000D01*
X146110443Y-61645519D01*
X146110443Y-61645519D01*
G37*
G36*
X146901000Y-60901000D02*
G01*
X145099000Y-60901000D01*
X145099000Y-59099000D01*
X146901000Y-59099000D01*
X146901000Y-60901000D01*
X146901000Y-60901000D01*
G37*
G36*
X54275880Y-51759776D02*
G01*
X54656593Y-51835504D01*
X55066249Y-52005189D01*
X55434929Y-52251534D01*
X55748466Y-52565071D01*
X55994811Y-52933751D01*
X56164496Y-53343407D01*
X56251000Y-53778296D01*
X56251000Y-54221704D01*
X56164496Y-54656593D01*
X55994811Y-55066249D01*
X55748466Y-55434929D01*
X55434929Y-55748466D01*
X55066249Y-55994811D01*
X54656593Y-56164496D01*
X54275880Y-56240224D01*
X54221705Y-56251000D01*
X53778295Y-56251000D01*
X53724120Y-56240224D01*
X53343407Y-56164496D01*
X52933751Y-55994811D01*
X52565071Y-55748466D01*
X52251534Y-55434929D01*
X52005189Y-55066249D01*
X51835504Y-54656593D01*
X51749000Y-54221704D01*
X51749000Y-53778296D01*
X51835504Y-53343407D01*
X52005189Y-52933751D01*
X52251534Y-52565071D01*
X52565071Y-52251534D01*
X52933751Y-52005189D01*
X53343407Y-51835504D01*
X53724120Y-51759776D01*
X53778295Y-51749000D01*
X54221705Y-51749000D01*
X54275880Y-51759776D01*
X54275880Y-51759776D01*
G37*
G36*
X146275880Y-51759776D02*
G01*
X146656593Y-51835504D01*
X147066249Y-52005189D01*
X147434929Y-52251534D01*
X147748466Y-52565071D01*
X147994811Y-52933751D01*
X148164496Y-53343407D01*
X148251000Y-53778296D01*
X148251000Y-54221704D01*
X148164496Y-54656593D01*
X147994811Y-55066249D01*
X147748466Y-55434929D01*
X147434929Y-55748466D01*
X147066249Y-55994811D01*
X146656593Y-56164496D01*
X146275880Y-56240224D01*
X146221705Y-56251000D01*
X145778295Y-56251000D01*
X145724120Y-56240224D01*
X145343407Y-56164496D01*
X144933751Y-55994811D01*
X144565071Y-55748466D01*
X144251534Y-55434929D01*
X144005189Y-55066249D01*
X143835504Y-54656593D01*
X143749000Y-54221704D01*
X143749000Y-53778296D01*
X143835504Y-53343407D01*
X144005189Y-52933751D01*
X144251534Y-52565071D01*
X144565071Y-52251534D01*
X144933751Y-52005189D01*
X145343407Y-51835504D01*
X145724120Y-51759776D01*
X145778295Y-51749000D01*
X146221705Y-51749000D01*
X146275880Y-51759776D01*
X146275880Y-51759776D01*
G37*
M02*
